<svg width="189" height="32" viewBox="0 0 189 32" fill="none" xmlns="http://www.w3.org/2000/svg">
<g id="qiyas-logo 1" clip-path="url(#clip0_1945_44959)">
<g id="Group 3949">
<g id="Clip path group">
<mask id="mask0_1945_44959" style="mask-type:luminance" maskUnits="userSpaceOnUse" x="0" y="0" width="189" height="32">
<g id="clip-path">
<path id="Rectangle 1725" d="M189 0H0V32H189V0Z" fill="white"/>
</g>
</mask>
<g mask="url(#mask0_1945_44959)">
<g id="Group 3948">
<path id="Path 6649" d="M15.678 10.5131H13.8047C13.7839 10.5101 13.7627 10.5121 13.7427 10.5187C13.7228 10.5254 13.7047 10.5366 13.6898 10.5514C13.6749 10.5663 13.6637 10.5844 13.6571 10.6043C13.6504 10.6242 13.6484 10.6454 13.6514 10.6662V14.0088C13.6514 14.2129 13.6456 14.3845 13.636 14.5227C13.6311 14.6402 13.5995 14.7551 13.5437 14.8586C13.4911 14.9468 13.4098 15.0143 13.3134 15.0499C13.17 15.0971 13.0192 15.1179 12.8684 15.1113C12.6208 15.1154 12.3759 15.0604 12.1541 14.9506C11.9439 14.844 11.8388 14.6169 11.8388 14.2694V11.7702C11.8418 11.7494 11.8399 11.7281 11.8332 11.7081C11.8265 11.6881 11.8153 11.67 11.8003 11.6551C11.7854 11.6402 11.7672 11.629 11.7472 11.6223C11.7272 11.6156 11.7059 11.6137 11.6851 11.6167H9.81263C9.79175 11.6137 9.77046 11.6156 9.75045 11.6223C9.73044 11.629 9.71226 11.6402 9.69734 11.6551C9.68242 11.67 9.67118 11.6881 9.66451 11.7081C9.65783 11.7281 9.6559 11.7494 9.65888 11.7702V14.0241C9.66071 14.1957 9.65329 14.3672 9.63663 14.538C9.62842 14.6538 9.59444 14.7663 9.53716 14.8673C9.47682 14.9563 9.38715 15.0214 9.28372 15.0513C9.13234 15.0969 8.97451 15.1176 8.81645 15.1126C8.58053 15.1151 8.34791 15.057 8.14091 14.9439C8.03272 14.8741 7.94648 14.7752 7.89211 14.6586C7.83775 14.5419 7.81748 14.4123 7.83363 14.2847V11.7702C7.83658 11.7494 7.83466 11.7282 7.82801 11.7082C7.82136 11.6883 7.81016 11.6702 7.79529 11.6553C7.78043 11.6404 7.76231 11.6292 7.74236 11.6225C7.72241 11.6158 7.70117 11.6138 7.68032 11.6167H5.80523C5.78433 11.6137 5.76302 11.6155 5.74299 11.6222C5.72296 11.6288 5.70476 11.6401 5.68983 11.655C5.6749 11.6699 5.66366 11.6881 5.65701 11.7081C5.65035 11.7281 5.64845 11.7493 5.65147 11.7702V16.5384C5.65147 17.1719 5.50313 17.6344 5.20645 17.9259C5.04125 18.0769 4.84744 18.1934 4.63645 18.2684C4.42547 18.3434 4.20157 18.3755 3.97797 18.3628C3.76169 18.3625 3.54673 18.329 3.34071 18.2632C3.12963 18.196 2.93582 18.0836 2.77286 17.9337C2.59443 17.767 2.45541 17.5626 2.36589 17.3356C2.25571 17.0471 2.20362 16.7397 2.21258 16.431C2.20667 16.02 2.26893 15.6109 2.39682 15.2201C2.50844 14.8896 2.64225 14.5669 2.79734 14.2543C2.81614 14.2189 2.8239 14.1788 2.81959 14.139C2.81425 14.1036 2.78599 14.0759 2.73526 14.055L1.07622 13.5179C0.963632 13.4873 0.886717 13.5026 0.845479 13.5639C0.569015 14.0169 0.359617 14.5075 0.223786 15.0204C0.0792744 15.5346 0.00443815 16.0658 0.001276 16.5999C-0.0131005 17.1703 0.094147 17.7373 0.315905 18.2632C0.506767 18.703 0.798729 19.0917 1.16812 19.3977C1.53742 19.6948 1.96321 19.914 2.41974 20.0421C2.91173 20.1822 3.42118 20.2519 3.93281 20.2489C4.44936 20.2524 4.96381 20.1828 5.46078 20.0421C5.91335 19.916 6.33437 19.6965 6.6966 19.3977C7.05397 19.0936 7.33527 18.7104 7.51811 18.2785C7.73067 17.7557 7.83271 17.1947 7.81783 16.6306V16.4306C7.96521 16.6081 8.15532 16.7452 8.37032 16.8292C8.63508 16.9283 8.91654 16.9752 9.19917 16.9674H9.79817C10.2016 16.9823 10.6045 16.9252 10.9879 16.7988C11.1346 16.7409 11.2681 16.654 11.3802 16.5432C11.4924 16.4325 11.5809 16.3002 11.6406 16.1544C11.7743 16.4005 11.9736 16.6048 12.2164 16.7448C12.5157 16.9046 12.8525 16.9814 13.1917 16.967H14.035C14.6798 16.967 15.1406 16.8114 15.4172 16.5004C15.6939 16.1893 15.832 15.7013 15.8317 15.0364V10.6662C15.8346 10.6453 15.8327 10.6241 15.826 10.6042C15.8192 10.5843 15.808 10.5662 15.7931 10.5513C15.7782 10.5365 15.76 10.5253 15.7401 10.5187C15.7201 10.512 15.6988 10.5101 15.678 10.5131Z" fill="#4C3C8D"/>
<path id="Path 6650" d="M23.4022 19.957V18.4557C23.4051 18.4348 23.4032 18.4136 23.3965 18.3936C23.3899 18.3736 23.3786 18.3554 23.3637 18.3405C23.3488 18.3256 23.3306 18.3144 23.3106 18.3078C23.2906 18.3011 23.2693 18.2992 23.2484 18.3021H21.7131C21.6923 18.2992 21.671 18.3011 21.651 18.3078C21.6311 18.3145 21.6129 18.3257 21.5981 18.3406C21.5832 18.3555 21.572 18.3737 21.5654 18.3937C21.5588 18.4136 21.557 18.4349 21.56 18.4557V19.957C21.557 19.9778 21.5588 19.999 21.5654 20.019C21.572 20.039 21.5832 20.0571 21.5981 20.072C21.6129 20.0869 21.6311 20.0982 21.651 20.1048C21.671 20.1115 21.6923 20.1135 21.7131 20.1105H23.2484C23.2693 20.1134 23.2906 20.1115 23.3106 20.1048C23.3305 20.0981 23.3487 20.0869 23.3636 20.072C23.3785 20.0571 23.3898 20.039 23.3964 20.019C23.4031 19.9991 23.4051 19.9778 23.4022 19.957Z" fill="#4C3C8D"/>
<path id="Rectangle 1723" d="M24.0173 18.3027H25.6846C25.7099 18.3027 25.7342 18.3128 25.7521 18.3307C25.77 18.3485 25.7801 18.3728 25.7801 18.3981V20.0163C25.7801 20.0416 25.77 20.0659 25.752 20.0838C25.7341 20.1017 25.7098 20.1118 25.6844 20.1118H24.0176C23.9922 20.1118 23.9678 20.1017 23.9499 20.0838C23.932 20.0659 23.9219 20.0416 23.9219 20.0163V18.3981C23.9219 18.3728 23.9319 18.3485 23.9498 18.3307C23.9677 18.3128 23.992 18.3027 24.0173 18.3027Z" fill="#4C3C8D"/>
<path id="Path 6651" d="M31.1234 8.96471H32.6743C32.6952 8.96767 32.7164 8.96574 32.7364 8.9591C32.7563 8.95246 32.7745 8.94128 32.7894 8.92644C32.8043 8.91159 32.8156 8.8935 32.8223 8.87358C32.829 8.85365 32.831 8.83245 32.8281 8.81163V7.30874C32.831 7.28792 32.829 7.26672 32.8223 7.24679C32.8156 7.22687 32.8043 7.20878 32.7894 7.19393C32.7745 7.17909 32.7563 7.16791 32.7364 7.16127C32.7164 7.15463 32.6952 7.1527 32.6743 7.15566H31.1234C31.1026 7.15269 31.0814 7.1546 31.0614 7.16124C31.0414 7.16788 31.0233 7.17908 31.0084 7.19393C30.9936 7.20878 30.9824 7.22689 30.9757 7.24682C30.9691 7.26675 30.9671 7.28795 30.9701 7.30874V8.8114C30.9671 8.8322 30.9691 8.8534 30.9757 8.87333C30.9824 8.89326 30.9936 8.91137 31.0084 8.92622C31.0233 8.94107 31.0414 8.95226 31.0614 8.95891C31.0814 8.96555 31.1026 8.96768 31.1234 8.96471Z" fill="#4C3C8D"/>
<path id="Path 6652" d="M28.7606 8.96474H30.2959C30.3167 8.96769 30.338 8.96577 30.3579 8.95913C30.3779 8.95248 30.3961 8.9413 30.411 8.92646C30.4259 8.91162 30.4371 8.89352 30.4438 8.8736C30.4505 8.85368 30.4525 8.83247 30.4496 8.81165V7.30877C30.4525 7.28795 30.4505 7.26674 30.4438 7.24682C30.4371 7.2269 30.4259 7.2088 30.411 7.19396C30.3961 7.17912 30.3779 7.16794 30.3579 7.16129C30.338 7.15465 30.3167 7.15273 30.2959 7.15568H28.7606C28.7397 7.15268 28.7184 7.15457 28.6984 7.1612C28.6785 7.16782 28.6603 7.179 28.6454 7.19386C28.6304 7.20871 28.6192 7.22682 28.6125 7.24677C28.6058 7.26671 28.6039 7.28794 28.6068 7.30877V8.81143C28.6039 8.83226 28.6058 8.85348 28.6125 8.87343C28.6192 8.89338 28.6304 8.91149 28.6454 8.92634C28.6603 8.9412 28.6785 8.95238 28.6984 8.959C28.7184 8.96563 28.7397 8.96774 28.7606 8.96474Z" fill="#4C3C8D"/>
<path id="Path 6653" d="M38.201 16.2012C38.3545 16.4934 38.6121 16.7176 38.923 16.8295C39.238 16.9227 39.5651 16.9683 39.8936 16.9648C39.9036 16.9648 39.9105 16.9677 39.9208 16.9677H41.5789C42.224 16.9677 42.6846 16.8118 42.9607 16.5C43.2367 16.1882 43.375 15.7002 43.3754 15.036V6.6953C43.3783 6.67453 43.3764 6.65338 43.3697 6.6335C43.363 6.61362 43.3518 6.59556 43.3369 6.58075C43.3221 6.56593 43.304 6.55476 43.284 6.54811C43.2641 6.54146 43.2429 6.53952 43.2221 6.54244H41.3484C41.3275 6.5394 41.3063 6.54125 41.2863 6.54785C41.2663 6.55444 41.2481 6.5656 41.2332 6.58044C41.2183 6.59528 41.207 6.61338 41.2003 6.63332C41.1936 6.65326 41.1917 6.67448 41.1946 6.6953V14.2999C41.2192 14.5267 41.1562 14.7543 41.0184 14.9363C40.9411 15.001 40.8519 15.05 40.7556 15.0802C40.6594 15.1105 40.5582 15.1215 40.4577 15.1127H39.583C39.2859 15.1321 38.9902 15.057 38.7386 14.898C38.642 14.8267 38.5628 14.7344 38.5069 14.6282C38.451 14.522 38.4198 14.4045 38.4157 14.2846V6.6953C38.4187 6.67454 38.4168 6.65336 38.4101 6.63346C38.4035 6.61356 38.3923 6.59547 38.3774 6.58064C38.3626 6.56581 38.3445 6.55463 38.3245 6.548C38.3046 6.54137 38.2834 6.53946 38.2626 6.54244H36.3891C36.3683 6.53943 36.347 6.5413 36.3271 6.54792C36.3071 6.55453 36.289 6.5657 36.2741 6.58054C36.2592 6.59538 36.248 6.61348 36.2414 6.6334C36.2347 6.65332 36.2328 6.67451 36.2358 6.6953V13.7165C36.2358 13.9415 36.2307 14.1408 36.2204 14.3146C36.215 14.4638 36.1864 14.6112 36.1356 14.7516C36.0943 14.8638 36.0158 14.9584 35.9131 15.0198C35.7858 15.0872 35.6426 15.1191 35.4986 15.112H33.1413C33.0565 15.1118 32.9718 15.1169 32.8877 15.1273C33.2391 14.8785 33.5326 14.5567 33.7481 14.1842C33.9758 13.7907 34.0925 13.343 34.0857 12.8886C34.0936 12.4973 34.0122 12.1093 33.8476 11.7541C33.6906 11.4289 33.456 11.1472 33.1645 10.9338C32.84 10.7012 32.4757 10.5297 32.0895 10.4278C31.1623 10.1924 30.1909 10.1924 29.2636 10.4278C28.8774 10.5296 28.5131 10.701 28.1887 10.9338C27.8971 11.1472 27.6624 11.4289 27.5054 11.7541C27.334 12.1393 27.2532 12.5586 27.2691 12.9798C27.2851 13.401 27.3973 13.8129 27.5973 14.1842C27.806 14.5548 28.0977 14.8722 28.4495 15.1118H26.0094C25.7138 15.1295 25.4204 15.0516 25.1726 14.8896C25.0758 14.8196 24.9959 14.7288 24.9387 14.624C24.8815 14.5192 24.8485 14.4029 24.8421 14.2837V10.6663C24.8451 10.6455 24.8432 10.6243 24.8366 10.6044C24.8299 10.5845 24.8187 10.5664 24.8039 10.5516C24.789 10.5368 24.7709 10.5256 24.751 10.5189C24.7311 10.5123 24.7099 10.5104 24.6891 10.5134H22.8311C22.8103 10.5104 22.7891 10.5123 22.7691 10.5189C22.7491 10.5255 22.731 10.5366 22.7161 10.5515C22.7012 10.5663 22.69 10.5844 22.6834 10.6043C22.6767 10.6243 22.6748 10.6455 22.6778 10.6663V13.8553C22.6966 14.1847 22.6549 14.5148 22.5547 14.8292C22.4726 15.0185 22.2679 15.113 21.9406 15.1127H20.9887C20.98 15.1127 20.9734 15.1145 20.9651 15.1149C20.9569 15.1153 20.9509 15.1127 20.9429 15.1127H20.5281C20.4277 15.1215 20.3265 15.1105 20.2304 15.0802C20.1342 15.05 20.045 15.001 19.9678 14.9363C19.8298 14.7544 19.7666 14.5268 19.7912 14.2999V6.6953C19.7942 6.67451 19.7922 6.65332 19.7856 6.6334C19.7789 6.61348 19.7677 6.59538 19.7528 6.58054C19.738 6.5657 19.7198 6.55453 19.6999 6.54792C19.6799 6.5413 19.6587 6.53943 19.6379 6.54244H17.7797C17.7589 6.53943 17.7376 6.5413 17.7177 6.54792C17.6977 6.55453 17.6796 6.5657 17.6647 6.58054C17.6498 6.59538 17.6386 6.61348 17.6319 6.6334C17.6253 6.65332 17.6234 6.67451 17.6264 6.6953V15.036C17.6264 15.7005 17.7645 16.1885 18.0409 16.5C18.3173 16.8115 18.778 16.9674 19.4231 16.9677H20.9429C20.9518 16.9677 20.9589 16.9664 20.9676 16.966C20.9763 16.9655 20.9812 16.9677 20.9887 16.9677H22.5701C23.017 16.9808 23.4637 16.9343 23.8983 16.8295C24.0582 16.7838 24.2063 16.7039 24.3323 16.5954C24.4583 16.4868 24.5591 16.3523 24.6279 16.201C24.7814 16.4933 25.039 16.7176 25.3499 16.8295C25.6786 16.9276 26.0205 16.9743 26.3634 16.9677H28.589C28.8857 16.9677 29.226 16.9524 29.6099 16.9217C29.9894 16.8922 30.3584 16.7825 30.6924 16.6C30.9751 16.7788 31.2959 16.889 31.6289 16.9217C31.9565 16.9524 32.3045 16.9677 32.6732 16.9677H36.3419C36.7449 16.9821 37.1475 16.9277 37.5321 16.8066C37.8248 16.6987 38.0641 16.4815 38.1996 16.201M31.5508 14.1848C31.3075 14.4641 31.0098 14.6909 30.6757 14.8514C30.3416 14.6908 30.0438 14.464 29.8003 14.1848C29.5424 13.8676 29.4112 13.4662 29.4321 13.0581C29.4158 12.8767 29.4412 12.694 29.5064 12.5239C29.5716 12.3538 29.6749 12.2009 29.8083 12.0767C30.0523 11.8783 30.3574 11.7699 30.672 11.7699C30.9867 11.7699 31.2917 11.8783 31.5357 12.0767C31.6713 12.1995 31.7766 12.352 31.8432 12.5223C31.9099 12.6926 31.9361 12.876 31.9197 13.0581C31.9406 13.4663 31.8093 13.8677 31.551 14.1848" fill="#4C3C8D"/>
<path id="Path 6654" d="M56.1521 22.8255V21.3228C56.1551 21.302 56.1531 21.2808 56.1464 21.2608C56.1397 21.2408 56.1285 21.2227 56.1136 21.2078C56.0987 21.1929 56.0805 21.1817 56.0605 21.175C56.0405 21.1683 56.0192 21.1664 55.9984 21.1693H54.4475C54.4266 21.1664 54.4054 21.1683 54.3854 21.175C54.3654 21.1817 54.3473 21.1929 54.3325 21.2078C54.3176 21.2227 54.3064 21.2409 54.2998 21.2608C54.2932 21.2808 54.2913 21.302 54.2944 21.3228V22.8255C54.2914 22.8463 54.2933 22.8674 54.3 22.8874C54.3066 22.9073 54.3178 22.9254 54.3327 22.9402C54.3475 22.9551 54.3656 22.9663 54.3855 22.9729C54.4055 22.9796 54.4267 22.9815 54.4475 22.9786H55.9984C56.0192 22.9815 56.0405 22.9796 56.0604 22.973C56.0804 22.9663 56.0986 22.9551 56.1135 22.9403C56.1284 22.9255 56.1396 22.9074 56.1463 22.8874C56.153 22.8675 56.155 22.8463 56.1521 22.8255Z" fill="#4C3C8D"/>
<path id="Path 6655" d="M53.7696 22.8255V21.3228C53.7725 21.302 53.7705 21.2807 53.7638 21.2608C53.7571 21.2408 53.7459 21.2227 53.731 21.2078C53.7161 21.1929 53.6979 21.1817 53.6779 21.175C53.6579 21.1683 53.6367 21.1664 53.6158 21.1693H52.0805C52.0596 21.1664 52.0384 21.1683 52.0184 21.175C51.9984 21.1817 51.9803 21.1929 51.9654 21.2078C51.9505 21.2227 51.9393 21.2408 51.9327 21.2608C51.9261 21.2808 51.9242 21.302 51.9272 21.3228V22.8255C51.9242 22.8463 51.9261 22.8675 51.9328 22.8874C51.9394 22.9073 51.9506 22.9255 51.9655 22.9403C51.9804 22.9552 51.9985 22.9664 52.0185 22.973C52.0384 22.9796 52.0597 22.9815 52.0805 22.9786H53.6158C53.6366 22.9815 53.6579 22.9796 53.6779 22.973C53.6978 22.9663 53.716 22.9551 53.7309 22.9403C53.7458 22.9255 53.757 22.9074 53.7638 22.8874C53.7705 22.8675 53.7724 22.8463 53.7696 22.8255Z" fill="#4C3C8D"/>
<path id="Path 6656" d="M61.5106 8.96474H63.4146C63.4354 8.96766 63.4566 8.96572 63.4765 8.95906C63.4965 8.9524 63.5146 8.94121 63.5295 8.92636C63.5443 8.91152 63.5555 8.89343 63.5622 8.87353C63.5689 8.85362 63.5708 8.83244 63.5679 8.81165V7.30877C63.5708 7.28798 63.5689 7.2668 63.5622 7.2469C63.5555 7.22699 63.5443 7.2089 63.5295 7.19406C63.5146 7.17922 63.4965 7.16802 63.4765 7.16136C63.4566 7.1547 63.4354 7.15276 63.4146 7.15568H61.5106C61.4897 7.15268 61.4684 7.15457 61.4484 7.1612C61.4285 7.16782 61.4103 7.179 61.3954 7.19386C61.3804 7.20871 61.3692 7.22682 61.3625 7.24677C61.3558 7.26671 61.3539 7.28794 61.3568 7.30877V8.81143C61.3539 8.83226 61.3558 8.85348 61.3625 8.87343C61.3692 8.89338 61.3804 8.91149 61.3954 8.92634C61.4103 8.9412 61.4285 8.95238 61.4484 8.959C61.4684 8.96563 61.4897 8.96774 61.5106 8.96474Z" fill="#4C3C8D"/>
<path id="Path 6657" d="M74.7208 11.1417C74.0711 10.5492 73.1217 10.2529 71.8727 10.2529C71.2869 10.2504 70.7033 10.3251 70.1371 10.4751C69.6174 10.6117 69.1092 10.7885 68.6169 11.0039V6.69545C68.6198 6.67463 68.6178 6.65342 68.6111 6.6335C68.6044 6.61358 68.5932 6.59548 68.5783 6.58064C68.5633 6.5658 68.5452 6.55461 68.5252 6.54797C68.5053 6.54133 68.484 6.53941 68.4632 6.54236H66.6054C66.5235 6.54236 66.4724 6.59339 66.4521 6.69545V13.5488C66.4521 13.7635 66.447 13.9652 66.4368 14.1541C66.4303 14.3245 66.3967 14.4928 66.3371 14.6527C66.289 14.7842 66.207 14.9006 66.0992 14.9902C65.9741 15.0787 65.8224 15.1219 65.6693 15.1126H64.7177C64.422 15.1302 64.1285 15.0523 63.8806 14.8904C63.7838 14.8204 63.704 14.7297 63.6469 14.6249C63.5898 14.5201 63.5569 14.4039 63.5506 14.2847V10.6664C63.5535 10.6456 63.5515 10.6245 63.5448 10.6046C63.5381 10.5847 63.5269 10.5666 63.5121 10.5518C63.4972 10.537 63.4791 10.5258 63.4592 10.5191C63.4393 10.5124 63.4181 10.5104 63.3973 10.5133H61.9848C61.8722 10.5133 61.7414 10.5186 61.5932 10.5286C61.445 10.5386 61.3707 10.5846 61.3707 10.6664V13.8859C61.3917 14.2109 61.3473 14.5369 61.24 14.8444C61.1531 15.0234 60.9511 15.1128 60.6339 15.1126H60.1275C60.1179 15.1126 60.1106 15.1173 60.1015 15.1177C60.0843 15.1177 60.069 15.1126 60.0507 15.1126H58.2386C57.9521 15.1137 57.6664 15.0828 57.3868 15.0204C57.1086 14.9573 56.8343 14.878 56.5653 14.7829C56.2885 14.6862 56.0067 14.5763 55.7198 14.4534C55.4329 14.3304 55.1258 14.2079 54.7986 14.0857C54.7063 14.055 54.6453 14.091 54.6144 14.1927L54.1231 15.7107C54.1141 15.7285 54.1094 15.7482 54.1094 15.7681C54.1093 15.788 54.114 15.8077 54.1229 15.8255C54.1318 15.8433 54.1448 15.8588 54.1608 15.8708C54.1768 15.8827 54.1953 15.8908 54.215 15.8943C54.7371 16.0889 55.1798 16.2551 55.5431 16.3929C55.8444 16.5039 56.1392 16.6318 56.426 16.7759C56.6097 16.8631 56.7761 16.9826 56.9173 17.1287C57.0176 17.2403 57.0725 17.3852 57.0711 17.5351C57.0707 17.6285 57.0471 17.7203 57.0026 17.8024C56.9471 17.8984 56.8642 17.9758 56.7645 18.0246C56.6144 18.0976 56.4538 18.1466 56.2885 18.1699C56.0347 18.2096 55.778 18.2277 55.5211 18.2239H52.9415C52.6709 18.2239 52.4009 18.1986 52.1349 18.1484C51.8768 18.1021 51.6294 18.0085 51.4053 17.8724C51.1859 17.735 51.004 17.5454 50.8758 17.3207C50.7285 17.0482 50.6569 16.7414 50.6684 16.432C50.67 16.0866 50.7323 15.7442 50.8526 15.4203C50.97 15.0948 51.119 14.7816 51.2976 14.4851C51.3106 14.47 51.3199 14.452 51.3247 14.4327C51.3295 14.4133 51.3297 14.3931 51.3252 14.3736C51.3208 14.3542 51.3118 14.336 51.299 14.3207C51.2863 14.3053 51.2701 14.2932 51.2518 14.2852L49.6855 13.5031C49.5833 13.4416 49.5067 13.4569 49.4557 13.5491C49.1744 13.9889 48.9451 14.4597 48.7724 14.9522C48.5744 15.4898 48.4731 16.058 48.4731 16.6308C48.4659 17.122 48.5488 17.6104 48.7179 18.0717C48.8768 18.4942 49.138 18.8709 49.4782 19.168C49.8589 19.49 50.3038 19.7278 50.7834 19.8654C51.3945 20.0406 52.0284 20.1234 52.6641 20.1112H56.0883C57.2036 20.1112 58.0195 19.9016 58.5359 19.4824C58.7811 19.2958 58.9791 19.0543 59.1138 18.7774C59.2485 18.5004 59.3162 18.1958 59.3116 17.888C59.3143 17.6999 59.2832 17.5129 59.2197 17.3358C59.1749 17.2083 59.1183 17.0851 59.0505 16.9681H60.0487C60.057 16.9681 60.0636 16.9663 60.071 16.9659C60.0783 16.9654 60.0852 16.9681 60.0932 16.9681H61.3246C61.7596 16.9826 62.1944 16.9335 62.6152 16.8223C62.7705 16.7716 62.9143 16.6906 63.0381 16.5841C63.162 16.4776 63.2635 16.3477 63.3368 16.2018C63.49 16.494 63.7475 16.7182 64.0584 16.8299C64.3196 16.9059 64.5896 16.948 64.8616 16.955C64.9106 16.9639 64.9603 16.9683 65.01 16.9681H66.4072C66.7251 16.9712 67.0429 16.9559 67.3591 16.9221C67.5976 16.8991 67.823 16.8028 68.0044 16.6464C68.1163 16.7627 68.2532 16.8522 68.4048 16.9079C68.5564 16.9636 68.7187 16.9842 68.8795 16.9681H72.5031C73.0002 16.9762 73.4969 16.9325 73.985 16.8377C74.35 16.7699 74.6911 16.6087 74.9751 16.37C75.2458 16.121 75.4379 15.7988 75.5281 15.4426C75.6527 14.9489 75.7095 14.4406 75.697 13.9317C75.697 12.6643 75.3719 11.7342 74.7217 11.1414M73.3706 14.5454C73.3354 14.7035 73.2388 14.8413 73.1021 14.9284C72.9295 15.0217 72.7378 15.074 72.5418 15.0815C72.3012 15.1022 71.9915 15.1125 71.6128 15.1122H68.5718C68.6036 14.9145 68.619 14.7146 68.6178 14.5145V12.7976C69.049 12.6087 69.4928 12.4498 69.946 12.3224C70.4426 12.1793 70.9569 12.1071 71.4737 12.1077C71.797 12.0999 72.1197 12.1361 72.4332 12.2153C72.6577 12.2722 72.8639 12.3855 73.0322 12.5446C73.1824 12.6959 73.2908 12.8835 73.3468 13.0891C73.4113 13.329 73.4422 13.5765 73.4387 13.8248C73.4455 14.0671 73.4223 14.3092 73.3697 14.5458" fill="#4C3C8D"/>
<path id="Path 6658" d="M83.8182 17.2592V16.9677H86.5199C87.1651 16.9677 87.6258 16.8121 87.9022 16.5011C88.1785 16.19 88.3167 15.7018 88.3167 15.0366V6.69545C88.3196 6.67467 88.3176 6.65351 88.3109 6.63363C88.3042 6.61374 88.293 6.59567 88.2782 6.58084C88.2633 6.56601 88.2452 6.55482 88.2253 6.54814C88.2054 6.54146 88.1842 6.53949 88.1634 6.54236H86.2903C86.2695 6.53941 86.2482 6.54133 86.2282 6.54797C86.2083 6.55461 86.1901 6.5658 86.1752 6.58064C86.1603 6.59548 86.1491 6.61358 86.1423 6.6335C86.1356 6.65342 86.1336 6.67463 86.1365 6.69545V14.3003C86.161 14.5271 86.098 14.7546 85.9603 14.9366C85.8043 15.0671 85.6028 15.1304 85.4 15.1126H83.8182V13.687C83.8339 13.1255 83.7427 12.5661 83.5492 12.0386C83.3965 11.6318 83.1461 11.2687 82.82 10.981C82.5074 10.7176 82.1403 10.5264 81.7451 10.4211C81.3244 10.3074 80.8903 10.2506 80.4545 10.2525C80.0306 10.2516 79.6089 10.3136 79.2031 10.4364C78.8056 10.5555 78.4389 10.7596 78.1284 11.0346C77.7982 11.3359 77.5409 11.7081 77.3759 12.1233C77.1724 12.651 77.0757 13.2138 77.0915 13.779C77.0915 14.9442 77.3603 15.767 77.8979 16.2475C78.4355 16.7281 79.2058 16.9682 80.2089 16.9679H81.6826C81.6892 17.1889 81.658 17.4095 81.5902 17.62C81.5403 17.7714 81.4501 17.9064 81.3294 18.0106C81.206 18.1074 81.0609 18.173 80.9067 18.2019C80.7171 18.2399 80.5241 18.258 80.3308 18.2559H78.567C78.5462 18.2529 78.5249 18.2548 78.505 18.2615C78.485 18.2681 78.4669 18.2793 78.452 18.2942C78.4371 18.309 78.4259 18.3271 78.4193 18.3471C78.4126 18.367 78.4107 18.3882 78.4137 18.409V19.9576C78.4107 19.9785 78.4126 19.9997 78.4192 20.0197C78.4258 20.0396 78.437 20.0578 78.4519 20.0727C78.4668 20.0876 78.4849 20.0988 78.5049 20.1055C78.5249 20.1122 78.5461 20.1141 78.567 20.1112H80.8088C81.8422 20.1112 82.6023 19.876 83.0888 19.4055C83.5754 18.9351 83.8186 18.2197 83.8184 17.2594M81.6839 15.1128H80.5017C80.1638 15.1288 79.8306 15.0288 79.5576 14.8293C79.317 14.6405 79.1967 14.2648 79.1967 13.7024C79.1739 13.2882 79.2901 12.8782 79.5267 12.5372C79.6377 12.3949 79.7815 12.2816 79.9459 12.2068C80.1103 12.1321 80.2904 12.0982 80.4708 12.108C81.2794 12.108 81.6837 12.614 81.6839 13.6259V15.1128Z" fill="#4C3C8D"/>
<path id="Rectangle 1724" d="M90.2556 6.54297H92.2295C92.2549 6.54297 92.2792 6.55303 92.2972 6.57095C92.3151 6.58887 92.3252 6.61317 92.3252 6.63851V16.8732C92.3252 16.8985 92.3151 16.9228 92.2972 16.9407C92.2792 16.9586 92.2549 16.9687 92.2295 16.9687H90.2558C90.2305 16.9687 90.2061 16.9586 90.1882 16.9407C90.1702 16.9228 90.1602 16.8985 90.1602 16.8732V6.63829C90.1602 6.61301 90.1702 6.58876 90.1881 6.57089C90.206 6.55301 90.2303 6.54297 90.2556 6.54297Z" fill="#4C3C8D"/>
<path id="Path 6659" d="M98.6785 8.9647H100.582C100.603 8.96762 100.625 8.96568 100.644 8.95902C100.664 8.95236 100.683 8.94117 100.697 8.92632C100.712 8.91148 100.723 8.89339 100.73 8.87349C100.737 8.85358 100.739 8.8324 100.736 8.81161V7.30873C100.739 7.28794 100.737 7.26676 100.73 7.24686C100.723 7.22695 100.712 7.20886 100.697 7.19402C100.683 7.17918 100.664 7.16798 100.644 7.16132C100.625 7.15466 100.603 7.15272 100.582 7.15564H98.6785C98.6576 7.15269 98.6364 7.15461 98.6164 7.16125C98.5965 7.1679 98.5783 7.17908 98.5634 7.19392C98.5485 7.20876 98.5372 7.22686 98.5305 7.24678C98.5238 7.2667 98.5218 7.28791 98.5247 7.30873V8.81139C98.5218 8.83221 98.5238 8.85342 98.5305 8.87334C98.5372 8.89326 98.5485 8.91136 98.5634 8.9262C98.5783 8.94104 98.5965 8.95222 98.6164 8.95887C98.6364 8.96551 98.6576 8.96765 98.6785 8.9647Z" fill="#4C3C8D"/>
<path id="Path 6660" d="M108.5 16.409C108.706 16.179 108.854 15.9029 108.93 15.604C109.036 15.1937 109.085 14.7708 109.076 14.3471V13.4423C109.09 12.9435 109.02 12.4459 108.869 11.9703C108.75 11.6106 108.535 11.29 108.247 11.0434C107.95 10.8033 107.6 10.6376 107.226 10.5601C106.764 10.461 106.293 10.4045 105.821 10.3912L108.123 7.72387C108.134 7.70577 108.14 7.68584 108.143 7.66523C108.145 7.64461 108.143 7.62372 108.138 7.60376C108.132 7.58381 108.122 7.56518 108.109 7.54895C108.096 7.53273 108.08 7.51923 108.062 7.50923L106.788 6.43584C106.756 6.41566 106.716 6.40917 106.679 6.41778C106.641 6.42639 106.609 6.4494 106.588 6.48183L103.334 10.3304C103.272 10.4021 103.2 10.481 103.118 10.5681C103.049 10.6291 103.005 10.7138 102.995 10.8056V12.0625C102.992 12.0834 102.994 12.1046 103.001 12.1246C103.008 12.1446 103.019 12.1628 103.034 12.1777C103.049 12.1926 103.067 12.2038 103.087 12.2104C103.107 12.2171 103.128 12.219 103.149 12.2161H105.453C105.825 12.1851 106.196 12.2825 106.505 12.4918C106.623 12.606 106.714 12.7451 106.771 12.8989C106.828 13.0526 106.85 13.2172 106.835 13.3806V14.0858C106.838 14.2552 106.825 14.4245 106.796 14.5915C106.778 14.7109 106.721 14.8212 106.635 14.9061C106.535 14.9915 106.413 15.0471 106.282 15.0667C106.084 15.1011 105.884 15.1165 105.683 15.1127H101.906C101.61 15.1305 101.317 15.0526 101.069 14.8905C100.972 14.8206 100.892 14.7299 100.835 14.6251C100.778 14.5203 100.745 14.404 100.738 14.2849V10.6665C100.741 10.6458 100.739 10.6246 100.733 10.6047C100.726 10.5848 100.715 10.5668 100.7 10.5519C100.685 10.5371 100.667 10.5259 100.647 10.5192C100.627 10.5125 100.606 10.5106 100.585 10.5134H98.7113C98.6904 10.5105 98.6692 10.5124 98.6492 10.5191C98.6293 10.5257 98.6111 10.5369 98.5962 10.5517C98.5813 10.5666 98.57 10.5847 98.5633 10.6046C98.5566 10.6245 98.5546 10.6457 98.5575 10.6665V16.279C98.5575 16.5954 98.5473 16.8765 98.5268 17.1222C98.514 17.3358 98.4648 17.5457 98.3813 17.7428C98.3107 17.9046 98.1893 18.0392 98.0355 18.1263C97.8349 18.2236 97.6129 18.2684 97.3902 18.2567H97.0536C97.0327 18.2537 97.0114 18.2556 96.9914 18.2622C96.9713 18.2689 96.9531 18.2801 96.9382 18.295C96.9233 18.3099 96.912 18.3281 96.9054 18.3481C96.8987 18.3681 96.8968 18.3894 96.8998 18.4102V19.9582C96.8968 19.9791 96.8987 20.0004 96.9054 20.0204C96.912 20.0404 96.9233 20.0585 96.9382 20.0735C96.9531 20.0884 96.9713 20.0996 96.9914 20.1062C97.0114 20.1129 97.0327 20.1148 97.0536 20.1118H97.7598C98.8445 20.1118 99.6122 19.8332 100.063 19.2761C100.513 18.719 100.739 17.8579 100.738 16.6929V16.4472C100.897 16.6522 101.118 16.8003 101.368 16.8694C101.654 16.9407 101.948 16.9742 102.243 16.9689H106.757C107.102 16.9748 107.446 16.9309 107.778 16.8385C108.053 16.7622 108.302 16.614 108.5 16.4092" fill="#4C3C8D"/>
<path id="Path 6661" d="M127.791 16.5004C128.068 16.1894 128.206 15.7012 128.206 15.036V6.69549C128.208 6.67471 128.206 6.65355 128.2 6.63366C128.193 6.61378 128.182 6.59571 128.167 6.58088C128.152 6.56605 128.134 6.55486 128.114 6.54818C128.094 6.5415 128.073 6.53952 128.052 6.5424H126.179C126.158 6.5394 126.137 6.54129 126.117 6.54791C126.097 6.55454 126.079 6.56572 126.064 6.58057C126.049 6.59543 126.038 6.61354 126.031 6.63349C126.024 6.65343 126.022 6.67466 126.025 6.69549V14.3003C126.05 14.5271 125.987 14.7547 125.849 14.9367C125.693 15.0672 125.491 15.1305 125.288 15.1126H124.321C124.079 15.1215 123.842 15.0364 123.661 14.8751C123.469 14.6753 123.364 14.4079 123.369 14.1312C123.369 14.0701 123.372 14.0061 123.377 13.9399C123.382 13.8737 123.385 13.8046 123.385 13.7329C123.385 12.5677 123.078 11.6963 122.463 11.1186C121.849 10.5409 121.025 10.2521 119.991 10.2521C118.906 10.2521 118.072 10.5255 117.489 11.0724C116.905 11.6193 116.614 12.4036 116.613 13.4253V13.7322C116.592 14.264 116.488 14.6269 116.299 14.8209C116.218 14.9109 116.12 14.9832 116.01 15.0333C115.901 15.0834 115.782 15.1102 115.661 15.112H114.879C114.583 15.1297 114.289 15.0518 114.042 14.8898C113.945 14.8198 113.865 14.7291 113.808 14.6243C113.751 14.5195 113.718 14.4033 113.711 14.2841V10.6664C113.714 10.6457 113.712 10.6245 113.706 10.6046C113.699 10.5847 113.688 10.5667 113.673 10.5518C113.658 10.537 113.64 10.5258 113.62 10.5191C113.6 10.5124 113.579 10.5105 113.558 10.5133H111.685C111.664 10.5104 111.643 10.5124 111.623 10.519C111.603 10.5257 111.585 10.5369 111.57 10.5517C111.555 10.5666 111.544 10.5847 111.537 10.6046C111.53 10.6245 111.528 10.6457 111.531 10.6664V16.2782C111.531 16.5946 111.521 16.8757 111.501 17.1215C111.488 17.3351 111.438 17.5449 111.355 17.742C111.284 17.9039 111.163 18.0385 111.009 18.1255C110.808 18.2227 110.586 18.2676 110.364 18.2559H110.026C110.005 18.2529 109.984 18.2548 109.964 18.2614C109.944 18.268 109.926 18.2792 109.911 18.294C109.896 18.3089 109.885 18.327 109.878 18.347C109.871 18.3669 109.869 18.3882 109.872 18.409V19.9577C109.869 19.9785 109.871 19.9998 109.878 20.0198C109.885 20.0398 109.896 20.058 109.911 20.0729C109.926 20.0878 109.944 20.099 109.964 20.1057C109.984 20.1123 110.005 20.1142 110.026 20.1112H110.732C111.816 20.1112 112.584 19.8327 113.035 19.2756C113.486 18.7185 113.712 17.8571 113.711 16.6915V16.4471C113.87 16.652 114.091 16.8001 114.341 16.8693C114.627 16.9404 114.921 16.9739 115.215 16.9688C115.369 16.9688 115.542 16.9614 115.737 16.9466C115.937 16.9302 116.135 16.8942 116.328 16.8391C116.531 16.7819 116.724 16.6968 116.903 16.5862C117.085 16.4761 117.238 16.3236 117.348 16.1418C117.653 16.4879 118.05 16.7404 118.492 16.8699C118.978 17.0124 119.483 17.0822 119.989 17.077C120.507 17.0823 121.022 17.0073 121.517 16.8548C121.971 16.7148 122.374 16.4458 122.677 16.0807C122.785 16.2695 122.932 16.4339 123.106 16.5638C123.266 16.679 123.442 16.7694 123.629 16.8319C123.813 16.8933 124.004 16.932 124.197 16.947C124.382 16.9617 124.563 16.9681 124.739 16.9693C124.743 16.9693 124.745 16.9693 124.75 16.9693H126.408C127.053 16.9693 127.514 16.8137 127.79 16.5027M120.943 14.8751C120.677 15.0979 120.341 15.2201 119.995 15.2201C119.648 15.2201 119.312 15.0979 119.046 14.8751C118.836 14.6448 118.732 14.2386 118.732 13.6564C118.732 12.6237 119.151 12.1075 119.991 12.1078C120.83 12.1081 121.25 12.6243 121.25 13.6564C121.25 14.2389 121.148 14.6451 120.943 14.8751Z" fill="#4C3C8D"/>
<path id="Path 6662" d="M132.06 6.54236H130.202C130.181 6.53941 130.16 6.54133 130.14 6.54797C130.12 6.55461 130.102 6.5658 130.087 6.58064C130.072 6.59548 130.061 6.61358 130.054 6.6335C130.047 6.65342 130.045 6.67463 130.048 6.69545V16.8146C130.045 16.8354 130.047 16.8567 130.054 16.8766C130.061 16.8966 130.072 16.9147 130.087 16.9296C130.102 16.9445 130.12 16.9556 130.14 16.9622C130.16 16.9689 130.181 16.9707 130.202 16.9677H132.06C132.08 16.9707 132.102 16.9688 132.122 16.9621C132.142 16.9555 132.16 16.9443 132.175 16.9295C132.19 16.9146 132.201 16.8965 132.208 16.8766C132.214 16.8566 132.216 16.8354 132.213 16.8146V6.69545C132.216 6.67463 132.214 6.65342 132.207 6.6335C132.201 6.61358 132.19 6.59548 132.175 6.58064C132.16 6.5658 132.142 6.55461 132.122 6.54797C132.102 6.54133 132.08 6.53941 132.06 6.54236Z" fill="#4C3C8D"/>
<path id="Path 6663" d="M4.87293 24.5126H4.2608C4.24761 24.5107 4.23416 24.512 4.22153 24.5162C4.20889 24.5204 4.19742 24.5275 4.18801 24.5369C4.17859 24.5463 4.17151 24.5578 4.1673 24.5704C4.1631 24.5831 4.1619 24.5965 4.16379 24.6097V29.5591H4.12485L1.13164 24.6097C1.11695 24.5788 1.09335 24.5531 1.06389 24.5358C1.03442 24.5185 1.00044 24.5104 0.96632 24.5126H0.344627C0.3314 24.5107 0.317917 24.5119 0.305239 24.5161C0.292561 24.5203 0.281034 24.5274 0.271566 24.5368C0.262097 24.5462 0.254946 24.5577 0.250673 24.5704C0.246401 24.583 0.245125 24.5965 0.246945 24.6097V31.0145C0.245067 31.0277 0.246306 31.0412 0.250562 31.0538C0.254817 31.0665 0.261973 31.078 0.271459 31.0874C0.280944 31.0968 0.292498 31.1038 0.305201 31.108C0.317903 31.1122 0.331403 31.1133 0.344627 31.1113H0.956752C0.969933 31.1132 0.983377 31.112 0.996014 31.1078C1.00865 31.1037 1.02013 31.0966 1.02955 31.0872C1.03897 31.0778 1.04606 31.0663 1.05026 31.0537C1.05447 31.0411 1.05567 31.0276 1.05377 31.0145V26.0848H1.08314L4.08702 31.0145C4.10165 31.0453 4.12524 31.0711 4.15473 31.0884C4.18422 31.1056 4.21823 31.1136 4.25235 31.1113H4.87426C4.88745 31.1132 4.9009 31.112 4.91355 31.1078C4.92619 31.1036 4.93768 31.0966 4.94712 31.0872C4.95655 31.0778 4.96366 31.0663 4.96789 31.0537C4.97213 31.0411 4.97336 31.0276 4.9715 31.0145V24.6097C4.97335 24.5965 4.97211 24.5831 4.96788 24.5704C4.96365 24.5578 4.95654 24.5463 4.94711 24.5369C4.93769 24.5275 4.9262 24.5204 4.91356 24.5162C4.90092 24.512 4.88747 24.5107 4.87426 24.5126" fill="#4C3C8D"/>
<path id="Path 6664" d="M8.24238 26.3578C7.9301 26.3528 7.61887 26.3952 7.31941 26.4838C7.08117 26.5541 6.85727 26.6659 6.65811 26.8142C6.63953 26.831 6.62742 26.8538 6.62389 26.8786C6.62035 26.9034 6.62561 26.9286 6.63875 26.95L6.90131 27.3963C6.9338 27.4482 6.97919 27.4514 7.03749 27.4059C7.18094 27.3053 7.33777 27.2253 7.50343 27.1681C7.71721 27.101 7.9407 27.0698 8.16473 27.0759C8.59847 27.0759 8.8933 27.1471 9.0492 27.2895C9.13465 27.3833 9.19952 27.4939 9.23968 27.6143C9.27983 27.7346 9.29438 27.862 9.28239 27.9882V28.3278C9.2835 28.3357 9.28276 28.3437 9.28023 28.3513C9.27769 28.3588 9.27343 28.3657 9.26778 28.3714C9.26212 28.377 9.25524 28.3813 9.24766 28.3838C9.24008 28.3863 9.23201 28.3871 9.2241 28.386H8.16495C7.69371 28.3585 7.22587 28.4807 6.82855 28.7352C6.66468 28.8625 6.53496 29.0283 6.451 29.2179C6.36705 29.4075 6.33148 29.6149 6.34749 29.8215C6.34283 30.0317 6.38429 30.2403 6.46898 30.4328C6.54504 30.6011 6.65796 30.7502 6.7994 30.8691C6.94496 30.9895 7.11347 31.079 7.29471 31.1324C7.495 31.1919 7.70302 31.2212 7.91195 31.2195C8.21328 31.231 8.51304 31.171 8.78664 31.0444C8.99147 30.9473 9.1661 30.7964 9.29196 30.6081H9.30153V31.0156C9.29968 31.0287 9.30092 31.0422 9.30515 31.0548C9.30938 31.0674 9.31649 31.0789 9.32592 31.0883C9.33534 31.0977 9.34683 31.1048 9.35947 31.109C9.37211 31.1133 9.38556 31.1145 9.39877 31.1127H9.9724C9.98559 31.1145 9.99904 31.1133 10.0117 31.1091C10.0243 31.1048 10.0358 31.0977 10.0452 31.0883C10.0546 31.0789 10.0617 31.0674 10.0659 31.0548C10.0701 31.0422 10.0713 31.0287 10.0694 31.0156V27.9394C10.0694 27.3701 9.93005 26.9643 9.65132 26.7218C9.37258 26.4793 8.90294 26.358 8.24238 26.3578ZM9.28239 29.6089C9.28898 29.7381 9.26407 29.867 9.20981 29.9845C9.15556 30.102 9.07357 30.2046 8.97088 30.2835C8.71678 30.4557 8.41279 30.5393 8.10621 30.5212C7.85286 30.5368 7.60103 30.4722 7.38661 30.3366C7.30263 30.274 7.23557 30.1916 7.19148 30.0967C7.14739 30.0018 7.12766 29.8975 7.13406 29.7931C7.12494 29.6814 7.14527 29.5694 7.19301 29.468C7.24076 29.3667 7.31425 29.2796 7.40619 29.2154C7.67869 29.075 7.98488 29.0128 8.29067 29.0359H9.22365C9.2316 29.0348 9.23969 29.0356 9.24729 29.0381C9.25488 29.0407 9.26178 29.045 9.26743 29.0507C9.27308 29.0564 9.27733 29.0633 9.27985 29.0709C9.28237 29.0785 9.28309 29.0866 9.28195 29.0945L9.28239 29.6089Z" fill="#4C3C8D"/>
<path id="Path 6665" d="M13.3376 26.4632H12.5995C12.5916 26.4644 12.5834 26.4637 12.5758 26.4612C12.5682 26.4587 12.5612 26.4544 12.5555 26.4488C12.5498 26.4431 12.5455 26.4362 12.5429 26.4286C12.5404 26.421 12.5396 26.4129 12.5408 26.405V25.0941C12.5427 25.0809 12.5415 25.0674 12.5372 25.0548C12.533 25.0421 12.5259 25.0306 12.5165 25.0212C12.507 25.0118 12.4955 25.0047 12.4829 25.0005C12.4702 24.9963 12.4567 24.9951 12.4435 24.997H11.8218C11.8086 24.9951 11.7952 24.9964 11.7825 25.0006C11.7699 25.0048 11.7584 25.0119 11.749 25.0213C11.7396 25.0307 11.7325 25.0422 11.7282 25.0548C11.724 25.0674 11.7227 25.0809 11.7246 25.0941V26.405C11.7257 26.4129 11.725 26.4209 11.7224 26.4285C11.7199 26.4361 11.7156 26.4429 11.71 26.4486C11.7043 26.4542 11.6974 26.4585 11.6899 26.461C11.6823 26.4636 11.6742 26.4643 11.6663 26.4632H11.2776C11.2644 26.4613 11.251 26.4625 11.2383 26.4667C11.2257 26.4709 11.2142 26.478 11.2048 26.4874C11.1954 26.4968 11.1883 26.5082 11.1841 26.5209C11.1799 26.5335 11.1787 26.5469 11.1806 26.5601V27.0267C11.1787 27.0398 11.1799 27.0533 11.1841 27.0659C11.1883 27.0785 11.1954 27.09 11.2048 27.0994C11.2142 27.1088 11.2257 27.1159 11.2383 27.1202C11.2509 27.1244 11.2644 27.1256 11.2776 27.1238H11.6663C11.6742 27.1226 11.6823 27.1233 11.6899 27.1258C11.6975 27.1283 11.7044 27.1326 11.7101 27.1382C11.7158 27.1439 11.72 27.1508 11.7225 27.1584C11.7251 27.166 11.7258 27.1741 11.7246 27.182V29.8404C11.6937 30.1991 11.7957 30.5566 12.0114 30.845C12.2023 31.055 12.5247 31.16 12.9784 31.16H13.3376C13.3508 31.162 13.3642 31.1608 13.3769 31.1566C13.3896 31.1524 13.4011 31.1454 13.4105 31.1359C13.42 31.1265 13.4271 31.1151 13.4313 31.1024C13.4355 31.0898 13.4367 31.0763 13.4348 31.0632V30.5006C13.4367 30.4874 13.4355 30.4739 13.4313 30.4613C13.4271 30.4486 13.42 30.4371 13.4105 30.4277C13.4011 30.4183 13.3896 30.4112 13.3769 30.407C13.3643 30.4028 13.3508 30.4016 13.3376 30.4035H13.1338C12.9733 30.4174 12.813 30.3744 12.6812 30.2819C12.6263 30.2176 12.5854 30.1425 12.5611 30.0614C12.5369 29.9804 12.5298 29.8952 12.5403 29.8113V27.1817C12.5392 27.1738 12.5399 27.1657 12.5425 27.1581C12.5451 27.1505 12.5494 27.1436 12.5551 27.1379C12.5608 27.1323 12.5677 27.128 12.5754 27.1255C12.583 27.123 12.5911 27.1223 12.5991 27.1235H13.3376C13.3508 27.1254 13.3643 27.1242 13.3769 27.12C13.3896 27.1158 13.4011 27.1087 13.4105 27.0993C13.42 27.0899 13.4271 27.0784 13.4313 27.0657C13.4355 27.0531 13.4367 27.0396 13.4348 27.0264V26.5598C13.4367 26.5467 13.4354 26.5332 13.4312 26.5206C13.427 26.508 13.4199 26.4965 13.4104 26.4871C13.401 26.4778 13.3895 26.4707 13.3769 26.4665C13.3642 26.4623 13.3508 26.4613 13.3376 26.4632Z" fill="#4C3C8D"/>
<path id="Path 6666" d="M15.4153 26.4657H14.7934C14.7802 26.4638 14.7668 26.465 14.7541 26.4692C14.7415 26.4734 14.73 26.4805 14.7206 26.4899C14.7111 26.4993 14.704 26.5108 14.6998 26.5234C14.6956 26.536 14.6943 26.5494 14.6962 26.5626V31.0168C14.6943 31.03 14.6955 31.0434 14.6997 31.0561C14.7039 31.0687 14.711 31.0802 14.7205 31.0897C14.7299 31.0991 14.7414 31.1062 14.7541 31.1104C14.7667 31.1146 14.7802 31.1158 14.7934 31.1139H15.4153C15.4285 31.1158 15.442 31.1145 15.4546 31.1103C15.4672 31.1061 15.4787 31.099 15.4881 31.0895C15.4975 31.0801 15.5046 31.0687 15.5088 31.056C15.513 31.0434 15.5142 31.03 15.5124 31.0168V26.5626C15.5143 26.5494 15.5131 26.536 15.5089 26.5234C15.5046 26.5108 15.4976 26.4993 15.4881 26.4899C15.4787 26.4805 15.4672 26.4734 15.4546 26.4692C15.442 26.465 15.4285 26.4638 15.4153 26.4657Z" fill="#4C3C8D"/>
<path id="Path 6667" d="M15.4347 24.5126H14.7737C14.7605 24.5107 14.7471 24.512 14.7344 24.5163C14.7218 24.5205 14.7104 24.5276 14.701 24.537C14.6916 24.5464 14.6845 24.5579 14.6803 24.5705C14.6761 24.5831 14.6748 24.5965 14.6767 24.6097V25.3182C14.6748 25.3314 14.676 25.3448 14.6802 25.3574C14.6844 25.37 14.6915 25.3815 14.7009 25.3909C14.7103 25.4003 14.7218 25.4074 14.7344 25.4116C14.747 25.4158 14.7605 25.417 14.7737 25.4151H15.435C15.4482 25.417 15.4616 25.4159 15.4743 25.4117C15.4869 25.4075 15.4984 25.4004 15.5079 25.391C15.5173 25.3816 15.5244 25.3701 15.5286 25.3575C15.5328 25.3448 15.5339 25.3314 15.532 25.3182V24.6097C15.5339 24.5965 15.5327 24.5831 15.5285 24.5704C15.5243 24.5578 15.5172 24.5463 15.5078 24.5369C15.4984 24.5275 15.4869 24.5204 15.4742 24.5162C15.4616 24.5119 15.4479 24.5107 15.4347 24.5126Z" fill="#4C3C8D"/>
<path id="Path 6668" d="M20.6538 27.6092C20.5415 27.2321 20.3031 26.905 19.9783 26.6824C19.6283 26.4698 19.2265 26.3574 18.8169 26.3574C18.4072 26.3574 18.0055 26.4698 17.6555 26.6824C17.3306 26.9049 17.0921 27.2321 16.9799 27.6092C16.9273 27.7739 16.8883 27.9427 16.8633 28.1138C16.8346 28.3357 16.8217 28.5594 16.8246 28.7832C16.8218 29.0087 16.8348 29.2341 16.8633 29.4578C16.8879 29.6305 16.9269 29.8008 16.9799 29.967C17.0946 30.3416 17.3327 30.6666 17.6555 30.8891C18.0043 31.1048 18.4065 31.2191 18.8169 31.2191C19.2272 31.2191 19.6294 31.1048 19.9783 30.8891C20.301 30.6665 20.539 30.3416 20.6538 29.967C20.7065 29.8007 20.7455 29.6304 20.7704 29.4578C20.799 29.2341 20.8119 29.0087 20.8091 28.7832C20.812 28.5594 20.7991 28.3357 20.7704 28.1138C20.7451 27.9427 20.7061 27.774 20.6538 27.6092ZM19.9489 29.3325C19.9333 29.4689 19.9057 29.6037 19.8666 29.7353C19.7996 29.9525 19.663 30.1418 19.4778 30.2739C19.2796 30.3976 19.0505 30.4631 18.8168 30.4631C18.583 30.4631 18.3539 30.3976 18.1557 30.2739C17.9704 30.1419 17.8338 29.9526 17.7669 29.7353C17.7278 29.6037 17.7002 29.4689 17.6846 29.3325C17.6662 29.1502 17.6582 28.967 17.6604 28.7839C17.6581 28.6024 17.6662 28.4209 17.6846 28.2404C17.7006 28.1057 17.7282 27.9727 17.7669 27.8427C17.8336 27.6253 17.9703 27.436 18.1557 27.3041C18.3539 27.1804 18.583 27.1148 18.8168 27.1148C19.0505 27.1148 19.2796 27.1804 19.4778 27.3041C19.6631 27.4361 19.7997 27.6254 19.8666 27.8427C19.9053 27.9727 19.9329 28.1057 19.9489 28.2404C19.9672 28.421 19.9753 28.6024 19.9731 28.7839C19.9752 28.967 19.9671 29.1502 19.9489 29.3325Z" fill="#4C3C8D"/>
<path id="Path 6669" d="M24.2473 26.3573C23.9675 26.3485 23.6901 26.4102 23.4404 26.5366C23.2378 26.6402 23.0667 26.796 22.9447 26.9878H22.9351V26.5608C22.937 26.5476 22.9357 26.5342 22.9315 26.5216C22.9273 26.5091 22.9202 26.4976 22.9108 26.4882C22.9014 26.4788 22.8899 26.4717 22.8773 26.4675C22.8647 26.4633 22.8513 26.4621 22.8381 26.4639H22.2151C22.2019 26.462 22.1885 26.4632 22.1758 26.4674C22.1632 26.4716 22.1517 26.4787 22.1423 26.4881C22.1329 26.4975 22.1258 26.509 22.1216 26.5216C22.1174 26.5342 22.1162 26.5476 22.1181 26.5608V31.0152C22.1162 31.0284 22.1174 31.0418 22.1216 31.0544C22.1258 31.0671 22.1329 31.0785 22.1423 31.0879C22.1517 31.0973 22.1632 31.1044 22.1758 31.1086C22.1885 31.1128 22.2019 31.114 22.2151 31.1121H22.8381C22.8513 31.114 22.8647 31.1128 22.8774 31.1086C22.89 31.1044 22.9015 31.0973 22.9109 31.0879C22.9203 31.0785 22.9274 31.0671 22.9316 31.0544C22.9358 31.0418 22.937 31.0284 22.9351 31.0152V28.2494C22.927 28.0985 22.949 27.9474 22.9999 27.805C23.0508 27.6626 23.1295 27.5317 23.2315 27.42C23.3318 27.318 23.4523 27.2382 23.5853 27.1855C23.7183 27.1328 23.8609 27.1084 24.0038 27.1141C24.1494 27.1029 24.2955 27.1251 24.4311 27.179C24.5667 27.2329 24.6882 27.3171 24.7862 27.4251C24.972 27.6769 25.0633 27.9859 25.0441 28.2981V31.0152C25.0421 31.0284 25.0433 31.0418 25.0475 31.0545C25.0517 31.0671 25.0588 31.0786 25.0682 31.088C25.0776 31.0974 25.0891 31.1045 25.1018 31.1087C25.1144 31.1129 25.1279 31.1141 25.1411 31.1121H25.763C25.7762 31.114 25.7896 31.1128 25.8023 31.1086C25.8149 31.1044 25.8264 31.0973 25.8359 31.0879C25.8453 31.0785 25.8524 31.0671 25.8566 31.0545C25.8609 31.0418 25.8621 31.0284 25.8602 31.0152V28.1046C25.8837 27.642 25.7309 27.1876 25.4326 26.833C25.2817 26.6721 25.0974 26.5462 24.8926 26.4641C24.6878 26.382 24.4674 26.3457 24.247 26.3577" fill="#4C3C8D"/>
<path id="Path 6670" d="M29.0703 26.3578C28.758 26.3528 28.4468 26.3952 28.1473 26.4838C27.9091 26.5541 27.6852 26.6659 27.486 26.8142C27.4674 26.831 27.4553 26.8538 27.4518 26.8786C27.4483 26.9034 27.4535 26.9286 27.4667 26.95L27.7292 27.3963C27.7617 27.4482 27.8071 27.4514 27.8654 27.4059C28.0089 27.3053 28.1657 27.2253 28.3313 27.1681C28.5451 27.101 28.7686 27.0698 28.9926 27.0759C29.4264 27.0759 29.7212 27.1471 29.8771 27.2895C29.9626 27.3833 30.0274 27.4939 30.0676 27.6143C30.1077 27.7346 30.1223 27.862 30.1103 27.9882V28.3278C30.1114 28.3357 30.1107 28.3437 30.1081 28.3513C30.1056 28.3588 30.1013 28.3657 30.0957 28.3714C30.09 28.377 30.0832 28.3813 30.0756 28.3838C30.068 28.3863 30.0599 28.3871 30.052 28.386H28.9929C28.5216 28.3585 28.0538 28.4807 27.6565 28.7352C27.4926 28.8625 27.363 29.0283 27.279 29.2179C27.1951 29.4075 27.1596 29.6149 27.1756 29.8215C27.171 30.0317 27.2124 30.2403 27.2971 30.4328C27.3732 30.6011 27.4861 30.7502 27.6275 30.8691C27.7731 30.9895 27.9416 31.079 28.1228 31.1324C28.3231 31.1919 28.5312 31.2212 28.7401 31.2195C29.0414 31.231 29.3412 31.171 29.6148 31.0444C29.8196 30.9473 29.9942 30.7964 30.1201 30.6081H30.1297V31.0156C30.1278 31.0287 30.1291 31.0422 30.1333 31.0548C30.1375 31.0674 30.1446 31.0789 30.1541 31.0883C30.1635 31.0977 30.175 31.1048 30.1876 31.109C30.2003 31.1133 30.2137 31.1145 30.2269 31.1127H30.8005C30.8137 31.1145 30.8272 31.1133 30.8398 31.1091C30.8524 31.1048 30.8639 31.0977 30.8733 31.0883C30.8827 31.0789 30.8898 31.0674 30.894 31.0548C30.8982 31.0422 30.8994 31.0287 30.8975 31.0156V27.9394C30.8975 27.3701 30.7582 26.9643 30.4795 26.7218C30.2007 26.4793 29.731 26.358 29.0703 26.3578ZM30.1103 29.6089C30.1169 29.7381 30.092 29.867 30.0377 29.9845C29.9835 30.102 29.9015 30.2046 29.7988 30.2835C29.5447 30.4557 29.2407 30.5393 28.9341 30.5212C28.6808 30.5368 28.4289 30.4722 28.2145 30.3366C28.1305 30.274 28.0635 30.1916 28.0194 30.0967C27.9753 30.0018 27.9556 29.8975 27.962 29.7931C27.9529 29.6814 27.9732 29.5694 28.0209 29.468C28.0687 29.3667 28.1422 29.2796 28.2341 29.2154C28.5066 29.075 28.8128 29.0128 29.1186 29.0359H30.0516C30.0595 29.0348 30.0676 29.0356 30.0752 29.0381C30.0828 29.0407 30.0897 29.045 30.0953 29.0507C30.101 29.0564 30.1052 29.0633 30.1078 29.0709C30.1103 29.0785 30.111 29.0866 30.1099 29.0945L30.1103 29.6089Z" fill="#4C3C8D"/>
<path id="Path 6671" d="M33.8982 30.4032H33.7133C33.6498 30.4089 33.5858 30.402 33.5249 30.3829C33.4641 30.3639 33.4077 30.333 33.3588 30.2921C33.2716 30.177 33.2318 30.0328 33.2475 29.8893V24.6097C33.2494 24.5965 33.2481 24.583 33.2438 24.5704C33.2395 24.5577 33.2324 24.5462 33.2229 24.5368C33.2134 24.5274 33.2019 24.5203 33.1892 24.5161C33.1766 24.5119 33.1631 24.5107 33.1499 24.5126H32.5277C32.5145 24.5107 32.5011 24.512 32.4884 24.5162C32.4758 24.5204 32.4643 24.5275 32.4549 24.5369C32.4454 24.5463 32.4383 24.5578 32.4341 24.5704C32.4299 24.5831 32.4286 24.5965 32.4305 24.6097V29.9373C32.403 30.2678 32.4964 30.597 32.6933 30.8641C32.8094 30.9729 32.9475 31.0556 33.0984 31.1067C33.2492 31.1577 33.4093 31.1759 33.5677 31.16H33.8982C33.9113 31.1619 33.9248 31.1607 33.9374 31.1565C33.9501 31.1523 33.9615 31.1452 33.971 31.1358C33.9804 31.1264 33.9875 31.115 33.9917 31.1023C33.9959 31.0897 33.9971 31.0763 33.9952 31.0631V30.4999C33.9971 30.4867 33.9959 30.4733 33.9917 30.4607C33.9875 30.4481 33.9804 30.4366 33.971 30.4272C33.9615 30.4178 33.9501 30.4107 33.9374 30.4065C33.9248 30.4023 33.9113 30.4013 33.8982 30.4032Z" fill="#4C3C8D"/>
<path id="Path 6672" d="M38.1698 26.7106C38.1769 26.6097 38.1899 26.5094 38.2088 26.41C38.2248 26.3293 38.2427 26.2534 38.2624 26.1823C38.3527 25.8991 38.5253 25.6492 38.7581 25.4641C39.0133 25.285 39.3211 25.1961 39.6326 25.2117C39.9343 25.1971 40.2321 25.2843 40.4781 25.4593C40.696 25.6292 40.8722 25.8464 40.9935 26.0945C40.9967 26.1085 41.0034 26.1215 41.0129 26.1322C41.0224 26.143 41.0346 26.1512 41.0481 26.156C41.0616 26.1609 41.0762 26.1622 41.0904 26.16C41.1046 26.1577 41.118 26.1519 41.1294 26.1432L41.7124 25.8619C41.7341 25.8502 41.7504 25.8305 41.7578 25.807C41.7651 25.7835 41.763 25.758 41.7518 25.7361C41.5821 25.3306 41.2921 24.9868 40.9207 24.7509C40.5132 24.5186 40.0507 24.3997 39.5815 24.4065C39.1122 24.4134 38.6534 24.5457 38.2528 24.7898C37.8556 25.0756 37.5677 25.4881 37.4367 25.9592C37.4039 26.0562 37.3763 26.1549 37.3541 26.2549C37.3285 26.3734 37.3105 26.4934 37.3005 26.6142C37.2876 26.7531 37.2778 26.9196 37.2711 27.1137C37.2644 27.3077 37.2613 27.5406 37.2618 27.8125C37.2618 28.0843 37.2649 28.3171 37.2711 28.511C37.2773 28.7049 37.2871 28.8714 37.3005 29.0105C37.3105 29.1313 37.3284 29.2513 37.3541 29.3698C37.3763 29.4698 37.4039 29.5686 37.4367 29.6657C37.5678 30.1368 37.8556 30.5492 38.2528 30.8351C38.6627 31.1005 39.1441 31.2342 39.6324 31.2184C40.0858 31.2291 40.5327 31.1094 40.92 30.8738C41.2914 30.638 41.5815 30.2942 41.7511 29.8888C41.7622 29.8668 41.7643 29.8414 41.757 29.8179C41.7496 29.7943 41.7334 29.7746 41.7117 29.7628L41.1288 29.4815C41.1174 29.4728 41.1039 29.4671 41.0897 29.4648C41.0756 29.4626 41.061 29.464 41.0475 29.4688C41.034 29.4737 41.0219 29.4818 41.0123 29.4926C41.0028 29.5033 40.9961 29.5162 40.9928 29.5302C40.8717 29.7785 40.6954 29.9959 40.4775 30.1659C40.2314 30.3407 39.9336 30.4277 39.6319 30.4129C39.3204 30.4286 39.0126 30.3398 38.7575 30.1608C38.5248 29.9756 38.3523 29.7257 38.2617 29.4427C38.24 29.3696 38.2221 29.2954 38.2081 29.2205C38.1895 29.1193 38.1765 29.0173 38.1692 28.9147C38.1598 28.7952 38.1514 28.6466 38.1451 28.4684C38.1389 28.2902 38.1351 28.0724 38.1351 27.8133C38.1351 27.5543 38.1382 27.3363 38.1451 27.1581C38.152 26.9799 38.1598 26.8317 38.1692 26.7117" fill="#4C3C8D"/>
<path id="Path 6673" d="M46.6027 28.1226C46.5896 28.0195 46.5749 27.9269 46.5582 27.8458C46.542 27.7653 46.5209 27.6859 46.495 27.608C46.3829 27.2309 46.1444 26.9037 45.8195 26.6813C45.4777 26.4585 45.076 26.3452 44.668 26.3562C44.2606 26.3451 43.8594 26.4567 43.5165 26.6766C43.1892 26.8987 42.9502 27.2283 42.841 27.608C42.7855 27.7668 42.7482 27.9313 42.7297 28.0984C42.7047 28.3255 42.6933 28.5539 42.6957 28.7823C42.693 29.0094 42.7059 29.2364 42.7344 29.4618C42.7572 29.6301 42.7962 29.7959 42.851 29.9568C42.9612 30.3374 43.1999 30.6682 43.5265 30.8931C43.8811 31.1197 44.2963 31.2331 44.7169 31.2184C45.0871 31.2268 45.4544 31.1508 45.7908 30.9962C46.0782 30.863 46.3322 30.6673 46.5342 30.4234C46.5435 30.4144 46.5508 30.4034 46.5554 30.3913C46.56 30.3792 46.562 30.3662 46.5611 30.3533C46.5602 30.3403 46.5564 30.3278 46.5501 30.3164C46.5438 30.3051 46.5351 30.2953 46.5246 30.2876L46.1263 29.9284C46.0818 29.8897 46.0322 29.8959 45.9801 29.9479C45.8443 30.1018 45.6792 30.2271 45.4944 30.3165C45.2726 30.4195 45.0298 30.4695 44.7852 30.4623C44.5245 30.4706 44.2673 30.401 44.0465 30.2623C43.8356 30.1161 43.6812 29.9021 43.6091 29.656C43.5828 29.5768 43.5633 29.4955 43.5508 29.4131C43.5363 29.3069 43.5298 29.1998 43.5314 29.0927C43.5303 29.0848 43.531 29.0767 43.5336 29.0692C43.5361 29.0616 43.5404 29.0547 43.546 29.0491C43.5517 29.0434 43.5586 29.0392 43.5661 29.0367C43.5737 29.0341 43.5818 29.0334 43.5897 29.0345H46.5342C46.6054 29.0345 46.6412 29.0021 46.6412 28.9376C46.6412 28.763 46.6376 28.609 46.6316 28.4766C46.6256 28.3442 46.6152 28.2259 46.6023 28.1224M45.7483 28.3848H43.5899C43.582 28.3859 43.5739 28.3852 43.5664 28.3826C43.5588 28.3801 43.5519 28.3759 43.5462 28.3702C43.5406 28.3646 43.5363 28.3577 43.5338 28.3501C43.5313 28.3426 43.5305 28.3345 43.5316 28.3266C43.5265 28.1494 43.5494 27.9725 43.5995 27.8025C43.6665 27.5839 43.8051 27.3942 43.9931 27.2639C44.1966 27.1401 44.4302 27.0746 44.6684 27.0746C44.9067 27.0746 45.1403 27.1401 45.3437 27.2639C45.5316 27.3944 45.6703 27.584 45.7376 27.8025C45.7875 27.9726 45.8104 28.1494 45.8055 28.3266C45.8066 28.3345 45.8058 28.3426 45.8033 28.3501C45.8008 28.3577 45.7965 28.3646 45.7908 28.3702C45.7852 28.3759 45.7783 28.3801 45.7707 28.3826C45.7631 28.3852 45.7551 28.3859 45.7472 28.3848" fill="#4C3C8D"/>
<path id="Path 6674" d="M50.0793 26.3573C49.7996 26.3485 49.5221 26.4102 49.2725 26.5366C49.0699 26.6402 48.8987 26.796 48.7767 26.9878H48.7672V26.5608C48.769 26.5476 48.7678 26.5342 48.7636 26.5216C48.7593 26.5091 48.7522 26.4976 48.7428 26.4882C48.7334 26.4788 48.722 26.4717 48.7094 26.4675C48.6967 26.4633 48.6833 26.4621 48.6701 26.4639H48.0471C48.0339 26.462 48.0205 26.4632 48.0078 26.4674C47.9952 26.4716 47.9837 26.4787 47.9743 26.4881C47.9649 26.4975 47.9578 26.509 47.9536 26.5216C47.9494 26.5342 47.9482 26.5476 47.9501 26.5608V31.0152C47.9482 31.0284 47.9494 31.0418 47.9536 31.0544C47.9578 31.0671 47.9649 31.0785 47.9743 31.0879C47.9837 31.0973 47.9952 31.1044 48.0078 31.1086C48.0205 31.1128 48.0339 31.114 48.0471 31.1121H48.6701C48.6833 31.114 48.6968 31.1128 48.7094 31.1086C48.722 31.1044 48.7335 31.0973 48.7429 31.0879C48.7524 31.0785 48.7594 31.0671 48.7637 31.0544C48.7679 31.0418 48.7691 31.0284 48.7672 31.0152V28.2494C48.759 28.0985 48.781 27.9474 48.8319 27.805C48.8828 27.6626 48.9615 27.5317 49.0635 27.42C49.1638 27.318 49.2843 27.2382 49.4173 27.1855C49.5503 27.1328 49.6929 27.1084 49.8359 27.1141C49.9814 27.1028 50.1276 27.1251 50.2633 27.179C50.3989 27.2329 50.5204 27.3171 50.6184 27.4251C50.8044 27.677 50.8957 27.9862 50.8763 28.2985V31.0152C50.8744 31.0284 50.8755 31.0418 50.8797 31.0545C50.8839 31.0671 50.891 31.0786 50.9004 31.088C50.9099 31.0974 50.9214 31.1045 50.934 31.1087C50.9467 31.1129 50.9601 31.1141 50.9733 31.1121H51.5953C51.6084 31.114 51.6219 31.1128 51.6345 31.1086C51.6472 31.1044 51.6587 31.0973 51.6681 31.0879C51.6775 31.0785 51.6847 31.0671 51.6889 31.0545C51.6931 31.0418 51.6944 31.0284 51.6925 31.0152V28.1046C51.716 27.642 51.5632 27.1876 51.2648 26.833C51.114 26.6721 50.9296 26.5462 50.7248 26.4641C50.52 26.382 50.2997 26.3457 50.0793 26.3577" fill="#4C3C8D"/>
<path id="Path 6675" d="M54.9467 26.4632H54.2087C54.2007 26.4644 54.1926 26.4637 54.185 26.4612C54.1773 26.4587 54.1704 26.4544 54.1647 26.4488C54.159 26.4431 54.1547 26.4362 54.1521 26.4286C54.1495 26.421 54.1488 26.4129 54.1499 26.405V25.0941C54.1518 25.0809 54.1506 25.0674 54.1464 25.0548C54.1422 25.0421 54.1351 25.0306 54.1256 25.0212C54.1162 25.0118 54.1047 25.0047 54.092 25.0005C54.0794 24.9963 54.0659 24.9951 54.0527 24.997H53.4312C53.418 24.9951 53.4046 24.9964 53.3919 25.0006C53.3793 25.0048 53.3678 25.0119 53.3584 25.0213C53.3489 25.0307 53.3418 25.0422 53.3376 25.0548C53.3334 25.0674 53.3321 25.0809 53.334 25.0941V26.405C53.3351 26.4129 53.3343 26.4209 53.3318 26.4285C53.3293 26.4361 53.325 26.4429 53.3194 26.4486C53.3137 26.4542 53.3068 26.4585 53.2992 26.461C53.2917 26.4636 53.2836 26.4643 53.2757 26.4632H52.887C52.8738 26.4613 52.8603 26.4625 52.8477 26.4667C52.8351 26.4709 52.8236 26.478 52.8142 26.4874C52.8047 26.4968 52.7976 26.5082 52.7934 26.5209C52.7892 26.5335 52.788 26.5469 52.7899 26.5601V27.0267C52.788 27.0398 52.7893 27.0533 52.7935 27.0659C52.7977 27.0785 52.8047 27.09 52.8142 27.0994C52.8236 27.1088 52.835 27.1159 52.8477 27.1202C52.8603 27.1244 52.8738 27.1256 52.887 27.1238H53.2755C53.2834 27.1226 53.2915 27.1233 53.2991 27.1258C53.3067 27.1283 53.3136 27.1326 53.3192 27.1382C53.3249 27.1439 53.3292 27.1508 53.3317 27.1584C53.3342 27.166 53.3349 27.1741 53.3338 27.182V29.8404C53.3028 30.1991 53.4049 30.5566 53.6206 30.845C53.8115 31.055 54.1338 31.16 54.5876 31.16H54.947C54.9601 31.162 54.9736 31.1608 54.9863 31.1566C54.999 31.1524 55.0105 31.1454 55.0199 31.1359C55.0294 31.1265 55.0365 31.1151 55.0407 31.1024C55.0449 31.0898 55.0461 31.0763 55.0442 31.0632V30.5006C55.0461 30.4874 55.0449 30.4739 55.0407 30.4613C55.0365 30.4486 55.0293 30.4371 55.0199 30.4277C55.0105 30.4183 54.999 30.4112 54.9863 30.407C54.9736 30.4028 54.9602 30.4016 54.947 30.4035H54.744C54.5838 30.4173 54.4238 30.3743 54.2921 30.2822C54.2372 30.2178 54.1963 30.1427 54.1721 30.0617C54.1478 29.9806 54.1407 29.8955 54.1513 29.8116V27.1817C54.1501 27.1738 54.1509 27.1657 54.1534 27.1581C54.156 27.1505 54.1603 27.1436 54.166 27.1379C54.1717 27.1323 54.1787 27.128 54.1863 27.1255C54.1939 27.123 54.202 27.1223 54.21 27.1235H54.9481C54.9613 27.1254 54.9747 27.1242 54.9874 27.12C55.0001 27.1158 55.0116 27.1087 55.021 27.0993C55.0305 27.0899 55.0376 27.0784 55.0418 27.0657C55.046 27.0531 55.0472 27.0396 55.0453 27.0264V26.5598C55.0472 26.5467 55.0459 26.5332 55.0417 26.5206C55.0375 26.508 55.0303 26.4965 55.0209 26.4871C55.0115 26.4778 55 26.4707 54.9873 26.4665C54.9747 26.4623 54.9613 26.4611 54.9481 26.463" fill="#4C3C8D"/>
<path id="Path 6676" d="M59.9347 28.1226C59.9216 28.0195 59.9069 27.9269 59.8902 27.8458C59.8741 27.7653 59.853 27.6859 59.827 27.608C59.715 27.2309 59.4764 26.9037 59.1515 26.6813C58.8097 26.4585 58.408 26.3452 58 26.3562C57.5927 26.3451 57.1914 26.4567 56.8485 26.6766C56.5213 26.8987 56.2823 27.2283 56.173 27.608C56.1175 27.7668 56.0802 27.9313 56.0617 28.0984C56.0367 28.3255 56.0253 28.5539 56.0277 28.7823C56.025 29.0094 56.038 29.2364 56.0664 29.4618C56.0892 29.6301 56.1282 29.7959 56.183 29.9568C56.2932 30.3374 56.5319 30.6682 56.8585 30.8931C57.2131 31.1197 57.6283 31.2331 58.049 31.2184C58.4192 31.2268 58.7864 31.1508 59.1228 30.9962C59.4102 30.863 59.6642 30.6673 59.8662 30.4234C59.8755 30.4144 59.8828 30.4034 59.8874 30.3913C59.8921 30.3792 59.894 30.3662 59.8931 30.3533C59.8922 30.3403 59.8884 30.3278 59.8821 30.3164C59.8759 30.3051 59.8671 30.2953 59.8566 30.2876L59.4583 29.9284C59.4138 29.8897 59.3642 29.8959 59.3122 29.9479C59.1764 30.1018 59.0112 30.2271 58.8264 30.3165C58.6046 30.4195 58.3618 30.4695 58.1173 30.4623C57.8566 30.4706 57.5993 30.401 57.3785 30.2623C57.1676 30.1161 57.0132 29.9021 56.9411 29.656C56.9149 29.5768 56.8954 29.4955 56.8828 29.4131C56.8683 29.3069 56.8618 29.1998 56.8634 29.0927C56.8623 29.0848 56.8631 29.0767 56.8656 29.0692C56.8681 29.0616 56.8724 29.0547 56.8781 29.0491C56.8837 29.0434 56.8906 29.0392 56.8982 29.0367C56.9057 29.0341 56.9138 29.0334 56.9217 29.0345H59.8662C59.9374 29.0345 59.9732 29.0021 59.9732 28.9376C59.9732 28.763 59.9697 28.609 59.9637 28.4766C59.9577 28.3442 59.9472 28.2259 59.9343 28.1224M59.0792 28.3846H56.9208C56.9129 28.3857 56.9049 28.385 56.8973 28.3824C56.8897 28.3799 56.8828 28.3756 56.8772 28.37C56.8715 28.3643 56.8672 28.3575 56.8647 28.3499C56.8622 28.3423 56.8614 28.3343 56.8625 28.3264C56.8574 28.1492 56.8803 27.9723 56.9304 27.8022C56.9975 27.5837 57.1362 27.394 57.3243 27.2636C57.5277 27.1399 57.7613 27.0744 57.9996 27.0744C58.2378 27.0744 58.4714 27.1399 58.6749 27.2636C58.8627 27.3942 59.0013 27.5838 59.0685 27.8022C59.1184 27.9723 59.1413 28.1492 59.1364 28.3264C59.1375 28.3343 59.1367 28.3423 59.1342 28.3499C59.1317 28.3575 59.1274 28.3643 59.1218 28.37C59.1161 28.3756 59.1092 28.3799 59.1016 28.3824C59.0941 28.385 59.086 28.3857 59.0781 28.3846" fill="#4C3C8D"/>
<path id="Path 6677" d="M63.8728 26.4487C63.7033 26.3865 63.5239 26.3553 63.3432 26.3565C63.073 26.3463 62.8054 26.4117 62.5705 26.5454C62.3743 26.6634 62.2146 26.8332 62.1088 27.036H62.0992V26.56C62.101 26.5469 62.0998 26.5335 62.0956 26.5209C62.0914 26.5083 62.0843 26.4968 62.0749 26.4874C62.0655 26.4781 62.054 26.471 62.0414 26.4668C62.0288 26.4625 62.0153 26.4613 62.0022 26.4632H61.3791C61.366 26.4613 61.3525 26.4625 61.3399 26.4667C61.3272 26.4709 61.3158 26.4779 61.3063 26.4873C61.2969 26.4967 61.2898 26.5082 61.2856 26.5208C61.2814 26.5334 61.2802 26.5469 61.2821 26.56V31.0145C61.2802 31.0276 61.2814 31.0411 61.2856 31.0537C61.2898 31.0663 61.2969 31.0778 61.3063 31.0872C61.3158 31.0966 61.3272 31.1037 61.3399 31.108C61.3525 31.1122 61.3659 31.1134 61.3791 31.1116H62.0022C62.0154 31.1134 62.0288 31.1122 62.0414 31.108C62.0541 31.1037 62.0656 31.0966 62.075 31.0872C62.0844 31.0778 62.0915 31.0663 62.0957 31.0537C62.0999 31.0411 62.1011 31.0276 62.0992 31.0145V28.472C62.0834 28.1284 62.1642 27.7872 62.3324 27.487C62.4149 27.3614 62.5298 27.2604 62.6649 27.1946C62.8001 27.1288 62.9506 27.1006 63.1005 27.1131C63.2289 27.1121 63.3566 27.1317 63.4787 27.1713C63.5987 27.2118 63.7131 27.2673 63.8192 27.3364C63.8285 27.3458 63.8399 27.353 63.8525 27.3572C63.8651 27.3615 63.8785 27.3628 63.8917 27.3609C63.9049 27.3591 63.9174 27.3542 63.9284 27.3467C63.9393 27.3391 63.9483 27.3291 63.9547 27.3175L64.3149 26.8429C64.3228 26.8327 64.3285 26.8211 64.3317 26.8088C64.335 26.7964 64.3357 26.7835 64.3339 26.7708C64.3321 26.7582 64.3278 26.746 64.3212 26.735C64.3146 26.724 64.3059 26.7145 64.2956 26.7069C64.1733 26.5938 64.0296 26.5063 63.8728 26.4498" fill="#4C3C8D"/>
<path id="Path 6678" d="M69.5361 24.513H69.1768C68.7886 24.4805 68.4031 24.6007 68.1025 24.8481C67.8729 25.0713 67.7578 25.4579 67.7574 26.0079V26.4056C67.7585 26.4135 67.7578 26.4215 67.7553 26.4291C67.7528 26.4366 67.7486 26.4435 67.743 26.4492C67.7374 26.4548 67.7305 26.4591 67.723 26.4616C67.7155 26.4642 67.7074 26.4649 67.6995 26.4639H67.3012C67.288 26.462 67.2746 26.4632 67.262 26.4674C67.2493 26.4716 67.2378 26.4786 67.2284 26.488C67.2189 26.4974 67.2118 26.5089 67.2076 26.5215C67.2034 26.5341 67.2021 26.5476 67.204 26.5607V27.0273C67.2021 27.0405 67.2033 27.054 67.2075 27.0666C67.2117 27.0793 67.2188 27.0907 67.2283 27.1002C67.2377 27.1096 67.2492 27.1167 67.2619 27.1209C67.2746 27.1251 67.288 27.1263 67.3012 27.1244H67.6995C67.7074 27.1233 67.7155 27.1241 67.723 27.1267C67.7305 27.1292 67.7374 27.1335 67.743 27.1391C67.7486 27.1448 67.7528 27.1516 67.7553 27.1592C67.7578 27.1667 67.7585 27.1748 67.7574 27.1826V31.0149C67.7556 31.0281 67.7568 31.0416 67.7611 31.0542C67.7654 31.0669 67.7725 31.0783 67.782 31.0877C67.7915 31.0971 67.803 31.1042 67.8157 31.1084C67.8284 31.1126 67.8418 31.1137 67.8551 31.1118H68.477C68.4902 31.1137 68.5036 31.1125 68.5163 31.1083C68.5289 31.1041 68.5404 31.097 68.5498 31.0876C68.5593 31.0782 68.5664 31.0668 68.5706 31.0542C68.5748 31.0415 68.5761 31.0281 68.5742 31.0149V27.182C68.5731 27.174 68.5738 27.1659 68.5764 27.1583C68.579 27.1507 68.5833 27.1438 68.589 27.1381C68.5947 27.1325 68.6016 27.1282 68.6093 27.1258C68.6169 27.1233 68.625 27.1226 68.633 27.1238H69.5363C69.5495 27.1256 69.563 27.1244 69.5756 27.1202C69.5883 27.1159 69.5997 27.1088 69.6091 27.0994C69.6186 27.09 69.6256 27.0785 69.6298 27.0659C69.634 27.0533 69.6353 27.0398 69.6334 27.0267V26.5601C69.6353 26.5469 69.6341 26.5335 69.6299 26.5209C69.6257 26.5082 69.6186 26.4968 69.6091 26.4874C69.5997 26.478 69.5882 26.4709 69.5756 26.4667C69.563 26.4625 69.5495 26.4613 69.5363 26.4632H68.633C68.625 26.4644 68.6169 26.4637 68.6093 26.4612C68.6016 26.4587 68.5947 26.4544 68.589 26.4488C68.5833 26.4431 68.579 26.4362 68.5764 26.4286C68.5738 26.421 68.5731 26.4129 68.5742 26.405V25.969C68.5718 25.8519 68.5816 25.7348 68.6036 25.6198C68.6149 25.5388 68.6523 25.4638 68.7101 25.406C68.7679 25.3481 68.843 25.3106 68.924 25.2991C69.0425 25.2775 69.1629 25.2678 69.2834 25.2703H69.5361C69.5493 25.2722 69.5627 25.271 69.5754 25.2668C69.588 25.2626 69.5995 25.2555 69.6089 25.2461C69.6183 25.2367 69.6254 25.2252 69.6296 25.2126C69.6338 25.2 69.635 25.1865 69.6331 25.1734V24.6101C69.635 24.597 69.6338 24.5835 69.6296 24.5709C69.6254 24.5583 69.6183 24.5468 69.6089 24.5374C69.5995 24.528 69.588 24.5209 69.5754 24.5166C69.5628 24.5124 69.5493 24.5112 69.5361 24.513Z" fill="#4C3C8D"/>
<path id="Path 6679" d="M74.2209 27.6089C74.1084 27.2319 73.8698 26.9048 73.5449 26.6824C73.1949 26.4698 72.7931 26.3574 72.3835 26.3574C71.9738 26.3574 71.5721 26.4698 71.2221 26.6824C70.8972 26.9049 70.6587 27.2321 70.5466 27.6092C70.4939 27.7738 70.4548 27.9425 70.4297 28.1135C70.4011 28.3355 70.3881 28.5592 70.391 28.783C70.3882 29.0085 70.4012 29.2339 70.4297 29.4575C70.4543 29.6303 70.4933 29.8006 70.5463 29.9668C70.661 30.3414 70.899 30.6664 71.2219 30.8889C71.5707 31.1046 71.9729 31.2189 72.3833 31.2189C72.7936 31.2189 73.1958 31.1046 73.5447 30.8889C73.8674 30.6662 74.1054 30.3413 74.2202 29.9668C74.2729 29.8005 74.3119 29.6302 74.3368 29.4575C74.3654 29.2339 74.3783 29.0085 74.3755 28.783C74.3784 28.5592 74.3655 28.3355 74.3368 28.1135C74.3115 27.9425 74.2725 27.7738 74.2202 27.6089M73.516 29.3322C73.5004 29.4687 73.4728 29.6034 73.4336 29.7351C73.3667 29.9523 73.2301 30.1415 73.0449 30.2736C72.8467 30.3973 72.6176 30.4629 72.3838 30.4629C72.1501 30.4629 71.921 30.3973 71.7227 30.2736C71.5374 30.1416 71.4008 29.9524 71.334 29.7351C71.2948 29.6034 71.2673 29.4687 71.2517 29.3322C71.2333 29.15 71.2252 28.9668 71.2274 28.7837C71.2251 28.6022 71.2332 28.4207 71.2517 28.2402C71.2677 28.1055 71.2952 27.9724 71.334 27.8425C71.4007 27.6251 71.5374 27.4358 71.7227 27.3039C71.921 27.1802 72.1501 27.1146 72.3838 27.1146C72.6176 27.1146 72.8467 27.1802 73.0449 27.3039C73.2302 27.4359 73.3668 27.6252 73.4336 27.8425C73.4724 27.9724 73.5 28.1055 73.516 28.2402C73.5342 28.4207 73.5423 28.6022 73.5402 28.7837C73.5422 28.9668 73.5341 29.15 73.516 29.3322Z" fill="#4C3C8D"/>
<path id="Path 6680" d="M78.2752 26.4487C78.1056 26.3865 77.9262 26.3553 77.7456 26.3565C77.4754 26.3463 77.2077 26.4117 76.9728 26.5454C76.7767 26.6634 76.6169 26.8332 76.5111 27.036H76.5015V26.56C76.5034 26.5469 76.5021 26.5335 76.4979 26.5209C76.4937 26.5083 76.4866 26.4968 76.4772 26.4874C76.4678 26.4781 76.4563 26.471 76.4437 26.4668C76.4311 26.4625 76.4177 26.4613 76.4045 26.4632H75.7815C75.7683 26.4613 75.7549 26.4625 75.7422 26.4667C75.7296 26.4709 75.7181 26.4779 75.7087 26.4873C75.6993 26.4967 75.6922 26.5082 75.688 26.5208C75.6838 26.5334 75.6826 26.5469 75.6845 26.56V31.0145C75.6826 31.0276 75.6838 31.0411 75.688 31.0537C75.6922 31.0663 75.6993 31.0778 75.7087 31.0872C75.7181 31.0966 75.7296 31.1037 75.7422 31.108C75.7548 31.1122 75.7683 31.1134 75.7815 31.1116H76.4045C76.4177 31.1134 76.4312 31.1122 76.4438 31.108C76.4564 31.1037 76.4679 31.0966 76.4773 31.0872C76.4867 31.0778 76.4938 31.0663 76.498 31.0537C76.5022 31.0411 76.5034 31.0276 76.5015 31.0145V28.472C76.4857 28.1284 76.5665 27.7872 76.7347 27.487C76.8172 27.3614 76.9321 27.2604 77.0673 27.1946C77.2025 27.1288 77.3529 27.1006 77.5028 27.1131C77.6312 27.1121 77.7589 27.1317 77.8811 27.1713C78.0011 27.2118 78.1154 27.2673 78.2215 27.3364C78.2309 27.3458 78.2423 27.353 78.2549 27.3572C78.2675 27.3615 78.2809 27.3628 78.294 27.3609C78.3072 27.3591 78.3198 27.3542 78.3307 27.3467C78.3416 27.3391 78.3507 27.3291 78.357 27.3175L78.7173 26.8429C78.7251 26.8327 78.7308 26.8211 78.7341 26.8088C78.7373 26.7964 78.7381 26.7835 78.7363 26.7708C78.7345 26.7582 78.7302 26.746 78.7236 26.735C78.717 26.724 78.7083 26.7145 78.6979 26.7069C78.5757 26.5938 78.4319 26.5063 78.2752 26.4498" fill="#4C3C8D"/>
<path id="Path 6681" d="M84.482 24.5138H83.8503C83.8225 24.5135 83.7954 24.5232 83.7741 24.5409C83.7527 24.5587 83.7384 24.5836 83.7337 24.6109L81.4405 31.0157C81.4208 31.0803 81.4434 31.1126 81.5084 31.1126H82.1881C82.2169 31.1124 82.2448 31.1029 82.2675 31.0854C82.2903 31.0679 82.3067 31.0434 82.3143 31.0157L82.8196 29.5795H85.4924L85.9977 31.0157C86.0036 31.0443 86.0195 31.0699 86.0427 31.0877C86.0659 31.1055 86.0947 31.1143 86.1239 31.1126H86.8041C86.8688 31.1126 86.8918 31.0804 86.872 31.0157L84.6086 24.6109C84.6025 24.5823 84.5864 24.5568 84.5632 24.539C84.54 24.5212 84.5112 24.5123 84.482 24.5138ZM83.1024 28.7836L84.1524 25.7854H84.1714L85.2114 28.7836H83.1024Z" fill="#4C3C8D"/>
<path id="Path 6682" d="M89.9815 28.3858L89.4955 28.3369C89.2426 28.334 88.9948 28.2656 88.7764 28.1382C88.7118 28.0871 88.6604 28.0212 88.6266 27.946C88.5928 27.8709 88.5775 27.7888 88.5821 27.7065C88.5803 27.6176 88.5994 27.5295 88.6381 27.4494C88.6768 27.3693 88.7338 27.2994 88.8046 27.2455C88.9982 27.1126 89.2312 27.0493 89.4655 27.066C89.7021 27.0653 89.937 27.1047 90.1604 27.1824C90.3563 27.2472 90.5438 27.335 90.7189 27.4441C90.7289 27.4522 90.7405 27.4581 90.7529 27.4615C90.7653 27.4649 90.7782 27.4657 90.791 27.464C90.8037 27.4622 90.8159 27.4579 90.8269 27.4512C90.8379 27.4445 90.8474 27.4357 90.8549 27.4252L91.1853 27.0077C91.2247 26.9495 91.2178 26.9047 91.1659 26.872C90.9492 26.7114 90.708 26.5869 90.4514 26.5032C90.1492 26.4028 89.8323 26.3535 89.5138 26.3574C89.0572 26.3286 88.605 26.4608 88.2361 26.7309C88.0854 26.8582 87.9661 27.0186 87.8877 27.1996C87.8093 27.3806 87.7739 27.5772 87.7842 27.7741C87.7755 27.9406 87.8021 28.1071 87.8625 28.2627C87.9228 28.4182 88.0154 28.5592 88.1342 28.6764C88.4272 28.9215 88.7921 29.0647 89.1738 29.0841L89.6695 29.1328C89.9266 29.1365 90.1774 29.2121 90.3936 29.3509C90.4535 29.4054 90.5006 29.4723 90.5317 29.547C90.5627 29.6217 90.5769 29.7023 90.5732 29.7831C90.5748 29.882 90.5527 29.9798 90.5087 30.0684C90.4648 30.157 90.4003 30.2339 90.3206 30.2926C90.0936 30.4416 89.8236 30.5115 89.5527 30.4912C89.278 30.493 89.0057 30.4401 88.7517 30.3357C88.521 30.2437 88.3062 30.1163 88.1151 29.958C88.1071 29.9474 88.0969 29.9389 88.085 29.933C88.0732 29.9271 88.0602 29.924 88.047 29.924C88.0338 29.924 88.0208 29.9271 88.009 29.933C87.9971 29.9389 87.9869 29.9474 87.9789 29.958L87.5808 30.385C87.5703 30.3929 87.5617 30.4032 87.5558 30.415C87.5499 30.4268 87.5469 30.4398 87.5469 30.453C87.5469 30.4662 87.5499 30.4792 87.5558 30.491C87.5617 30.5028 87.5703 30.5131 87.5808 30.521C87.8094 30.716 88.0667 30.8746 88.3436 30.9914C88.5145 31.0631 88.6918 31.1184 88.8732 31.1564C89.0808 31.1999 89.2925 31.2211 89.5047 31.2195C90.1136 31.2195 90.5785 31.0805 90.8994 30.8025C91.0575 30.6658 91.1828 30.4954 91.266 30.3038C91.3493 30.1123 91.3884 29.9045 91.3804 29.6958C91.388 29.5298 91.3613 29.364 91.3019 29.2088C91.2425 29.0535 91.1518 28.9122 91.0353 28.7935C90.7412 28.5408 90.3689 28.3969 89.9811 28.386" fill="#4C3C8D"/>
<path id="Path 6683" d="M94.7432 28.3858L94.2573 28.3369C94.0044 28.334 93.7565 28.2656 93.5381 28.1382C93.4735 28.0871 93.4221 28.0212 93.3883 27.946C93.3545 27.8709 93.3392 27.7888 93.3439 27.7065C93.342 27.6176 93.3611 27.5295 93.3998 27.4494C93.4385 27.3693 93.4955 27.2994 93.5664 27.2455C93.7599 27.1126 93.9929 27.0493 94.2272 27.066C94.4638 27.0653 94.6987 27.1047 94.9221 27.1824C95.118 27.2472 95.3055 27.335 95.4806 27.4441C95.4906 27.4522 95.5022 27.4581 95.5146 27.4615C95.527 27.465 95.54 27.4658 95.5527 27.4641C95.5654 27.4623 95.5777 27.4579 95.5887 27.4513C95.5996 27.4446 95.6092 27.4357 95.6166 27.4252L95.947 27.0077C95.9864 26.9495 95.9795 26.9047 95.9276 26.872C95.7109 26.7114 95.4697 26.5869 95.2132 26.5032C94.9109 26.4028 94.594 26.3535 94.2755 26.3574C93.819 26.3286 93.3668 26.4608 92.9979 26.7309C92.8471 26.8582 92.7278 27.0186 92.6494 27.1996C92.571 27.3806 92.5356 27.5772 92.5459 27.7741C92.5372 27.9406 92.5639 28.1071 92.6242 28.2627C92.6845 28.4182 92.7771 28.5592 92.8959 28.6764C93.1889 28.9215 93.5538 29.0647 93.9355 29.0841L94.4313 29.1328C94.6883 29.1365 94.9391 29.2121 95.1553 29.3509C95.2152 29.4054 95.2623 29.4723 95.2934 29.547C95.3244 29.6217 95.3386 29.7023 95.3349 29.7831C95.3365 29.882 95.3144 29.9798 95.2705 30.0684C95.2265 30.157 95.162 30.2339 95.0823 30.2926C94.8554 30.4416 94.5853 30.5115 94.3144 30.4912C94.0397 30.493 93.7674 30.4401 93.5134 30.3357C93.2828 30.2437 93.068 30.1163 92.8768 29.958C92.8689 29.9474 92.8586 29.9389 92.8468 29.933C92.8349 29.9271 92.8219 29.924 92.8087 29.924C92.7955 29.924 92.7825 29.9271 92.7707 29.933C92.7589 29.9389 92.7486 29.9474 92.7406 29.958L92.3426 30.385C92.332 30.3929 92.3235 30.4032 92.3176 30.415C92.3117 30.4268 92.3086 30.4398 92.3086 30.453C92.3086 30.4662 92.3117 30.4792 92.3176 30.491C92.3235 30.5028 92.332 30.5131 92.3426 30.521C92.5711 30.716 92.8284 30.8746 93.1053 30.9914C93.2762 31.0631 93.4535 31.1184 93.6349 31.1564C93.8425 31.1999 94.0542 31.2211 94.2664 31.2195C94.8753 31.2195 95.3402 31.0805 95.6611 30.8025C95.8192 30.6658 95.9445 30.4954 96.0278 30.3038C96.111 30.1123 96.1501 29.9045 96.1421 29.6958C96.1497 29.5298 96.123 29.364 96.0636 29.2088C96.0042 29.0535 95.9135 28.9122 95.797 28.7935C95.5029 28.5408 95.1306 28.3969 94.7428 28.386" fill="#4C3C8D"/>
<path id="Path 6684" d="M101.052 28.1226C101.039 28.0195 101.024 27.9269 101.007 27.8458C100.991 27.7653 100.97 27.6859 100.944 27.608C100.832 27.2309 100.594 26.9037 100.269 26.6813C99.9269 26.4585 99.5252 26.3452 99.1172 26.3562C98.7099 26.3451 98.3086 26.4567 97.9657 26.6766C97.6385 26.8987 97.3995 27.2283 97.2902 27.608C97.2347 27.7668 97.1974 27.9313 97.1789 28.0984C97.1539 28.3255 97.1425 28.5539 97.1449 28.7823C97.1422 29.0094 97.1551 29.2364 97.1836 29.4618C97.2064 29.6301 97.2454 29.7959 97.3002 29.9568C97.4104 30.3374 97.6491 30.6682 97.9757 30.8931C98.3303 31.1197 98.7455 31.2331 99.1662 31.2184C99.5364 31.2268 99.9036 31.1508 100.24 30.9962C100.527 30.8629 100.781 30.6672 100.983 30.4234C100.993 30.4144 101 30.4034 101.005 30.3913C101.009 30.3792 101.011 30.3662 101.01 30.3533C101.009 30.3403 101.006 30.3278 100.999 30.3164C100.993 30.3051 100.984 30.2953 100.974 30.2876L100.576 29.9284C100.531 29.8897 100.481 29.8959 100.429 29.9479C100.294 30.1018 100.128 30.2271 99.9436 30.3165C99.7218 30.4195 99.479 30.4695 99.2345 30.4623C98.9738 30.4706 98.7165 30.401 98.4957 30.2623C98.2848 30.1161 98.1304 29.9021 98.0583 29.656C98.0321 29.5768 98.0126 29.4955 98 29.4131C97.9855 29.3069 97.979 29.1998 97.9806 29.0927C97.9795 29.0848 97.9803 29.0767 97.9828 29.0692C97.9853 29.0616 97.9896 29.0547 97.9952 29.0491C98.0009 29.0434 98.0078 29.0392 98.0154 29.0367C98.0229 29.0341 98.031 29.0334 98.0389 29.0345H100.984C101.055 29.0345 101.09 29.0021 101.09 28.9376C101.09 28.763 101.087 28.609 101.081 28.4766C101.075 28.3442 101.064 28.2259 101.051 28.1224M100.196 28.3846H98.038C98.0301 28.3857 98.022 28.385 98.0145 28.3824C98.0069 28.3799 98 28.3756 97.9944 28.37C97.9887 28.3643 97.9844 28.3575 97.9819 28.3499C97.9794 28.3423 97.9786 28.3343 97.9797 28.3264C97.9746 28.1492 97.9975 27.9723 98.0476 27.8022C98.1146 27.5837 98.2532 27.394 98.4412 27.2636C98.6447 27.1399 98.8783 27.0744 99.1165 27.0744C99.3548 27.0744 99.5884 27.1399 99.7919 27.2636C99.9797 27.3942 100.118 27.5838 100.186 27.8022C100.236 27.9723 100.258 28.1492 100.254 28.3264C100.255 28.3343 100.254 28.3423 100.251 28.3499C100.249 28.3575 100.245 28.3643 100.239 28.37C100.233 28.3756 100.226 28.3799 100.219 28.3824C100.211 28.385 100.203 28.3857 100.195 28.3846" fill="#4C3C8D"/>
<path id="Path 6685" d="M104.482 28.3858L103.996 28.3369C103.743 28.334 103.495 28.2656 103.277 28.1382C103.212 28.0871 103.161 28.0212 103.127 27.9461C103.093 27.871 103.078 27.7888 103.082 27.7065C103.08 27.6176 103.099 27.5295 103.138 27.4494C103.177 27.3693 103.234 27.2994 103.305 27.2455C103.498 27.1126 103.731 27.0493 103.966 27.066C104.202 27.0653 104.437 27.1047 104.66 27.1824C104.856 27.2472 105.044 27.335 105.219 27.4441C105.229 27.4522 105.24 27.4581 105.253 27.4615C105.265 27.465 105.278 27.4658 105.291 27.4641C105.304 27.4623 105.316 27.4579 105.327 27.4513C105.338 27.4446 105.347 27.4357 105.355 27.4252L105.685 27.0077C105.725 26.9495 105.718 26.9047 105.666 26.872C105.449 26.7114 105.208 26.5869 104.951 26.5032C104.649 26.4028 104.332 26.3535 104.014 26.3574C103.557 26.3286 103.105 26.4608 102.736 26.7309C102.585 26.8582 102.466 27.0186 102.388 27.1996C102.309 27.3806 102.274 27.5772 102.284 27.7741C102.275 27.9406 102.302 28.1071 102.362 28.2627C102.423 28.4182 102.515 28.5592 102.634 28.6764C102.927 28.9215 103.292 29.0647 103.674 29.0841L104.17 29.1328C104.427 29.1365 104.678 29.212 104.894 29.3509C104.954 29.4054 105.001 29.4723 105.032 29.547C105.063 29.6217 105.077 29.7023 105.073 29.7831C105.075 29.882 105.053 29.9798 105.009 30.0684C104.965 30.157 104.901 30.2339 104.821 30.2926C104.594 30.4416 104.324 30.5115 104.053 30.4912C103.778 30.493 103.506 30.4401 103.252 30.3357C103.021 30.2437 102.806 30.1163 102.615 29.958C102.607 29.9474 102.597 29.9389 102.585 29.933C102.573 29.9271 102.56 29.924 102.547 29.924C102.534 29.924 102.521 29.9271 102.509 29.933C102.497 29.9389 102.487 29.9474 102.479 29.958L102.081 30.3848C102.07 30.3927 102.062 30.403 102.056 30.4148C102.05 30.4266 102.047 30.4396 102.047 30.4528C102.047 30.466 102.05 30.479 102.056 30.4908C102.062 30.5026 102.07 30.5128 102.081 30.5208C102.309 30.7157 102.567 30.8744 102.844 30.9911C103.014 31.0629 103.192 31.1182 103.373 31.1562C103.581 31.1997 103.793 31.2208 104.005 31.2193C104.614 31.2193 105.079 31.0803 105.399 30.8023C105.557 30.6656 105.683 30.4951 105.766 30.3036C105.849 30.112 105.888 29.9042 105.88 29.6956C105.888 29.5296 105.861 29.3638 105.802 29.2086C105.743 29.0533 105.652 28.912 105.535 28.7933C105.241 28.5406 104.869 28.3967 104.481 28.3858" fill="#4C3C8D"/>
<path id="Path 6686" d="M109.243 28.3858L108.757 28.3369C108.504 28.334 108.256 28.2656 108.038 28.1382C107.973 28.0871 107.922 28.0212 107.888 27.946C107.854 27.8709 107.839 27.7888 107.844 27.7065C107.842 27.6176 107.861 27.5295 107.9 27.4494C107.938 27.3693 107.995 27.2994 108.066 27.2455C108.26 27.1126 108.493 27.0493 108.727 27.066C108.964 27.0653 109.199 27.1047 109.422 27.1824C109.618 27.2472 109.805 27.335 109.98 27.4441C109.99 27.4522 110.002 27.4581 110.014 27.4615C110.027 27.465 110.04 27.4658 110.052 27.4641C110.065 27.4623 110.077 27.4579 110.088 27.4513C110.099 27.4446 110.109 27.4357 110.116 27.4252L110.447 27.0077C110.486 26.9495 110.479 26.9047 110.427 26.872C110.211 26.7114 109.969 26.5869 109.713 26.5032C109.411 26.4028 109.094 26.3535 108.775 26.3574C108.319 26.3286 107.867 26.4608 107.498 26.7309C107.347 26.8582 107.228 27.0186 107.149 27.1996C107.071 27.3806 107.035 27.5772 107.046 27.7741C107.037 27.9406 107.064 28.1071 107.124 28.2627C107.184 28.4182 107.277 28.5592 107.396 28.6764C107.689 28.9215 108.054 29.0647 108.435 29.0841L108.931 29.1328C109.188 29.1365 109.439 29.212 109.655 29.3509C109.715 29.4054 109.762 29.4723 109.793 29.547C109.824 29.6217 109.839 29.7023 109.835 29.7831C109.836 29.882 109.814 29.9798 109.77 30.0684C109.727 30.157 109.662 30.2339 109.582 30.2926C109.355 30.4416 109.085 30.5115 108.814 30.4912C108.54 30.493 108.267 30.4401 108.013 30.3357C107.783 30.2437 107.568 30.1163 107.377 29.958C107.369 29.9474 107.359 29.9389 107.347 29.933C107.335 29.9271 107.322 29.924 107.309 29.924C107.296 29.924 107.282 29.9271 107.271 29.933C107.259 29.9389 107.249 29.9474 107.241 29.958L106.843 30.385C106.832 30.3929 106.823 30.4032 106.818 30.415C106.812 30.4268 106.809 30.4398 106.809 30.453C106.809 30.4662 106.812 30.4792 106.818 30.491C106.823 30.5028 106.832 30.5131 106.843 30.521C107.071 30.716 107.328 30.8746 107.605 30.9914C107.776 31.0631 107.954 31.1184 108.135 31.1564C108.343 31.1999 108.554 31.2211 108.766 31.2195C109.375 31.2195 109.84 31.0805 110.161 30.8025C110.319 30.6658 110.445 30.4954 110.528 30.3038C110.611 30.1123 110.65 29.9045 110.642 29.6958C110.65 29.5298 110.623 29.364 110.564 29.2088C110.504 29.0535 110.413 28.9122 110.297 28.7935C110.003 28.5408 109.631 28.3969 109.243 28.386" fill="#4C3C8D"/>
<path id="Path 6687" d="M116.928 26.3588C116.617 26.3488 116.309 26.4154 116.029 26.5528C115.788 26.6808 115.58 26.8634 115.422 27.0861H115.413C115.288 26.8586 115.101 26.6716 114.873 26.5473C114.62 26.4246 114.342 26.3601 114.06 26.3584C113.778 26.3568 113.5 26.418 113.245 26.5377C113.043 26.6413 112.871 26.7971 112.749 26.989H112.74V26.5624C112.742 26.5492 112.74 26.5358 112.736 26.5232C112.732 26.5106 112.725 26.4992 112.715 26.4898C112.706 26.4804 112.695 26.4733 112.682 26.4691C112.669 26.4649 112.656 26.4636 112.643 26.4655H112.02C112.007 26.4636 111.993 26.4648 111.981 26.469C111.968 26.4732 111.956 26.4803 111.947 26.4897C111.938 26.4991 111.93 26.5105 111.926 26.5232C111.922 26.5358 111.921 26.5492 111.923 26.5624V31.0168C111.921 31.03 111.922 31.0434 111.926 31.056C111.93 31.0686 111.938 31.0801 111.947 31.0895C111.956 31.0989 111.968 31.106 111.981 31.1102C111.993 31.1144 112.007 31.1156 112.02 31.1137H112.643C112.656 31.1156 112.669 31.1144 112.682 31.1102C112.695 31.106 112.706 31.0989 112.716 31.0895C112.725 31.0801 112.732 31.0686 112.736 31.056C112.741 31.0434 112.742 31.03 112.74 31.0168V28.251C112.732 28.1 112.754 27.949 112.805 27.8066C112.855 27.6642 112.934 27.5333 113.036 27.4216C113.136 27.3196 113.257 27.2397 113.39 27.187C113.523 27.1343 113.666 27.11 113.809 27.1156C113.954 27.1044 114.101 27.1266 114.236 27.1805C114.372 27.2344 114.493 27.3186 114.591 27.4267C114.777 27.6786 114.869 27.9878 114.849 28.3001V31.0168C114.847 31.03 114.848 31.0434 114.853 31.056C114.857 31.0687 114.864 31.0802 114.873 31.0896C114.883 31.099 114.894 31.1061 114.907 31.1103C114.92 31.1144 114.933 31.1156 114.946 31.1137H115.568C115.581 31.1156 115.595 31.1144 115.607 31.1102C115.62 31.106 115.632 31.0989 115.641 31.0895C115.65 31.0801 115.658 31.0686 115.662 31.056C115.666 31.0434 115.667 31.03 115.665 31.0168V28.251C115.657 28.0996 115.68 27.9482 115.732 27.8057C115.783 27.6632 115.863 27.5325 115.967 27.4216C116.067 27.3204 116.186 27.2409 116.318 27.1883C116.451 27.1356 116.592 27.1109 116.734 27.1156C116.88 27.1044 117.026 27.1266 117.162 27.1805C117.297 27.2344 117.419 27.3186 117.517 27.4267C117.703 27.6786 117.794 27.9878 117.774 28.3001V31.0168C117.772 31.03 117.774 31.0434 117.778 31.0561C117.782 31.0687 117.789 31.0802 117.799 31.0896C117.808 31.099 117.82 31.1061 117.832 31.1103C117.845 31.1144 117.858 31.1156 117.872 31.1137H118.493C118.507 31.1156 118.52 31.1144 118.533 31.1102C118.545 31.106 118.557 31.0989 118.566 31.0895C118.576 31.0801 118.583 31.0686 118.587 31.056C118.591 31.0434 118.592 31.03 118.59 31.0168V28.1061C118.614 27.6443 118.463 27.1906 118.168 26.8345C118.008 26.6698 117.815 26.5418 117.601 26.4597C117.387 26.3776 117.157 26.3433 116.929 26.3593" fill="#4C3C8D"/>
<path id="Path 6688" d="M123.759 28.1226C123.746 28.0195 123.731 27.9269 123.714 27.8458C123.698 27.7653 123.677 27.6859 123.651 27.608C123.539 27.2309 123.301 26.9037 122.976 26.6813C122.634 26.4586 122.232 26.3452 121.824 26.3562C121.417 26.345 121.016 26.4567 120.673 26.6766C120.345 26.8987 120.106 27.2283 119.997 27.608C119.942 27.7668 119.904 27.9313 119.886 28.0984C119.861 28.3255 119.85 28.5539 119.852 28.7823C119.849 29.0094 119.862 29.2364 119.891 29.4618C119.913 29.6301 119.952 29.7959 120.007 29.9568C120.117 30.3374 120.356 30.6682 120.683 30.8931C121.037 31.1197 121.453 31.2331 121.873 31.2184C122.243 31.2268 122.611 31.1508 122.947 30.9962C123.235 30.8627 123.489 30.6666 123.691 30.4223C123.7 30.4133 123.707 30.4023 123.712 30.3902C123.717 30.3781 123.719 30.3651 123.718 30.3522C123.717 30.3392 123.713 30.3267 123.707 30.3153C123.701 30.304 123.692 30.2941 123.681 30.2865L123.283 29.9272C123.239 29.8886 123.189 29.8948 123.137 29.9468C123.001 30.1007 122.836 30.226 122.651 30.3154C122.429 30.4184 122.186 30.4683 121.942 30.4612C121.681 30.4695 121.424 30.3999 121.203 30.2612C120.992 30.115 120.838 29.901 120.766 29.6548C120.74 29.5757 120.72 29.4944 120.707 29.412C120.693 29.3058 120.686 29.1987 120.688 29.0916C120.687 29.0837 120.688 29.0756 120.69 29.0681C120.693 29.0605 120.697 29.0536 120.703 29.048C120.708 29.0423 120.715 29.0381 120.723 29.0355C120.73 29.033 120.738 29.0323 120.746 29.0334H123.691C123.762 29.0334 123.798 29.0009 123.798 28.9365C123.798 28.7619 123.794 28.6079 123.788 28.4755C123.782 28.343 123.772 28.2248 123.759 28.1213M122.904 28.3835H120.746C120.738 28.3846 120.73 28.3838 120.722 28.3813C120.714 28.3788 120.707 28.3745 120.702 28.3689C120.696 28.3632 120.692 28.3564 120.689 28.3488C120.687 28.3412 120.686 28.3332 120.687 28.3253C120.682 28.1481 120.705 27.9712 120.755 27.8011C120.822 27.5826 120.961 27.3929 121.149 27.2625C121.352 27.1388 121.586 27.0733 121.824 27.0733C122.062 27.0733 122.296 27.1388 122.5 27.2625C122.687 27.393 122.826 27.5827 122.893 27.8011C122.943 27.9712 122.966 28.1481 122.961 28.3253C122.962 28.3332 122.962 28.3412 122.959 28.3488C122.957 28.3564 122.952 28.3632 122.947 28.3689C122.941 28.3745 122.934 28.3788 122.927 28.3813C122.919 28.3838 122.911 28.3846 122.903 28.3835" fill="#4C3C8D"/>
<path id="Path 6689" d="M127.239 26.3573C126.96 26.3485 126.682 26.4102 126.433 26.5366C126.23 26.6402 126.059 26.796 125.937 26.9878H125.927V26.5608C125.929 26.5476 125.928 26.5342 125.924 26.5216C125.919 26.5091 125.912 26.4976 125.903 26.4882C125.894 26.4788 125.882 26.4717 125.87 26.4675C125.857 26.4633 125.843 26.4621 125.83 26.4639H125.207C125.194 26.462 125.181 26.4632 125.168 26.4674C125.155 26.4716 125.144 26.4787 125.134 26.4881C125.125 26.4975 125.118 26.509 125.114 26.5216C125.11 26.5342 125.108 26.5476 125.11 26.5608V31.0152C125.108 31.0284 125.11 31.0418 125.114 31.0544C125.118 31.0671 125.125 31.0785 125.134 31.0879C125.144 31.0973 125.155 31.1044 125.168 31.1086C125.181 31.1128 125.194 31.114 125.207 31.1121H125.83C125.843 31.114 125.857 31.1128 125.87 31.1086C125.882 31.1044 125.894 31.0973 125.903 31.0879C125.913 31.0785 125.92 31.0671 125.924 31.0544C125.928 31.0418 125.929 31.0284 125.927 31.0152V28.2494C125.919 28.0985 125.941 27.9474 125.992 27.805C126.043 27.6626 126.122 27.5317 126.224 27.42C126.324 27.318 126.444 27.2382 126.577 27.1855C126.71 27.1328 126.853 27.1084 126.996 27.1141C127.142 27.1028 127.288 27.1251 127.423 27.179C127.559 27.2329 127.681 27.3171 127.779 27.4251C127.965 27.6768 128.056 27.9858 128.037 28.2981V31.0152C128.035 31.0284 128.037 31.0418 128.041 31.0545C128.045 31.0671 128.052 31.0786 128.061 31.088C128.071 31.0974 128.082 31.1045 128.095 31.1087C128.108 31.1129 128.121 31.1141 128.134 31.1121H128.756C128.769 31.114 128.783 31.1128 128.796 31.1086C128.808 31.1044 128.82 31.0973 128.829 31.0879C128.839 31.0785 128.846 31.0671 128.85 31.0545C128.854 31.0418 128.855 31.0284 128.854 31.0152V28.1046C128.877 27.642 128.724 27.1876 128.426 26.833C128.275 26.6721 128.091 26.5462 127.886 26.4641C127.681 26.382 127.461 26.3457 127.24 26.3577" fill="#4C3C8D"/>
<path id="Path 6690" d="M132.108 26.4632H131.369C131.361 26.4644 131.353 26.4637 131.346 26.4612C131.338 26.4587 131.331 26.4544 131.325 26.4488C131.32 26.4431 131.315 26.4362 131.313 26.4286C131.31 26.421 131.309 26.4129 131.311 26.405V25.0941C131.312 25.0809 131.311 25.0674 131.307 25.0548C131.303 25.0421 131.296 25.0306 131.286 25.0212C131.277 25.0118 131.265 25.0047 131.253 25.0005C131.24 24.9963 131.226 24.9951 131.213 24.997H130.591C130.578 24.9951 130.565 24.9964 130.552 25.0006C130.539 25.0048 130.528 25.0119 130.519 25.0213C130.509 25.0307 130.502 25.0422 130.498 25.0548C130.494 25.0674 130.492 25.0809 130.494 25.0941V26.405C130.495 26.4129 130.495 26.4209 130.492 26.4285C130.489 26.4361 130.485 26.4429 130.48 26.4486C130.474 26.4542 130.467 26.4585 130.459 26.461C130.452 26.4636 130.444 26.4643 130.436 26.4632H130.047C130.034 26.4613 130.02 26.4625 130.008 26.4667C129.995 26.4709 129.984 26.478 129.974 26.4874C129.965 26.4968 129.958 26.5082 129.954 26.5209C129.949 26.5335 129.948 26.5469 129.95 26.5601V27.0267C129.948 27.0398 129.949 27.0533 129.954 27.0659C129.958 27.0785 129.965 27.09 129.974 27.0994C129.984 27.1088 129.995 27.1159 130.008 27.1202C130.02 27.1244 130.034 27.1256 130.047 27.1238H130.436C130.444 27.1226 130.452 27.1233 130.459 27.1258C130.467 27.1283 130.474 27.1326 130.48 27.1382C130.485 27.1439 130.49 27.1508 130.492 27.1584C130.495 27.166 130.495 27.1741 130.494 27.182V29.8404C130.463 30.1991 130.565 30.5566 130.781 30.845C130.972 31.055 131.294 31.16 131.748 31.16H132.107C132.121 31.162 132.134 31.1608 132.147 31.1566C132.159 31.1524 132.171 31.1454 132.18 31.1359C132.19 31.1265 132.197 31.1151 132.201 31.1024C132.205 31.0898 132.206 31.0763 132.205 31.0632V30.5006C132.206 30.4874 132.205 30.4739 132.201 30.4613C132.197 30.4486 132.19 30.4371 132.18 30.4277C132.171 30.4183 132.159 30.4112 132.147 30.407C132.134 30.4028 132.121 30.4016 132.107 30.4035H131.904C131.743 30.4173 131.583 30.3743 131.452 30.2822C131.397 30.2178 131.356 30.1427 131.332 30.0617C131.307 29.9806 131.3 29.8955 131.311 29.8116V27.1817C131.31 27.1738 131.31 27.1657 131.313 27.1581C131.315 27.1505 131.32 27.1436 131.325 27.1379C131.331 27.1323 131.338 27.128 131.346 27.1255C131.353 27.123 131.362 27.1223 131.369 27.1235H132.108C132.121 27.1254 132.134 27.1242 132.147 27.12C132.16 27.1158 132.171 27.1087 132.181 27.0993C132.19 27.0899 132.197 27.0784 132.201 27.0657C132.205 27.0531 132.207 27.0396 132.205 27.0264V26.5598C132.207 26.5467 132.205 26.5332 132.201 26.5206C132.197 26.508 132.19 26.4965 132.18 26.4871C132.171 26.4778 132.159 26.4707 132.147 26.4665C132.134 26.4623 132.121 26.4613 132.108 26.4632Z" fill="#4C3C8D"/>
<path id="Path 6691" fill-rule="evenodd" clip-rule="evenodd" d="M150.344 7.14611H158.003C151.749 11.357 151.561 14.6287 151.597 23.7056C153.507 23.7056 159.441 23.1874 159.43 16.7155C159.762 16.5425 160.156 16.2174 160.463 15.3186V21.2453C160.463 21.2453 161.825 20.5185 161.825 14.8001V13.1707C162.333 12.8743 162.572 12.2938 162.744 11.7299V21.2453C162.744 21.2453 164.109 20.5185 164.109 14.8001V9.30734C164.659 8.76608 165.033 8.0709 165.18 7.31342V24.9283H150.344V7.14611ZM170.715 25.4422C171.006 25.4423 171.291 25.5286 171.533 25.6901C171.775 25.8516 171.963 26.0812 172.075 26.3497C172.186 26.6182 172.215 26.9137 172.158 27.1987C172.101 27.4837 171.961 27.7455 171.755 27.9509C171.549 28.1563 171.287 28.2962 171.001 28.3527C170.716 28.4093 170.42 28.3801 170.151 28.2688C169.882 28.1575 169.653 27.969 169.491 27.7273C169.33 27.4856 169.243 27.2015 169.244 26.9109C169.244 26.5213 169.399 26.1478 169.675 25.8724C169.951 25.5971 170.325 25.4423 170.715 25.4422ZM174.194 25.4422C174.485 25.4422 174.769 25.5285 175.011 25.69C175.253 25.8515 175.442 26.081 175.553 26.3496C175.665 26.6181 175.694 26.9135 175.637 27.1986C175.58 27.4836 175.44 27.7454 175.234 27.9508C175.028 28.1563 174.766 28.2961 174.48 28.3527C174.195 28.4093 173.899 28.3801 173.63 28.2688C173.361 28.1575 173.131 27.9691 172.97 27.7273C172.808 27.4856 172.722 27.2015 172.722 26.9109C172.722 26.7179 172.76 26.5269 172.834 26.3486C172.908 26.1703 173.017 26.0084 173.153 25.872C173.29 25.7356 173.452 25.6274 173.631 25.5537C173.809 25.4799 174.001 25.4421 174.194 25.4422ZM179.162 3.62109C179.453 3.62114 179.738 3.70737 179.98 3.8689C180.222 4.03042 180.411 4.25997 180.522 4.52853C180.633 4.79709 180.662 5.09258 180.605 5.37764C180.549 5.66271 180.408 5.92453 180.203 6.13001C179.997 6.33549 179.734 6.4754 179.449 6.53203C179.163 6.58867 178.867 6.55949 178.599 6.44819C178.33 6.33689 178.1 6.14846 177.938 5.90674C177.777 5.66502 177.69 5.38086 177.69 5.0902C177.69 4.89723 177.729 4.70615 177.803 4.52788C177.877 4.34961 177.985 4.18764 178.122 4.05122C178.258 3.91479 178.421 3.80659 178.599 3.73279C178.778 3.65899 178.969 3.62104 179.162 3.62109ZM182.64 3.62109C182.931 3.62114 183.215 3.70737 183.457 3.8689C183.699 4.03042 183.888 4.25997 183.999 4.52853C184.111 4.79709 184.14 5.09258 184.083 5.37764C184.026 5.66271 183.886 5.92453 183.68 6.13001C183.474 6.33549 183.212 6.4754 182.926 6.53203C182.641 6.58867 182.345 6.55949 182.076 6.44819C181.807 6.33689 181.577 6.14846 181.416 5.90674C181.254 5.66502 181.168 5.38086 181.168 5.0902C181.168 4.89721 181.206 4.70611 181.28 4.52781C181.354 4.34951 181.462 4.18752 181.599 4.05108C181.736 3.91465 181.898 3.80645 182.076 3.73267C182.255 3.65889 182.446 3.62098 182.64 3.62109ZM182.038 7.14611C182.802 7.14611 183.85 7.14611 184.615 7.14611C184.615 13.0735 184.615 19.0006 184.615 24.9274H166.109V7.14611H173.769C167.514 11.357 167.326 14.6287 167.362 23.7056C169.271 23.7056 175.205 23.1874 175.196 16.7155L176.202 15.6921V23.6707C181.97 24.5652 183.655 18.7399 183.404 17.8205C183.419 17.8123 183.43 17.7986 183.435 17.7823C182.69 17.9808 181.912 18.0184 181.151 17.8924C180.391 17.7664 179.666 17.4798 179.025 17.0516C178.384 16.6235 177.842 16.0638 177.436 15.4098C177.029 14.7558 176.767 14.0227 176.666 13.2594C176.566 12.4961 176.63 11.7202 176.854 10.9836C177.078 10.247 177.457 9.56662 177.966 8.98795C178.474 8.40928 179.1 7.94564 179.803 7.62801C180.505 7.31039 181.267 7.14609 182.038 7.14611Z" fill="#4C3C8D"/>
<path id="Path 6692" d="M184.448 32.0002H150.504C149.31 32.0106 148.159 31.5474 147.306 30.7121C146.453 29.8768 145.966 28.7377 145.953 27.5446V4.45527C145.966 3.26231 146.453 2.12331 147.306 1.28812C148.159 0.452928 149.309 -0.0102545 150.504 0.000174345H184.448C185.643 -0.0103144 186.793 0.452828 187.646 1.28801C188.499 2.1232 188.986 3.26223 188.999 4.45527V27.5451C188.986 28.7381 188.499 29.8772 187.646 30.7123C186.793 31.5475 185.643 32.0107 184.448 32.0002ZM150.504 1.2151C149.635 1.20757 148.799 1.54448 148.179 2.15191C147.558 2.75935 147.204 3.5877 147.195 4.45527V27.5451C147.204 28.4126 147.558 29.241 148.178 29.8484C148.799 30.4558 149.635 30.7927 150.504 30.785H184.448C185.317 30.7927 186.153 30.4558 186.773 29.8484C187.394 29.241 187.748 28.4126 187.757 27.5451V4.45527C187.748 3.58766 187.394 2.75924 186.774 2.15178C186.153 1.54432 185.317 1.20746 184.448 1.2151H150.504Z" fill="#4C3C8D"/>
</g>
</g>
</g>
</g>
</g>
<defs>
<clipPath id="clip0_1945_44959">
<rect width="189" height="32" fill="white"/>
</clipPath>
</defs>
</svg>
