<svg width="199" height="31" viewBox="0 0 199 31" fill="none" xmlns="http://www.w3.org/2000/svg">
<path d="M8.07251 11.7937C8.07251 11.7065 8.11825 11.6606 8.20515 11.6606H9.8105C9.8974 11.6606 9.94314 11.7065 9.94314 11.7937V14.9357C9.96143 15.1467 10.0529 15.3164 10.2267 15.4357C10.3959 15.5595 10.6383 15.6192 10.9448 15.6192H11.2329C11.4067 15.6192 11.5393 15.6788 11.6262 15.8026C11.7131 15.9265 11.7589 16.1283 11.7589 16.4081C11.7589 16.9448 11.5851 17.2154 11.2329 17.2154C10.9082 17.2154 10.6246 17.1741 10.3776 17.0962C10.1307 17.0182 9.92484 16.8347 9.76019 16.5549C9.62756 16.8209 9.43089 16.9952 9.17476 17.0824C8.91407 17.1695 8.55275 17.2154 8.08623 17.2154H1.54132C0.987911 17.2154 0.594576 17.0824 0.356746 16.8118C0.118915 16.5457 0 16.1237 0 15.5504V12.6331C0 12.5459 0.0457366 12.5001 0.132636 12.5001H1.73799C1.82489 12.5001 1.87063 12.5459 1.87063 12.6331V14.9174C1.87063 15.1834 1.92094 15.3623 2.02156 15.4632C2.12218 15.5641 2.28226 15.6146 2.50179 15.6146H7.42763C7.70662 15.6146 7.88499 15.5458 7.96274 15.4036C8.03592 15.2614 8.07251 15.0045 8.07251 14.6238V11.7845V11.7937ZM4.14831 19.9309C4.06141 19.9309 4.01567 19.885 4.01567 19.7979V18.5043C4.01567 18.4172 4.06141 18.3713 4.14831 18.3713H5.78111C5.86801 18.3713 5.91374 18.4172 5.91374 18.5043V19.7979C5.91374 19.885 5.86801 19.9309 5.78111 19.9309H4.14831Z" fill="#4C3C8D"/>
<path d="M11.1965 17.2203C11.0227 17.2203 10.8901 17.1653 10.8032 17.0552C10.7163 16.9451 10.6705 16.7478 10.6705 16.468C10.6705 15.9039 10.8443 15.624 11.1965 15.624H12.0152C12.2347 15.624 12.3948 15.5736 12.4954 15.4727C12.596 15.3718 12.6464 15.1883 12.6464 14.9268V11.7985C12.6464 11.7114 12.6875 11.6655 12.779 11.6655H14.3615C14.4484 11.6655 14.4941 11.7114 14.4941 11.7985V15.5644C14.4941 16.1378 14.3752 16.5598 14.1419 16.8258C13.9087 17.0965 13.5153 17.2295 12.9665 17.2295H11.2057L11.1965 17.2203ZM11.6859 19.9266C11.599 19.9266 11.5532 19.8807 11.5532 19.7936V18.5001C11.5532 18.4129 11.599 18.367 11.6859 18.367H13.0031C13.09 18.367 13.1357 18.4129 13.1357 18.5001V19.7936C13.1357 19.8807 13.09 19.9266 13.0031 19.9266H11.6859ZM13.712 19.9266C13.6251 19.9266 13.5794 19.8807 13.5794 19.7936V18.5001C13.5794 18.4129 13.6251 18.367 13.712 18.367H15.043C15.1299 18.367 15.1756 18.4129 15.1756 18.5001V19.7936C15.1756 19.8807 15.1299 19.9266 15.043 19.9266H13.712Z" fill="#4C3C8D"/>
<path d="M15.5549 19.9265C15.468 19.9265 15.4223 19.8806 15.4223 19.7935V18.4587C15.4223 18.3715 15.468 18.3256 15.5549 18.3256H15.8431C16.2044 18.3256 16.4605 18.2339 16.6115 18.0504C16.767 17.867 16.8401 17.5826 16.8401 17.2064V11.7893C16.8401 11.7021 16.8859 11.6562 16.9728 11.6562H18.5781C18.665 11.6562 18.7108 11.7021 18.7108 11.7893V17.2707C18.7108 18.1789 18.5004 18.8486 18.0796 19.2797C17.6588 19.7109 17.0185 19.9265 16.1587 19.9265H15.5549Z" fill="#4C3C8D"/>
<path d="M22.4293 15.6242C22.6489 15.6242 22.8227 15.6104 22.9553 15.5783C23.0879 15.5462 23.184 15.4958 23.2526 15.427C23.3212 15.3582 23.3623 15.2664 23.3852 15.1517C23.4081 15.0371 23.4172 14.8949 23.4172 14.7297V14.0188C23.4172 13.6748 23.3166 13.4271 23.1199 13.2711C22.9233 13.1151 22.626 13.0418 22.2327 13.0418H20.7188C20.6319 13.0418 20.5861 12.9959 20.5861 12.9087V11.5739C20.5861 11.4868 20.6319 11.4409 20.7188 11.4409H22.7861C23.6048 11.4409 24.2313 11.6198 24.675 11.9776C25.1186 12.3354 25.3382 12.95 25.3382 13.8215V14.9178C25.3565 15.138 25.4479 15.3123 25.6217 15.4407C25.791 15.5692 26.0334 15.6334 26.3398 15.6334H26.6279C26.8017 15.6334 26.9344 15.693 27.0213 15.8168C27.1082 15.9407 27.1539 16.1425 27.1539 16.4223C27.1539 16.959 26.9801 17.2296 26.6279 17.2296C26.2758 17.2296 25.9556 17.1792 25.6858 17.0828C25.4159 16.9865 25.201 16.7847 25.0317 16.4774C24.8717 16.7572 24.6567 16.9544 24.3777 17.0645C24.1033 17.1746 23.7557 17.2296 23.3441 17.2296H20.1562C20.0693 17.2296 20.0236 17.1838 20.0236 17.0966V15.7618C20.0236 15.6747 20.0693 15.6288 20.1562 15.6288H22.4202L22.4293 15.6242Z" fill="#4C3C8D"/>
<path d="M28.1189 11.794C28.1189 11.7068 28.1601 11.661 28.2515 11.661H29.834C29.9209 11.661 29.9667 11.7068 29.9667 11.794V14.9131C29.9849 15.1333 30.0764 15.3076 30.2502 15.436C30.4194 15.5644 30.6618 15.6286 30.9683 15.6286H31.2701C31.4439 15.6286 31.5766 15.6883 31.6635 15.8121C31.7504 15.936 31.7961 16.1378 31.7961 16.4176C31.7961 16.9543 31.6223 17.2249 31.2701 17.2249C30.918 17.2249 30.6481 17.1836 30.4012 17.1056C30.1542 17.0277 29.9484 16.8442 29.7837 16.5644C29.6419 16.8442 29.4361 17.0277 29.1617 17.1056C28.8873 17.1836 28.5122 17.2249 28.032 17.2249H26.6736C26.4998 17.2249 26.3672 17.1699 26.2803 17.0598C26.1934 16.9497 26.1476 16.7433 26.1476 16.4451C26.1476 16.147 26.1888 15.936 26.2711 15.8121C26.3535 15.6883 26.4907 15.6286 26.6736 15.6286H27.4923C27.7713 15.6286 27.9497 15.5461 28.0183 15.3855C28.0869 15.225 28.1235 14.9452 28.1235 14.5461V11.7986L28.1189 11.794ZM27.3551 10.3262C27.2682 10.3262 27.2225 10.2803 27.2225 10.1931V8.89962C27.2225 8.81247 27.2682 8.7666 27.3551 8.7666H28.6723C28.7592 8.7666 28.8049 8.81247 28.8049 8.89962V10.1931C28.8049 10.2803 28.7592 10.3262 28.6723 10.3262H27.3551ZM29.3812 10.3262C29.2943 10.3262 29.2486 10.2803 29.2486 10.1931V8.89962C29.2486 8.81247 29.2943 8.7666 29.3812 8.7666H30.7122C30.7991 8.7666 30.8448 8.81247 30.8448 8.89962V10.1931C30.8448 10.2803 30.7991 10.3262 30.7122 10.3262H29.3812Z" fill="#4C3C8D"/>
<path d="M31.2794 17.22C31.1056 17.22 30.973 17.1879 30.8861 17.1282C30.7992 17.0686 30.7534 16.9448 30.7534 16.7567C30.7534 16.6512 30.7626 16.5319 30.7854 16.3989C30.8083 16.2659 30.8357 16.142 30.8769 16.0274C30.9181 15.9127 30.9684 15.8164 31.037 15.7384C31.1056 15.6604 31.1833 15.6191 31.2794 15.6191H31.7413C31.9609 15.6191 32.1209 15.5687 32.2216 15.4678C32.3222 15.3669 32.3725 15.1834 32.3725 14.9219V8.37179C32.3725 8.28464 32.4182 8.23877 32.5051 8.23877H34.1105C34.1974 8.23877 34.2431 8.28464 34.2431 8.37179V15.5549C34.2431 16.1283 34.1242 16.5503 33.8864 16.8163C33.6485 17.087 33.2552 17.22 32.7018 17.22H31.2794Z" fill="#4C3C8D"/>
<path d="M37.6639 17.087C37.6639 17.1741 37.6181 17.22 37.5312 17.22H35.9488C35.8619 17.22 35.8161 17.1741 35.8161 17.087V8.37179C35.8161 8.28464 35.8619 8.23877 35.9488 8.23877H37.5312C37.6181 8.23877 37.6639 8.28464 37.6639 8.37179V17.087Z" fill="#4C3C8D"/>
<path d="M40.3124 19.9267C40.2255 19.9267 40.1798 19.8809 40.1798 19.7937V18.4589C40.1798 18.3718 40.2255 18.3259 40.3124 18.3259H41.8263C42.0001 18.3259 42.1602 18.3167 42.3019 18.2938C42.4437 18.2709 42.5626 18.2204 42.6633 18.1424C42.7639 18.0644 42.8416 17.9498 42.9011 17.8076C42.956 17.6608 42.988 17.4681 42.988 17.2204H42.4346C41.9086 17.2204 41.4375 17.1883 41.0167 17.1287C40.6005 17.0691 40.2438 16.9361 39.9511 16.7388C39.6584 16.5416 39.4343 16.2618 39.2787 15.9086C39.1232 15.5508 39.0501 15.0738 39.0501 14.4775C39.0501 13.9133 39.1324 13.4362 39.2925 13.0509C39.4525 12.6656 39.6721 12.3491 39.9374 12.1152C40.2072 11.8767 40.5136 11.707 40.8612 11.6015C41.2088 11.496 41.5656 11.4409 41.936 11.4409C42.3065 11.4409 42.6907 11.4914 43.0429 11.5877C43.395 11.684 43.7015 11.8446 43.9668 12.0693C44.232 12.2941 44.4378 12.5968 44.5933 12.9821C44.7488 13.3674 44.8266 13.8399 44.8266 14.4041V17.4819C44.8266 18.3076 44.6162 18.9268 44.1954 19.3304C43.7747 19.7341 43.1206 19.9359 42.2333 19.9359H40.3124V19.9267ZM41.9452 13.0326C41.5839 13.0326 41.314 13.1564 41.1265 13.4041C40.9436 13.6518 40.8521 13.9867 40.8521 14.4087C40.8521 14.8949 40.9573 15.216 41.1631 15.3811C41.3689 15.5462 41.6388 15.6242 41.9726 15.6242H42.988V14.3444C42.988 13.4729 42.6404 13.0372 41.9498 13.0372L41.9452 13.0326Z" fill="#4C3C8D"/>
<path d="M53.4339 17.3118C53.036 17.3118 52.6747 17.2614 52.3453 17.1651C52.016 17.0687 51.7279 16.9036 51.4809 16.6743C51.4169 16.7706 51.3529 16.844 51.2843 16.899C51.2157 16.9541 51.1471 17.0091 51.0784 17.0779C51.0098 17.1467 50.9595 17.2247 50.9138 17.3164C50.8681 17.4082 50.8498 17.5366 50.8498 17.6926V19.9264H48.9791V17.4173C48.9791 17.1192 49.0157 16.8715 49.0843 16.6834C49.1529 16.4954 49.2444 16.3348 49.3542 16.2064C49.4639 16.078 49.5829 15.9725 49.7109 15.8899C49.839 15.8073 49.9625 15.7248 50.0814 15.6376C50.2003 15.555 50.3009 15.4633 50.3833 15.3624C50.4656 15.2615 50.5159 15.1285 50.5342 14.9587C50.525 14.8808 50.5205 14.7982 50.5205 14.7065V14.4312C50.5205 13.8487 50.5982 13.3671 50.7583 12.9864C50.9184 12.6057 51.1288 12.2983 51.3986 12.069C51.6684 11.8396 51.9795 11.6791 52.3316 11.5782C52.6838 11.4819 53.0543 11.4314 53.4385 11.4314C53.8226 11.4314 54.1931 11.4819 54.5453 11.5782C54.8975 11.6745 55.2085 11.8396 55.4737 12.069C55.7436 12.2983 55.954 12.6057 56.114 12.9864C56.2741 13.3671 56.3519 13.8533 56.3519 14.4312C56.3519 14.4909 56.3519 14.5505 56.3473 14.6101C56.3427 14.6652 56.3427 14.7202 56.3427 14.7753C56.361 15.0642 56.4433 15.2798 56.5943 15.4174C56.7452 15.555 56.9327 15.6239 57.1614 15.6239H57.5319C57.7057 15.6239 57.8383 15.6835 57.9252 15.8073C58.0121 15.9312 58.0579 16.133 58.0579 16.4128C58.0579 16.9495 57.8841 17.2201 57.5319 17.2201C57.3718 17.2201 57.2117 17.2155 57.0516 17.2018C56.887 17.188 56.7315 17.1559 56.576 17.1008C56.4205 17.0458 56.2741 16.9724 56.1323 16.8715C55.9906 16.7706 55.8625 16.633 55.7482 16.4541C55.4829 16.7706 55.1536 16.9953 54.7511 17.1192C54.3486 17.2476 53.9141 17.3118 53.4385 17.3118H53.4339ZM53.4339 13.0322C52.7204 13.0322 52.3591 13.4772 52.3591 14.367C52.3591 14.867 52.4505 15.2202 52.6289 15.4174C52.8073 15.6147 53.0771 15.7156 53.4339 15.7156C53.7906 15.7156 54.0696 15.6147 54.2434 15.4174C54.4172 15.2202 54.5041 14.8716 54.5041 14.367C54.5041 13.4772 54.1474 13.0322 53.4293 13.0322H53.4339Z" fill="#4C3C8D"/>
<path d="M59.0004 11.7937C59.0004 11.7065 59.0415 11.6606 59.133 11.6606H60.7155C60.8024 11.6606 60.8481 11.7065 60.8481 11.7937V14.9128C60.8664 15.133 60.9579 15.3073 61.1317 15.4357C61.3009 15.5641 61.5433 15.6283 61.8498 15.6283H62.1516C62.3254 15.6283 62.4581 15.688 62.545 15.8118C62.6319 15.9357 62.6776 16.1375 62.6776 16.4173C62.6776 16.954 62.5038 17.2246 62.1516 17.2246C61.7995 17.2246 61.5296 17.1833 61.2826 17.1053C61.0357 17.0274 60.8298 16.8439 60.6652 16.5641C60.5234 16.8439 60.3176 17.0274 60.0432 17.1053C59.7688 17.1833 59.3937 17.2246 58.9135 17.2246H57.5551C57.3813 17.2246 57.2487 17.1695 57.1618 17.0595C57.0749 16.9494 57.0291 16.743 57.0291 16.4448C57.0291 16.1467 57.0703 15.9357 57.1526 15.8118C57.2349 15.688 57.3722 15.6283 57.5551 15.6283H58.3738C58.6528 15.6283 58.8311 15.5458 58.8998 15.3852C58.9684 15.2247 59.0049 14.9449 59.0049 14.5458V11.7983L59.0004 11.7937ZM58.1725 19.9309C58.0856 19.9309 58.0399 19.885 58.0399 19.7979V18.5043C58.0399 18.4172 58.0856 18.3713 58.1725 18.3713H59.4898C59.5767 18.3713 59.6224 18.4172 59.6224 18.5043V19.7979C59.6224 19.885 59.5767 19.9309 59.4898 19.9309H58.1725ZM60.1987 19.9309C60.1118 19.9309 60.066 19.885 60.066 19.7979V18.5043C60.066 18.4172 60.1118 18.3713 60.1987 18.3713H61.5296C61.6165 18.3713 61.6622 18.4172 61.6622 18.5043V19.7979C61.6622 19.885 61.6165 19.9309 61.5296 19.9309H60.1987Z" fill="#4C3C8D"/>
<path d="M63.254 8.37179C63.254 8.28464 63.2997 8.23877 63.3866 8.23877H64.992C65.0789 8.23877 65.1246 8.28464 65.1246 8.37179V14.9082C65.1429 15.1375 65.2344 15.3118 65.399 15.4357C65.5637 15.5595 65.8061 15.6191 66.1217 15.6191H66.4235C66.5973 15.6191 66.7299 15.6788 66.8168 15.8026C66.9037 15.9265 66.9495 16.1283 66.9495 16.4081C66.9495 16.9448 66.7757 17.2154 66.4235 17.2154C66.0713 17.2154 65.8015 17.1741 65.5545 17.0961C65.3075 17.0182 65.1017 16.8347 64.9371 16.5549C64.8044 16.8117 64.6123 16.986 64.3654 17.0778C64.1138 17.1695 63.7754 17.2154 63.3454 17.2154H62.1609C61.9871 17.2154 61.8544 17.1833 61.7675 17.1237C61.6806 17.064 61.6349 16.9402 61.6349 16.7521C61.6349 16.6466 61.644 16.5274 61.6669 16.3943C61.6898 16.2613 61.7172 16.1375 61.7584 16.0228C61.7995 15.9081 61.8499 15.8118 61.9185 15.7338C61.9871 15.6558 62.0648 15.6146 62.1609 15.6146H62.6228C62.7737 15.6146 62.8926 15.587 62.9795 15.5366C63.0664 15.4861 63.1305 15.4081 63.1716 15.3072C63.2128 15.2063 63.2357 15.0825 63.2448 14.9311C63.254 14.7797 63.2585 14.61 63.2585 14.4174V8.3672L63.254 8.37179Z" fill="#4C3C8D"/>
<path d="M70.1965 11.4358C70.7316 11.4358 71.1936 11.4862 71.5869 11.5872C71.9757 11.6881 72.3004 11.8303 72.5565 12.0183C72.8127 12.2018 72.9956 12.422 73.1145 12.6743C73.2334 12.9265 73.2929 13.1972 73.2929 13.4861C73.2929 13.7247 73.2563 13.9494 73.1831 14.1604C73.1099 14.3714 73.0093 14.5687 72.8858 14.7476C72.7624 14.9264 72.6251 15.0916 72.4696 15.2384C72.3141 15.3851 72.1632 15.509 72.0168 15.6145C72.1129 15.6237 72.2135 15.6282 72.3141 15.6282H74.0064C74.1802 15.6282 74.3082 15.6879 74.3906 15.8071C74.4683 15.9264 74.5095 16.1282 74.5095 16.408C74.5095 16.7337 74.4638 16.9539 74.3723 17.064C74.2808 17.174 74.1573 17.2291 74.011 17.2291H71.9162C71.6006 17.2291 71.2988 17.2016 71.0152 17.1419C70.7316 17.0869 70.4618 16.9768 70.2057 16.8163C69.9175 16.9768 69.6065 17.0823 69.2818 17.1419C68.9571 17.197 68.6689 17.2291 68.4128 17.2291H66.4233C66.2495 17.2291 66.1214 17.1786 66.0436 17.0823C65.9659 16.986 65.9247 16.7796 65.9247 16.4631C65.9247 16.2154 65.9567 16.0181 66.0253 15.8622C66.0894 15.7062 66.2266 15.6328 66.4278 15.6328H67.8091C67.96 15.6328 68.1201 15.6328 68.2893 15.6191C68.4585 15.6099 68.6232 15.5824 68.7833 15.5411C68.6598 15.1696 68.4631 14.8393 68.1887 14.5457C67.9143 14.2522 67.617 13.9907 67.2923 13.7614C67.2237 13.7063 67.1733 13.6467 67.1459 13.5687C67.1185 13.4953 67.1047 13.3898 67.1047 13.2568V12.399C67.1047 12.2844 67.1962 12.1743 67.3792 12.0642C67.5621 11.9541 67.8045 11.8532 68.0972 11.7615C68.3899 11.6697 68.7238 11.5963 69.0897 11.5367C69.4602 11.4817 69.8261 11.4496 70.1965 11.4496V11.4358ZM70.3429 15.3072C70.631 15.1329 70.878 14.9173 71.0747 14.6604C71.2713 14.4035 71.372 14.1375 71.372 13.8531C71.372 13.5687 71.2668 13.3623 71.0609 13.2339C70.8551 13.1008 70.567 13.0366 70.1965 13.0366C69.8992 13.0366 69.634 13.0642 69.4053 13.1238C69.1766 13.1788 69.0257 13.2339 68.9433 13.2752C69.3047 13.5228 69.602 13.8302 69.8398 14.1925C70.0776 14.5595 70.2423 14.931 70.3383 15.3072H70.3429Z" fill="#4C3C8D"/>
<path d="M75.488 11.794C75.488 11.7068 75.5292 11.661 75.6207 11.661H77.2032C77.2901 11.661 77.3358 11.7068 77.3358 11.794V14.9131C77.3541 15.1333 77.4456 15.3076 77.6194 15.436C77.7886 15.5644 78.031 15.6286 78.3374 15.6286H78.6393C78.8131 15.6286 78.9457 15.6883 79.0326 15.8121C79.1195 15.936 79.1653 16.1378 79.1653 16.4176C79.1653 16.9543 78.9915 17.2249 78.6393 17.2249C78.2871 17.2249 78.0173 17.1836 77.7703 17.1056C77.5233 17.0277 77.3175 16.8442 77.1528 16.5644C77.0111 16.8442 76.8052 17.0277 76.5308 17.1056C76.2564 17.1836 75.8814 17.2249 75.4011 17.2249H74.0428C73.869 17.2249 73.7363 17.1699 73.6494 17.0598C73.5625 16.9497 73.5168 16.7433 73.5168 16.4451C73.5168 16.147 73.5579 15.936 73.6403 15.8121C73.7226 15.6883 73.8598 15.6286 74.0428 15.6286H74.8614C75.1404 15.6286 75.3188 15.5461 75.3874 15.3855C75.456 15.225 75.4926 14.9452 75.4926 14.5461V11.7986L75.488 11.794ZM74.7242 10.3262C74.6373 10.3262 74.5916 10.2803 74.5916 10.1931V8.89962C74.5916 8.81247 74.6373 8.7666 74.7242 8.7666H76.0414C76.1283 8.7666 76.1741 8.81247 76.1741 8.89962V10.1931C76.1741 10.2803 76.1283 10.3262 76.0414 10.3262H74.7242ZM76.7504 10.3262C76.6635 10.3262 76.6177 10.2803 76.6177 10.1931V8.89962C76.6177 8.81247 76.6635 8.7666 76.7504 8.7666H78.0813C78.1682 8.7666 78.2139 8.81247 78.2139 8.89962V10.1931C78.2139 10.2803 78.1682 10.3262 78.0813 10.3262H76.7504Z" fill="#4C3C8D"/>
<path d="M78.6485 17.22C78.4747 17.22 78.3421 17.1879 78.2552 17.1282C78.1683 17.0686 78.1226 16.9448 78.1226 16.7567C78.1226 16.6512 78.1317 16.5319 78.1546 16.3989C78.1774 16.2659 78.2049 16.142 78.246 16.0274C78.2872 15.9127 78.3375 15.8164 78.4061 15.7384C78.4747 15.6604 78.5525 15.6191 78.6485 15.6191H79.1105C79.33 15.6191 79.4901 15.5687 79.5907 15.4678C79.6913 15.3669 79.7416 15.1834 79.7416 14.9219V8.37179C79.7416 8.28464 79.7874 8.23877 79.8743 8.23877H81.4796C81.5665 8.23877 81.6123 8.28464 81.6123 8.37179V15.5549C81.6123 16.1283 81.4933 16.5503 81.2555 16.8163C81.0177 17.087 80.6243 17.22 80.0709 17.22H78.6485Z" fill="#4C3C8D"/>
<path d="M85.038 17.087C85.038 17.1741 84.9923 17.22 84.9054 17.22H83.3229C83.236 17.22 83.1902 17.1741 83.1902 17.087V8.37179C83.1902 8.28464 83.236 8.23877 83.3229 8.23877H84.9054C84.9923 8.23877 85.038 8.28464 85.038 8.37179V17.087Z" fill="#4C3C8D"/>
<path d="M93.7053 17.3118C93.3074 17.3118 92.946 17.2614 92.6167 17.1651C92.2874 17.0687 91.9993 16.9036 91.7523 16.6743C91.6883 16.7706 91.6243 16.844 91.5556 16.899C91.487 16.9541 91.4184 17.0091 91.3498 17.0779C91.2812 17.1467 91.2309 17.2247 91.1852 17.3164C91.1394 17.4082 91.1212 17.5366 91.1212 17.6926V19.9264H89.2505V17.4173C89.2505 17.1192 89.2871 16.8715 89.3557 16.6834C89.4243 16.4954 89.5158 16.3348 89.6256 16.2064C89.7353 16.078 89.8543 15.9725 89.9823 15.8899C90.1104 15.8073 90.2339 15.7248 90.3528 15.6376C90.4717 15.555 90.5723 15.4633 90.6546 15.3624C90.737 15.2615 90.7873 15.1285 90.8056 14.9587C90.7964 14.8808 90.7918 14.7982 90.7918 14.7065V14.4312C90.7918 13.8487 90.8696 13.3671 91.0297 12.9864C91.1898 12.6057 91.4001 12.2983 91.67 12.069C91.9398 11.8396 92.2508 11.6791 92.603 11.5782C92.9552 11.4819 93.3257 11.4314 93.7098 11.4314C94.094 11.4314 94.4645 11.4819 94.8167 11.5782C95.1688 11.6745 95.4799 11.8396 95.7451 12.069C96.015 12.2983 96.2254 12.6057 96.3854 12.9864C96.5455 13.3671 96.6233 13.8533 96.6233 14.4312C96.6233 14.4909 96.6233 14.5505 96.6187 14.6101C96.6141 14.6652 96.6141 14.7202 96.6141 14.7753C96.6324 15.0642 96.7147 15.2798 96.8657 15.4174C97.0166 15.555 97.2041 15.6239 97.4328 15.6239H97.8033C97.9771 15.6239 98.1097 15.6835 98.1966 15.8073C98.2835 15.9312 98.3292 16.133 98.3292 16.4128C98.3292 16.9495 98.1554 17.2201 97.8033 17.2201C97.6432 17.2201 97.4831 17.2155 97.323 17.2018C97.1584 17.188 97.0029 17.1559 96.8474 17.1008C96.6919 17.0458 96.5455 16.9724 96.4037 16.8715C96.2619 16.7706 96.1339 16.633 96.0195 16.4541C95.7543 16.7706 95.425 16.9953 95.0225 17.1192C94.62 17.2476 94.1855 17.3118 93.7098 17.3118H93.7053ZM93.7053 13.0322C92.9918 13.0322 92.6305 13.4772 92.6305 14.367C92.6305 14.867 92.7219 15.2202 92.9003 15.4174C93.0787 15.6147 93.3485 15.7156 93.7053 15.7156C94.062 15.7156 94.341 15.6147 94.5148 15.4174C94.6886 15.2202 94.7755 14.8716 94.7755 14.367C94.7755 13.4772 94.4188 13.0322 93.7007 13.0322H93.7053Z" fill="#4C3C8D"/>
<path d="M97.7846 17.2203C97.6108 17.2203 97.4782 17.1653 97.3913 17.0552C97.3044 16.9451 97.2587 16.7478 97.2587 16.468C97.2587 15.9039 97.4325 15.624 97.7846 15.624H98.6033C98.8229 15.624 98.9829 15.5736 99.0836 15.4727C99.1842 15.3718 99.2345 15.1883 99.2345 14.9268V11.7985C99.2345 11.7114 99.2756 11.6655 99.3671 11.6655H100.95C101.037 11.6655 101.082 11.7114 101.082 11.7985V15.5644C101.082 16.1378 100.963 16.5598 100.73 16.8258C100.497 17.0965 100.103 17.2295 99.5546 17.2295H97.7938L97.7846 17.2203ZM98.274 19.9266C98.1871 19.9266 98.1414 19.8807 98.1414 19.7936V18.5001C98.1414 18.4129 98.1871 18.367 98.274 18.367H99.5912C99.6781 18.367 99.7239 18.4129 99.7239 18.5001V19.7936C99.7239 19.8807 99.6781 19.9266 99.5912 19.9266H98.274ZM100.3 19.9266C100.213 19.9266 100.168 19.8807 100.168 19.7936V18.5001C100.168 18.4129 100.213 18.367 100.3 18.367H101.631C101.718 18.367 101.764 18.4129 101.764 18.5001V19.7936C101.764 19.8807 101.718 19.9266 101.631 19.9266H100.3Z" fill="#4C3C8D"/>
<path d="M103.831 19.9262C103.744 19.9262 103.699 19.8803 103.699 19.7932V18.4584C103.699 18.3712 103.744 18.3254 103.831 18.3254H105.345C105.528 18.3254 105.693 18.3116 105.839 18.2795C105.986 18.2474 106.104 18.1923 106.201 18.1144C106.297 18.0364 106.37 17.9217 106.425 17.7795C106.479 17.6327 106.502 17.4493 106.502 17.2199H105.24C104.38 17.2199 103.717 17.0135 103.26 16.6007C102.798 16.1879 102.569 15.4769 102.569 14.4723C102.569 13.9081 102.651 13.4311 102.811 13.0458C102.976 12.6605 103.191 12.344 103.456 12.1101C103.726 11.8715 104.033 11.7018 104.38 11.5963C104.728 11.4908 105.085 11.4358 105.455 11.4358C105.825 11.4358 106.21 11.4862 106.562 11.5826C106.914 11.6789 107.22 11.8394 107.486 12.0642C107.751 12.289 107.957 12.5917 108.112 12.977C108.268 13.3577 108.341 13.8348 108.341 14.3989V15.6282H109.237C109.59 15.6282 109.763 15.8943 109.763 16.4218C109.763 16.7566 109.722 16.9722 109.64 17.0777C109.558 17.1832 109.425 17.2291 109.237 17.2291H108.341V17.4814C108.341 18.307 108.131 18.9262 107.71 19.3299C107.289 19.7335 106.635 19.9354 105.748 19.9354H103.827L103.831 19.9262ZM105.464 13.032C105.112 13.032 104.842 13.1559 104.655 13.4036C104.467 13.6513 104.371 13.9861 104.371 14.4081C104.371 14.8943 104.476 15.2154 104.682 15.3806C104.888 15.5457 105.158 15.6237 105.492 15.6237H106.507V14.3439C106.507 13.4724 106.159 13.0366 105.464 13.0366V13.032Z" fill="#4C3C8D"/>
<path d="M112.924 11.4362C113.372 11.4362 113.774 11.4867 114.131 11.5876C114.492 11.6885 114.799 11.8353 115.05 12.0233C115.302 12.2114 115.499 12.4499 115.636 12.7297C115.773 13.0095 115.842 13.3352 115.842 13.7067C115.842 14.1195 115.746 14.4911 115.553 14.8214C115.361 15.1516 115.119 15.4222 114.822 15.6332C114.89 15.6241 114.963 15.6195 115.041 15.6195H116.601C116.775 15.6195 116.907 15.6745 116.994 15.7846C117.081 15.8947 117.127 16.1057 117.127 16.413C117.127 16.7203 117.086 16.9222 117.003 17.0414C116.921 17.1607 116.788 17.2203 116.601 17.2203H114.639C114.323 17.2203 114.026 17.2066 113.742 17.179C113.459 17.1515 113.193 17.0598 112.937 16.9038C112.649 17.0644 112.338 17.1561 112.009 17.179C111.68 17.202 111.387 17.2203 111.131 17.2203H109.224C109.041 17.2203 108.903 17.1607 108.821 17.0368C108.739 16.913 108.698 16.702 108.698 16.4038C108.698 16.124 108.739 15.9222 108.821 15.803C108.903 15.6837 109.036 15.6241 109.224 15.6241H111.016C110.719 15.4222 110.477 15.1562 110.289 14.8259C110.102 14.4957 110.01 14.1241 110.01 13.7113C110.01 13.3398 110.079 13.0141 110.216 12.7343C110.353 12.4545 110.545 12.216 110.801 12.0279C111.053 11.8398 111.364 11.6931 111.721 11.5922C112.082 11.4912 112.485 11.4408 112.928 11.4408L112.924 11.4362ZM111.286 10.3262C111.199 10.3262 111.154 10.2803 111.154 10.1931V8.89962C111.154 8.81247 111.199 8.7666 111.286 8.7666H112.603C112.69 8.7666 112.736 8.81247 112.736 8.89962V10.1931C112.736 10.2803 112.69 10.3262 112.603 10.3262H111.286ZM112.924 12.7435C112.64 12.7435 112.393 12.8306 112.174 13.0095C111.959 13.1838 111.849 13.4682 111.849 13.8535C111.849 14.2388 111.954 14.5828 112.169 14.8259C112.379 15.069 112.631 15.2617 112.924 15.3993C113.216 15.2571 113.468 15.069 113.678 14.8259C113.889 14.5828 113.998 14.2617 113.998 13.8535C113.998 13.4453 113.889 13.1838 113.669 13.0095C113.45 12.8352 113.203 12.7435 112.928 12.7435H112.924ZM113.312 10.3262C113.225 10.3262 113.18 10.2803 113.18 10.1931V8.89962C113.18 8.81247 113.225 8.7666 113.312 8.7666H114.643C114.73 8.7666 114.776 8.81247 114.776 8.89962V10.1931C114.776 10.2803 114.73 10.3262 114.643 10.3262H113.312Z" fill="#4C3C8D"/>
<path d="M116.605 17.2203C116.432 17.2203 116.299 17.1653 116.212 17.0552C116.125 16.9451 116.079 16.7479 116.079 16.4681C116.079 15.9039 116.253 15.6241 116.605 15.6241H117.424C117.644 15.6241 117.804 15.5736 117.904 15.4727C118.005 15.3718 118.055 15.1883 118.055 14.9268V11.7986C118.055 11.7114 118.096 11.6655 118.188 11.6655H119.77C119.857 11.6655 119.903 11.7114 119.903 11.7986V15.5644C119.903 16.1378 119.784 16.5598 119.551 16.8258C119.318 17.0965 118.924 17.2295 118.375 17.2295H116.614L116.605 17.2203ZM117.209 10.3262C117.122 10.3262 117.076 10.2803 117.076 10.1931V8.89962C117.076 8.81247 117.122 8.7666 117.209 8.7666H118.526C118.613 8.7666 118.659 8.81247 118.659 8.89962V10.1931C118.659 10.2803 118.613 10.3262 118.526 10.3262H117.209ZM119.235 10.3262C119.148 10.3262 119.103 10.2803 119.103 10.1931V8.89962C119.103 8.81247 119.148 8.7666 119.235 8.7666H120.566C120.653 8.7666 120.699 8.81247 120.699 8.89962V10.1931C120.699 10.2803 120.653 10.3262 120.566 10.3262H119.235Z" fill="#4C3C8D"/>
<path d="M128.378 11.4359V10.8671C128.378 10.7799 128.424 10.7341 128.511 10.7341H130.116C130.203 10.7341 130.249 10.7799 130.249 10.8671V14.9219C130.249 15.188 130.299 15.3669 130.4 15.4678C130.5 15.5687 130.66 15.6191 130.88 15.6191H131.287C131.639 15.6191 131.813 15.8898 131.813 16.4264C131.813 16.7338 131.772 16.9448 131.69 17.0548C131.607 17.1649 131.47 17.22 131.287 17.22H129.92C129.49 17.22 129.156 17.1512 128.913 17.0136C128.671 16.876 128.511 16.6191 128.433 16.243C128.241 16.4035 128.017 16.5182 127.761 16.6007C127.505 16.6833 127.239 16.72 126.956 16.72C126.613 16.72 126.288 16.6695 125.977 16.5732C125.666 16.4769 125.392 16.3255 125.154 16.1237C124.916 15.9219 124.728 15.6558 124.596 15.3302C124.459 15.0045 124.39 14.61 124.39 14.1421C124.39 13.6147 124.468 13.1743 124.619 12.8257C124.77 12.4771 124.975 12.2019 125.222 11.9955C125.474 11.7891 125.757 11.6423 126.078 11.5597C126.398 11.4771 126.727 11.4359 127.056 11.4359H128.374H128.378ZM125.703 9.79833C125.616 9.79833 125.57 9.75246 125.57 9.66531V8.37179C125.57 8.28464 125.616 8.23877 125.703 8.23877H127.02C127.107 8.23877 127.152 8.28464 127.152 8.37179V9.66531C127.152 9.75246 127.107 9.79833 127.02 9.79833H125.703ZM127.29 15.1192C127.624 15.1192 127.884 15.0228 128.081 14.8348C128.278 14.6467 128.374 14.3486 128.374 13.9449V13.0321H127.326C126.997 13.0321 126.727 13.1101 126.526 13.2706C126.325 13.4312 126.224 13.7202 126.224 14.1421C126.224 14.5045 126.325 14.7568 126.526 14.9036C126.727 15.0504 126.979 15.1238 127.285 15.1238L127.29 15.1192ZM127.729 9.79833C127.642 9.79833 127.596 9.75246 127.596 9.66531V8.37179C127.596 8.28464 127.642 8.23877 127.729 8.23877H129.06C129.147 8.23877 129.192 8.28464 129.192 8.37179V9.66531C129.192 9.75246 129.147 9.79833 129.06 9.79833H127.729Z" fill="#4C3C8D"/>
<path d="M134.214 16.5596C134.063 16.8349 133.857 17.0092 133.596 17.0963C133.331 17.1789 132.965 17.2202 132.49 17.2202H131.438C131.264 17.2202 131.131 17.1926 131.044 17.133C130.957 17.078 130.912 16.9495 130.912 16.7569C130.912 16.6422 130.921 16.5184 130.939 16.3853C130.957 16.2523 130.989 16.1285 131.031 16.0138C131.076 15.8991 131.131 15.8028 131.204 15.7294C131.278 15.656 131.364 15.6147 131.47 15.6147H131.904C132.179 15.6147 132.348 15.5368 132.426 15.3854C132.499 15.2294 132.54 14.9542 132.54 14.5597V11.7847C132.54 11.7158 132.604 11.6746 132.732 11.6654C132.86 11.6562 132.97 11.6516 133.066 11.6516H134.278C134.365 11.6516 134.411 11.6975 134.411 11.7847V14.9038C134.429 15.1239 134.525 15.2982 134.694 15.4267C134.863 15.5551 135.106 15.6193 135.412 15.6193H135.714C135.888 15.6193 136.02 15.679 136.107 15.8028C136.194 15.9266 136.24 16.1285 136.24 16.4083C136.24 16.9449 136.066 17.2156 135.714 17.2156C135.362 17.2156 135.092 17.1743 134.845 17.0963C134.598 17.0183 134.392 16.8349 134.228 16.5551L134.214 16.5596ZM132.407 9.55999C132.357 9.47284 132.311 9.37651 132.275 9.27101C132.238 9.16551 132.22 9.04167 132.22 8.89947C132.22 8.73893 132.247 8.58297 132.307 8.4316C132.366 8.28024 132.453 8.13804 132.572 8.01419C132.691 7.89035 132.842 7.79402 133.034 7.71604C133.226 7.63807 133.45 7.60596 133.711 7.60596C133.99 7.60596 134.246 7.661 134.47 7.7665C134.694 7.872 134.859 8.00043 134.964 8.1518C135.001 8.19767 134.996 8.23895 134.95 8.28482L134.529 8.73434C134.493 8.77104 134.456 8.76186 134.411 8.70682C134.314 8.61967 134.214 8.54628 134.113 8.49582C134.013 8.44537 133.889 8.41784 133.752 8.41784C133.578 8.41784 133.436 8.4683 133.336 8.56463C133.235 8.66095 133.185 8.79397 133.185 8.9591C133.185 9.12423 133.226 9.24349 133.304 9.33982C133.381 9.43614 133.468 9.50953 133.569 9.56458H134.95C135.005 9.56458 135.028 9.59668 135.028 9.65632V10.2756C135.028 10.3352 135.001 10.3673 134.95 10.3673H131.945C131.89 10.3673 131.868 10.3352 131.868 10.2756V9.65632C131.868 9.59668 131.895 9.56458 131.945 9.56458H132.407V9.55999Z" fill="#4C3C8D"/>
<path d="M137.137 11.7937C137.137 11.7065 137.178 11.6606 137.27 11.6606H138.852C138.939 11.6606 138.985 11.7065 138.985 11.7937V14.9128C139.003 15.133 139.099 15.3073 139.268 15.4357C139.437 15.5641 139.68 15.6283 139.986 15.6283H140.288C140.462 15.6283 140.595 15.688 140.681 15.8118C140.768 15.9357 140.814 16.1375 140.814 16.4173C140.814 16.954 140.64 17.2246 140.288 17.2246C139.936 17.2246 139.666 17.1833 139.419 17.1053C139.172 17.0274 138.966 16.8439 138.802 16.5641C138.664 16.8439 138.454 17.0274 138.18 17.1053C137.905 17.1833 137.53 17.2246 137.05 17.2246H135.692C135.518 17.2246 135.385 17.1695 135.298 17.0595C135.211 16.9494 135.166 16.743 135.166 16.4448C135.166 16.1467 135.207 15.9357 135.289 15.8118C135.371 15.688 135.509 15.6283 135.692 15.6283H136.51C136.789 15.6283 136.968 15.5458 137.036 15.3852C137.105 15.2247 137.141 14.9449 137.141 14.5458V11.7983L137.137 11.7937ZM136.309 19.9309C136.222 19.9309 136.176 19.885 136.176 19.7979V18.5043C136.176 18.4172 136.222 18.3713 136.309 18.3713H137.626C137.713 18.3713 137.759 18.4172 137.759 18.5043V19.7979C137.759 19.885 137.713 19.9309 137.626 19.9309H136.309ZM138.335 19.9309C138.248 19.9309 138.203 19.885 138.203 19.7979V18.5043C138.203 18.4172 138.248 18.3713 138.335 18.3713H139.666C139.753 18.3713 139.799 18.4172 139.799 18.5043V19.7979C139.799 19.885 139.753 19.9309 139.666 19.9309H138.335Z" fill="#4C3C8D"/>
<path d="M140.297 17.2202C140.123 17.2202 139.99 17.1605 139.904 17.0413C139.817 16.922 139.771 16.7202 139.771 16.4404C139.771 16.1606 139.812 15.9404 139.894 15.812C139.977 15.6835 140.109 15.6193 140.297 15.6193H141.587C141.463 15.3533 141.399 15.046 141.399 14.6928C141.399 14.3396 141.459 14.0231 141.577 13.7662C141.696 13.5093 141.847 13.3029 142.039 13.147C142.227 12.9864 142.446 12.8718 142.693 12.7984C142.94 12.725 143.192 12.6837 143.457 12.6837C144.116 12.6837 144.633 12.8442 145.012 13.1653C145.392 13.4864 145.579 13.9956 145.579 14.6928C145.579 14.8762 145.557 15.046 145.506 15.2019C145.456 15.3579 145.401 15.4955 145.342 15.6193C145.735 15.6193 146 15.5001 146.133 15.257C146.265 15.0139 146.33 14.7157 146.33 14.3671C146.33 14.0185 146.275 13.7295 146.165 13.4818C146.055 13.2341 145.9 13.0323 145.703 12.8763C145.506 12.7204 145.268 12.6011 144.994 12.5277C144.72 12.4543 144.413 12.4177 144.079 12.4177C143.782 12.4177 143.466 12.4406 143.137 12.491C142.808 12.5415 142.488 12.6103 142.167 12.7112C142.131 12.7296 142.09 12.7433 142.035 12.7525C141.98 12.7617 141.948 12.7387 141.93 12.6883L141.655 11.6975C141.637 11.6425 141.632 11.5966 141.637 11.5599C141.642 11.5232 141.674 11.4865 141.738 11.459C142.167 11.2939 142.593 11.1608 143.009 11.0645C143.425 10.9682 143.919 10.9177 144.491 10.9177C145.227 10.9177 145.84 11.0186 146.33 11.2159C146.819 11.4131 147.203 11.6746 147.487 12.0002C147.77 12.3259 147.971 12.6929 148.086 13.0965C148.2 13.5002 148.255 13.9176 148.255 14.3396C148.255 14.835 148.209 15.2615 148.122 15.6285C148.035 15.9955 147.889 16.2936 147.683 16.5321C147.478 16.7706 147.203 16.945 146.869 17.0596C146.531 17.1743 146.11 17.2293 145.611 17.2293H140.306L140.297 17.2202ZM143.476 13.8121C143.233 13.8121 143.041 13.8946 142.908 14.0552C142.776 14.2203 142.707 14.4497 142.707 14.7478C142.707 15.046 142.767 15.2845 142.89 15.4267C143.014 15.5689 143.183 15.6514 143.398 15.6698H143.54C143.764 15.6514 143.937 15.5689 144.047 15.4267C144.162 15.2799 144.216 15.0551 144.216 14.7478C144.216 14.4405 144.152 14.2157 144.029 14.0552C143.901 13.8946 143.718 13.8121 143.476 13.8121Z" fill="#4C3C8D"/>
<path d="M0.512299 23.6051C0.512299 23.5546 0.539741 23.5271 0.590051 23.5271H3.76417C3.81448 23.5271 3.84192 23.5546 3.84192 23.6051V24.0959C3.84192 24.1463 3.81448 24.1739 3.76417 24.1739H1.25323C1.22122 24.1739 1.2075 24.1876 1.2075 24.2197V25.7747C1.2075 25.8068 1.22122 25.8206 1.25323 25.8206H3.38456C3.43487 25.8206 3.46231 25.8481 3.46231 25.8985V26.3893C3.46231 26.4398 3.43487 26.4673 3.38456 26.4673H1.25323C1.22122 26.4673 1.2075 26.4811 1.2075 26.5132V28.1232C1.2075 28.1553 1.22122 28.1691 1.25323 28.1691H3.76417C3.81448 28.1691 3.84192 28.1966 3.84192 28.2471V28.7379C3.84192 28.7883 3.81448 28.8158 3.76417 28.8158H0.590051C0.539741 28.8158 0.512299 28.7883 0.512299 28.7379V23.6097V23.6051Z" fill="#4C3C8D"/>
<path d="M7.18091 28.8109C7.1306 28.8109 7.10316 28.7834 7.10316 28.7329V28.3751H7.09401C7.00711 28.5265 6.87905 28.6504 6.70983 28.7467C6.5406 28.843 6.31649 28.8935 6.0375 28.8935C5.71277 28.8935 5.44292 28.8201 5.22339 28.6687C5.00842 28.5173 4.85292 28.2972 4.75687 27.999C4.70656 27.8476 4.66997 27.6917 4.65168 27.5311C4.63338 27.3706 4.62424 27.1734 4.62424 26.9394C4.62424 26.7055 4.63338 26.5128 4.65168 26.3523C4.66997 26.1963 4.70656 26.0404 4.75687 25.889C4.84835 25.5955 5.00385 25.3707 5.22339 25.2193C5.43835 25.068 5.71277 24.9946 6.0375 24.9946C6.31649 24.9946 6.5406 25.0404 6.70983 25.1368C6.87905 25.2331 7.00711 25.3569 7.09401 25.5083H7.10316V23.5956C7.10316 23.5451 7.1306 23.5176 7.18091 23.5176H7.67487C7.72518 23.5176 7.75262 23.5451 7.75262 23.5956V28.7237C7.75262 28.7742 7.72518 28.8017 7.67487 28.8017H7.18091V28.8109ZM6.19758 28.288C6.62293 28.288 6.89277 28.0999 7.02084 27.7192C7.05285 27.6321 7.07572 27.5266 7.08487 27.4027C7.09859 27.2789 7.10316 27.1275 7.10316 26.9394C7.10316 26.7514 7.09859 26.6 7.08487 26.4807C7.07115 26.3615 7.04828 26.256 7.02084 26.1642C6.89735 25.7927 6.62293 25.6046 6.19758 25.6046C5.77223 25.6046 5.51153 25.7927 5.38347 26.1642C5.35145 26.2697 5.32858 26.3798 5.31943 26.5083C5.30571 26.6321 5.30114 26.7789 5.30114 26.944C5.30114 27.1091 5.30571 27.2605 5.31943 27.3889C5.33315 27.5128 5.35602 27.6229 5.38347 27.7238C5.51153 28.0999 5.78595 28.2926 6.19758 28.2926V28.288Z" fill="#4C3C8D"/>
<path d="M11.3609 28.8113C11.3106 28.8113 11.2832 28.7837 11.2832 28.7333V28.3847H11.274C11.178 28.5406 11.0408 28.6645 10.8761 28.7562C10.7115 28.848 10.5011 28.8984 10.2587 28.8984C9.85162 28.8984 9.53604 28.77 9.30735 28.5131C9.08324 28.2562 8.9689 27.9168 8.9689 27.4902V25.1646C8.9689 25.1142 8.99634 25.0867 9.04665 25.0867H9.54061C9.59092 25.0867 9.61836 25.1142 9.61836 25.1646V27.3343C9.61836 27.6416 9.68697 27.8755 9.8196 28.0407C9.95224 28.2058 10.1626 28.2883 10.4416 28.2883C10.6932 28.2883 10.899 28.2058 11.0499 28.0407C11.2008 27.8755 11.2786 27.6508 11.2786 27.371V25.1646C11.2786 25.1142 11.306 25.0867 11.3564 25.0867H11.8503C11.9006 25.0867 11.9281 25.1142 11.9281 25.1646V28.7333C11.9281 28.7837 11.9006 28.8113 11.8503 28.8113H11.3564H11.3609Z" fill="#4C3C8D"/>
<path d="M12.9802 26.9488C12.9802 26.7424 12.9893 26.5635 13.0122 26.4075C13.0305 26.2561 13.0625 26.1231 13.0991 26.0084C13.2043 25.6828 13.3827 25.4351 13.6434 25.2608C13.8995 25.0911 14.2105 25.0039 14.5673 25.0039C14.8508 25.0039 15.1024 25.0589 15.3128 25.169C15.5277 25.2791 15.7015 25.4351 15.8342 25.6323C15.8616 25.6736 15.8525 25.7103 15.8113 25.7424L15.4683 26.0222C15.4271 26.0543 15.3905 26.0497 15.3585 26.013C15.2487 25.88 15.1344 25.7791 15.0155 25.7103C14.8966 25.6415 14.7456 25.6094 14.5581 25.6094C14.3569 25.6094 14.1831 25.6553 14.0367 25.7516C13.8904 25.8479 13.7897 25.9947 13.7257 26.1919C13.6937 26.2882 13.6708 26.3983 13.6617 26.5176C13.6479 26.6369 13.6434 26.779 13.6434 26.9442C13.6434 27.1093 13.6479 27.2515 13.6617 27.3753C13.6754 27.4992 13.6983 27.6093 13.7257 27.7056C13.7897 27.9028 13.8904 28.0496 14.0367 28.146C14.1831 28.2423 14.3523 28.2881 14.5581 28.2881C14.7456 28.2881 14.8966 28.256 15.0155 28.1872C15.1344 28.1184 15.2487 28.0175 15.3585 27.8845C15.3905 27.8478 15.4271 27.8478 15.4683 27.8753L15.8113 28.1551C15.8525 28.1872 15.8616 28.2239 15.8342 28.2652C15.7015 28.4625 15.5277 28.6184 15.3128 28.7285C15.0978 28.8386 14.8508 28.8936 14.5673 28.8936C14.2105 28.8936 13.9041 28.8065 13.6434 28.6368C13.3873 28.467 13.2043 28.2148 13.0991 27.8891C13.0625 27.7744 13.0351 27.6414 13.0122 27.49C12.9893 27.3387 12.9802 27.1552 12.9802 26.9442V26.9488Z" fill="#4C3C8D"/>
<path d="M19.0126 28.8111C18.9623 28.8111 18.9348 28.7835 18.9348 28.7331V28.4074H18.9257C18.8388 28.545 18.7016 28.6643 18.5232 28.756C18.3448 28.8478 18.1116 28.8982 17.828 28.8982C17.6542 28.8982 17.4896 28.8753 17.334 28.8294C17.1831 28.7835 17.0505 28.7147 16.9407 28.6184C16.8309 28.5267 16.7395 28.4074 16.6754 28.2652C16.6114 28.123 16.5794 27.9625 16.5794 27.7744C16.5794 27.3799 16.7075 27.0864 16.9636 26.9029C17.2197 26.7194 17.5764 26.6231 18.0292 26.6231H18.8754C18.9074 26.6231 18.9211 26.6093 18.9211 26.5772V26.3066C18.9211 26.0497 18.8571 25.8662 18.7336 25.7516C18.6101 25.6369 18.3723 25.5819 18.0292 25.5819C17.8189 25.5819 17.6405 25.6048 17.5033 25.6553C17.3661 25.7057 17.238 25.7699 17.1328 25.8479C17.0871 25.8846 17.0505 25.88 17.023 25.8387L16.8126 25.4809C16.7944 25.4397 16.7989 25.403 16.8264 25.3709C16.9636 25.2608 17.142 25.1736 17.3523 25.1048C17.5627 25.036 17.8097 25.0039 18.0887 25.0039C18.6147 25.0039 18.9897 25.1002 19.2092 25.2975C19.4288 25.4901 19.5386 25.8158 19.5386 26.2745V28.7377C19.5386 28.7881 19.5111 28.8156 19.4608 28.8156H19.008L19.0126 28.8111ZM17.9789 28.3386C18.2762 28.3386 18.5049 28.2744 18.6696 28.146C18.8342 28.0175 18.9165 27.8386 18.9165 27.6047V27.1919C18.9165 27.1598 18.9028 27.146 18.8708 27.146H18.1253C17.8006 27.146 17.5627 27.1919 17.4164 27.2882C17.27 27.3845 17.1968 27.5359 17.1968 27.7515C17.1968 27.9441 17.2654 28.0863 17.3981 28.1872C17.5307 28.2836 17.7228 28.334 17.9744 28.334L17.9789 28.3386Z" fill="#4C3C8D"/>
<path d="M21.8669 28.8526C21.5055 28.8526 21.2494 28.77 21.0939 28.6003C20.943 28.4306 20.8652 28.1645 20.8652 27.7976V25.6693C20.8652 25.6371 20.8515 25.6234 20.8195 25.6234H20.5085C20.4582 25.6234 20.4307 25.5959 20.4307 25.5454V25.1739C20.4307 25.1234 20.4582 25.0959 20.5085 25.0959H20.8195C20.8515 25.0959 20.8652 25.0821 20.8652 25.05V23.9996C20.8652 23.9492 20.8927 23.9216 20.943 23.9216H21.4369C21.4872 23.9216 21.5147 23.9492 21.5147 23.9996V25.05C21.5147 25.0821 21.5284 25.0959 21.5604 25.0959H22.1504C22.2007 25.0959 22.2282 25.1234 22.2282 25.1739V25.5454C22.2282 25.5959 22.2007 25.6234 22.1504 25.6234H21.5604C21.5284 25.6234 21.5147 25.6371 21.5147 25.6693V27.7747C21.5147 27.9627 21.5513 28.0866 21.629 28.1508C21.7022 28.215 21.8257 28.2471 21.9903 28.2471H22.155C22.2053 28.2471 22.2327 28.2746 22.2327 28.3251V28.7746C22.2327 28.8251 22.2053 28.8526 22.155 28.8526H21.8669Z" fill="#4C3C8D"/>
<path d="M23.2985 24.2518C23.2481 24.2518 23.2207 24.2243 23.2207 24.1739V23.6051C23.2207 23.5546 23.2481 23.5271 23.2985 23.5271H23.8244C23.8747 23.5271 23.9022 23.5546 23.9022 23.6051V24.1739C23.9022 24.2243 23.8747 24.2518 23.8244 24.2518H23.2985ZM23.3122 28.8112C23.2619 28.8112 23.2344 28.7837 23.2344 28.7333V25.1646C23.2344 25.1142 23.2619 25.0867 23.3122 25.0867H23.8061C23.8564 25.0867 23.8839 25.1142 23.8839 25.1646V28.7333C23.8839 28.7837 23.8564 28.8112 23.8061 28.8112H23.3122Z" fill="#4C3C8D"/>
<path d="M26.5229 28.8984C26.1616 28.8984 25.8506 28.8112 25.599 28.6324C25.3429 28.4581 25.1645 28.2104 25.0593 27.8939C25.0182 27.7654 24.9861 27.6278 24.9679 27.4856C24.945 27.3434 24.9358 27.1645 24.9358 26.9444C24.9358 26.7242 24.945 26.5499 24.9679 26.4077C24.9861 26.2655 25.0182 26.1325 25.0593 26.004C25.1645 25.683 25.3429 25.4353 25.599 25.261C25.8551 25.0867 26.1616 24.9995 26.5229 24.9995C26.8842 24.9995 27.1952 25.0867 27.4468 25.261C27.6983 25.4353 27.8813 25.683 27.9865 26.004C28.0276 26.1325 28.0596 26.2701 28.0779 26.4077C28.0962 26.5453 28.11 26.7242 28.11 26.9444C28.11 27.1645 28.1008 27.3434 28.0779 27.4856C28.0551 27.6278 28.0276 27.7654 27.9865 27.8939C27.8813 28.2104 27.7029 28.4581 27.4468 28.6324C27.1907 28.8067 26.8842 28.8984 26.5229 28.8984ZM26.5229 28.2929C26.7287 28.2929 26.9071 28.2425 27.0489 28.1416C27.1952 28.0406 27.2958 27.8985 27.3599 27.7104C27.3919 27.6049 27.4148 27.4994 27.4239 27.3893C27.4376 27.2792 27.4422 27.1324 27.4422 26.949C27.4422 26.7655 27.4376 26.6233 27.4239 26.5132C27.4102 26.4031 27.3873 26.2976 27.3599 26.1967C27.2958 26.0086 27.1952 25.8664 27.0489 25.7655C26.9025 25.6646 26.7287 25.6142 26.5229 25.6142C26.3171 25.6142 26.1387 25.6646 25.9969 25.7655C25.8506 25.8664 25.7499 26.0086 25.6859 26.1967C25.6539 26.3022 25.631 26.4077 25.6219 26.5132C25.6082 26.6233 25.6036 26.7655 25.6036 26.949C25.6036 27.1324 25.6082 27.2746 25.6219 27.3893C25.6356 27.4994 25.6585 27.6095 25.6859 27.7104C25.7499 27.8985 25.8506 28.0406 25.9969 28.1416C26.1433 28.2425 26.3171 28.2929 26.5229 28.2929Z" fill="#4C3C8D"/>
<path d="M31.5672 28.8111C31.5169 28.8111 31.4895 28.7836 31.4895 28.7331V26.5589C31.4895 26.2608 31.4209 26.0268 31.2837 25.8617C31.1465 25.6966 30.9406 25.614 30.6617 25.614C30.4101 25.614 30.2043 25.6966 30.0442 25.8571C29.8887 26.0223 29.8064 26.2424 29.8064 26.5222V28.7377C29.8064 28.7882 29.7789 28.8157 29.7286 28.8157H29.2347C29.1844 28.8157 29.1569 28.7882 29.1569 28.7377V25.1691C29.1569 25.1186 29.1844 25.0911 29.2347 25.0911H29.7286C29.7789 25.0911 29.8064 25.1186 29.8064 25.1691V25.5131H29.8155C29.9024 25.3663 30.0351 25.2471 30.2089 25.1507C30.3827 25.0544 30.5976 25.0085 30.8537 25.0085C31.2562 25.0085 31.5718 25.137 31.8005 25.3893C32.0292 25.6415 32.1435 25.981 32.1435 26.4076V28.7377C32.1435 28.7882 32.1161 28.8157 32.0658 28.8157H31.5718L31.5672 28.8111Z" fill="#4C3C8D"/>
<path d="M35.1395 27.5131C35.1395 27.2242 35.2218 26.9489 35.391 26.6875C35.5602 26.426 35.8255 26.1508 36.1914 25.8573C36.0725 25.7059 35.9719 25.5729 35.8895 25.4582C35.8072 25.3435 35.7386 25.2334 35.6883 25.1371C35.638 25.0408 35.5968 24.9445 35.574 24.8527C35.5465 24.761 35.5374 24.6692 35.5374 24.5775C35.5374 24.417 35.5648 24.2656 35.6243 24.128C35.6837 23.9858 35.7661 23.8665 35.8758 23.7656C35.9856 23.6647 36.1137 23.5867 36.26 23.5271C36.4064 23.472 36.5664 23.4399 36.7448 23.4399C36.9323 23.4399 37.097 23.472 37.2433 23.5271C37.3897 23.5867 37.5178 23.6693 37.623 23.7702C37.7282 23.8757 37.8105 23.995 37.8654 24.1326C37.9203 24.2702 37.9523 24.417 37.9523 24.5729C37.9523 24.6922 37.934 24.8023 37.902 24.9078C37.8699 25.0133 37.8151 25.1188 37.7419 25.2243C37.6687 25.3298 37.5727 25.4398 37.4537 25.5591C37.3348 25.6738 37.1885 25.8022 37.0101 25.9444L38.0117 27.2333L38.5468 26.5728C38.5789 26.5315 38.6154 26.5269 38.6566 26.5591L38.9585 26.8251C38.9996 26.8572 39.0042 26.8939 38.9722 26.9352L38.3685 27.7058L38.6246 28.0406C38.6749 28.1048 38.7252 28.1507 38.7709 28.1828C38.8167 28.2149 38.8716 28.2287 38.9356 28.2287H39.0499C39.1003 28.2287 39.1277 28.2562 39.1277 28.3067V28.7424C39.1277 28.7929 39.1003 28.8204 39.0499 28.8204H38.8396C38.6841 28.8204 38.5606 28.7975 38.4691 28.7516C38.3776 28.7057 38.277 28.6048 38.1672 28.458L37.9568 28.1874C37.7236 28.4351 37.4995 28.6186 37.2799 28.7333C37.0604 28.8479 36.8134 28.9076 36.5299 28.9076C36.3057 28.9076 36.1091 28.8709 35.9353 28.8021C35.7615 28.7333 35.6197 28.6369 35.5008 28.5131C35.3864 28.3892 35.295 28.247 35.2355 28.0773C35.1715 27.9076 35.144 27.7241 35.144 27.5223L35.1395 27.5131ZM35.7569 27.4764C35.7569 27.7425 35.8301 27.9489 35.9719 28.1003C36.1137 28.2516 36.3149 28.325 36.5802 28.325C36.7631 28.325 36.9323 28.2792 37.0878 28.1874C37.2433 28.0957 37.4217 27.9397 37.6092 27.7195L36.539 26.3205C36.26 26.5361 36.0588 26.7379 35.9399 26.9168C35.8164 27.0957 35.7569 27.2838 35.7569 27.481V27.4764ZM36.6625 25.4811C36.8089 25.3665 36.9232 25.2655 37.0147 25.183C37.1061 25.0958 37.1747 25.0178 37.2205 24.949C37.2662 24.8802 37.2982 24.8114 37.312 24.7518C37.3257 24.6876 37.3348 24.628 37.3348 24.5637C37.3348 24.4032 37.2799 24.2702 37.1702 24.1601C37.0604 24.05 36.914 23.995 36.7311 23.995C36.5482 23.995 36.4018 24.05 36.3012 24.1601C36.2006 24.2702 36.1502 24.4078 36.1502 24.5729C36.1502 24.628 36.1594 24.6876 36.1731 24.738C36.1868 24.7931 36.2143 24.8527 36.2554 24.9215C36.292 24.9903 36.3469 25.0683 36.4155 25.1555C36.4841 25.2426 36.5664 25.3527 36.6625 25.4811Z" fill="#4C3C8D"/>
<path d="M43.0884 28.8112C43.0381 28.8112 43.0106 28.7837 43.0106 28.7333V24.2197C43.0106 24.1876 42.9969 24.1739 42.9649 24.1739H41.5242C41.4739 24.1739 41.4464 24.1463 41.4464 24.0959V23.6051C41.4464 23.5546 41.4739 23.5271 41.5242 23.5271H45.1968C45.2471 23.5271 45.2746 23.5546 45.2746 23.6051V24.0959C45.2746 24.1463 45.2471 24.1739 45.1968 24.1739H43.7561C43.7241 24.1739 43.7104 24.1876 43.7104 24.2197V28.7333C43.7104 28.7837 43.6829 28.8112 43.6326 28.8112H43.0929H43.0884Z" fill="#4C3C8D"/>
<path d="M46.1484 28.8112C46.0981 28.8112 46.0706 28.7837 46.0706 28.7333V25.1646C46.0706 25.1142 46.0981 25.0867 46.1484 25.0867H46.6423C46.6926 25.0867 46.7201 25.1142 46.7201 25.1646V25.5454H46.7292C46.8115 25.3848 46.935 25.2518 47.0951 25.1509C47.2598 25.05 47.4656 24.9995 47.7126 24.9995C47.8635 24.9995 48.0053 25.0224 48.1333 25.0729C48.266 25.1234 48.3757 25.1922 48.4718 25.2793C48.5084 25.316 48.513 25.3527 48.4855 25.3894L48.1974 25.7701C48.1654 25.8114 48.1288 25.816 48.0876 25.7839C48.0007 25.7288 47.9092 25.683 47.8178 25.6509C47.7263 25.6187 47.6257 25.605 47.5159 25.605C47.2323 25.605 47.0265 25.7059 46.903 25.9031C46.7795 26.1004 46.7155 26.3664 46.7155 26.6921V28.7287C46.7155 28.7791 46.6881 28.8067 46.6378 28.8067H46.1438L46.1484 28.8112Z" fill="#4C3C8D"/>
<path d="M51.3072 28.8111C51.2569 28.8111 51.2295 28.7835 51.2295 28.7331V28.4074H51.2203C51.1334 28.545 50.9962 28.6643 50.8178 28.756C50.6395 28.8478 50.4062 28.8982 50.1226 28.8982C49.9488 28.8982 49.7842 28.8753 49.6287 28.8294C49.4778 28.7835 49.3451 28.7147 49.2354 28.6184C49.1256 28.5267 49.0341 28.4074 48.9701 28.2652C48.9061 28.123 48.874 27.9625 48.874 27.7744C48.874 27.3799 49.0021 27.0864 49.2582 26.9029C49.5143 26.7194 49.8711 26.6231 50.3239 26.6231H51.17C51.202 26.6231 51.2158 26.6093 51.2158 26.5772V26.3066C51.2158 26.0497 51.1517 25.8662 51.0282 25.7516C50.9047 25.6369 50.6669 25.5819 50.3239 25.5819C50.1135 25.5819 49.9351 25.6048 49.7979 25.6553C49.6607 25.7057 49.5326 25.7699 49.4275 25.8479C49.3817 25.8846 49.3451 25.88 49.3177 25.8387L49.1073 25.4809C49.089 25.4397 49.0936 25.403 49.121 25.3709C49.2582 25.2608 49.4366 25.1736 49.647 25.1048C49.8574 25.036 50.1044 25.0039 50.3833 25.0039C50.9093 25.0039 51.2844 25.1002 51.5039 25.2975C51.7234 25.4901 51.8332 25.8158 51.8332 26.2745V28.7377C51.8332 28.7881 51.8058 28.8156 51.7554 28.8156H51.3027L51.3072 28.8111ZM50.2736 28.3386C50.5709 28.3386 50.7995 28.2744 50.9642 28.146C51.1289 28.0175 51.2112 27.8386 51.2112 27.6047V27.1919C51.2112 27.1598 51.1975 27.146 51.1654 27.146H50.4199C50.0952 27.146 49.8574 27.1919 49.711 27.2882C49.5647 27.3845 49.4915 27.5359 49.4915 27.7515C49.4915 27.9441 49.5601 28.0863 49.6927 28.1872C49.8254 28.2836 50.0175 28.334 50.269 28.334L50.2736 28.3386Z" fill="#4C3C8D"/>
<path d="M53.146 24.2518C53.0956 24.2518 53.0682 24.2243 53.0682 24.1739V23.6051C53.0682 23.5546 53.0956 23.5271 53.146 23.5271H53.6719C53.7222 23.5271 53.7497 23.5546 53.7497 23.6051V24.1739C53.7497 24.2243 53.7222 24.2518 53.6719 24.2518H53.146ZM53.1597 28.8112C53.1094 28.8112 53.0819 28.7837 53.0819 28.7333V25.1646C53.0819 25.1142 53.1094 25.0867 53.1597 25.0867H53.6536C53.7039 25.0867 53.7314 25.1142 53.7314 25.1646V28.7333C53.7314 28.7837 53.7039 28.8112 53.6536 28.8112H53.1597Z" fill="#4C3C8D"/>
<path d="M57.4179 28.8111C57.3676 28.8111 57.3402 28.7836 57.3402 28.7331V26.5589C57.3402 26.2608 57.2715 26.0268 57.1343 25.8617C56.9971 25.6966 56.7913 25.614 56.5123 25.614C56.2608 25.614 56.055 25.6966 55.8949 25.8571C55.7394 26.0223 55.657 26.2424 55.657 26.5222V28.7377C55.657 28.7882 55.6296 28.8157 55.5793 28.8157H55.0853C55.035 28.8157 55.0076 28.7882 55.0076 28.7377V25.1691C55.0076 25.1186 55.035 25.0911 55.0853 25.0911H55.5793C55.6296 25.0911 55.657 25.1186 55.657 25.1691V25.5131H55.6662C55.7531 25.3663 55.8857 25.2471 56.0595 25.1507C56.2333 25.0544 56.4483 25.0085 56.7044 25.0085C57.1069 25.0085 57.4225 25.137 57.6512 25.3893C57.8798 25.6415 57.9942 25.981 57.9942 26.4076V28.7377C57.9942 28.7882 57.9667 28.8157 57.9164 28.8157H57.4225L57.4179 28.8111Z" fill="#4C3C8D"/>
<path d="M59.284 24.2518C59.2337 24.2518 59.2062 24.2243 59.2062 24.1739V23.6051C59.2062 23.5546 59.2337 23.5271 59.284 23.5271H59.81C59.8603 23.5271 59.8877 23.5546 59.8877 23.6051V24.1739C59.8877 24.2243 59.8603 24.2518 59.81 24.2518H59.284ZM59.2977 28.8112C59.2474 28.8112 59.22 28.7837 59.22 28.7333V25.1646C59.22 25.1142 59.2474 25.0867 59.2977 25.0867H59.7917C59.842 25.0867 59.8694 25.1142 59.8694 25.1646V28.7333C59.8694 28.7837 59.842 28.8112 59.7917 28.8112H59.2977Z" fill="#4C3C8D"/>
<path d="M63.5509 28.8111C63.5006 28.8111 63.4732 28.7836 63.4732 28.7331V26.5589C63.4732 26.2608 63.4046 26.0268 63.2674 25.8617C63.1302 25.6966 62.9244 25.614 62.6454 25.614C62.3938 25.614 62.188 25.6966 62.0279 25.8571C61.8724 26.0223 61.7901 26.2424 61.7901 26.5222V28.7377C61.7901 28.7882 61.7626 28.8157 61.7123 28.8157H61.2184C61.1681 28.8157 61.1406 28.7882 61.1406 28.7377V25.1691C61.1406 25.1186 61.1681 25.0911 61.2184 25.0911H61.7123C61.7626 25.0911 61.7901 25.1186 61.7901 25.1691V25.5131H61.7992C61.8861 25.3663 62.0188 25.2471 62.1926 25.1507C62.3664 25.0544 62.5813 25.0085 62.8375 25.0085C63.2399 25.0085 63.5555 25.137 63.7842 25.3893C64.0129 25.6415 64.1272 25.981 64.1272 26.4076V28.7377C64.1272 28.7882 64.0998 28.8157 64.0495 28.8157H63.5555L63.5509 28.8111Z" fill="#4C3C8D"/>
<path d="M66.5653 30.2972C66.3 30.2972 66.0531 30.2468 65.8198 30.1459C65.5865 30.0449 65.4036 29.9119 65.2801 29.7468C65.2481 29.7101 65.2527 29.6734 65.2892 29.6367L65.6048 29.3202C65.6414 29.2835 65.678 29.2835 65.7192 29.3202C65.8472 29.4395 65.9799 29.5312 66.1171 29.5954C66.2543 29.6596 66.4144 29.6917 66.5927 29.6917C66.9038 29.6917 67.137 29.6092 67.2925 29.4441C67.448 29.2789 67.5303 29.0266 67.5303 28.6826V28.2469H67.5212C67.4343 28.4028 67.3062 28.5313 67.1462 28.623C66.9815 28.7193 66.7665 28.7652 66.4921 28.7652C66.1765 28.7652 65.9113 28.6872 65.7009 28.5358C65.4905 28.3845 65.335 28.1597 65.2435 27.8616C65.1978 27.7194 65.1658 27.5772 65.1475 27.4304C65.1292 27.2836 65.12 27.1001 65.12 26.8845C65.12 26.669 65.1292 26.4855 65.1475 26.3387C65.1658 26.1919 65.1978 26.0451 65.2435 25.9075C65.335 25.614 65.4905 25.3892 65.7009 25.2333C65.9113 25.0819 66.1765 25.0039 66.4921 25.0039C66.7665 25.0039 66.9861 25.0498 67.1462 25.1415C67.3108 25.2333 67.4343 25.3571 67.5212 25.5131H67.5303V25.1644C67.5303 25.114 67.5578 25.0865 67.6081 25.0865H68.102C68.1524 25.0865 68.1798 25.114 68.1798 25.1644V28.6459C68.1798 29.178 68.0426 29.5862 67.7636 29.8706C67.4892 30.155 67.0867 30.2926 66.5607 30.2926L66.5653 30.2972ZM66.6522 28.1597C67.0501 28.1597 67.3154 27.9716 67.448 27.6001C67.48 27.5084 67.5029 27.4029 67.512 27.2882C67.5258 27.1735 67.5303 27.0359 67.5303 26.8754C67.5303 26.7148 67.5258 26.5818 67.512 26.4671C67.4983 26.3525 67.4755 26.2516 67.448 26.1552C67.32 25.7883 67.0547 25.6048 66.6522 25.6048C66.2497 25.6048 65.9936 25.7883 65.8655 26.1552C65.8335 26.2516 65.8106 26.3616 65.7969 26.4763C65.7832 26.591 65.7741 26.724 65.7741 26.8754C65.7741 27.1689 65.8061 27.412 65.8655 27.5955C65.9936 27.9671 66.2589 28.1551 66.6522 28.1551V28.1597Z" fill="#4C3C8D"/>
<path d="M71.3308 23.6051C71.3308 23.5546 71.3582 23.5271 71.4086 23.5271H74.5827C74.633 23.5271 74.6604 23.5546 74.6604 23.6051V24.0959C74.6604 24.1463 74.633 24.1739 74.5827 24.1739H72.0717C72.0397 24.1739 72.026 24.1876 72.026 24.2197V25.7747C72.026 25.8068 72.0397 25.8206 72.0717 25.8206H74.2031C74.2534 25.8206 74.2808 25.8481 74.2808 25.8985V26.3893C74.2808 26.4398 74.2534 26.4673 74.2031 26.4673H72.0717C72.0397 26.4673 72.026 26.4811 72.026 26.5132V28.1232C72.026 28.1553 72.0397 28.1691 72.0717 28.1691H74.5827C74.633 28.1691 74.6604 28.1966 74.6604 28.2471V28.7379C74.6604 28.7883 74.633 28.8158 74.5827 28.8158H71.4086C71.3582 28.8158 71.3308 28.7883 71.3308 28.7379V23.6097V23.6051Z" fill="#4C3C8D"/>
<path d="M76.5311 28.8113C76.4854 28.8113 76.4534 28.7837 76.4397 28.7333L75.1087 25.1646C75.095 25.1142 75.1133 25.0867 75.1728 25.0867H75.7079C75.7536 25.0867 75.7856 25.1142 75.8085 25.1646L76.769 27.8388H76.7827L77.7203 25.1646C77.734 25.1142 77.766 25.0867 77.8118 25.0867H78.3377C78.3926 25.0867 78.4155 25.1142 78.4018 25.1646L77.0754 28.7333C77.0617 28.7837 77.0251 28.8113 76.9748 28.8113H76.5311Z" fill="#4C3C8D"/>
<path d="M81.4433 28.8111C81.3929 28.8111 81.3655 28.7835 81.3655 28.7331V28.4074H81.3564C81.2695 28.545 81.1322 28.6643 80.9539 28.756C80.7755 28.8478 80.5422 28.8982 80.2587 28.8982C80.0849 28.8982 79.9202 28.8753 79.7647 28.8294C79.6138 28.7835 79.4811 28.7147 79.3714 28.6184C79.2616 28.5267 79.1701 28.4074 79.1061 28.2652C79.0421 28.123 79.0101 27.9625 79.0101 27.7744C79.0101 27.3799 79.1381 27.0864 79.3942 26.9029C79.6504 26.7194 80.0071 26.6231 80.4599 26.6231H81.306C81.3381 26.6231 81.3518 26.6093 81.3518 26.5772V26.3066C81.3518 26.0497 81.2877 25.8662 81.1643 25.7516C81.0408 25.6369 80.8029 25.5819 80.4599 25.5819C80.2495 25.5819 80.0712 25.6048 79.9339 25.6553C79.7967 25.7057 79.6687 25.7699 79.5635 25.8479C79.5177 25.8846 79.4812 25.88 79.4537 25.8387L79.2433 25.4809C79.225 25.4397 79.2296 25.403 79.257 25.3709C79.3942 25.2608 79.5726 25.1736 79.783 25.1048C79.9934 25.036 80.2404 25.0039 80.5194 25.0039C81.0453 25.0039 81.4204 25.1002 81.6399 25.2975C81.8595 25.4901 81.9692 25.8158 81.9692 26.2745V28.7377C81.9692 28.7881 81.9418 28.8156 81.8915 28.8156H81.4387L81.4433 28.8111ZM80.4096 28.3386C80.7069 28.3386 80.9356 28.2744 81.1002 28.146C81.2649 28.0175 81.3472 27.8386 81.3472 27.6047V27.1919C81.3472 27.1598 81.3335 27.146 81.3015 27.146H80.556C80.2312 27.146 79.9934 27.1919 79.847 27.2882C79.7007 27.3845 79.6275 27.5359 79.6275 27.7515C79.6275 27.9441 79.6961 28.0863 79.8287 28.1872C79.9614 28.2836 80.1535 28.334 80.405 28.334L80.4096 28.3386Z" fill="#4C3C8D"/>
<path d="M84.1098 28.8525C83.7851 28.8525 83.5518 28.7745 83.4146 28.614C83.2728 28.458 83.2042 28.2104 83.2042 27.8709V23.6051C83.2042 23.5546 83.2317 23.5271 83.282 23.5271H83.7759C83.8262 23.5271 83.8537 23.5546 83.8537 23.6051V27.8342C83.8537 27.9902 83.8811 28.0957 83.9406 28.1553C84 28.2149 84.0961 28.2425 84.2242 28.2425H84.3705C84.4208 28.2425 84.4483 28.27 84.4483 28.3204V28.77C84.4483 28.8204 84.4208 28.8479 84.3705 28.8479H84.1052L84.1098 28.8525Z" fill="#4C3C8D"/>
<path d="M87.7001 28.8113C87.6498 28.8113 87.6223 28.7837 87.6223 28.7333V28.3847H87.6132C87.5171 28.5406 87.3799 28.6645 87.2153 28.7562C87.0506 28.848 86.8402 28.8984 86.5978 28.8984C86.1908 28.8984 85.8752 28.77 85.6465 28.5131C85.4224 28.2562 85.308 27.9168 85.308 27.4902V25.1646C85.308 25.1142 85.3355 25.0867 85.3858 25.0867H85.8798C85.9301 25.0867 85.9575 25.1142 85.9575 25.1646V27.3343C85.9575 27.6416 86.0261 27.8755 86.1587 28.0407C86.2914 28.2058 86.5018 28.2883 86.7808 28.2883C87.0323 28.2883 87.2381 28.2058 87.3891 28.0407C87.54 27.8755 87.6177 27.6508 87.6177 27.371V25.1646C87.6177 25.1142 87.6452 25.0867 87.6955 25.0867H88.1895C88.2398 25.0867 88.2672 25.1142 88.2672 25.1646V28.7333C88.2672 28.7837 88.2398 28.8113 88.1895 28.8113H87.6955H87.7001Z" fill="#4C3C8D"/>
<path d="M91.7889 28.8111C91.7386 28.8111 91.7112 28.7835 91.7112 28.7331V28.4074H91.702C91.6151 28.545 91.4779 28.6643 91.2995 28.756C91.1211 28.8478 90.8879 28.8982 90.6043 28.8982C90.4305 28.8982 90.2659 28.8753 90.1104 28.8294C89.9594 28.7835 89.8268 28.7147 89.717 28.6184C89.6073 28.5267 89.5158 28.4074 89.4518 28.2652C89.3877 28.123 89.3557 27.9625 89.3557 27.7744C89.3557 27.3799 89.4838 27.0864 89.7399 26.9029C89.996 26.7194 90.3528 26.6231 90.8056 26.6231H91.6517C91.6837 26.6231 91.6974 26.6093 91.6974 26.5772V26.3066C91.6974 26.0497 91.6334 25.8662 91.5099 25.7516C91.3864 25.6369 91.1486 25.5819 90.8056 25.5819C90.5952 25.5819 90.4168 25.6048 90.2796 25.6553C90.1424 25.7057 90.0143 25.7699 89.9091 25.8479C89.8634 25.8846 89.8268 25.88 89.7994 25.8387L89.589 25.4809C89.5707 25.4397 89.5753 25.403 89.6027 25.3709C89.7399 25.2608 89.9183 25.1736 90.1287 25.1048C90.3391 25.036 90.586 25.0039 90.865 25.0039C91.391 25.0039 91.766 25.1002 91.9856 25.2975C92.2051 25.4901 92.3149 25.8158 92.3149 26.2745V28.7377C92.3149 28.7881 92.2874 28.8156 92.2371 28.8156H91.7843L91.7889 28.8111ZM90.7553 28.3386C91.0525 28.3386 91.2812 28.2744 91.4459 28.146C91.6105 28.0175 91.6929 27.8386 91.6929 27.6047V27.1919C91.6929 27.1598 91.6791 27.146 91.6471 27.146H90.9016C90.5769 27.146 90.3391 27.1919 90.1927 27.2882C90.0463 27.3845 89.9732 27.5359 89.9732 27.7515C89.9732 27.9441 90.0418 28.0863 90.1744 28.1872C90.307 28.2836 90.4991 28.334 90.7507 28.334L90.7553 28.3386Z" fill="#4C3C8D"/>
<path d="M94.6382 28.8526C94.2769 28.8526 94.0207 28.77 93.8652 28.6003C93.7143 28.4306 93.6366 28.1645 93.6366 27.7976V25.6693C93.6366 25.6371 93.6228 25.6234 93.5908 25.6234H93.2798C93.2295 25.6234 93.2021 25.5959 93.2021 25.5454V25.1739C93.2021 25.1234 93.2295 25.0959 93.2798 25.0959H93.5908C93.6228 25.0959 93.6366 25.0821 93.6366 25.05V23.9996C93.6366 23.9492 93.664 23.9216 93.7143 23.9216H94.2083C94.2586 23.9216 94.286 23.9492 94.286 23.9996V25.05C94.286 25.0821 94.2997 25.0959 94.3318 25.0959H94.9218C94.9721 25.0959 94.9995 25.1234 94.9995 25.1739V25.5454C94.9995 25.5959 94.9721 25.6234 94.9218 25.6234H94.3318C94.2997 25.6234 94.286 25.6371 94.286 25.6693V27.7747C94.286 27.9627 94.3226 28.0866 94.4004 28.1508C94.4735 28.215 94.597 28.2471 94.7617 28.2471H94.9263C94.9766 28.2471 95.0041 28.2746 95.0041 28.3251V28.7746C95.0041 28.8251 94.9766 28.8526 94.9263 28.8526H94.6382Z" fill="#4C3C8D"/>
<path d="M96.0743 24.2518C96.024 24.2518 95.9965 24.2243 95.9965 24.1739V23.6051C95.9965 23.5546 96.024 23.5271 96.0743 23.5271H96.6002C96.6506 23.5271 96.678 23.5546 96.678 23.6051V24.1739C96.678 24.2243 96.6506 24.2518 96.6002 24.2518H96.0743ZM96.088 28.8112C96.0377 28.8112 96.0102 28.7837 96.0102 28.7333V25.1646C96.0102 25.1142 96.0377 25.0867 96.088 25.0867H96.5819C96.6323 25.0867 96.6597 25.1142 96.6597 25.1646V28.7333C96.6597 28.7837 96.6323 28.8112 96.5819 28.8112H96.088Z" fill="#4C3C8D"/>
<path d="M99.2987 28.8984C98.9374 28.8984 98.631 28.8112 98.3748 28.6324C98.1187 28.4581 97.9403 28.2104 97.8351 27.8939C97.794 27.7654 97.762 27.6278 97.7437 27.4856C97.7208 27.3434 97.7117 27.1645 97.7117 26.9444C97.7117 26.7242 97.7208 26.5499 97.7437 26.4077C97.762 26.2655 97.794 26.1325 97.8351 26.004C97.9358 25.683 98.1187 25.4353 98.3748 25.261C98.631 25.0867 98.9374 24.9995 99.2987 24.9995C99.66 24.9995 99.9665 25.0867 100.227 25.261C100.483 25.4353 100.662 25.683 100.767 26.004C100.808 26.1325 100.84 26.2701 100.858 26.4077C100.877 26.5453 100.89 26.7242 100.89 26.9444C100.89 27.1645 100.881 27.3434 100.858 27.4856C100.84 27.6278 100.808 27.7654 100.767 27.8939C100.662 28.2104 100.483 28.4581 100.227 28.6324C99.971 28.8067 99.6646 28.8984 99.2987 28.8984ZM99.2987 28.2929C99.5045 28.2929 99.6829 28.2425 99.8247 28.1416C99.9665 28.0406 100.072 27.8985 100.136 27.7104C100.168 27.6049 100.191 27.4994 100.2 27.3893C100.213 27.2792 100.218 27.1324 100.218 26.949C100.218 26.7655 100.213 26.6233 100.2 26.5132C100.186 26.4031 100.163 26.2976 100.136 26.1967C100.076 26.0086 99.971 25.8664 99.8247 25.7655C99.6783 25.6646 99.5045 25.6142 99.2987 25.6142C99.0929 25.6142 98.9145 25.6646 98.7727 25.7655C98.6264 25.8664 98.5258 26.0086 98.4617 26.1967C98.4297 26.3022 98.4069 26.4077 98.3977 26.5132C98.384 26.6233 98.3794 26.7655 98.3794 26.949C98.3794 27.1324 98.384 27.2746 98.3977 27.3893C98.4114 27.4994 98.4343 27.6095 98.4617 27.7104C98.5258 27.8985 98.6264 28.0406 98.7727 28.1416C98.9191 28.2425 99.0929 28.2929 99.2987 28.2929Z" fill="#4C3C8D"/>
<path d="M104.344 28.8111C104.293 28.8111 104.266 28.7836 104.266 28.7331V26.5589C104.266 26.2608 104.197 26.0268 104.06 25.8617C103.923 25.6966 103.717 25.614 103.438 25.614C103.186 25.614 102.981 25.6966 102.821 25.8571C102.665 26.0223 102.583 26.2424 102.583 26.5222V28.7377C102.583 28.7882 102.555 28.8157 102.505 28.8157H102.011C101.961 28.8157 101.933 28.7882 101.933 28.7377V25.1691C101.933 25.1186 101.961 25.0911 102.011 25.0911H102.505C102.555 25.0911 102.583 25.1186 102.583 25.1691V25.5131H102.592C102.679 25.3663 102.811 25.2471 102.985 25.1507C103.159 25.0544 103.374 25.0085 103.63 25.0085C104.033 25.0085 104.348 25.137 104.577 25.3893C104.805 25.6415 104.92 25.981 104.92 26.4076V28.7377C104.92 28.7882 104.892 28.8157 104.842 28.8157H104.348L104.344 28.8111Z" fill="#4C3C8D"/>
<path d="M107.975 27.6553C107.948 27.5774 107.93 27.4994 107.911 27.4168C107.893 27.3388 107.879 27.2425 107.87 27.1278C107.861 27.0177 107.852 26.8847 107.847 26.7288C107.843 26.5728 107.838 26.3848 107.838 26.1692C107.838 25.9536 107.838 25.7655 107.847 25.6096C107.852 25.4536 107.861 25.3206 107.87 25.2105C107.879 25.1004 107.893 25.0041 107.911 24.9215C107.93 24.8435 107.952 24.761 107.975 24.683C108.108 24.261 108.327 23.9491 108.625 23.7473C108.927 23.5409 109.292 23.4399 109.727 23.4399C110.12 23.4399 110.463 23.5317 110.756 23.7152C111.049 23.8986 111.268 24.1601 111.419 24.5041C111.433 24.55 111.424 24.5867 111.387 24.605L110.921 24.8298C110.87 24.8573 110.834 24.8435 110.811 24.7931C110.706 24.5867 110.569 24.417 110.399 24.2839C110.23 24.1509 110.006 24.0867 109.727 24.0867C109.448 24.0867 109.206 24.1555 109.032 24.2885C108.858 24.4215 108.725 24.6142 108.638 24.8619C108.625 24.9169 108.606 24.9812 108.597 25.0454C108.584 25.1096 108.574 25.1921 108.565 25.2885C108.556 25.3848 108.552 25.5041 108.547 25.6463C108.542 25.7885 108.538 25.9628 108.538 26.1692C108.538 26.3756 108.538 26.5499 108.547 26.6921C108.552 26.8343 108.561 26.9535 108.565 27.0499C108.57 27.1462 108.584 27.2287 108.597 27.293C108.611 27.3618 108.625 27.4214 108.638 27.4719C108.725 27.7195 108.858 27.9122 109.032 28.0452C109.206 28.1782 109.439 28.247 109.727 28.247C110.015 28.247 110.23 28.1828 110.399 28.0498C110.569 27.9168 110.706 27.7471 110.811 27.5407C110.829 27.4902 110.866 27.4764 110.921 27.504L111.387 27.7287C111.424 27.7517 111.433 27.7838 111.419 27.8296C111.268 28.1737 111.049 28.4351 110.756 28.6186C110.463 28.8021 110.12 28.8938 109.727 28.8938C109.292 28.8938 108.927 28.7929 108.625 28.5865C108.327 28.3801 108.108 28.0682 107.975 27.6507V27.6553Z" fill="#4C3C8D"/>
<path d="M113.756 28.8984C113.395 28.8984 113.084 28.8112 112.832 28.6324C112.576 28.4581 112.398 28.2104 112.293 27.8939C112.252 27.7654 112.22 27.6278 112.201 27.4856C112.183 27.3434 112.169 27.1645 112.169 26.9444C112.169 26.7242 112.178 26.5499 112.201 26.4077C112.22 26.2655 112.252 26.1325 112.293 26.004C112.398 25.683 112.576 25.4353 112.832 25.261C113.089 25.0867 113.395 24.9995 113.756 24.9995C114.118 24.9995 114.424 25.0867 114.68 25.261C114.936 25.4353 115.115 25.683 115.22 26.004C115.261 26.1325 115.293 26.2701 115.311 26.4077C115.33 26.5453 115.343 26.7242 115.343 26.9444C115.343 27.1645 115.334 27.3434 115.311 27.4856C115.293 27.6278 115.261 27.7654 115.22 27.8939C115.115 28.2104 114.936 28.4581 114.68 28.6324C114.424 28.8067 114.118 28.8984 113.756 28.8984ZM113.756 28.2929C113.962 28.2929 114.14 28.2425 114.282 28.1416C114.429 28.0406 114.529 27.8985 114.593 27.7104C114.625 27.6049 114.648 27.4994 114.657 27.3893C114.671 27.2792 114.676 27.1324 114.676 26.949C114.676 26.7655 114.671 26.6233 114.657 26.5132C114.644 26.4031 114.621 26.2976 114.593 26.1967C114.534 26.0086 114.429 25.8664 114.282 25.7655C114.136 25.6646 113.962 25.6142 113.756 25.6142C113.55 25.6142 113.372 25.6646 113.23 25.7655C113.084 25.8664 112.983 26.0086 112.919 26.1967C112.887 26.3022 112.864 26.4077 112.855 26.5132C112.842 26.6233 112.837 26.7655 112.837 26.949C112.837 27.1324 112.842 27.2746 112.855 27.3893C112.869 27.4994 112.892 27.6095 112.919 27.7104C112.983 27.8985 113.084 28.0406 113.23 28.1416C113.377 28.2425 113.55 28.2929 113.756 28.2929Z" fill="#4C3C8D"/>
<path d="M121.134 28.8109C121.083 28.8109 121.056 28.7834 121.056 28.7329V26.5587C121.056 26.2606 120.987 26.0267 120.85 25.8615C120.713 25.6964 120.507 25.6138 120.228 25.6138C119.981 25.6138 119.775 25.6964 119.615 25.8569C119.455 26.0221 119.377 26.2422 119.377 26.522V28.7375C119.377 28.788 119.35 28.8155 119.3 28.8155H118.806C118.755 28.8155 118.728 28.788 118.728 28.7375V26.5633C118.728 26.2652 118.659 26.0312 118.522 25.8661C118.385 25.701 118.179 25.6184 117.9 25.6184C117.648 25.6184 117.443 25.701 117.283 25.8615C117.127 26.0267 117.045 26.2468 117.045 26.5266V28.7421C117.045 28.7926 117.017 28.8201 116.967 28.8201H116.473C116.423 28.8201 116.395 28.7926 116.395 28.7421V25.1735C116.395 25.123 116.423 25.0955 116.473 25.0955H116.967C117.017 25.0955 117.045 25.123 117.045 25.1735V25.5175H117.054C117.141 25.3707 117.273 25.2515 117.447 25.1551C117.621 25.0588 117.836 25.0129 118.092 25.0129C118.348 25.0129 118.563 25.0634 118.746 25.1643C118.929 25.2652 119.071 25.4074 119.176 25.5955H119.185C119.313 25.412 119.478 25.2698 119.67 25.1689C119.862 25.0634 120.105 25.0129 120.388 25.0129C120.823 25.0129 121.152 25.1414 121.376 25.3937C121.6 25.6459 121.714 25.9854 121.714 26.412V28.7421C121.714 28.7926 121.687 28.8201 121.637 28.8201H121.143L121.134 28.8109Z" fill="#4C3C8D"/>
<path d="M127.678 28.8109C127.628 28.8109 127.601 28.7834 127.601 28.7329V26.5587C127.601 26.2606 127.532 26.0267 127.395 25.8615C127.257 25.6964 127.052 25.6138 126.773 25.6138C126.526 25.6138 126.32 25.6964 126.16 25.8569C126 26.0221 125.922 26.2422 125.922 26.522V28.7375C125.922 28.788 125.895 28.8155 125.844 28.8155H125.35C125.3 28.8155 125.273 28.788 125.273 28.7375V26.5633C125.273 26.2652 125.204 26.0312 125.067 25.8661C124.93 25.701 124.724 25.6184 124.445 25.6184C124.193 25.6184 123.987 25.701 123.827 25.8615C123.672 26.0267 123.589 26.2468 123.589 26.5266V28.7421C123.589 28.7926 123.562 28.8201 123.512 28.8201H123.018C122.967 28.8201 122.94 28.7926 122.94 28.7421V25.1735C122.94 25.123 122.967 25.0955 123.018 25.0955H123.512C123.562 25.0955 123.589 25.123 123.589 25.1735V25.5175H123.599C123.685 25.3707 123.818 25.2515 123.992 25.1551C124.166 25.0588 124.381 25.0129 124.637 25.0129C124.893 25.0129 125.108 25.0634 125.291 25.1643C125.474 25.2652 125.616 25.4074 125.721 25.5955H125.73C125.858 25.412 126.023 25.2698 126.215 25.1689C126.407 25.0634 126.649 25.0129 126.933 25.0129C127.367 25.0129 127.697 25.1414 127.921 25.3937C128.145 25.6459 128.259 25.9854 128.259 26.412V28.7421C128.259 28.7926 128.232 28.8201 128.181 28.8201H127.687L127.678 28.8109Z" fill="#4C3C8D"/>
<path d="M129.549 24.2518C129.499 24.2518 129.471 24.2243 129.471 24.1739V23.6051C129.471 23.5546 129.499 23.5271 129.549 23.5271H130.075C130.125 23.5271 130.153 23.5546 130.153 23.6051V24.1739C130.153 24.2243 130.125 24.2518 130.075 24.2518H129.549ZM129.563 28.8112C129.512 28.8112 129.485 28.7837 129.485 28.7333V25.1646C129.485 25.1142 129.512 25.0867 129.563 25.0867H130.057C130.107 25.0867 130.134 25.1142 130.134 25.1646V28.7333C130.134 28.7837 130.107 28.8112 130.057 28.8112H129.563Z" fill="#4C3C8D"/>
<path d="M132.687 28.8982C132.504 28.8982 132.339 28.8799 132.183 28.8478C132.028 28.8156 131.886 28.7698 131.763 28.7147C131.635 28.6597 131.52 28.6001 131.42 28.5358C131.319 28.4716 131.228 28.4028 131.154 28.3386C131.118 28.3019 131.118 28.2652 131.154 28.2285L131.47 27.8845C131.507 27.8478 131.543 27.8478 131.58 27.8845C131.717 28.0038 131.886 28.1047 132.087 28.1872C132.284 28.2698 132.499 28.3111 132.728 28.3111C133.002 28.3111 133.203 28.256 133.341 28.1505C133.478 28.045 133.542 27.9074 133.542 27.7423C133.542 27.5955 133.496 27.4808 133.4 27.3983C133.304 27.3111 133.112 27.2561 132.824 27.224L132.43 27.1873C132.065 27.146 131.786 27.0359 131.603 26.8616C131.415 26.6873 131.324 26.4442 131.324 26.1369C131.324 25.7791 131.443 25.4993 131.685 25.3021C131.927 25.1048 132.266 25.0039 132.705 25.0039C132.979 25.0039 133.226 25.0406 133.45 25.1186C133.674 25.1966 133.867 25.2929 134.022 25.4121C134.063 25.4397 134.068 25.4764 134.036 25.5222L133.771 25.8571C133.739 25.8938 133.702 25.8984 133.661 25.8708C133.542 25.7929 133.395 25.7241 133.217 25.6598C133.039 25.5956 132.856 25.5681 132.664 25.5681C132.43 25.5681 132.257 25.614 132.138 25.7103C132.019 25.8066 131.959 25.9305 131.959 26.0772C131.959 26.224 132.01 26.3433 132.115 26.4213C132.22 26.5038 132.412 26.5543 132.691 26.5818L133.08 26.6185C133.46 26.6552 133.739 26.7653 133.921 26.9442C134.104 27.1277 134.196 27.3662 134.196 27.6689C134.196 28.0359 134.068 28.334 133.807 28.5542C133.546 28.7744 133.176 28.889 132.691 28.889L132.687 28.8982Z" fill="#4C3C8D"/>
<path d="M136.483 28.8982C136.3 28.8982 136.135 28.8799 135.98 28.8478C135.824 28.8156 135.682 28.7698 135.559 28.7147C135.431 28.6597 135.316 28.6001 135.216 28.5358C135.115 28.4716 135.024 28.4028 134.95 28.3386C134.914 28.3019 134.914 28.2652 134.95 28.2285L135.266 27.8845C135.303 27.8478 135.339 27.8478 135.376 27.8845C135.513 28.0038 135.682 28.1047 135.883 28.1872C136.08 28.2698 136.295 28.3111 136.524 28.3111C136.798 28.3111 136.999 28.256 137.137 28.1505C137.274 28.045 137.338 27.9074 137.338 27.7423C137.338 27.5955 137.292 27.4808 137.196 27.3983C137.1 27.3111 136.908 27.2561 136.62 27.224L136.227 27.1873C135.861 27.146 135.582 27.0359 135.399 26.8616C135.211 26.6873 135.12 26.4442 135.12 26.1369C135.12 25.7791 135.239 25.4993 135.481 25.3021C135.723 25.1048 136.062 25.0039 136.501 25.0039C136.775 25.0039 137.022 25.0406 137.246 25.1186C137.471 25.1966 137.663 25.2929 137.818 25.4121C137.859 25.4397 137.864 25.4764 137.832 25.5222L137.567 25.8571C137.535 25.8938 137.498 25.8984 137.457 25.8708C137.338 25.7929 137.192 25.7241 137.013 25.6598C136.835 25.5956 136.652 25.5681 136.46 25.5681C136.226 25.5681 136.053 25.614 135.934 25.7103C135.815 25.8066 135.755 25.9305 135.755 26.0772C135.755 26.224 135.806 26.3433 135.911 26.4213C136.016 26.5038 136.208 26.5543 136.487 26.5818L136.876 26.6185C137.256 26.6552 137.535 26.7653 137.718 26.9442C137.9 27.1277 137.992 27.3662 137.992 27.6689C137.992 28.0359 137.864 28.334 137.603 28.5542C137.342 28.7744 136.972 28.889 136.487 28.889L136.483 28.8982Z" fill="#4C3C8D"/>
<path d="M139.062 24.2518C139.012 24.2518 138.985 24.2243 138.985 24.1739V23.6051C138.985 23.5546 139.012 23.5271 139.062 23.5271H139.588C139.639 23.5271 139.666 23.5546 139.666 23.6051V24.1739C139.666 24.2243 139.639 24.2518 139.588 24.2518H139.062ZM139.076 28.8112C139.026 28.8112 138.998 28.7837 138.998 28.7333V25.1646C138.998 25.1142 139.026 25.0867 139.076 25.0867H139.57C139.62 25.0867 139.648 25.1142 139.648 25.1646V28.7333C139.648 28.7837 139.62 28.8112 139.57 28.8112H139.076Z" fill="#4C3C8D"/>
<path d="M142.287 28.8984C141.926 28.8984 141.614 28.8112 141.363 28.6324C141.107 28.4581 140.928 28.2104 140.823 27.8939C140.782 27.7654 140.75 27.6278 140.732 27.4856C140.713 27.3434 140.7 27.1645 140.7 26.9444C140.7 26.7242 140.709 26.5499 140.732 26.4077C140.75 26.2655 140.782 26.1325 140.823 26.004C140.928 25.683 141.107 25.4353 141.363 25.261C141.619 25.0867 141.926 24.9995 142.287 24.9995C142.648 24.9995 142.955 25.0867 143.211 25.261C143.467 25.4353 143.645 25.683 143.75 26.004C143.792 26.1325 143.824 26.2701 143.842 26.4077C143.86 26.5453 143.874 26.7242 143.874 26.9444C143.874 27.1645 143.865 27.3434 143.842 27.4856C143.824 27.6278 143.792 27.7654 143.75 27.8939C143.645 28.2104 143.467 28.4581 143.211 28.6324C142.955 28.8067 142.648 28.8984 142.287 28.8984ZM142.287 28.2929C142.493 28.2929 142.671 28.2425 142.813 28.1416C142.959 28.0406 143.06 27.8985 143.124 27.7104C143.156 27.6049 143.179 27.4994 143.188 27.3893C143.202 27.2792 143.206 27.1324 143.206 26.949C143.206 26.7655 143.202 26.6233 143.188 26.5132C143.174 26.4031 143.151 26.2976 143.124 26.1967C143.064 26.0086 142.959 25.8664 142.813 25.7655C142.666 25.6646 142.493 25.6142 142.287 25.6142C142.081 25.6142 141.903 25.6646 141.761 25.7655C141.615 25.8664 141.514 26.0086 141.45 26.1967C141.418 26.3022 141.395 26.4077 141.386 26.5132C141.372 26.6233 141.368 26.7655 141.368 26.949C141.368 27.1324 141.372 27.2746 141.386 27.3893C141.4 27.4994 141.422 27.6095 141.45 27.7104C141.514 27.8985 141.615 28.0406 141.761 28.1416C141.907 28.2425 142.081 28.2929 142.287 28.2929Z" fill="#4C3C8D"/>
<path d="M147.331 28.8111C147.281 28.8111 147.253 28.7836 147.253 28.7331V26.5589C147.253 26.2608 147.185 26.0268 147.048 25.8617C146.91 25.6966 146.705 25.614 146.426 25.614C146.174 25.614 145.968 25.6966 145.808 25.8571C145.653 26.0223 145.57 26.2424 145.57 26.5222V28.7377C145.57 28.7882 145.543 28.8157 145.493 28.8157H144.999C144.948 28.8157 144.921 28.7882 144.921 28.7377V25.1691C144.921 25.1186 144.948 25.0911 144.999 25.0911H145.493C145.543 25.0911 145.57 25.1186 145.57 25.1691V25.5131H145.579C145.666 25.3663 145.799 25.2471 145.973 25.1507C146.147 25.0544 146.362 25.0085 146.618 25.0085C147.02 25.0085 147.336 25.137 147.564 25.3893C147.793 25.6415 147.907 25.981 147.907 26.4076V28.7377C147.907 28.7882 147.88 28.8157 147.83 28.8157H147.336L147.331 28.8111Z" fill="#4C3C8D"/>
<path d="M191.554 5.29395L185.855 9.17908L185.906 15.4127L191.609 11.523L191.554 5.29395Z" fill="#4C3C8D"/>
<path d="M178.277 20.601L183.82 16.8214V10.551L178.277 14.3352V20.601Z" fill="#3FA0D9"/>
<path d="M183.82 0.702637L178.277 4.46851V11.0003L178.281 11.8443L183.82 8.06925V0.702637Z" fill="#3FA0D9"/>
<path d="M199 24.7837L192.583 22.2563L187.483 25.8204L193.9 28.3432L199 24.7837Z" fill="#4C3C8D"/>
<path d="M178.903 22.4308L185.142 24.8848L190.301 21.3483L184.062 18.8943L178.903 22.4308Z" fill="#5C79B9"/>
<path d="M186.802 17.0138L186.111 17.4954L192.345 19.9449L198.41 15.7845L192.181 13.3259L186.802 17.0138Z" fill="#4C3C8D"/>
<path d="M162.927 5.29395L168.626 9.17908L168.576 15.4127L162.872 11.523L162.927 5.29395Z" fill="#44AC52"/>
<path d="M176.209 20.601L170.666 16.8214V10.551L176.209 14.3352V20.601Z" fill="#51B4C2"/>
<path d="M170.666 0.702637V8.06925L176.2 11.8443L176.209 11.0003V4.46851L170.666 0.702637Z" fill="#51B4C2"/>
<path d="M155.486 24.7837L161.903 22.2563L166.998 25.8204L160.581 28.3432L155.486 24.7837Z" fill="#44AC52"/>
<path d="M175.578 22.4308L169.34 24.8848L164.181 21.3483L170.419 18.8943L175.578 22.4308Z" fill="#4CB27B"/>
<path d="M167.679 17.0138L168.37 17.4954L162.136 19.9449L156.076 15.7845L162.305 13.3259L167.679 17.0138Z" fill="#44AC52"/>
</svg>
