<svg width="122" height="207" viewBox="0 0 122 207" fill="none" xmlns="http://www.w3.org/2000/svg">
<g clip-path="url(#clip0_2435_5196)">
<path d="M41.7475 89.1923L41.4475 52.2L75.534 29.0698L75.8612 66.0348L41.7475 89.1923Z" stroke="url(#paint0_linear_2435_5196)"/>
<path d="M27.9161 98.496L-5.20703 120.976V83.793L27.9161 61.2861V98.496Z" stroke="url(#paint1_linear_2435_5196)"/>
<path d="M-5.20703 63.0938V23.3395L27.9161 0.941682V44.8712L-5.18403 67.3264L-5.20703 63.0951V63.0938Z" stroke="url(#paint2_linear_2435_5196)"/>
<path d="M52.0192 153.777L82.4232 132.626L120.803 147.673L90.3992 168.796L52.0192 153.777Z" stroke="url(#paint3_linear_2435_5196)"/>
<path d="M67.2454 126.62L36.4873 147.607L-0.787854 133.012L29.9702 112.026L67.2454 126.62Z" stroke="url(#paint4_linear_2435_5196)"/>
<path d="M117.168 92.5288L80.8339 117.338L43.579 102.768L47.0565 100.354L47.0598 100.352L79.9476 77.9068L117.168 92.5288Z" stroke="url(#paint5_linear_2435_5196)"/>
</g>
<defs>
<linearGradient id="paint0_linear_2435_5196" x1="58.3981" y1="0.73206" x2="7.70527" y2="29.6914" gradientUnits="userSpaceOnUse">
<stop stop-color="#F4FAFE"/>
<stop offset="0.270312" stop-color="#E4F4FF"/>
<stop offset="0.647192" stop-color="#F1F1FD"/>
<stop offset="1" stop-color="#EFF0F3"/>
</linearGradient>
<linearGradient id="paint1_linear_2435_5196" x1="11.1075" y1="33.1283" x2="-38.4516" y2="60.5914" gradientUnits="userSpaceOnUse">
<stop stop-color="#F4FAFE"/>
<stop offset="0.270312" stop-color="#E4F4FF"/>
<stop offset="0.647192" stop-color="#F1F1FD"/>
<stop offset="1" stop-color="#EFF0F3"/>
</linearGradient>
<linearGradient id="paint2_linear_2435_5196" x1="11.1075" y1="-30.1696" x2="-40.7208" y2="-4.26307" gradientUnits="userSpaceOnUse">
<stop stop-color="#F4FAFE"/>
<stop offset="0.270312" stop-color="#E4F4FF"/>
<stop offset="0.647192" stop-color="#F1F1FD"/>
<stop offset="1" stop-color="#EFF0F3"/>
</linearGradient>
<linearGradient id="paint3_linear_2435_5196" x1="85.898" y1="115.581" x2="56.7259" y2="171.034" gradientUnits="userSpaceOnUse">
<stop stop-color="#F4FAFE"/>
<stop offset="0.270312" stop-color="#E4F4FF"/>
<stop offset="0.647192" stop-color="#F1F1FD"/>
<stop offset="1" stop-color="#EFF0F3"/>
</linearGradient>
<linearGradient id="paint4_linear_2435_5196" x1="32.7209" y1="95.2426" x2="4.10119" y2="149.949" gradientUnits="userSpaceOnUse">
<stop stop-color="#F4FAFE"/>
<stop offset="0.270312" stop-color="#E4F4FF"/>
<stop offset="0.647192" stop-color="#F1F1FD"/>
<stop offset="1" stop-color="#EFF0F3"/>
</linearGradient>
<linearGradient id="paint5_linear_2435_5196" x1="79.829" y1="59.4218" x2="47.7834" y2="119.244" gradientUnits="userSpaceOnUse">
<stop stop-color="#F4FAFE"/>
<stop offset="0.270312" stop-color="#E4F4FF"/>
<stop offset="0.647192" stop-color="#F1F1FD"/>
<stop offset="1" stop-color="#EFF0F3"/>
</linearGradient>
<clipPath id="clip0_2435_5196">
<rect width="122" height="207" fill="white"/>
</clipPath>
</defs>
</svg>
