<svg width="16" height="16" viewBox="0 0 16 16" fill="none" xmlns="http://www.w3.org/2000/svg">
<g clip-path="url(#clip0_22_669)">
<path d="M3 11.667H1.33333C0.979711 11.667 0.640573 11.8075 0.390524 12.0575C0.140476 12.3076 0 12.6467 0 13.0003L0 14.667C0 15.0206 0.140476 15.3597 0.390524 15.6098C0.640573 15.8598 0.979711 16.0003 1.33333 16.0003H3C3.35362 16.0003 3.69276 15.8598 3.94281 15.6098C4.19286 15.3597 4.33333 15.0206 4.33333 14.667V13.0003C4.33333 12.6467 4.19286 12.3076 3.94281 12.0575C3.69276 11.8075 3.35362 11.667 3 11.667ZM3 14.667H1.33333V13.0003H3V14.667Z" fill="#4C3D8F"/>
<path d="M14.6667 11.667H13C12.6464 11.667 12.3073 11.8075 12.0572 12.0575C11.8072 12.3076 11.6667 12.6467 11.6667 13.0003V14.667C11.6667 15.0206 11.8072 15.3597 12.0572 15.6098C12.3073 15.8598 12.6464 16.0003 13 16.0003H14.6667C15.0203 16.0003 15.3595 15.8598 15.6095 15.6098C15.8596 15.3597 16 15.0206 16 14.667V13.0003C16 12.6467 15.8596 12.3076 15.6095 12.0575C15.3595 11.8075 15.0203 11.667 14.6667 11.667ZM14.6667 14.667H13V13.0003H14.6667V14.667Z" fill="#4C3D8F"/>
<path d="M3 5.83301H1.33333C0.979711 5.83301 0.640573 5.97348 0.390524 6.22353C0.140476 6.47358 0 6.81272 0 7.16634L0 8.833C0 9.18662 0.140476 9.52576 0.390524 9.77581C0.640573 10.0259 0.979711 10.1663 1.33333 10.1663H3C3.35362 10.1663 3.69276 10.0259 3.94281 9.77581C4.19286 9.52576 4.33333 9.18662 4.33333 8.833V7.16634C4.33333 6.81272 4.19286 6.47358 3.94281 6.22353C3.69276 5.97348 3.35362 5.83301 3 5.83301ZM3 8.833H1.33333V7.16634H3V8.833Z" fill="#4C3D8F"/>
<path d="M14.6667 5.83301H13C12.6464 5.83301 12.3073 5.97348 12.0572 6.22353C11.8072 6.47358 11.6667 6.81272 11.6667 7.16634V8.833C11.6667 9.18662 11.8072 9.52576 12.0572 9.77581C12.3073 10.0259 12.6464 10.1663 13 10.1663H14.6667C15.0203 10.1663 15.3595 10.0259 15.6095 9.77581C15.8596 9.52576 16 9.18662 16 8.833V7.16634C16 6.81272 15.8596 6.47358 15.6095 6.22353C15.3595 5.97348 15.0203 5.83301 14.6667 5.83301ZM14.6667 8.833H13V7.16634H14.6667V8.833Z" fill="#4C3D8F"/>
<path d="M3 0H1.33333C0.979711 0 0.640573 0.140476 0.390524 0.390524C0.140476 0.640573 0 0.979711 0 1.33333L0 3C0 3.35362 0.140476 3.69276 0.390524 3.94281C0.640573 4.19286 0.979711 4.33333 1.33333 4.33333H3C3.35362 4.33333 3.69276 4.19286 3.94281 3.94281C4.19286 3.69276 4.33333 3.35362 4.33333 3V1.33333C4.33333 0.979711 4.19286 0.640573 3.94281 0.390524C3.69276 0.140476 3.35362 0 3 0V0ZM3 3H1.33333V1.33333H3V3Z" fill="#4C3D8F"/>
<path d="M8.83328 11.667H7.16661C6.81299 11.667 6.47385 11.8075 6.22381 12.0575C5.97376 12.3076 5.83328 12.6467 5.83328 13.0003V14.667C5.83328 15.0206 5.97376 15.3597 6.22381 15.6098C6.47385 15.8598 6.81299 16.0003 7.16661 16.0003H8.83328C9.1869 16.0003 9.52603 15.8598 9.77608 15.6098C10.0261 15.3597 10.1666 15.0206 10.1666 14.667V13.0003C10.1666 12.6467 10.0261 12.3076 9.77608 12.0575C9.52603 11.8075 9.1869 11.667 8.83328 11.667ZM8.83328 14.667H7.16661V13.0003H8.83328V14.667Z" fill="#4C3D8F"/>
<path d="M8.83328 5.83301H7.16661C6.81299 5.83301 6.47385 5.97348 6.22381 6.22353C5.97376 6.47358 5.83328 6.81272 5.83328 7.16634V8.833C5.83328 9.18662 5.97376 9.52576 6.22381 9.77581C6.47385 10.0259 6.81299 10.1663 7.16661 10.1663H8.83328C9.1869 10.1663 9.52603 10.0259 9.77608 9.77581C10.0261 9.52576 10.1666 9.18662 10.1666 8.833V7.16634C10.1666 6.81272 10.0261 6.47358 9.77608 6.22353C9.52603 5.97348 9.1869 5.83301 8.83328 5.83301ZM8.83328 8.833H7.16661V7.16634H8.83328V8.833Z" fill="#4C3D8F"/>
<path d="M8.83328 0H7.16661C6.81299 0 6.47385 0.140476 6.22381 0.390524C5.97376 0.640573 5.83328 0.979711 5.83328 1.33333V3C5.83328 3.35362 5.97376 3.69276 6.22381 3.94281C6.47385 4.19286 6.81299 4.33333 7.16661 4.33333H8.83328C9.1869 4.33333 9.52603 4.19286 9.77608 3.94281C10.0261 3.69276 10.1666 3.35362 10.1666 3V1.33333C10.1666 0.979711 10.0261 0.640573 9.77608 0.390524C9.52603 0.140476 9.1869 0 8.83328 0V0ZM8.83328 3H7.16661V1.33333H8.83328V3Z" fill="#4C3D8F"/>
<path d="M14.6667 0H13C12.6464 0 12.3073 0.140476 12.0572 0.390524C11.8072 0.640573 11.6667 0.979711 11.6667 1.33333V3C11.6667 3.35362 11.8072 3.69276 12.0572 3.94281C12.3073 4.19286 12.6464 4.33333 13 4.33333H14.6667C15.0203 4.33333 15.3595 4.19286 15.6095 3.94281C15.8596 3.69276 16 3.35362 16 3V1.33333C16 0.979711 15.8596 0.640573 15.6095 0.390524C15.3595 0.140476 15.0203 0 14.6667 0V0ZM14.6667 3H13V1.33333H14.6667V3Z" fill="#4C3D8F"/>
</g>
<defs>
<clipPath id="clip0_22_669">
<rect width="16" height="16" fill="white"/>
</clipPath>
</defs>
</svg>
