<svg width="72" height="72" viewBox="0 0 72 72" fill="none" xmlns="http://www.w3.org/2000/svg">
<g clip-path="url(#clip0_22_622)">
<path d="M58.33 69.8301C43.14 71.4501 27.9 71.4501 12.7 69.8301C6.64003 69.1801 1.86003 64.4001 1.21003 58.3401C-0.40997 43.1401 -0.40997 27.9001 1.22003 12.7101C1.86003 6.65006 6.65003 1.86006 12.71 1.22006C27.9 -0.409941 43.14 -0.409941 58.33 1.22006C64.39 1.87006 69.17 6.65006 69.82 12.7101C71.44 27.9001 71.44 43.1401 69.82 58.3401C69.17 64.4001 64.39 69.1801 58.33 69.8301Z" fill="url(#paint0_linear_22_622)"/>
<path d="M65.96 15.28C65.39 9.9 61.14 5.66 55.76 5.08C42.28 3.64 28.75 3.64 15.27 5.08C9.89002 5.65 5.65002 9.9 5.07002 15.28C3.63002 28.76 3.63002 42.29 5.07002 55.77C5.64002 61.15 9.89002 65.39 15.27 65.97C28.75 67.41 42.28 67.41 55.76 65.97C61.14 65.4 65.38 61.15 65.96 55.77C67.4 42.29 67.4 28.76 65.96 15.28Z" fill="url(#paint1_linear_22_622)"/>
<path d="M1.06003 56.8601C1.11003 57.3501 1.16003 57.8401 1.21003 58.3301C1.86003 64.3901 6.64003 69.1701 12.7 69.8201C27.89 71.4401 43.13 71.4401 58.33 69.8201C64.39 69.1701 69.17 64.3901 69.82 58.3301C69.87 57.8401 69.92 57.3501 69.97 56.8601H1.06003Z" fill="url(#paint2_linear_22_622)"/>
<path fill-rule="evenodd" clip-rule="evenodd" d="M60.22 20.47C56.1 16.35 41.59 13.79 35.75 13.79C23.72 13.79 14.07 23.44 14.06 35.47C14.06 39.32 15.34 42.93 17.25 46.24L14.27 48.63C13.16 49.52 12.84 51.08 13.53 52.33L23.31 70.29C33.78 70.71 47.88 70.95 58.33 69.84C64.39 69.19 69.17 64.41 69.82 58.35C70.48 52.19 70.87 46.03 70.99 39.86L60.21 20.48L60.22 20.47Z" fill="url(#paint3_linear_22_622)"/>
<path fill-rule="evenodd" clip-rule="evenodd" d="M30.46 10.01H43.71C54.45 10.01 63.17 18.64 63.17 29.27V42.38C63.17 53.01 54.45 61.64 43.71 61.64H30.46C19.72 61.64 11 53.01 11 42.38V29.27C11 18.64 19.72 10.01 30.46 10.01Z" fill="#EDDB03" stroke="white" stroke-width="3.05" stroke-miterlimit="10"/>
<path fill-rule="evenodd" clip-rule="evenodd" d="M37.11 20.45C35.1 20.45 32.98 21 31.31 22.2C30.08 23.19 29.08 24.39 28.52 25.81C27.96 27.23 27.96 28.77 28.07 30.19C28.07 31.18 28.18 32.16 28.18 33.04V33.15C27.73 33.26 27.18 33.15 26.73 33.15C26.4 33.04 26.06 32.93 25.61 32.82C25.22 32.72 24.81 32.8 24.49 33.04C24.16 33.21 23.95 33.55 23.93 33.92V34.03C23.93 34.25 24.15 34.47 24.26 34.58C24.37 34.69 24.59 34.8 24.59 34.91C25.37 35.3499 26.15 35.57 26.82 35.9C27.27 36.12 27.71 36.45 27.82 36.88C27.93 37.43 27.71 37.97 27.37 38.63C26.56 40.18 25.37 41.49 23.91 42.46C23.13 42.98 22.26 43.35 21.34 43.55C21.12 43.66 20.67 43.66 20.45 44.1V44.21C20.37 44.43 20.41 44.68 20.56 44.87C20.67 44.98 20.78 45.09 20.89 45.2C21.62 45.6 22.41 45.86 23.23 45.97C23.79 46.08 24.23 46.19 24.68 46.3C24.75 46.44 24.78 46.59 24.79 46.74C24.9 47.18 25.01 47.6199 25.12 48.16C25.12 48.27 25.34 48.38 25.45 48.49C25.63 48.56 25.83 48.56 26.01 48.49C27.24 48.27 28.58 48.05 29.69 48.38C30.92 48.71 31.92 49.47 33.15 50.24C33.93 50.68 34.82 51.23 35.94 51.23C36.72 51.25 37.51 51.21 38.28 51.12C38.95 51.02 39.59 50.8 40.18 50.46C41.41 49.8 42.52 48.93 43.75 48.38C44.2 48.27 44.64 48.27 45.2 48.16C46.21 48.1399 47.21 48.18 48.21 48.27H48.32C48.43 48.27 48.54 48.16 48.65 48.05C48.76 47.94 48.76 47.94 48.76 47.83C48.76 47.72 48.87 47.72 48.76 47.72V47.61C48.98 47.06 49.09 46.52 49.32 46.19C49.51 46.03 49.75 45.96 49.99 45.97H50.1C50.99 45.86 51.77 45.53 52.55 45.31C52.77 45.2 53.22 45.09 53.55 44.65C53.76 44.32 53.67 43.8899 53.34 43.68C53.34 43.68 53.33 43.68 53.32 43.67C52.87 43.45 52.54 43.34 52.2 43.34C50.41 42.79 48.96 41.59 47.85 40.28C47.22 39.53 46.73 38.68 46.4 37.76C46.29 37.32 46.29 36.88 46.51 36.67C46.84 36.23 47.4 35.9 47.96 35.68C48.63 35.46 49.41 35.13 49.97 34.7C50.08 34.59 50.19 34.48 50.3 34.37C50.41 34.17 50.41 33.92 50.3 33.71C50.14 33.44 49.91 33.21 49.63 33.05C49.3 32.83 48.85 32.83 48.4 32.94C47.95 33.05 47.62 33.16 47.28 33.27C46.88 33.38 46.45 33.38 46.05 33.27V30.75C46.05 29.55 46.16 28.34 45.94 27.14C45.61 25.06 44.15 23.31 42.48 22.11C41.25 21.23 39.8 20.8 38.24 20.69C38.02 20.47 37.46 20.47 37.01 20.47L37.11 20.45Z" fill="white"/>
<path opacity="0.4" d="M43.71 10.01H30.46C19.72 10.01 11 18.64 11 29.27V35.58C13.15 40.21 19.41 46.83 37.16 37.97C55.71 28.71 57.83 31.85 63.18 34.61V29.26C63.18 18.63 54.46 10 43.72 10L43.71 10.01Z" fill="url(#paint4_linear_22_622)"/>
</g>
<defs>
<linearGradient id="paint0_linear_22_622" x1="16.16" y1="-1.77994" x2="67.35" y2="96.8401" gradientUnits="userSpaceOnUse">
<stop stop-color="#FFFCF8"/>
<stop offset="0.19" stop-color="#FAF8F6"/>
<stop offset="0.4" stop-color="#ECEEF2"/>
<stop offset="0.64" stop-color="#D5DCEA"/>
<stop offset="0.88" stop-color="#B5C4DF"/>
<stop offset="1" stop-color="#A1B5D8"/>
</linearGradient>
<linearGradient id="paint1_linear_22_622" x1="27.25" y1="30.86" x2="-93.11" y2="-36.83" gradientUnits="userSpaceOnUse">
<stop stop-color="#A1B5D8" stop-opacity="0"/>
<stop offset="0.31" stop-color="#90A2BD" stop-opacity="0.31"/>
<stop offset="0.76" stop-color="#7C8B9C" stop-opacity="0.76"/>
<stop offset="1" stop-color="#748290"/>
</linearGradient>
<linearGradient id="paint2_linear_22_622" x1="35.52" y1="62.7101" x2="35.52" y2="73.7801" gradientUnits="userSpaceOnUse">
<stop stop-color="#A1B5D8" stop-opacity="0"/>
<stop offset="0.31" stop-color="#90A2BD" stop-opacity="0.31"/>
<stop offset="0.76" stop-color="#7C8B9C" stop-opacity="0.76"/>
<stop offset="1" stop-color="#748290"/>
</linearGradient>
<linearGradient id="paint3_linear_22_622" x1="48.15" y1="55.86" x2="21.32" y2="11.77" gradientUnits="userSpaceOnUse">
<stop stop-color="#A1B5D8" stop-opacity="0"/>
<stop offset="0.31" stop-color="#90A2BD" stop-opacity="0.31"/>
<stop offset="0.76" stop-color="#7C8B9C" stop-opacity="0.76"/>
<stop offset="1" stop-color="#748290"/>
</linearGradient>
<linearGradient id="paint4_linear_22_622" x1="37.08" y1="42.33" x2="37.08" y2="10.01" gradientUnits="userSpaceOnUse">
<stop stop-color="white"/>
<stop offset="0.09" stop-color="white" stop-opacity="0.97"/>
<stop offset="0.22" stop-color="white" stop-opacity="0.88"/>
<stop offset="0.38" stop-color="white" stop-opacity="0.74"/>
<stop offset="0.57" stop-color="white" stop-opacity="0.54"/>
<stop offset="0.79" stop-color="white" stop-opacity="0.29"/>
<stop offset="1" stop-color="white" stop-opacity="0"/>
</linearGradient>
<clipPath id="clip0_22_622">
<rect width="71.04" height="71.04" fill="white"/>
</clipPath>
</defs>
</svg>
