<svg width="14" height="14" viewBox="0 0 14 14" fill="none" xmlns="http://www.w3.org/2000/svg">
<g clip-path="url(#clip0_1945_49030)">
<path d="M13.0189 2.58475L4.95779 10.6453C4.9036 10.6997 4.83919 10.7428 4.76827 10.7723C4.69734 10.8018 4.6213 10.8169 4.5445 10.8169C4.4677 10.8169 4.39166 10.8018 4.32074 10.7723C4.24982 10.7428 4.18541 10.6997 4.13121 10.6453L1.01388 7.525C0.95968 7.47059 0.895272 7.42742 0.824349 7.39796C0.753426 7.3685 0.677383 7.35334 0.600585 7.35334C0.523787 7.35334 0.447745 7.3685 0.376822 7.39796C0.305899 7.42742 0.241491 7.47059 0.187294 7.525C0.132882 7.5792 0.0897083 7.64361 0.060249 7.71453C0.0307897 7.78546 0.015625 7.8615 0.015625 7.9383C0.015625 8.01509 0.0307897 8.09114 0.060249 8.16206C0.0897083 8.23298 0.132882 8.29739 0.187294 8.35159L3.30579 11.4695C3.63476 11.7979 4.08058 11.9823 4.54538 11.9823C5.01018 11.9823 5.45599 11.7979 5.78496 11.4695L13.8455 3.41075C13.8998 3.35657 13.9429 3.2922 13.9723 3.22133C14.0017 3.15046 14.0168 3.07448 14.0168 2.99775C14.0168 2.92103 14.0017 2.84505 13.9723 2.77418C13.9429 2.70331 13.8998 2.63894 13.8455 2.58475C13.7913 2.53034 13.7269 2.48717 13.6559 2.45771C13.585 2.42825 13.509 2.41309 13.4322 2.41309C13.3554 2.41309 13.2793 2.42825 13.2084 2.45771C13.1375 2.48717 13.0731 2.53034 13.0189 2.58475Z" fill="#4C3C8D"/>
</g>
<defs>
<clipPath id="clip0_1945_49030">
<rect width="14" height="14" fill="white"/>
</clipPath>
</defs>
</svg>
