<svg width="73" height="95" viewBox="0 0 73 95" fill="none" xmlns="http://www.w3.org/2000/svg">
<g clip-path="url(#clip0_22_519)">
<path d="M63.0989 30.317L50.9585 84.627C49.9277 89.2387 45.4368 92.1338 40.8942 91.1184L5.42704 83.1902C2.39755 82.513 0.543385 79.5431 1.23064 76.4686C1.9179 73.3941 4.86016 71.4964 7.88964 72.1736L21.2893 12.2299L56.8817 20.1861C61.2991 21.1736 64.101 25.8341 63.0989 30.317Z" fill="url(#paint0_linear_22_519)"/>
<path d="M63.5408 15.8911L27.9483 7.93481L12.0857 78.8967L47.6781 86.853C52.2223 87.8688 56.712 84.9716 57.7425 80.3616L69.8831 26.05C70.914 21.4383 67.9581 16.8785 63.5408 15.8911Z" fill="url(#paint1_linear_22_519)"/>
<path d="M55.9501 72.9656C55.3488 75.6554 52.6876 77.4807 49.9119 76.8602L22.5228 70.7377C19.8724 70.1453 18.088 67.4597 18.7176 64.6428L29.1114 18.1461C29.7126 15.4564 32.3739 13.6311 35.1496 14.2516L41.8399 15.7471L41.7539 16.1318C41.4962 17.2843 42.1505 18.5072 43.413 18.7894L53.1312 20.9618C54.2668 21.2156 55.4776 20.5449 55.764 19.2636L55.85 18.8789L62.5403 20.3744C65.1907 20.9669 66.9751 23.6525 66.3455 26.4693L55.9517 72.966L55.9501 72.9656Z" fill="url(#paint2_linear_22_519)"/>
<path d="M34.5502 80.959C35.7354 81.224 36.9142 80.4637 37.183 79.2608C37.4519 78.058 36.7091 76.8682 35.5238 76.6033C34.3386 76.3383 33.1599 77.0986 32.891 78.3014C32.6221 79.5042 33.365 80.6941 34.5502 80.959Z" fill="white"/>
<path d="M27.9483 7.93486L12.0857 78.8968C12.7729 75.8223 10.9188 72.8524 7.88928 72.1752C4.85979 71.498 1.91753 73.3957 1.23027 76.4702L17.0929 5.50827C17.7802 2.43381 20.7224 0.53609 23.7519 1.21329C26.7814 1.8905 28.6356 4.8604 27.9483 7.93486Z" fill="url(#paint3_linear_22_519)"/>
<path d="M32.044 21.6257L62.0834 28.3407L59.7068 38.9725L29.6674 32.2576L32.044 21.6257Z" fill="white"/>
<path d="M29.6674 32.2576L42.6672 35.1636L37.2028 26.411C36.6179 25.4741 35.4806 25.2199 34.6777 25.8466L30.4958 28.5438L29.6654 32.2589L29.6674 32.2576Z" fill="url(#paint4_linear_22_519)"/>
<path d="M50.9975 37.0257L45.5331 28.2732C44.9482 27.3363 43.8109 27.082 43.008 27.7087L34.3369 33.3015L50.9975 37.0257Z" fill="url(#paint5_linear_22_519)"/>
<path d="M54.7589 33.8324C55.8049 34.0662 56.8451 33.3953 57.0824 32.3338C57.3197 31.2724 56.6641 30.2223 55.6182 29.9885C54.5722 29.7547 53.532 30.4257 53.2947 31.4871C53.0574 32.5486 53.713 33.5986 54.7589 33.8324Z" fill="url(#paint6_linear_22_519)"/>
<path d="M29.0373 35.0762L59.0768 41.7911L58.6759 43.5843L28.6365 36.8693L29.0373 35.0762Z" fill="white"/>
<path d="M27.978 39.8149L58.0175 46.5299L57.6166 48.323L27.5772 41.6081L27.978 39.8149Z" fill="white"/>
<path d="M26.8899 44.6826L56.9294 51.3976L56.5285 53.1907L26.4891 46.4758L26.8899 44.6826Z" fill="white"/>
<path d="M25.8306 49.4214L55.8701 56.1363L55.4692 57.9295L25.4298 51.2145L25.8306 49.4214Z" fill="white"/>
<path d="M24.7709 54.1619L54.8104 60.8768L54.4096 62.67L24.3701 55.955L24.7709 54.1619Z" fill="white"/>
<path d="M23.6829 59.0295L53.7223 65.7445L53.3215 67.5376L23.282 60.8227L23.6829 59.0295Z" fill="white"/>
<path d="M22.6235 63.7683L52.663 70.4833L52.2622 72.2764L22.2227 65.5615L22.6235 63.7683Z" fill="white"/>
</g>
<defs>
<linearGradient id="paint0_linear_22_519" x1="24.6486" y1="87.2289" x2="26.9801" y2="76.7992" gradientUnits="userSpaceOnUse">
<stop stop-color="#1A4473"/>
<stop offset="1" stop-color="#182C54"/>
</linearGradient>
<linearGradient id="paint1_linear_22_519" x1="3.77151" y1="39.6596" x2="63.8314" y2="53.0852" gradientUnits="userSpaceOnUse">
<stop stop-color="#1FA7DF"/>
<stop offset="1" stop-color="#1F6CA7"/>
</linearGradient>
<linearGradient id="paint2_linear_22_519" x1="23.9822" y1="41.2851" x2="61.2277" y2="49.6108" gradientUnits="userSpaceOnUse">
<stop stop-color="#DEF1F7"/>
<stop offset="1" stop-color="#B6DEF7"/>
</linearGradient>
<linearGradient id="paint3_linear_22_519" x1="9.76581" y1="38.1071" x2="20.6869" y2="40.5484" gradientUnits="userSpaceOnUse">
<stop stop-color="#A5D1F3"/>
<stop offset="1" stop-color="#82B6E9"/>
</linearGradient>
<linearGradient id="paint4_linear_22_519" x1="39.9" y1="30.1437" x2="26.4907" y2="38.5153" gradientUnits="userSpaceOnUse">
<stop stop-color="#1A4473"/>
<stop offset="1" stop-color="#182C54"/>
</linearGradient>
<linearGradient id="paint5_linear_22_519" x1="48.2274" y1="32.0147" x2="34.8182" y2="40.3863" gradientUnits="userSpaceOnUse">
<stop stop-color="#EF662B"/>
<stop offset="1" stop-color="#D53727"/>
</linearGradient>
<linearGradient id="paint6_linear_22_519" x1="53.3228" y1="31.3637" x2="57.1105" y2="32.2104" gradientUnits="userSpaceOnUse">
<stop stop-color="#EF662B"/>
<stop offset="1" stop-color="#D53727"/>
</linearGradient>
<clipPath id="clip0_22_519">
<rect width="56" height="84" fill="white" transform="translate(18.3242) rotate(12.6006)"/>
</clipPath>
</defs>
</svg>
