<svg width="14" height="14" viewBox="0 0 14 14" fill="none" xmlns="http://www.w3.org/2000/svg">
<g clip-path="url(#clip0_1778_9538)">
<path d="M13.4874 5.29048L9.0628 0.865311C8.51519 0.319304 7.77343 0.0126953 7.00013 0.0126953C6.22683 0.0126953 5.48507 0.319304 4.93746 0.865311L0.512879 5.29048C0.349794 5.45252 0.220495 5.64532 0.132477 5.8577C0.0444596 6.07009 -0.000525663 6.29783 0.000129117 6.52773V12.2543C0.000129117 12.7184 0.184504 13.1636 0.512692 13.4917C0.840881 13.8199 1.286 14.0043 1.75013 14.0043H12.2501C12.7143 14.0043 13.1594 13.8199 13.4876 13.4917C13.8158 13.1636 14.0001 12.7184 14.0001 12.2543V6.52773C14.0008 6.29783 13.9558 6.07009 13.8678 5.8577C13.7798 5.64532 13.6505 5.45252 13.4874 5.29048ZM8.75013 12.8376H5.25013V10.5428C5.25013 10.0787 5.4345 9.63356 5.76269 9.30537C6.09088 8.97718 6.536 8.79281 7.00013 8.79281C7.46426 8.79281 7.90938 8.97718 8.23757 9.30537C8.56576 9.63356 8.75013 10.0787 8.75013 10.5428V12.8376ZM12.8335 12.2543C12.8335 12.409 12.772 12.5574 12.6626 12.6668C12.5532 12.7762 12.4048 12.8376 12.2501 12.8376H9.9168V10.5428C9.9168 9.76926 9.60951 9.0274 9.06253 8.48042C8.51554 7.93343 7.77368 7.62614 7.00013 7.62614C6.22658 7.62614 5.48472 7.93343 4.93774 8.48042C4.39075 9.0274 4.08346 9.76926 4.08346 10.5428V12.8376H1.75013C1.59542 12.8376 1.44705 12.7762 1.33765 12.6668C1.22825 12.5574 1.1668 12.409 1.1668 12.2543V6.52773C1.16734 6.37313 1.22874 6.22497 1.33771 6.11531L5.7623 1.69189C6.09112 1.3646 6.53618 1.18086 7.00013 1.18086C7.46408 1.18086 7.90914 1.3646 8.23796 1.69189L12.6625 6.11706C12.7711 6.22629 12.8325 6.37374 12.8335 6.52773V12.2543Z" fill="#453F92"/>
</g>
<defs>
<clipPath id="clip0_1778_9538">
<rect width="14" height="14" fill="white"/>
</clipPath>
</defs>
</svg>
