<svg width="20" height="20" viewBox="0 0 20 20" fill="none" xmlns="http://www.w3.org/2000/svg">
<path d="M19.2676 7.54436L12.9465 1.21866C11.3176 -0.406545 8.68202 -0.406545 7.05312 1.21866L0.732414 7.54436C0.262101 8.01223 -0.00196144 8.64894 -8.31543e-06 9.31262V17.4984C-8.31543e-06 18.8801 1.11913 20 2.49999 20H17.5C18.8809 20 20 18.8801 20 17.4984V9.31262C20.0019 8.64894 19.7383 8.01183 19.2676 7.54397V7.54436ZM12.5 18.3325H7.49999V15.052C7.49999 13.6703 8.61913 12.5505 9.99999 12.5505C11.3809 12.5505 12.5 13.6703 12.5 15.052V18.3325ZM18.3332 17.4988C18.3332 17.9593 17.9601 18.3325 17.5 18.3325H14.1668V15.052C14.1668 12.7495 12.3012 10.8827 9.99999 10.8827C7.69882 10.8827 5.83319 12.7495 5.83319 15.052V18.3325H2.49999C2.03984 18.3325 1.66679 17.9593 1.66679 17.4988V9.31262C1.66757 9.09178 1.75546 8.87994 1.91093 8.7232L8.23163 2.40023C9.20976 1.42621 10.7902 1.42621 11.7684 2.40023L18.0891 8.72555C18.2441 8.8815 18.3316 9.09257 18.3332 9.31262V17.4984V17.4988Z" fill="#4C3D8F"/>
</svg>
