<svg width="46" height="44" viewBox="0 0 46 44" fill="none" xmlns="http://www.w3.org/2000/svg">
<rect x="0.0869751" width="45.913" height="44" rx="9.56522" fill="#453F92"/>
<g clip-path="url(#clip0_1875_26904)">
<path d="M33.5653 21.0435H24.0001V11.4783C24.0001 11.2246 23.8993 10.9813 23.7199 10.8019C23.5406 10.6225 23.2973 10.5217 23.0436 10.5217V10.5217C22.7899 10.5217 22.5466 10.6225 22.3672 10.8019C22.1878 10.9813 22.0871 11.2246 22.0871 11.4783V21.0435H12.5218C12.2682 21.0435 12.0249 21.1442 11.8455 21.3236C11.6661 21.503 11.5653 21.7463 11.5653 22V22C11.5653 22.2537 11.6661 22.497 11.8455 22.6764C12.0249 22.8557 12.2682 22.9565 12.5218 22.9565H22.0871V32.5217C22.0871 32.7754 22.1878 33.0187 22.3672 33.1981C22.5466 33.3775 22.7899 33.4783 23.0436 33.4783C23.2973 33.4783 23.5406 33.3775 23.7199 33.1981C23.8993 33.0187 24.0001 32.7754 24.0001 32.5217V22.9565H33.5653C33.819 22.9565 34.0623 22.8557 34.2417 22.6764C34.4211 22.497 34.5218 22.2537 34.5218 22C34.5218 21.7463 34.4211 21.503 34.2417 21.3236C34.0623 21.1442 33.819 21.0435 33.5653 21.0435Z" fill="white"/>
</g>
<defs>
<clipPath id="clip0_1875_26904">
<rect width="22.9565" height="22.9565" fill="white" transform="translate(11.5653 10.5217)"/>
</clipPath>
</defs>
</svg>
