<svg width="24" height="25" viewBox="0 0 24 25" fill="none" xmlns="http://www.w3.org/2000/svg">
<g id="ICON" clip-path="url(#clip0_1945_51863)">
<path id="Vector" d="M23.2706 10.0136C22.3678 8.5353 21.2291 7.21483 19.8996 6.10458L22.6996 3.30458C22.8817 3.11597 22.9825 2.86337 22.9802 2.60117C22.978 2.33898 22.8728 2.08816 22.6874 1.90276C22.502 1.71735 22.2512 1.61218 21.989 1.6099C21.7268 1.60762 21.4742 1.70842 21.2856 1.89058L18.2406 4.93957C16.353 3.8184 14.195 3.23404 11.9996 3.24958C5.80856 3.24958 2.28056 7.48757 0.728563 10.0136C0.249091 10.7891 -0.00488281 11.6828 -0.00488281 12.5946C-0.00488281 13.5063 0.249091 14.4001 0.728563 15.1756C1.63132 16.6538 2.77005 17.9743 4.09956 19.0846L1.29956 21.8846C1.20405 21.9768 1.12787 22.0872 1.07546 22.2092C1.02305 22.3312 0.995466 22.4624 0.994313 22.5952C0.993159 22.728 1.01846 22.8596 1.06874 22.9825C1.11902 23.1054 1.19328 23.2171 1.28717 23.311C1.38106 23.4049 1.49271 23.4791 1.61561 23.5294C1.73851 23.5797 1.87018 23.605 2.00296 23.6038C2.13574 23.6027 2.26696 23.5751 2.38897 23.5227C2.51097 23.4703 2.62132 23.3941 2.71356 23.2986L5.76556 20.2466C7.65083 21.3676 9.80623 21.9529 11.9996 21.9396C18.1906 21.9396 21.7186 17.7016 23.2706 15.1756C23.75 14.4001 24.004 13.5063 24.004 12.5946C24.004 11.6828 23.75 10.7891 23.2706 10.0136ZM2.43256 14.1286C2.1477 13.6676 1.99681 13.1364 1.99681 12.5946C1.99681 12.0527 2.1477 11.5215 2.43256 11.0606C3.76656 8.89457 6.78156 5.24958 11.9996 5.24958C13.6598 5.24027 15.2968 5.64041 16.7656 6.41458L14.7526 8.42758C13.7925 7.79018 12.6415 7.50457 11.4948 7.61922C10.3481 7.73387 9.27643 8.24171 8.46157 9.05658C7.6467 9.87144 7.13886 10.9431 7.02421 12.0898C6.90956 13.2365 7.19516 14.3875 7.83256 15.3476L5.52256 17.6576C4.29767 16.6673 3.2524 15.4735 2.43256 14.1286ZM14.9996 12.5946C14.9996 13.3902 14.6835 14.1533 14.1209 14.7159C13.5583 15.2785 12.7952 15.5946 11.9996 15.5946C11.5541 15.5929 11.1148 15.4903 10.7146 15.2946L14.6996 11.3096C14.8953 11.7098 14.9978 12.1491 14.9996 12.5946ZM8.99956 12.5946C8.99956 11.7989 9.31563 11.0359 9.87824 10.4733C10.4409 9.91065 11.2039 9.59458 11.9996 9.59458C12.4451 9.5963 12.8844 9.69886 13.2846 9.89458L9.29956 13.8796C9.10385 13.4794 9.00129 13.0401 8.99956 12.5946ZM21.5666 14.1286C20.2326 16.2946 17.2176 19.9396 11.9996 19.9396C10.3393 19.9489 8.70233 19.5487 7.23356 18.7746L9.24656 16.7616C10.2066 17.399 11.3577 17.6846 12.5043 17.5699C13.651 17.4553 14.7227 16.9474 15.5376 16.1326C16.3524 15.3177 16.8603 14.246 16.9749 13.0993C17.0896 11.9527 16.804 10.8016 16.1666 9.84157L18.4766 7.53158C19.7015 8.52186 20.7467 9.71562 21.5666 11.0606C21.8514 11.5215 22.0023 12.0527 22.0023 12.5946C22.0023 13.1364 21.8514 13.6676 21.5666 14.1286Z" fill="#4C3D8F"/>
</g>
<defs>
<clipPath id="clip0_1945_51863">
<rect width="24" height="24" fill="white" transform="translate(0 0.594727)"/>
</clipPath>
</defs>
</svg>
