<svg
  xmlns="http://www.w3.org/2000/svg"
  width="21"
  height="21"
  fill="none"
  viewBox="0 0 21 21">
  <g fill="#F7B375">
    <path d="M20.743 14.284a.875.875 0 0 0-1.237 0l-4.924 4.924-2.352-2.321a.877.877 0 1 0-1.255 1.225l2.4 2.362a1.644 1.644 0 0 0 1.178.525h.029a1.638 1.638 0 0 0 1.168-.484l4.993-4.994a.875.875 0 0 0 0-1.238Z" />
    <path d="M9.704 19.213a8.75 8.75 0 1 1 9.51-7.917.875.875 0 0 0 .794.953.864.864 0 0 0 .95-.793 10.5 10.5 0 1 0-11.41 9.5h.078a.876.876 0 0 0 .078-1.75v.007Z" />
    <path d="M9.625 6.125v4.013l-2.369 2.368a.874.874 0 1 0 1.238 1.238l2.625-2.625a.875.875 0 0 0 .256-.619V6.125a.875.875 0 0 0-1.75 0Z" />
  </g>
</svg>
