<svg width="130" height="91" viewBox="0 0 130 91" fill="none" xmlns="http://www.w3.org/2000/svg">
<g id="Group 33839">
<path id="Vector" d="M122.277 1.78993C121.912 1.42509 121.523 1.1697 121.109 1.02376C120.696 0.877829 120.27 0.792699 119.844 0.80486C118.981 0.80486 118.203 1.09673 117.522 1.68048C116.828 2.26422 116.451 2.9331 116.378 3.6871C116.318 4.45326 116.403 5.02485 116.634 5.42617C116.865 5.81533 117.132 6.13153 117.424 6.36259L114.895 7.12875C114.895 7.12875 114.883 7.12875 114.87 7.12875C114.42 7.27469 114.08 7.67602 114.031 8.16247C114.031 8.21112 114.031 8.25976 114.031 8.29625C114.031 8.61244 114.153 8.89215 114.347 9.11106C114.566 9.36644 114.895 9.52454 115.26 9.52454C115.369 9.52454 115.478 9.51237 115.588 9.47589L115.661 9.45157L119.236 8.38138C120.294 8.05302 121.243 7.54224 122.082 6.86121C122.921 6.18017 123.347 5.28023 123.347 4.16139C123.347 3.3709 122.994 2.56826 122.301 1.77777L122.277 1.78993ZM120.489 4.69648C120.392 4.84242 120.27 4.9762 120.112 5.07349C119.966 5.17078 119.832 5.25591 119.735 5.32888C119.565 5.1951 119.382 5.037 119.163 4.83026C118.944 4.63568 118.859 4.35597 118.884 3.99113C118.92 3.62629 119.115 3.38307 119.48 3.24929C119.844 3.11552 120.161 3.23713 120.416 3.58981C120.586 3.82087 120.659 4.02762 120.647 4.21004C120.635 4.39246 120.574 4.55055 120.477 4.70865L120.489 4.69648Z" fill="#2F266D"/>
<path id="Vector_2" d="M22.6025 84.7916H18.3825L19.2338 63.8742C19.3067 62.05 17.8474 60.5298 16.0232 60.5298C14.3084 60.5298 12.8856 61.8919 12.8126 63.6066L11.9491 84.1106V84.7916H8.04535C6.93867 84.7916 6.41573 84.2687 6.47654 83.2228L7.27919 63.8863C7.35215 62.0621 5.89279 60.5419 4.06859 60.5419C2.35384 60.5419 0.930968 61.8919 0.858 63.6188L0.00670662 83.4782C-0.0541001 85.6065 0.298579 87.2969 1.06474 88.5617C1.83091 89.8143 3.15649 90.4467 5.0415 90.4467H27.0292C28.7318 90.4467 30.1182 89.1089 30.2033 87.4185L31.2978 63.8985C31.383 62.0743 29.9236 60.5419 28.0872 60.5419H28.0629C26.3482 60.5419 24.9253 61.8919 24.8523 63.6188L24.0132 83.4539C23.9767 84.2079 23.3565 84.8038 22.6025 84.8038V84.7916Z" fill="#2F266D"/>
<path id="Vector_3" d="M57.7252 65.8072C57.3361 64.7127 56.7037 63.7398 55.8159 62.8642C54.9403 61.9885 53.7728 61.2954 52.3134 60.7724C50.8541 60.2495 49.0907 59.9819 46.9868 59.9819C44.8828 59.9819 43.083 60.2373 41.6479 60.7724C40.2129 61.2954 39.0454 61.9885 38.1698 62.8642C37.282 63.7276 36.6496 64.7127 36.2605 65.8072C35.8713 66.9017 35.6767 68.0206 35.6767 69.1516L35.2754 81.5075C35.2754 82.6385 35.47 83.7573 35.8591 84.8519C36.2483 85.9464 36.8807 86.9314 37.7685 87.7949C38.6562 88.6705 39.8116 89.3637 41.2466 89.8867C42.6816 90.4096 44.4694 90.6771 46.5854 90.6771C48.7015 90.6771 50.4527 90.4218 51.9121 89.8867C53.3593 89.3637 54.5268 88.6705 55.4146 87.7949C56.2902 86.9314 56.9347 85.9464 57.3239 84.8519C57.7131 83.7573 57.9076 82.6385 57.9076 81.5075L58.309 69.1516C58.309 68.0206 58.1144 66.9017 57.7252 65.8072ZM51.4378 80.9238C51.4378 82.0912 51.0608 82.9912 50.2946 83.6236C49.5285 84.256 48.3002 84.56 46.5854 84.56C44.8707 84.56 43.6424 84.2438 42.8762 83.6236C42.1101 82.9912 41.7331 82.0912 41.7331 80.9238L42.1344 69.7475C42.1344 68.58 42.5114 67.6557 43.2776 66.9869C44.0437 66.3058 45.272 65.9775 46.9868 65.9775C48.7015 65.9775 49.9298 66.3058 50.696 66.9869C51.4621 67.6557 51.8391 68.58 51.8391 69.7475L51.4378 80.9238Z" fill="#2F266D"/>
<path id="Vector_4" d="M80.4531 76.3151C79.8815 75.6097 79.0302 75.0017 77.8871 74.4787C76.7439 73.9558 75.2237 73.4328 73.3022 72.9342C72.2564 72.6667 71.4172 72.4478 70.7848 72.2775C70.1525 72.1194 69.666 71.9127 69.3255 71.6938C68.985 71.4749 68.7539 71.1708 68.6323 70.7938C68.5107 70.4168 68.4499 69.906 68.4499 69.2493C68.4499 68.1427 68.7053 67.4251 69.2404 67.0968C69.7633 66.7684 70.724 66.5982 72.1348 66.5982H78.1789C79.7721 66.5982 81.0855 65.3456 81.1585 63.7524C81.2314 62.0498 79.8815 60.627 78.1789 60.627H72.0496C70.5173 60.627 69.1187 60.8094 67.854 61.1864C66.577 61.5634 65.4947 62.0985 64.5947 62.7795C63.6948 63.4727 62.9894 64.3118 62.4908 65.3212C61.98 66.3306 61.7246 67.4495 61.7246 68.7142C61.7246 70.2101 61.8463 71.487 62.1016 72.5329C62.357 73.5788 62.7948 74.4666 63.4272 75.1841C64.0596 75.9016 64.8988 76.4975 65.969 76.9839C67.027 77.4582 68.3891 77.8717 70.0308 78.2001C71.0159 78.4068 71.8307 78.6257 72.4753 78.8325C73.1198 79.0392 73.6306 79.2824 73.9954 79.55C74.3603 79.8175 74.6278 80.1459 74.7859 80.5351C74.944 80.9242 75.017 81.3863 75.017 81.9214C75.017 82.9673 74.7373 83.6605 74.1657 83.9889C73.5941 84.3172 72.5118 84.4875 70.9308 84.4875H64.3515C62.7584 84.4875 61.4449 85.7401 61.372 87.3454C61.299 89.048 62.6489 90.4709 64.3515 90.4709H70.8335C78.1425 90.4709 81.7909 87.7589 81.7909 82.3471C81.7909 80.9972 81.7057 79.8419 81.5476 78.869C81.3895 77.8961 81.0125 77.0569 80.4531 76.3516V76.3151Z" fill="#2F266D"/>
<path id="Vector_5" d="M106.952 65.8072C106.563 64.7127 105.931 63.7398 105.043 62.8642C104.155 61.9885 102.988 61.2954 101.541 60.7724C100.093 60.2495 98.3178 59.9819 96.226 59.9819C94.1343 59.9819 92.3222 60.2373 90.8872 60.7724C89.4522 61.2954 88.2847 61.9885 87.4091 62.8642C86.5213 63.7276 85.8889 64.7127 85.4997 65.8072C85.1106 66.9017 84.916 68.0206 84.916 69.1516L84.5146 81.5075C84.5146 82.6385 84.7092 83.7573 85.0984 84.8519C85.4876 85.9464 86.1199 86.9314 87.0077 87.7949C87.8955 88.6705 89.0508 89.3637 90.4859 89.8867C91.9209 90.4096 93.6965 90.6771 95.8247 90.6771C97.9529 90.6771 99.692 90.4218 101.151 89.8867C102.599 89.3637 103.766 88.6705 104.654 87.7949C105.542 86.9314 106.174 85.9464 106.563 84.8519C106.952 83.7573 107.147 82.6385 107.147 81.5075L107.548 69.1516C107.548 68.0206 107.354 66.9017 106.964 65.8072H106.952ZM100.665 80.9238C100.665 82.0912 100.288 82.9912 99.5217 83.6236C98.7556 84.256 97.5273 84.56 95.8125 84.56C94.0978 84.56 92.8695 84.2438 92.1033 83.6236C91.3372 82.9912 90.9602 82.0912 90.9602 80.9238L91.3615 69.7475C91.3615 68.58 91.7385 67.6557 92.5046 66.9869C93.2708 66.3058 94.4991 65.9775 96.2139 65.9775C97.9286 65.9775 99.1569 66.3058 99.9231 66.9869C100.689 67.6557 101.066 68.58 101.066 69.7475L100.665 80.9238Z" fill="#2F266D"/>
<path id="Vector_6" d="M117.994 84.475L118.651 63.8494C118.712 62.0373 117.252 60.5415 115.44 60.5415C113.714 60.5415 112.291 61.9157 112.23 63.6426L111.415 88.2207C111.379 89.4368 112.351 90.4462 113.568 90.4462H126.921C128.526 90.4462 129.839 89.1815 129.9 87.5762C129.961 85.8857 128.611 84.475 126.921 84.475H117.982H117.994Z" fill="#2F266D"/>
<path id="Vector_7" d="M130 27.803C129.987 25.845 129.671 24.1911 129.075 22.8169C128.479 21.4426 127.506 20.3846 126.169 19.6428C124.831 18.9009 122.958 18.5239 120.538 18.5239H119.249C117.96 18.5239 116.634 18.682 115.284 18.9861C113.934 19.2901 112.706 19.8252 111.612 20.6035C110.517 21.3818 109.629 22.452 108.936 23.802C108.243 25.164 107.902 26.9152 107.902 29.0678L107.659 34.1269C107.659 35.1485 107.732 36.0849 107.866 36.924C108 37.7632 108.255 38.4928 108.632 39.0766C109.009 39.6725 109.544 40.1346 110.225 40.463C110.906 40.7913 111.806 40.9616 112.937 40.9616H121.815C121.584 42.0439 121.207 42.9196 120.696 43.5763C120.185 44.233 119.516 44.7438 118.69 45.0964C117.863 45.4491 116.865 45.6802 115.71 45.7896C114.555 45.9113 113.205 45.9721 111.685 45.9721C111.466 45.9721 111.271 45.9721 111.077 45.9721C110.906 45.9721 110.736 45.9721 110.578 45.9599C109.654 46.0085 108.851 46.5193 108.401 47.2612C108.146 47.6746 108 48.1733 108 48.6962C108 48.9394 108.036 49.1705 108.085 49.4016C108.377 50.4961 109.313 51.323 110.468 51.4325C110.517 51.4325 110.566 51.4325 110.602 51.4325C111.32 51.4811 112.013 51.5176 112.694 51.5176C114.968 51.5176 117.06 51.3839 118.945 51.1406C120.83 50.8974 122.472 50.3988 123.882 49.6691C125.293 48.9394 126.424 47.9057 127.275 46.568C128.139 45.2181 128.674 43.4425 128.905 41.2291L129.635 34.3337C129.902 31.9136 130.012 29.7367 130 27.7787V27.803ZM123.287 30.4907C123.153 31.646 123.019 32.9351 122.897 34.358H116.744C116.051 34.358 115.552 34.2242 115.26 33.9202C114.968 33.6161 114.81 33.1419 114.81 32.4851L115.053 28.3138C115.053 27.0247 115.418 26.1491 116.136 25.6748C116.865 25.2127 117.79 24.9816 118.921 24.9816H120.562C121.523 24.9816 122.204 25.2005 122.618 25.6262C123.031 26.0518 123.287 26.6842 123.359 27.5112C123.445 28.3381 123.42 29.3354 123.287 30.4907Z" fill="#2F266D"/>
<path id="Vector_8" d="M111.077 45.9843C110.906 45.9843 110.736 45.9843 110.578 45.9722C110.627 45.9722 110.688 45.9722 110.748 45.9722C110.858 45.9722 110.979 45.9722 111.077 45.9965V45.9843Z" fill="#2F266D"/>
<path id="Vector_9" d="M104.326 27.0613C104.143 25.1276 103.681 23.5223 102.951 22.2454C102.222 20.9806 101.139 20.0198 99.7165 19.3753C98.2936 18.7307 96.4208 18.4146 94.1101 18.4146H90.7901C89.3064 18.4146 87.8106 18.6699 86.3269 19.1442C84.8432 19.6185 83.4325 20.3117 82.1069 21.2117C81.8394 20.1658 81.1218 19.3023 80.1733 18.8402C79.699 18.6091 79.176 18.4875 78.6166 18.4875C77.5586 18.4875 76.61 18.9496 75.9411 19.6672C75.4182 20.2509 75.0777 20.9927 75.0168 21.8197V22.0265V22.0873L74.4088 34.4189H52.3603H50.5361C50.8036 32.0109 50.9131 29.8219 50.9009 27.8639C50.8766 25.9059 50.5726 24.252 49.9767 22.8778C49.3808 21.5035 48.4078 20.4455 47.0701 19.7036C45.7324 18.9618 43.8473 18.5848 41.4394 18.597H40.1503C38.8612 18.597 37.5356 18.7551 36.1857 19.0591C34.8236 19.3631 33.6075 19.8982 32.513 20.6766C31.4185 21.4549 30.5307 22.5251 29.8375 23.8872C29.1443 25.2371 28.8038 27.0004 28.8038 29.153L28.5605 34.2121C28.5605 35.2337 28.6335 36.1701 28.7673 37.0214C28.9011 37.8605 29.1565 38.578 29.5456 39.174C29.9226 39.7699 30.4577 40.232 31.1388 40.5603C31.8198 40.8887 32.7197 41.059 33.8386 41.059H42.7163C42.4853 42.1292 42.1083 43.0169 41.5975 43.6736C41.0867 44.3304 40.4178 44.8411 39.5909 45.1938C38.7639 45.5465 37.7788 45.7776 36.6114 45.8992C35.456 46.0208 34.1061 46.0694 32.586 46.0816C32.4035 46.0816 32.2333 46.0816 32.063 46.0816C31.8441 46.0816 31.6252 46.0816 31.4306 46.0694C30.5064 46.1424 29.7159 46.6897 29.2781 47.4558C29.047 47.8571 28.9254 48.3193 28.9254 48.8179C28.9254 49.0246 28.9497 49.2314 28.9984 49.426C29.2537 50.557 30.2145 51.4326 31.3941 51.5542C31.4428 51.5542 31.4914 51.5542 31.5401 51.5542C32.2454 51.6028 32.9265 51.6393 33.5953 51.6393C35.8817 51.6393 37.9613 51.5055 39.8463 51.2623C41.7313 51.0069 43.3731 50.5205 44.7838 49.7908C46.1945 49.0611 47.3255 48.0274 48.1768 46.6897C49.0281 45.3519 49.5753 43.5642 49.8064 41.3508V41.059H53.6737L102.66 41.0103H103.061C103.62 40.9252 104.046 40.4752 104.131 39.9158C104.131 39.9158 104.131 39.8428 104.131 39.8063C104.131 39.782 104.131 39.7577 104.131 39.7455C104.131 39.6482 104.143 39.5509 104.155 39.4537C104.204 38.8091 104.241 38.1402 104.277 37.447C104.314 36.7538 104.326 36.085 104.35 35.4404C104.362 34.7959 104.386 34.2729 104.423 33.8716C104.545 31.2934 104.52 29.0314 104.338 27.0977L104.326 27.0613ZM44.1635 30.5759C44.0298 31.7312 43.896 33.0203 43.7744 34.4432H37.6207C36.9275 34.4432 36.4289 34.3094 36.1371 34.0054C35.8452 33.7013 35.6871 33.2271 35.6871 32.5703L35.9303 28.399C35.9303 27.1099 36.283 26.2343 37.0127 25.7722C37.7424 25.31 38.6666 25.079 39.7976 25.079H41.4394C42.4001 25.079 43.0812 25.2857 43.4947 25.7235C43.9082 26.1492 44.1635 26.7815 44.2365 27.6085C44.3216 28.4355 44.2973 29.4327 44.1635 30.588V30.5759ZM97.7099 34.3945L81.4867 34.4189L81.8272 26.9761C82.0947 26.5748 82.4353 26.2586 82.8609 26.0032C83.2866 25.76 83.773 25.5533 84.2959 25.4073C84.8189 25.2614 85.354 25.1519 85.8769 25.1033C86.3999 25.0546 86.8985 25.0182 87.3606 25.0182H94.1101C95.0709 25.0182 95.8127 25.2371 96.3478 25.6992C96.8708 26.1613 97.2599 26.7937 97.491 27.6085C97.7221 28.4233 97.8437 29.4084 97.8437 30.5637C97.8437 31.719 97.795 32.996 97.6977 34.3824L97.7099 34.3945Z" fill="#2F266D"/>
<path id="Vector_10" d="M32.0523 46.0693C31.8334 46.0693 31.6145 46.0693 31.4199 46.0571C31.4929 46.0571 31.578 46.0571 31.651 46.0571C31.7848 46.0571 31.9185 46.0571 32.0523 46.0815V46.0693Z" fill="#2F266D"/>
<path id="Vector_11" d="M103.048 40.9858C102.975 40.9858 102.914 40.998 102.841 40.998C102.768 40.998 102.707 40.998 102.646 40.9858H103.048Z" fill="#2F266D"/>
<path id="Vector_12" d="M21.9694 6.70312C21.8843 6.70312 21.7991 6.70312 21.714 6.70312C21.1424 6.70312 20.5952 6.83691 20.1209 7.08013C18.9899 7.63955 18.1994 8.78272 18.1264 10.1083C18.1264 10.1691 18.1264 10.2421 18.1264 10.3029L17.1778 41.1075V42.348C17.1778 43.5033 16.8495 44.3911 16.1928 44.9992C15.5361 45.6194 14.551 45.9234 13.2619 45.9234C11.9728 45.9234 11.0242 45.6194 10.4161 45.0113C9.80806 44.4033 9.49187 43.5155 9.49187 42.3602L9.86887 30.5515V30.3569C9.86887 30.3569 9.86887 30.2718 9.86887 30.2232C9.86887 30.1623 9.86887 30.0894 9.86887 30.0286C9.86887 29.9799 9.86887 29.9313 9.86887 29.8948C9.86887 29.8461 9.86887 29.7975 9.85671 29.761C9.85671 29.7002 9.83239 29.6394 9.82023 29.5786C9.80806 29.4935 9.78374 29.3962 9.75942 29.3111C9.7351 29.2016 9.69861 29.1043 9.66213 29.007C9.63781 28.9584 9.62564 28.9097 9.60132 28.8489C9.55268 28.7395 9.50403 28.63 9.44322 28.5206C9.4189 28.4719 9.39458 28.4233 9.35809 28.3868C9.33377 28.3381 9.30945 28.3017 9.27296 28.253C9.24864 28.2044 9.22432 28.1679 9.18784 28.1314C9.17567 28.1071 9.15135 28.0949 9.13919 28.0706C9.11487 28.0341 9.09054 28.0098 9.06622 27.9733C9.06622 27.9611 9.0419 27.949 9.02974 27.9247C9.00542 27.9003 8.98109 27.876 8.96893 27.8517C8.94461 27.8274 8.92029 27.803 8.89596 27.7787C8.85948 27.7422 8.823 27.7057 8.78651 27.6693C8.76219 27.6328 8.72571 27.6085 8.70138 27.5841C8.61625 27.5112 8.51896 27.4382 8.42167 27.3652C8.42167 27.3652 8.42167 27.3652 8.40951 27.3652C8.40951 27.3652 8.39735 27.3531 8.38519 27.3409C8.36086 27.3288 8.33654 27.3044 8.31222 27.2923C8.26357 27.2679 8.22709 27.2315 8.17844 27.2071C8.04467 27.122 7.89873 27.0612 7.74064 26.9882C7.66767 26.9517 7.58254 26.9274 7.49741 26.8909C7.44876 26.8788 7.40012 26.8666 7.36364 26.8423C7.31499 26.8423 7.27851 26.818 7.22986 26.8058C7.08392 26.7693 6.95015 26.745 6.79205 26.7207C6.64612 26.7085 6.50018 26.6964 6.35424 26.6964C5.85563 26.6964 5.3935 26.7936 4.96785 26.9761C3.80036 27.4747 2.94907 28.5814 2.8153 29.8948C2.8153 29.9434 2.8153 29.9799 2.80313 30.0286C2.80313 30.1015 2.80313 30.1745 2.80313 30.2596C2.80313 30.2596 2.80313 30.3569 2.80313 30.3934L2.38965 42.2142C2.38965 43.4669 2.55991 44.683 2.88826 45.8383C3.21662 46.9936 3.80036 48.0395 4.62733 48.9638C5.45431 49.888 6.57315 50.6299 7.9717 51.165C9.38242 51.7122 11.158 51.9798 13.3105 51.9798C15.4631 51.9798 17.2508 51.7001 18.6737 51.1528C20.0966 50.6056 21.2276 49.8637 22.0667 48.9394C22.9058 48.0152 23.5017 46.9693 23.8422 45.814C24.1949 44.6587 24.353 43.4425 24.353 42.1899V41.144L25.2408 11.2271L25.2894 9.69481C24.9976 8.11384 23.6598 6.88555 22.018 6.7761L21.9694 6.70312Z" fill="#2F266D"/>
<path id="Vector_13" d="M122.277 1.78993C121.912 1.42509 121.523 1.1697 121.109 1.02376C120.696 0.877829 120.27 0.792699 119.844 0.80486C118.981 0.80486 118.203 1.09673 117.522 1.68048C116.828 2.26422 116.451 2.9331 116.378 3.6871C116.318 4.45326 116.403 5.02485 116.634 5.42617C116.865 5.81533 117.132 6.13153 117.424 6.36259L114.895 7.12875C114.895 7.12875 114.883 7.12875 114.87 7.12875C114.42 7.27469 114.08 7.67602 114.031 8.16247C114.031 8.21112 114.031 8.25976 114.031 8.29625C114.031 8.61244 114.153 8.89215 114.347 9.11106C114.566 9.36644 114.895 9.52454 115.26 9.52454C115.369 9.52454 115.478 9.51237 115.588 9.47589L115.661 9.45157L119.236 8.38138C120.294 8.05302 121.243 7.54224 122.082 6.86121C122.921 6.18017 123.347 5.28023 123.347 4.16139C123.347 3.3709 122.994 2.56826 122.301 1.77777L122.277 1.78993ZM120.489 4.69648C120.392 4.84242 120.27 4.9762 120.112 5.07349C119.966 5.17078 119.832 5.25591 119.735 5.32888C119.565 5.1951 119.382 5.037 119.163 4.83026C118.944 4.63568 118.859 4.35597 118.884 3.99113C118.92 3.62629 119.115 3.38307 119.48 3.24929C119.844 3.11552 120.161 3.23713 120.416 3.58981C120.586 3.82087 120.659 4.02762 120.647 4.21004C120.635 4.39246 120.574 4.55055 120.477 4.70865L120.489 4.69648Z" fill="#2F266D"/>
</g>
</svg>
