<svg width="100" height="88" viewBox="0 0 100 88" fill="none" xmlns="http://www.w3.org/2000/svg">
<path d="M93.9892 45.0081L92.7639 44.6609C94.6564 46.4355 95.6043 49.1237 95.0315 51.8464C94.4122 54.7912 92.1791 56.9825 89.4506 57.6973L91.2557 57.9967C94.8471 58.7501 98.3709 56.454 99.1253 52.8676C99.8797 49.2811 97.5805 45.7622 93.9892 45.0088V45.0081Z" fill="#F7B375"/>
<path d="M65.2685 87.454L65.9139 87.6424C68.8437 88.4963 71.9121 86.8173 72.7672 83.8915L80.0998 58.809C80.9549 55.8832 79.2736 52.819 76.3438 51.9651L75.6984 51.7767C72.7686 50.9228 69.7002 52.6018 68.8451 55.5276L61.5125 80.6101C60.6574 83.5359 62.3387 86.6001 65.2685 87.454Z" fill="#F7B375"/>
<path d="M56.0706 56.3316L82.1242 60.2111C88.0964 61.4642 93.9553 57.6458 95.2102 51.6818C96.465 45.7178 92.6414 39.8669 86.6692 38.6138L60.5565 30.4352C60.0033 30.3192 55.5175 56.2156 56.0706 56.3316Z" fill="#F7B375"/>
<path d="M85.4881 54.0182L59.8258 50.1963C59.3037 53.6042 56.9728 55.7906 56.9728 55.7906L82.8363 59.642C88.4496 60.8199 93.9623 57.5167 95.6464 52.1627C92.7384 54.0175 89.1309 54.7821 85.4875 54.0175L85.4881 54.0182Z" fill="#F7B375"/>
<path d="M87.4638 38.848L85.4264 38.271C88.5737 41.2214 90.1494 45.6919 89.1965 50.2187C88.1662 55.1152 84.4538 58.7592 79.9166 59.9484L82.9189 60.446C88.8911 61.6991 94.75 57.8807 96.0048 51.9167C97.2596 45.9527 93.436 40.1018 87.4638 38.8487V38.848Z" fill="white"/>
<path d="M43.9091 7.3968L65.6162 32.0197C67.0111 38.7961 65.3516 50.3405 61.0389 56.8274L30.4404 71.4022C29.6486 71.8499 28.6978 71.1555 28.885 70.2665L42.0273 7.81146C42.2145 6.92241 43.3644 6.66869 43.9084 7.3968H43.9091Z" fill="#F7B375"/>
<path d="M49.3489 41.9561C53.1414 23.9376 50.3093 8.09086 43.0233 6.56153C35.7373 5.03221 26.7564 18.3994 22.964 36.418C19.1716 54.4365 22.0036 70.2832 29.2896 71.8125C36.5756 73.3419 45.5565 59.9747 49.3489 41.9561Z" fill="white"/>
<path d="M47.3467 42.6543C50.8276 26.116 48.5153 11.6315 42.1822 10.3021C35.849 8.97282 27.8931 21.3021 24.4122 37.8404C20.9313 54.3787 23.2436 68.8633 29.5768 70.1926C35.9099 71.5219 43.8658 59.1926 47.3467 42.6543Z" fill="#F7B375"/>
<path d="M48.872 31.0761C47.9296 30.0908 46.5298 29.291 44.517 28.7013C40.2557 27.4525 35.3272 32.6019 33.6374 39.7031C31.9477 46.8043 34.2223 52.8927 38.3984 54.4164C40.6442 55.2351 42.3628 55.2274 43.7168 54.6307C45.2912 50.7217 46.6262 46.2188 47.5714 41.3596C48.2646 37.7964 48.6911 34.3322 48.872 31.0768V31.0761Z" fill="white"/>
<path d="M22.8325 19.8466C21.95 19.276 21.0675 18.706 20.1857 18.1353C19.5157 17.7024 18.8464 17.2694 18.1764 16.8365L16.4726 15.7352C16.3487 15.6551 16.1559 15.7057 16.0876 15.8364C16.0137 15.9763 16.0566 16.1358 16.1889 16.2209C17.0715 16.7915 17.954 17.3615 18.8358 17.9322C19.5058 18.3651 20.1751 18.798 20.8451 19.231L22.5489 20.3323C22.6728 20.4124 22.8656 20.3618 22.9339 20.2311C23.0078 20.0912 22.9648 19.9317 22.8325 19.8466Z" fill="#F7B375"/>
<path d="M16.649 40.2637C16.5041 40.2447 16.3591 40.2257 16.2148 40.2067C15.8207 40.1554 15.4266 40.1034 15.0325 40.0521L13.2836 39.823C12.5721 39.7295 11.8606 39.6368 11.1498 39.5433C10.3707 39.4414 9.59162 39.3395 8.81254 39.2369C8.02573 39.1335 7.23961 39.0309 6.4528 38.9276C5.71947 38.8313 4.98614 38.7358 4.25281 38.6395L2.39415 38.3963C1.95007 38.338 1.50599 38.2796 1.06191 38.222C0.850781 38.1946 0.638242 38.1595 0.426407 38.1391C0.417258 38.1384 0.408813 38.137 0.399664 38.1356C0.253279 38.1166 0.111822 38.2782 0.118155 38.4167C0.125897 38.5854 0.242723 38.6774 0.399664 38.6978C0.544641 38.7168 0.689617 38.7358 0.83389 38.7547C1.228 38.806 1.62211 38.858 2.01623 38.9094L3.7651 39.1385C4.47661 39.2319 5.18812 39.3247 5.89893 39.4182C6.678 39.5201 7.45708 39.622 8.23615 39.7246L10.5959 40.0338C11.3292 40.1301 12.0626 40.2257 12.7959 40.322C13.4152 40.4028 14.0352 40.4843 14.6545 40.5652C15.0986 40.6235 15.5427 40.6818 15.9868 40.7395C16.1979 40.7669 16.4105 40.802 16.6223 40.8224C16.6314 40.8231 16.6399 40.8245 16.649 40.8259C16.7954 40.8449 16.9369 40.6832 16.9305 40.5448C16.9228 40.3761 16.806 40.284 16.649 40.2637Z" fill="#F7B375"/>
<path d="M16.4534 61.7998C15.4154 61.9664 14.378 62.133 13.34 62.2988C12.5524 62.4253 11.7649 62.5511 10.9774 62.6776C10.3095 62.7845 9.64165 62.892 8.97377 62.9988C8.82809 63.022 8.73378 63.2111 8.77742 63.3446C8.82879 63.5027 8.96743 63.566 9.12367 63.5407C10.1617 63.3741 11.1991 63.2076 12.2372 63.0417C13.0247 62.9152 13.8122 62.7894 14.5997 62.6629C15.2676 62.5561 15.9355 62.4485 16.6033 62.3417C16.749 62.3185 16.8433 62.1295 16.7997 61.9959C16.7483 61.8378 16.6097 61.7745 16.4534 61.7998Z" fill="#F7B375"/>
<path d="M96.5543 4.47066L93.0221 2.17529L71.8371 19.3589L76.1731 22.1392L96.5543 4.47066Z" fill="#FB7186"/>
<path d="M90.3463 16.5459L77.4885 20.3531C72.429 21.8507 67.5604 16.794 68.7237 11.2496L68.8391 10.6993C69.3796 8.12631 71.1587 6.11347 73.5065 5.41769L87.5974 1.24582C92.4943 -0.204071 97.2074 4.69098 96.0807 10.0569C95.417 13.2181 93.2311 15.6913 90.3463 16.5459Z" fill="#4CB27B"/>
<path d="M70.1568 16.7524L69.4009 25.6008C69.3376 26.3394 70.173 26.9193 70.7951 26.5686L79.1362 21.483L70.1575 16.7524H70.1568Z" fill="#FB7186"/>
<path d="M93.8233 18.8018L80.9654 22.6089C75.906 24.1066 71.0373 19.0499 72.2006 13.5054L72.316 12.9551C72.8558 10.3822 74.6356 8.36933 76.9834 7.67355L91.0736 3.50168C95.9705 2.05179 100.684 6.94684 99.5569 12.3128C98.8932 15.474 96.7073 17.9472 93.8226 18.8018H93.8233Z" fill="#FB7186"/>
<path d="M81.9877 15.0173C82.6181 13.8792 82.5097 12.6143 81.7454 12.1921C80.9812 11.7699 79.8506 12.3503 79.2201 13.4885C78.5897 14.6267 78.6981 15.8916 79.4624 16.3137C80.2266 16.7359 81.3572 16.1555 81.9877 15.0173Z" fill="white"/>
<path d="M87.8246 13.489C88.4551 12.3508 88.3466 11.0859 87.5824 10.6638C86.8181 10.2416 85.6875 10.822 85.0571 11.9602C84.4266 13.0983 84.5351 14.3632 85.2993 14.7854C86.0635 15.2076 87.1942 14.6272 87.8246 13.489Z" fill="white"/>
<path d="M93.0972 12.1399C93.7276 11.0017 93.6192 9.73682 92.855 9.31464C92.0907 8.89247 90.9601 9.4729 90.3297 10.6111C89.6992 11.7492 89.8076 13.0141 90.5719 13.4363C91.3361 13.8585 92.4667 13.278 93.0972 12.1399Z" fill="white"/>
<path d="M43.1223 41.0861C44.024 37.1001 43.2423 33.5275 41.3762 33.1065C39.5101 32.6855 37.2664 35.5755 36.3647 39.5615C35.463 43.5475 36.2447 47.1201 38.1108 47.5411C39.9769 47.9621 42.2206 45.072 43.1223 41.0861Z" fill="#F7B375"/>
<path d="M61.2047 56.9143C61.2075 56.9086 62.5024 54.4481 63.7981 50.8322C65.0937 47.2155 66.3915 42.4449 66.3922 37.8077C66.3922 35.5306 66.0783 33.2845 65.2922 31.2245C65.2556 31.1276 65.1465 31.0791 65.0501 31.1163C64.953 31.1529 64.9044 31.2618 64.9417 31.3581C65.7074 33.3632 66.0171 35.5644 66.0171 37.8077C66.0171 42.3753 64.7327 47.1136 63.4448 50.7057C62.8008 52.502 62.1576 54.0117 61.6748 55.0715C61.4334 55.6014 61.2328 56.0189 61.0921 56.3042C61.0217 56.4469 60.9668 56.5558 60.9295 56.6289C60.9105 56.6655 60.8964 56.6936 60.8866 56.7119C60.8767 56.7301 60.8725 56.7393 60.8725 56.7393C60.824 56.8306 60.8598 56.9445 60.9513 56.9923C61.0428 57.0408 61.1568 57.0049 61.2047 56.9136V56.9143Z" fill="white"/>
<path d="M42.1796 10.2998C37.0097 9.21466 30.7595 17.2323 26.7445 29.2102C31.3162 24.9105 38.4419 22.62 48.9372 29.7402C49.2539 19.1601 46.7766 11.264 42.1796 10.2991V10.2998Z" fill="#F7B375"/>
<path d="M48.4696 62.8145C53.686 57.367 59.4491 34.8006 56.0239 21.1394L60.2381 25.9199C61.9933 27.911 61.9327 51.4009 54.4418 59.9702L48.4696 62.8152V62.8145Z" fill="white"/>
<path opacity="0.34" d="M87.2669 54.2819C85.5271 56.696 82.9872 58.4326 80.1151 59.1853L83.0006 59.6633L83.102 59.678C88.7152 60.8559 94.2279 57.5527 95.912 52.1987C93.408 53.7955 90.3846 54.5812 87.2669 54.2819Z" fill="#F7B375"/>
<path opacity="0.34" d="M56.7288 56.4942C57.6951 54.5973 58.4777 52.4102 59.1012 50.0923L54.4542 49.4099C53.7899 51.8831 53.0333 54.1792 52.2275 56.1857L56.7288 56.4935V56.4942Z" fill="#F7B375"/>
</svg>
