<svg width="14" height="14" viewBox="0 0 14 14" fill="none" xmlns="http://www.w3.org/2000/svg">
<g clip-path="url(#clip0_1778_9542)">
<path d="M12.1916 2.50276C11.9862 1.94055 11.6131 1.45497 11.1227 1.11164C10.6324 0.768317 10.0485 0.583792 9.44994 0.583008H4.54994C3.95137 0.583792 3.36747 0.768317 2.87715 1.11164C2.38683 1.45497 2.01373 1.94055 1.80828 2.50276L0.233275 6.83517C0.0783705 7.26187 -0.000600462 7.7124 -5.82621e-05 8.16634V8.74967C0.000982595 9.20047 0.106944 9.64484 0.309438 10.0476C0.511932 10.4504 0.805399 10.8005 1.16661 11.0702C1.16661 11.0748 1.16661 11.0783 1.16661 11.083V12.2497C1.16661 12.7138 1.35098 13.1589 1.67917 13.4871C2.00736 13.8153 2.45248 13.9997 2.91661 13.9997C3.38074 13.9997 3.82586 13.8153 4.15405 13.4871C4.48223 13.1589 4.66661 12.7138 4.66661 12.2497V11.6663H9.33327V12.2497C9.33327 12.7138 9.51765 13.1589 9.84584 13.4871C10.174 13.8153 10.6191 13.9997 11.0833 13.9997C11.5474 13.9997 11.9925 13.8153 12.3207 13.4871C12.6489 13.1589 12.8333 12.7138 12.8333 12.2497V11.083C12.8333 11.0783 12.8333 11.0748 12.8333 11.0702C13.1945 10.8005 13.488 10.4504 13.6904 10.0476C13.8929 9.64484 13.9989 9.20047 13.9999 8.74967V8.16634C14.0005 7.71258 13.9216 7.26224 13.7666 6.83576L12.1916 2.50276ZM2.90611 2.90176C3.02945 2.56469 3.25315 2.27354 3.54708 2.06754C3.84101 1.86154 4.19102 1.7506 4.54994 1.74967H9.44994C9.80907 1.75036 10.1593 1.86119 10.4535 2.0672C10.7476 2.27322 10.9715 2.5645 11.0949 2.90176L12.3713 6.41634H1.62803L2.90611 2.90176ZM3.49994 12.2497C3.49994 12.4044 3.43848 12.5528 3.32909 12.6622C3.21969 12.7715 3.07132 12.833 2.91661 12.833C2.7619 12.833 2.61353 12.7715 2.50413 12.6622C2.39473 12.5528 2.33328 12.4044 2.33328 12.2497V11.608C2.52527 11.647 2.7207 11.6665 2.91661 11.6663H3.49994V12.2497ZM11.6666 12.2497C11.6666 12.4044 11.6052 12.5528 11.4958 12.6622C11.3864 12.7715 11.238 12.833 11.0833 12.833C10.9286 12.833 10.7802 12.7715 10.6708 12.6622C10.5614 12.5528 10.4999 12.4044 10.4999 12.2497V11.6663H11.0833C11.2792 11.6665 11.4746 11.647 11.6666 11.608V12.2497ZM12.8333 8.74967C12.8333 9.2138 12.6489 9.65892 12.3207 9.98711C11.9925 10.3153 11.5474 10.4997 11.0833 10.4997H2.91661C2.45248 10.4997 2.00736 10.3153 1.67917 9.98711C1.35098 9.65892 1.16661 9.2138 1.16661 8.74967V8.16634C1.16899 7.96992 1.19265 7.77433 1.23719 7.58301H2.33328V8.16634C2.33328 8.32105 2.39473 8.46942 2.50413 8.57882C2.61353 8.68822 2.7619 8.74967 2.91661 8.74967C3.07132 8.74967 3.21969 8.68822 3.32909 8.57882C3.43848 8.46942 3.49994 8.32105 3.49994 8.16634V7.58301H10.4999V8.16634C10.4999 8.32105 10.5614 8.46942 10.6708 8.57882C10.7802 8.68822 10.9286 8.74967 11.0833 8.74967C11.238 8.74967 11.3864 8.68822 11.4958 8.57882C11.6052 8.46942 11.6666 8.32105 11.6666 8.16634V7.58301H12.7627C12.8073 7.77432 12.8309 7.96991 12.8333 8.16634V8.74967Z" fill="#453F92"/>
</g>
<defs>
<clipPath id="clip0_1778_9542">
<rect width="14" height="14" fill="white"/>
</clipPath>
</defs>
</svg>
