<svg width="18" height="20" viewBox="0 0 18 20" fill="none" xmlns="http://www.w3.org/2000/svg">
<path d="M11.4547 5C11.6717 5 11.8798 5.0878 12.0332 5.24408C12.1866 5.40036 12.2728 5.61232 12.2728 5.83333C12.2728 6.05435 12.1866 6.26631 12.0332 6.42259C11.8798 6.57887 11.6717 6.66667 11.4547 6.66667H4.90914C4.69214 6.66667 4.48403 6.57887 4.33059 6.42259C4.17715 6.26631 4.09095 6.05435 4.09095 5.83333C4.09095 5.61232 4.17715 5.40036 4.33059 5.24408C4.48403 5.0878 4.69214 5 4.90914 5H11.4547ZM17.7604 19.7558C17.607 19.9121 17.3989 19.9998 17.182 19.9998C16.965 19.9998 16.757 19.9121 16.6035 19.7558L14.6341 17.75C14.0509 18.1291 13.3738 18.3315 12.6819 18.3333C11.9537 18.3333 11.2419 18.1134 10.6364 17.7013C10.0309 17.2893 9.55902 16.7036 9.28035 16.0184C9.00168 15.3332 8.92877 14.5792 9.07083 13.8517C9.2129 13.1243 9.56356 12.4561 10.0785 11.9317C10.5934 11.4072 11.2494 11.0501 11.9636 10.9054C12.6779 10.7607 13.4182 10.835 14.0909 11.1188C14.7637 11.4026 15.3387 11.8833 15.7433 12.4999C16.1479 13.1166 16.3638 13.8417 16.3638 14.5833C16.3619 15.288 16.1633 15.9776 15.7911 16.5717L17.7604 18.5775C17.9138 18.7338 18 18.9457 18 19.1667C18 19.3876 17.9138 19.5996 17.7604 19.7558ZM12.6819 16.6667C13.0865 16.6667 13.482 16.5445 13.8183 16.3156C14.1547 16.0866 14.4169 15.7613 14.5717 15.3806C14.7265 14.9999 14.767 14.581 14.6881 14.1769C14.6092 13.7728 14.4144 13.4016 14.1283 13.1102C13.8422 12.8188 13.4778 12.6204 13.081 12.54C12.6842 12.4596 12.2729 12.5009 11.8992 12.6586C11.5254 12.8163 11.206 13.0833 10.9812 13.4259C10.7564 13.7685 10.6365 14.1713 10.6365 14.5833C10.6365 15.1359 10.852 15.6658 11.2356 16.0565C11.6192 16.4472 12.1394 16.6667 12.6819 16.6667ZM9.00009 18.3333H4.09095C3.43996 18.3333 2.81563 18.0699 2.35531 17.6011C1.89499 17.1323 1.63638 16.4964 1.63638 15.8333V4.16667C1.63638 3.50363 1.89499 2.86774 2.35531 2.3989C2.81563 1.93006 3.43996 1.66667 4.09095 1.66667H13.9092C14.1262 1.66667 14.3343 1.75446 14.4878 1.91074C14.6412 2.06702 14.7274 2.27899 14.7274 2.5V9.16667C14.7274 9.38768 14.8136 9.59964 14.9671 9.75592C15.1205 9.9122 15.3286 10 15.5456 10C15.7626 10 15.9707 9.9122 16.1242 9.75592C16.2776 9.59964 16.3638 9.38768 16.3638 9.16667V2.5C16.3638 1.83696 16.1052 1.20107 15.6449 0.732233C15.1845 0.263392 14.5602 0 13.9092 0L4.09095 0C3.00636 0.00132321 1.96657 0.440735 1.19965 1.22185C0.432726 2.00296 0.00129917 3.062 0 4.16667V15.8333C0.00129917 16.938 0.432726 17.997 1.19965 18.7782C1.96657 19.5593 3.00636 19.9987 4.09095 20H9.00009C9.21708 20 9.42519 19.9122 9.57863 19.7559C9.73207 19.5996 9.81828 19.3877 9.81828 19.1667C9.81828 18.9457 9.73207 18.7337 9.57863 18.5774C9.42519 18.4211 9.21708 18.3333 9.00009 18.3333Z" fill="#4C3D8F"/>
</svg>
