<svg width="24" height="25" viewBox="0 0 24 25" fill="none" xmlns="http://www.w3.org/2000/svg">
<g clip-path="url(#clip0_293_22408)">
<path d="M12 24.5C9.62663 24.5 7.30655 23.7962 5.33316 22.4776C3.35977 21.1591 1.8217 19.2849 0.913451 17.0922C0.00519943 14.8995 -0.232441 12.4867 0.230582 10.1589C0.693605 7.83115 1.83649 5.69295 3.51472 4.01472C5.19295 2.33649 7.33115 1.1936 9.65892 0.730582C11.9867 0.267559 14.3995 0.505199 16.5922 1.41345C18.7849 2.3217 20.6591 3.85977 21.9776 5.83316C23.2962 7.80655 24 10.1266 24 12.5C23.9966 15.6815 22.7312 18.7318 20.4815 20.9815C18.2318 23.2312 15.1815 24.4966 12 24.5ZM12 2.50001C10.0222 2.50001 8.08879 3.0865 6.4443 4.18531C4.79981 5.28412 3.51809 6.84591 2.76121 8.67317C2.00433 10.5004 1.8063 12.5111 2.19215 14.4509C2.578 16.3907 3.53041 18.1725 4.92894 19.5711C6.32746 20.9696 8.10929 21.922 10.0491 22.3079C11.9889 22.6937 13.9996 22.4957 15.8268 21.7388C17.6541 20.9819 19.2159 19.7002 20.3147 18.0557C21.4135 16.4112 22 14.4778 22 12.5C21.9971 9.84873 20.9426 7.30689 19.0679 5.43215C17.1931 3.55742 14.6513 2.50292 12 2.50001ZM8.00001 14.5C7.84394 14.4993 7.68988 14.5351 7.55015 14.6047C7.41042 14.6742 7.2889 14.7754 7.19531 14.9003C7.10171 15.0252 7.03865 15.1702 7.01116 15.3239C6.98368 15.4775 6.99253 15.6354 7.03701 15.785C7.3953 16.8325 8.06136 17.7475 8.94809 18.4103C9.83482 19.0731 10.9009 19.4529 12.007 19.5C13.1135 19.4564 14.1808 19.0778 15.0675 18.4145C15.9542 17.7511 16.6187 16.8342 16.973 15.785C17.013 15.6356 17.0186 15.4791 16.9893 15.3273C16.96 15.1754 16.8966 15.0322 16.8038 14.9084C16.7111 14.7847 16.5914 14.6836 16.4539 14.6129C16.3164 14.5421 16.1646 14.5035 16.01 14.5H8.00001ZM6.00001 10.5C6.00001 11.5 6.89501 11.5 8.00001 11.5C9.10501 11.5 10 11.5 10 10.5C10 9.96957 9.78929 9.46087 9.41422 9.08579C9.03915 8.71072 8.53044 8.50001 8.00001 8.50001C7.46957 8.50001 6.96086 8.71072 6.58579 9.08579C6.21072 9.46087 6.00001 9.96957 6.00001 10.5ZM14 10.5C14 11.5 14.895 11.5 16 11.5C17.105 11.5 18 11.5 18 10.5C18 9.96957 17.7893 9.46087 17.4142 9.08579C17.0391 8.71072 16.5304 8.50001 16 8.50001C15.4696 8.50001 14.9609 8.71072 14.5858 9.08579C14.2107 9.46087 14 9.96957 14 10.5Z" fill="#4C3D8F"/>
</g>
<defs>
<clipPath id="clip0_293_22408">
<rect width="24" height="24" fill="white" transform="translate(0 0.5)"/>
</clipPath>
</defs>
</svg>
