<svg width="14" height="14" viewBox="0 0 14 14" fill="none" xmlns="http://www.w3.org/2000/svg">
<g clip-path="url(#clip0_1778_9534)">
<path d="M13.5333 0.466843C13.317 0.248684 13.0419 0.0981248 12.7415 0.0334976C12.4412 -0.0311295 12.1285 -0.00703665 11.8416 0.102843L1.84038 4.04209C1.18683 4.30055 0.64925 4.78735 0.327418 5.41214C0.00558592 6.03692 -0.078636 6.75725 0.0903848 7.43943C0.514487 8.98747 1.33416 10.3985 2.46882 11.5338C3.60348 12.669 5.01406 13.4895 6.56188 13.9144C7.24476 14.0824 7.96537 13.9971 8.59016 13.6743C9.21495 13.3516 9.70156 12.8133 9.95979 12.1592L13.902 2.14218C14.0083 1.85706 14.03 1.54733 13.9646 1.25015C13.8992 0.95298 13.7495 0.680992 13.5333 0.466843ZM6.85179 12.7816C5.5049 12.4119 4.27736 11.6982 3.2898 10.7106C2.30224 9.72289 1.58864 8.49527 1.21913 7.14834C1.13392 6.8008 1.15921 6.43534 1.29147 6.10285C1.42374 5.77036 1.6564 5.48739 1.95705 5.29334C2.01735 7.06417 2.74766 8.74607 4.00039 9.99912C5.25311 11.2522 6.93482 11.9829 8.70562 12.0437C8.51178 12.3442 8.22901 12.5768 7.89672 12.7091C7.56443 12.8414 7.19916 12.8667 6.85179 12.7816ZM9.20087 10.8992C5.58946 10.8408 3.16046 8.41126 3.10155 4.79926L12.2558 1.19426C12.3322 1.16496 12.4156 1.15874 12.4955 1.17636C12.5755 1.19399 12.6485 1.23469 12.7055 1.29343C12.7637 1.34784 12.8047 1.41809 12.8235 1.49551C12.8422 1.57294 12.8379 1.65416 12.8111 1.72918L12.425 2.70976C9.06612 1.55476 7.20879 6.33168 10.434 7.76609L9.20087 10.8992ZM10.8616 6.68051C10.4958 6.51921 10.2065 6.22262 10.0544 5.85284C9.90228 5.48307 9.89914 5.06878 10.0456 4.69673C10.1921 4.32469 10.4768 4.02375 10.8402 3.85692C11.2036 3.6901 11.6174 3.67033 11.995 3.80176L10.8616 6.68051Z" fill="#453F92"/>
<path d="M6.41666 5.25C6.10725 5.25 5.8105 5.37292 5.59171 5.59171C5.37292 5.8105 5.25 6.10725 5.25 6.41666C5.25 6.72608 5.37292 7.02283 5.59171 7.24162C5.8105 7.46041 6.10725 7.58333 6.41666 7.58333C6.72608 7.58333 7.02283 7.46041 7.24162 7.24162C7.46041 7.02283 7.58333 6.72608 7.58333 6.41666C7.58333 6.10725 7.46041 5.8105 7.24162 5.59171C7.02283 5.37292 6.72608 5.25 6.41666 5.25Z" fill="#453F92"/>
</g>
<defs>
<clipPath id="clip0_1778_9534">
<rect width="14" height="14" fill="white"/>
</clipPath>
</defs>
</svg>
