<svg width="18" height="19" viewBox="0 0 18 19" fill="none" xmlns="http://www.w3.org/2000/svg">
<g clip-path="url(#clip0_22_457)">
<path d="M17.4532 7.56401C16.7761 6.45531 15.9221 5.46496 14.9249 4.63226L17.0249 2.53226C17.1615 2.39081 17.2371 2.20136 17.2354 2.00471C17.2337 1.80807 17.1548 1.61996 17.0158 1.4809C16.8767 1.34184 16.6886 1.26297 16.492 1.26126C16.2953 1.25955 16.1059 1.33515 15.9644 1.47176L13.6807 3.75851C12.265 2.91763 10.6465 2.47936 8.99992 2.49101C4.35667 2.49101 1.71067 5.66951 0.546666 7.56401C0.187062 8.14564 -0.00341797 8.81594 -0.00341797 9.49976C-0.00341797 10.1836 0.187062 10.8539 0.546666 11.4355C1.22373 12.5442 2.07778 13.5346 3.07492 14.3673L0.974916 16.4673C0.903284 16.5364 0.846147 16.6192 0.80684 16.7107C0.767534 16.8022 0.746844 16.9006 0.745979 17.0002C0.745113 17.0998 0.76409 17.1986 0.8018 17.2907C0.839511 17.3829 0.895201 17.4666 0.96562 17.5371C1.03604 17.6075 1.11978 17.6632 1.21195 17.7009C1.30412 17.7386 1.40288 17.7576 1.50247 17.7567C1.60205 17.7558 1.70047 17.7351 1.79197 17.6958C1.88347 17.6565 1.96623 17.5994 2.03542 17.5278L4.32442 15.2388C5.73837 16.0795 7.35492 16.5185 8.99992 16.5085C13.6432 16.5085 16.2892 13.33 17.4532 11.4355C17.8128 10.8539 18.0033 10.1836 18.0033 9.49976C18.0033 8.81594 17.8128 8.14564 17.4532 7.56401ZM1.82467 10.6503C1.61102 10.3045 1.49785 9.90617 1.49785 9.49976C1.49785 9.09336 1.61102 8.69498 1.82467 8.34926C2.82517 6.72476 5.08642 3.99101 8.99992 3.99101C10.2451 3.98404 11.4728 4.28414 12.5744 4.86476L11.0647 6.37451C10.3446 5.89647 9.48135 5.68226 8.62134 5.76825C7.76134 5.85424 6.95757 6.23512 6.34642 6.84627C5.73527 7.45741 5.35439 8.26118 5.2684 9.12119C5.18241 9.98119 5.39662 10.8445 5.87467 11.5645L4.14217 13.297C3.22349 12.5543 2.43954 11.659 1.82467 10.6503ZM11.2499 9.49976C11.2499 10.0965 11.0129 10.6688 10.5909 11.0908C10.169 11.5127 9.59665 11.7498 8.99992 11.7498C8.6658 11.7485 8.33632 11.6715 8.03617 11.5248L11.0249 8.53601C11.1717 8.83616 11.2486 9.16565 11.2499 9.49976ZM6.74992 9.49976C6.74992 8.90303 6.98697 8.33073 7.40893 7.90877C7.83088 7.48682 8.40318 7.24976 8.99992 7.24976C9.33403 7.25106 9.66352 7.32798 9.96367 7.47476L6.97492 10.4635C6.82813 10.1634 6.75121 9.83388 6.74992 9.49976ZM16.1752 10.6503C15.1747 12.2748 12.9134 15.0085 8.99992 15.0085C7.75471 15.0155 6.52699 14.7154 5.42542 14.1348L6.93517 12.625C7.65522 13.1031 8.51849 13.3173 9.37849 13.2313C10.2385 13.1453 11.0423 12.7644 11.6534 12.1533C12.2646 11.5421 12.6454 10.7383 12.7314 9.87834C12.8174 9.01833 12.6032 8.15506 12.1252 7.43501L13.8577 5.70251C14.7763 6.44522 15.5603 7.34055 16.1752 8.34926C16.3888 8.69498 16.502 9.09336 16.502 9.49976C16.502 9.90617 16.3888 10.3045 16.1752 10.6503Z" fill="#5C79B9"/>
</g>
<defs>
<clipPath id="clip0_22_457">
<rect width="18" height="18" fill="white" transform="translate(0 0.5)"/>
</clipPath>
</defs>
</svg>
