<svg xmlns="http://www.w3.org/2000/svg" width="28" height="28" fill="none">
  <g clip-path="url(#a)">
    <path fill="#4C3D8F" d="M22.167 1.167H5.833A5.84 5.84 0 0 0 0 7v14a5.84 5.84 0 0 0 5.833 5.833h16.334A5.84 5.84 0 0 0 28 21V7a5.84 5.84 0 0 0-5.833-5.833ZM5.833 3.5h16.334a3.5 3.5 0 0 1 3.5 3.5v1.167H2.333V7a3.5 3.5 0 0 1 3.5-3.5Zm16.334 21H5.833a3.5 3.5 0 0 1-3.5-3.5V10.5h23.334V21a3.5 3.5 0 0 1-3.5 3.5Zm0-9.333A1.167 1.167 0 0 1 21 16.333H7A1.167 1.167 0 1 1 7 14h14a1.167 1.167 0 0 1 1.167 1.167ZM17.5 19.833A1.167 1.167 0 0 1 16.333 21H7a1.167 1.167 0 1 1 0-2.333h9.333a1.167 1.167 0 0 1 1.167 1.166Zm-14-14a1.167 1.167 0 1 1 2.333 0 1.167 1.167 0 0 1-2.333 0Zm3.5 0a1.167 1.167 0 1 1 2.333 0 1.167 1.167 0 0 1-2.333 0Zm3.5 0a1.167 1.167 0 1 1 2.333 0 1.167 1.167 0 0 1-2.333 0Z"/>
  </g>
  <defs>
    <clipPath id="a">
      <path fill="#fff" d="M0 0h28v28H0z"/>
    </clipPath>
  </defs>
</svg>
