<svg width="106" height="78" viewBox="0 0 106 78" fill="none" xmlns="http://www.w3.org/2000/svg">
<path d="M0.210938 21.5199C0.210938 21.4299 0.250942 21.3899 0.340942 21.3899H0.830933C0.940933 21.3899 1.01094 21.4299 1.06094 21.5199L5.57095 28.9599H5.61093V21.5199C5.61093 21.4299 5.65094 21.3899 5.74094 21.3899H6.23096C6.32096 21.3899 6.36093 21.4299 6.36093 21.5199V30.2999C6.36093 30.3899 6.32096 30.4299 6.23096 30.4299H5.71094C5.61094 30.4299 5.54096 30.3899 5.48096 30.2999L1.01096 22.8499H0.960938V30.2999C0.960938 30.3899 0.920933 30.4299 0.830933 30.4299H0.340942C0.250942 30.4299 0.210938 30.3899 0.210938 30.2999V21.5199Z" fill="#616160"/>
<path d="M8.72046 28.54C8.68046 28.42 8.65045 28.3 8.62045 28.16C8.59045 28.02 8.56045 27.85 8.55045 27.65C8.54045 27.45 8.52046 27.2 8.50046 26.92C8.49046 26.64 8.48047 26.3 8.48047 25.9C8.48047 25.5 8.48046 25.16 8.50046 24.88C8.51046 24.6 8.53045 24.36 8.55045 24.15C8.57045 23.94 8.59045 23.77 8.62045 23.64C8.65045 23.5 8.68046 23.38 8.72046 23.26C8.95046 22.58 9.31046 22.07 9.78046 21.74C10.2605 21.41 10.8605 21.24 11.5705 21.24C12.1905 21.24 12.7404 21.38 13.2104 21.66C13.6804 21.94 14.0404 22.36 14.3004 22.92C14.3404 23 14.3205 23.06 14.2605 23.09L13.8205 23.3C13.7505 23.34 13.6905 23.33 13.6505 23.25C13.4505 22.86 13.1805 22.55 12.8505 22.31C12.5205 22.07 12.0904 21.96 11.5804 21.96C11.0204 21.96 10.5705 22.09 10.2305 22.34C9.89047 22.59 9.63047 22.97 9.45047 23.46C9.42047 23.55 9.40045 23.66 9.37045 23.78C9.34045 23.9 9.32045 24.06 9.30045 24.25C9.28045 24.44 9.27047 24.66 9.26047 24.93C9.26047 25.2 9.25046 25.52 9.25046 25.9C9.25046 26.28 9.25047 26.61 9.26047 26.87C9.26047 27.14 9.28045 27.36 9.30045 27.55C9.32045 27.74 9.34045 27.89 9.37045 28.02C9.40045 28.14 9.42047 28.25 9.45047 28.34C9.63047 28.84 9.89047 29.21 10.2305 29.46C10.5705 29.71 11.0204 29.84 11.5804 29.84C12.0904 29.84 12.5205 29.72 12.8505 29.49C13.1805 29.26 13.4505 28.94 13.6505 28.55C13.6905 28.47 13.7505 28.45 13.8205 28.5L14.2605 28.71C14.3205 28.75 14.3404 28.8 14.3004 28.88C14.0404 29.44 13.6804 29.86 13.2104 30.14C12.7404 30.42 12.1905 30.56 11.5705 30.56C10.8505 30.56 10.2505 30.39 9.78046 30.06C9.30046 29.73 8.95046 29.22 8.72046 28.54Z" fill="#616160"/>
<path d="M18.5912 21.5199C18.6212 21.4299 18.6712 21.3899 18.7512 21.3899H19.2312C19.3112 21.3899 19.3612 21.4299 19.3912 21.5199L22.5312 30.2999C22.5612 30.3899 22.5312 30.4299 22.4412 30.4299H21.9212C21.8212 30.4299 21.7612 30.3899 21.7512 30.2999L20.9512 28.0799H17.0112L16.2112 30.2999C16.1712 30.3899 16.1212 30.4299 16.0412 30.4299H15.5212C15.4312 30.4299 15.4012 30.3899 15.4312 30.2999L18.6012 21.5199H18.5912ZM20.6912 27.3399L19.0012 22.5999H18.9612L17.2612 27.3399H20.6912Z" fill="#616160"/>
<path d="M26.5111 21.5199C26.5411 21.4299 26.5911 21.3899 26.6711 21.3899H27.1511C27.2311 21.3899 27.2811 21.4299 27.3111 21.5199L30.4511 30.2999C30.4811 30.3899 30.4511 30.4299 30.3611 30.4299H29.8411C29.7411 30.4299 29.6811 30.3899 29.6711 30.2999L28.8711 28.0799H24.9311L24.1311 30.2999C24.0911 30.3899 24.0411 30.4299 23.9611 30.4299H23.4411C23.3511 30.4299 23.3211 30.3899 23.3511 30.2999L26.5211 21.5199H26.5111ZM28.6111 27.3399L26.9211 22.5999H26.8811L25.1811 27.3399H28.6111Z" fill="#616160"/>
<path d="M34.4408 21.5199C34.4708 21.4299 34.5208 21.3899 34.6008 21.3899H35.0808C35.1608 21.3899 35.2108 21.4299 35.2408 21.5199L38.3808 30.2999C38.4108 30.3899 38.3808 30.4299 38.2908 30.4299H37.7708C37.6708 30.4299 37.6108 30.3899 37.6008 30.2999L36.8008 28.0799H32.8608L32.0608 30.2999C32.0208 30.3899 31.9708 30.4299 31.8908 30.4299H31.3708C31.2808 30.4299 31.2508 30.3899 31.2808 30.2999L34.4508 21.5199H34.4408ZM36.5408 27.3399L34.8508 22.5999H34.8108L33.1108 27.3399H36.5408Z" fill="#616160"/>
<path d="M62.5301 69.2199L105.92 25.8299C94.4701 14.3799 75.9201 14.3799 64.4701 25.8299L21.0801 69.2199C32.5301 80.6699 51.0801 80.6699 62.5301 69.2199Z" fill="#4C3D8E"/>
<path d="M21.1108 69.2299L0.380859 48.5099C11.8309 37.0599 30.3808 37.0599 41.8308 48.5099L62.5609 69.2299C51.1109 80.6799 32.5608 80.6799 21.1108 69.2299Z" fill="#41A0DA"/>
<path d="M8.45999 11.11C8.45999 11.84 8.39999 12.44 8.26999 12.92C8.13999 13.4 7.96001 13.78 7.70001 14.07C7.45001 14.35 7.12001 14.55 6.73001 14.67C6.34001 14.79 5.86 14.84 5.31 14.84H0.470001C0.320001 14.84 0.25 14.77 0.25 14.62V13.35C0.25 13.2 0.320001 13.13 0.470001 13.13H4.64001C5.05001 13.13 5.37 13.1 5.62 13.03C5.87 12.96 6.06 12.86 6.19 12.7C6.32 12.55 6.41001 12.35 6.45001 12.1C6.49001 11.85 6.51999 11.54 6.51999 11.16V9.40999C6.51999 7.93999 5.69 7.19999 4.03 7.19999H1.5C1.35 7.19999 1.28 7.12999 1.28 6.97999V5.70999C1.28 5.56999 1.35 5.48999 1.5 5.48999H4.70999C5.81999 5.48999 6.72001 5.79999 7.42001 6.42999C8.12001 7.05999 8.47 8.03999 8.47 9.37999V11.08L8.45999 11.11Z" fill="#616160"/>
<path d="M11.1895 0.22C11.1895 0.07 11.2595 0 11.4095 0H12.8094C12.9594 0 13.0294 0.07 13.0294 0.22V11.99C13.0294 12.43 13.1094 12.73 13.2794 12.9C13.4494 13.07 13.7094 13.15 14.0794 13.15H15.0395C15.6195 13.15 15.9095 13.44 15.9095 14.02C15.9095 14.38 15.8395 14.61 15.6995 14.71C15.5595 14.81 15.3394 14.85 15.0294 14.85H13.7394C12.8194 14.85 12.1694 14.63 11.7794 14.18C11.3894 13.74 11.1895 13.04 11.1895 12.1V0.22Z" fill="#616160"/>
<path d="M21.6104 15C20.9304 15 20.3204 14.9 19.8004 14.71C19.2804 14.52 18.8304 14.2 18.4704 13.78C18.1604 14.25 17.7704 14.54 17.2904 14.66C16.8104 14.78 16.3704 14.85 15.9604 14.85H15.0204C14.4404 14.85 14.1504 14.56 14.1504 13.98C14.1504 13.62 14.2204 13.39 14.3604 13.29C14.5004 13.2 14.7204 13.15 15.0304 13.15H16.1204C16.2804 13.15 16.4404 13.12 16.6004 13.05C16.7604 12.98 16.9104 12.88 17.0404 12.72C17.1704 12.57 17.2804 12.36 17.3604 12.11C17.4404 11.86 17.4804 11.54 17.4804 11.16C17.4704 11.01 17.4604 10.87 17.4604 10.73V10.28C17.4604 8.61003 17.8304 7.40003 18.5704 6.65003C19.3104 5.90003 20.3304 5.53003 21.6204 5.53003C22.9104 5.53003 23.9304 5.91003 24.6704 6.65003C25.4104 7.40003 25.7804 8.61003 25.7804 10.28C25.7804 10.44 25.7804 10.6 25.7704 10.76C25.7604 10.92 25.7504 11.07 25.7404 11.22C25.7504 11.96 25.9004 12.47 26.1904 12.74C26.4804 13.01 26.7704 13.14 27.1004 13.14H27.7304C28.0204 13.14 28.2404 13.2 28.3804 13.33C28.5304 13.45 28.6004 13.66 28.6004 13.95C28.6004 14.33 28.5304 14.57 28.3904 14.68C28.2504 14.79 28.0304 14.84 27.7204 14.84H27.2404C27.0404 14.84 26.8204 14.83 26.5904 14.81C26.3604 14.79 26.1304 14.74 25.9004 14.67C25.6704 14.6 25.4604 14.49 25.2604 14.35C25.0604 14.21 24.8804 14.03 24.7404 13.79C24.3804 14.21 23.9304 14.52 23.4104 14.71C22.8904 14.9 22.2904 14.99 21.6204 14.99L21.6104 15ZM21.6104 7.23003C20.8004 7.23003 20.2004 7.50003 19.8304 8.04003C19.4604 8.58003 19.2704 9.33003 19.2704 10.29C19.2704 11.34 19.4604 12.1 19.8304 12.58C20.2004 13.06 20.7904 13.3 21.6104 13.3C22.4304 13.3 23.0204 13.06 23.3904 12.58C23.7604 12.1 23.9504 11.34 23.9504 10.29C23.9504 9.33003 23.7604 8.58003 23.3904 8.04003C23.0204 7.50003 22.4304 7.23003 21.6104 7.23003Z" fill="#616160"/>
<path d="M27.8505 14.84C27.5605 14.84 27.3405 14.79 27.2005 14.69C27.0505 14.59 26.9805 14.38 26.9805 14.08C26.9805 13.72 27.0505 13.47 27.1905 13.34C27.3305 13.21 27.5504 13.14 27.8604 13.14H29.3405C29.7005 13.14 29.9705 13.06 30.1405 12.89C30.3105 12.72 30.3905 12.42 30.3905 11.98V6.12997C30.3905 5.97997 30.4604 5.90997 30.6104 5.90997H32.0105C32.1605 5.90997 32.2305 5.97997 32.2305 6.12997V11.65C32.2305 12.15 32.4105 12.52 32.7605 12.76C33.1205 13.01 33.5905 13.13 34.1905 13.13H34.4505C34.7405 13.13 34.9605 13.19 35.1005 13.32C35.2505 13.44 35.3205 13.65 35.3205 13.94C35.3205 14.32 35.2504 14.56 35.1104 14.67C34.9704 14.78 34.7505 14.83 34.4405 14.83H33.9604C33.4904 14.83 33.0904 14.74 32.7404 14.55C32.3904 14.36 32.1205 14.08 31.9305 13.7C31.5705 14.46 30.8105 14.83 29.6605 14.83H27.8505V14.84ZM29.1805 3.74997C29.0305 3.74997 28.9604 3.67997 28.9604 3.52997V1.93997C28.9604 1.78997 29.0305 1.71997 29.1805 1.71997H30.6605C30.8105 1.71997 30.8805 1.78997 30.8805 1.93997V3.52997C30.8805 3.67997 30.8105 3.74997 30.6605 3.74997H29.1805ZM31.8505 3.74997C31.7005 3.74997 31.6305 3.67997 31.6305 3.52997V1.93997C31.6305 1.78997 31.7005 1.71997 31.8505 1.71997H33.3304C33.4804 1.71997 33.5504 1.78997 33.5504 1.93997V3.52997C33.5504 3.67997 33.4804 3.74997 33.3304 3.74997H31.8505Z" fill="#616160"/>
<path d="M44.5003 13.14C44.6503 13.14 44.7203 13.21 44.7203 13.36V14.63C44.7203 14.78 44.6503 14.85 44.5003 14.85H34.4403C33.8603 14.85 33.5703 14.56 33.5703 13.98C33.5703 13.62 33.6403 13.39 33.7803 13.29C33.9203 13.2 34.1403 13.15 34.4503 13.15H36.9403C36.6103 12.82 36.3203 12.39 36.0903 11.88C35.8603 11.37 35.7403 10.76 35.7403 10.05C35.7403 9.60004 35.8103 9.11004 35.9403 8.58004C36.0703 8.05004 36.3103 7.56004 36.6603 7.11004C37.0103 6.66004 37.4903 6.28004 38.0903 5.99004C38.6903 5.69004 39.4703 5.54004 40.4103 5.54004C41.2703 5.54004 42.0103 5.70004 42.6403 6.01004C43.2603 6.32004 43.7703 6.76004 44.1403 7.31004C44.2103 7.43004 44.1903 7.53004 44.0703 7.62004L43.1103 8.41004C42.9903 8.50004 42.8903 8.49004 42.8003 8.39004C42.1503 7.63004 41.3203 7.25004 40.3403 7.25004C39.4403 7.25004 38.7703 7.52004 38.3303 8.05004C37.8903 8.58004 37.6803 9.25004 37.6803 10.05C37.6803 10.59 37.7703 11.05 37.9403 11.43C38.1103 11.81 38.3103 12.12 38.5403 12.37C38.7703 12.62 38.9903 12.8 39.2303 12.93C39.4603 13.05 39.6403 13.14 39.7803 13.18H44.5103L44.5003 13.14Z" fill="#616160"/>
<path d="M49.0607 14.63C49.0607 14.78 48.9907 14.85 48.8407 14.85H47.4407C47.2907 14.85 47.2207 14.78 47.2207 14.63V0.22C47.2207 0.07 47.2907 0 47.4407 0H48.8407C48.9907 0 49.0607 0.07 49.0607 0.22V14.63Z" fill="#616160"/>
</svg>
