<svg width="24" height="13" viewBox="0 0 24 13" fill="none" xmlns="http://www.w3.org/2000/svg">
<path d="M12.0037 0.828026C12.6608 0.826852 13.3116 0.955193 13.919 1.20571C14.5264 1.45623 15.0785 1.82401 15.5437 2.28803L23.7137 10.458C23.902 10.6463 24.0078 10.9017 24.0078 11.168C24.0078 11.4343 23.902 11.6897 23.7137 11.878C23.5254 12.0663 23.27 12.1721 23.0037 12.1721C22.7374 12.1721 22.482 12.0663 22.2937 11.878L14.1237 3.70803C13.5612 3.14622 12.7987 2.83067 12.0037 2.83067C11.2087 2.83067 10.4462 3.14622 9.88372 3.70802L1.71372 11.878C1.52542 12.0663 1.27002 12.1721 1.00372 12.1721C0.737419 12.1721 0.482025 12.0663 0.293722 11.878C0.105419 11.6897 -0.000369961 11.4343 -0.000369938 11.168C-0.000369915 10.9017 0.105419 10.6463 0.293722 10.458L8.46372 2.28802C8.92891 1.82401 9.481 1.45623 10.0884 1.20571C10.6958 0.955192 11.3467 0.826852 12.0037 0.828026Z" fill="#4C3D8F"/>
</svg>
