<svg width="19" height="19" viewBox="0 0 19 19" fill="none" xmlns="http://www.w3.org/2000/svg">
<g clip-path="url(#clip0_293_15587)">
<mask id="mask0_293_15587" style="mask-type:luminance" maskUnits="userSpaceOnUse" x="0" y="0" width="19" height="19">
<path d="M19 0H0V19H19V0Z" fill="white"/>
</mask>
<g mask="url(#mask0_293_15587)">
<path d="M7.89268 8.20188C7.89268 8.47105 8.11435 8.69271 8.38352 8.69271C8.38352 8.69271 9.2306 8.69272 9.5631 8.6848C10.7743 8.66105 11.6452 7.60813 11.6452 6.17522C11.6452 4.67105 10.7902 3.65771 9.5156 3.65771H8.3756C8.09852 3.65771 7.88477 3.87938 7.88477 4.15646V8.20188H7.89268ZM9.53143 4.65522C10.3706 4.65522 10.6714 5.44688 10.6714 6.18313C10.6714 6.91938 10.331 7.6873 9.5631 7.70313C9.40477 7.70313 9.1356 7.70313 8.8981 7.70313V4.65522H9.53935H9.53143Z" fill="#4C3D8E"/>
<path d="M3.26182 4.09288V8.25705C3.26182 8.53413 3.48349 8.74788 3.75266 8.74788C4.02182 8.74788 4.24349 8.52622 4.24349 8.25705V6.94288H4.90849C5.83474 6.94288 6.57891 6.19872 6.57891 5.27247C6.57891 4.34622 5.83474 3.60205 4.90849 3.60205H3.74474C3.71307 3.60205 3.53099 3.60205 3.39641 3.75247C3.26182 3.89497 3.25391 4.06122 3.25391 4.09288H3.26182ZM4.90849 5.9533H4.25141V4.59163H4.90849C5.28057 4.59163 5.58932 4.89247 5.58932 5.27247C5.58932 5.64455 5.28057 5.9533 4.90849 5.9533Z" fill="#4C3D8E"/>
<path d="M15.0417 0H3.95833C1.77333 0 0 1.77333 0 3.95833V15.0417C0 17.2267 1.77333 19 3.95833 19H12.9358C13.9888 19 14.9942 18.5883 15.7383 17.8442L17.8442 15.7383C18.5883 14.9942 19.0079 13.9888 19 12.9438V3.95833C19 1.77333 17.2267 0 15.0417 0ZM1.58333 15.0417V3.95833C1.58333 2.64417 2.64417 1.58333 3.95833 1.58333H15.0417C16.3558 1.58333 17.4167 2.64417 17.4167 3.95833V11.875H14.25C12.9358 11.875 11.875 12.9358 11.875 14.25V17.4167H3.95833C2.64417 17.4167 1.58333 16.3558 1.58333 15.0417ZM14.6142 16.72C14.2975 17.0367 13.8938 17.2583 13.4583 17.3533V14.25C13.4583 13.8146 13.8146 13.4583 14.25 13.4583H17.3612C17.2663 13.8938 17.0446 14.2975 16.7279 14.6142L14.6221 16.72H14.6142Z" fill="#4C3D8E"/>
</g>
<path d="M13.9563 6.68967V8.11467C13.9563 8.24925 13.9009 8.368 13.8138 8.463C13.7188 8.558 13.5921 8.6055 13.4654 8.6055C13.3388 8.6055 13.2121 8.55008 13.1171 8.463C13.0221 8.368 12.9746 8.24133 12.9746 8.11467V4.30675C12.9746 4.17217 13.03 4.05342 13.1171 3.95842C13.2121 3.86342 13.3388 3.81592 13.4654 3.81592H15.0567C15.1913 3.81592 15.31 3.87133 15.405 3.95842C15.5 4.05342 15.5475 4.18008 15.5475 4.30675C15.5475 4.43342 15.4921 4.56008 15.405 4.65508C15.31 4.75008 15.1834 4.79758 15.0567 4.79758H13.9563V5.70008H14.9379C15.0725 5.70008 15.1913 5.7555 15.2863 5.84258C15.3813 5.93758 15.4288 6.06425 15.4288 6.19092C15.4288 6.31758 15.3734 6.44425 15.2863 6.53925C15.1913 6.63425 15.0646 6.68175 14.9379 6.68175H13.9563V6.68967Z" fill="#4C3D8E"/>
</g>
<defs>
<clipPath id="clip0_293_15587">
<rect width="19" height="19" fill="white"/>
</clipPath>
</defs>
</svg>
