<svg width="165" height="125" viewBox="0 0 165 125" fill="none" xmlns="http://www.w3.org/2000/svg">
<g filter="url(#filter0_d_384_1832)">
<g filter="url(#filter1_d_384_1832)">
<rect x="8" y="4" width="149" height="109" rx="15" fill="white"/>
<rect x="8.5" y="4.5" width="148" height="108" rx="14.5" stroke="#F2F4F9"/>
</g>
<path d="M42.4462 18.32C42.2622 18.32 42.1022 18.264 41.9662 18.152C41.8382 18.04 41.7742 17.856 41.7742 17.6C41.7742 17.344 41.8382 17.16 41.9662 17.048C42.1022 16.936 42.2622 16.88 42.4462 16.88C42.6542 16.88 42.8182 16.944 42.9382 17.072C43.0582 17.192 43.1182 17.368 43.1182 17.6C43.1182 17.832 43.0582 18.012 42.9382 18.14C42.8182 18.26 42.6542 18.32 42.4462 18.32ZM44.5222 18.32C44.3142 18.32 44.1502 18.26 44.0302 18.14C43.9102 18.012 43.8502 17.832 43.8502 17.6C43.8502 17.368 43.9102 17.192 44.0302 17.072C44.1502 16.944 44.3142 16.88 44.5222 16.88C44.7382 16.88 44.9022 16.948 45.0142 17.084C45.1342 17.212 45.1942 17.384 45.1942 17.6C45.1942 17.816 45.1342 17.992 45.0142 18.128C44.9022 18.256 44.7382 18.32 44.5222 18.32ZM43.0702 26C42.4302 26 41.8822 25.892 41.4262 25.676C40.9702 25.452 40.6222 25.136 40.3822 24.728C40.1422 24.312 40.0222 23.812 40.0222 23.228C40.0222 22.596 40.1542 22.052 40.4182 21.596C40.6902 21.14 41.0702 20.792 41.5582 20.552C42.0542 20.304 42.6382 20.18 43.3102 20.18H44.1022V19.424H45.1222V25.064H46.4902C46.5302 25.064 46.5502 25.08 46.5502 25.112V25.94C46.5502 25.98 46.5302 26 46.4902 26H43.0702ZM44.1022 25.064V21.116H43.3462C42.6262 21.116 42.0702 21.3 41.6782 21.668C41.2862 22.036 41.0902 22.552 41.0902 23.216C41.0902 23.816 41.2582 24.276 41.5942 24.596C41.9382 24.908 42.4222 25.064 43.0462 25.064H44.1022ZM49.4138 19.04C49.2298 19.04 49.0698 18.984 48.9338 18.872C48.8058 18.76 48.7418 18.576 48.7418 18.32C48.7418 18.064 48.8058 17.88 48.9338 17.768C49.0698 17.656 49.2298 17.6 49.4138 17.6C49.6218 17.6 49.7858 17.664 49.9058 17.792C50.0258 17.912 50.0858 18.088 50.0858 18.32C50.0858 18.552 50.0258 18.732 49.9058 18.86C49.7858 18.98 49.6218 19.04 49.4138 19.04ZM51.4898 19.04C51.2818 19.04 51.1178 18.98 50.9978 18.86C50.8778 18.732 50.8178 18.552 50.8178 18.32C50.8178 18.088 50.8778 17.912 50.9978 17.792C51.1178 17.664 51.2818 17.6 51.4898 17.6C51.7058 17.6 51.8698 17.668 51.9818 17.804C52.1018 17.932 52.1618 18.104 52.1618 18.32C52.1618 18.536 52.1018 18.712 51.9818 18.848C51.8698 18.976 51.7058 19.04 51.4898 19.04ZM46.3658 26C46.3258 26 46.3058 25.98 46.3058 25.94V25.112C46.3058 25.08 46.3258 25.064 46.3658 25.064H48.1898C48.0538 24.912 47.9378 24.736 47.8418 24.536C47.7538 24.336 47.6858 24.128 47.6378 23.912C47.5898 23.688 47.5658 23.468 47.5658 23.252C47.5658 22.628 47.6978 22.088 47.9618 21.632C48.2258 21.168 48.6018 20.812 49.0898 20.564C49.5858 20.308 50.1738 20.18 50.8538 20.18H52.4258V26H46.3658ZM50.2778 25.064H51.4058V21.116H50.8898C50.4178 21.116 50.0138 21.2 49.6778 21.368C49.3418 21.536 49.0818 21.78 48.8978 22.1C48.7218 22.412 48.6338 22.792 48.6338 23.24C48.6338 23.648 48.6938 23.988 48.8138 24.26C48.9338 24.524 49.1138 24.724 49.3538 24.86C49.6018 24.996 49.9098 25.064 50.2778 25.064ZM57.2973 25.064C57.3373 25.064 57.3573 25.08 57.3573 25.112V25.94C57.3573 25.98 57.3373 26 57.2973 26H54.6453V16.88H55.7133V25.064H57.2973ZM57.1822 26C57.1422 26 57.1222 25.98 57.1222 25.94V25.112C57.1222 25.08 57.1422 25.064 57.1822 25.064H58.6462V16.88H59.6662V22.76C59.9142 22.16 60.2062 21.66 60.5422 21.26C60.8862 20.86 61.2622 20.56 61.6702 20.36C62.0782 20.16 62.5182 20.06 62.9902 20.06C63.8942 20.06 64.5782 20.308 65.0422 20.804C65.5062 21.292 65.7382 22.06 65.7382 23.108V25.064H67.3222C67.3622 25.064 67.3822 25.08 67.3822 25.112V25.94C67.3822 25.98 67.3622 26 67.3222 26H57.1822ZM64.7182 25.064V23.156C64.7182 22.42 64.5542 21.88 64.2262 21.536C63.9062 21.184 63.4222 21.008 62.7742 21.008C62.3662 21.008 61.9782 21.124 61.6102 21.356C61.2422 21.58 60.8942 21.92 60.5662 22.376C60.2462 22.832 59.9462 23.4 59.6662 24.08V25.064H64.7182ZM69.2537 28.4C69.0457 28.4 68.8817 28.336 68.7617 28.208C68.6417 28.088 68.5817 27.912 68.5817 27.68C68.5817 27.448 68.6417 27.268 68.7617 27.14C68.8817 27.02 69.0457 26.96 69.2537 26.96C69.4697 26.96 69.6337 27.024 69.7457 27.152C69.8657 27.288 69.9257 27.464 69.9257 27.68C69.9257 27.896 69.8657 28.068 69.7457 28.196C69.6337 28.332 69.4697 28.4 69.2537 28.4ZM67.2017 26C67.1617 26 67.1417 25.98 67.1417 25.94V25.112C67.1417 25.08 67.1617 25.064 67.2017 25.064H68.7857V20.18H69.8537V25.064H71.4137C71.4537 25.064 71.4737 25.08 71.4737 25.112V25.94C71.4737 25.98 71.4537 26 71.4137 26H67.2017ZM71.2916 26C71.2516 26 71.2316 25.98 71.2316 25.94V25.112C71.2316 25.08 71.2516 25.064 71.2916 25.064H72.8756V16.88H73.9436V26H71.2916ZM76.3484 16.88H77.4164V26H76.3484V16.88ZM88.1913 19.04C87.9833 19.04 87.8193 18.98 87.6993 18.86C87.5793 18.732 87.5193 18.552 87.5193 18.32C87.5193 18.088 87.5793 17.912 87.6993 17.792C87.8193 17.664 87.9833 17.6 88.1913 17.6C88.4073 17.6 88.5713 17.668 88.6833 17.804C88.8033 17.932 88.8633 18.104 88.8633 18.32C88.8633 18.536 88.8033 18.712 88.6833 18.848C88.5713 18.976 88.4073 19.04 88.1913 19.04ZM83.0553 25.064H84.2193V16.88H85.2393V22.76C85.4873 22.16 85.7793 21.66 86.1153 21.26C86.4513 20.86 86.8233 20.56 87.2313 20.36C87.6473 20.16 88.0913 20.06 88.5633 20.06C89.1633 20.06 89.6673 20.168 90.0753 20.384C90.4833 20.6 90.7913 20.936 90.9993 21.392C91.2073 21.84 91.3113 22.412 91.3113 23.108V25.064H92.8953C92.9353 25.064 92.9553 25.08 92.9553 25.112V25.94C92.9553 25.98 92.9353 26 92.8953 26H83.0553V25.064ZM90.2913 25.064V23.156C90.2913 22.42 90.1313 21.88 89.8113 21.536C89.4913 21.184 89.0033 21.008 88.3473 21.008C87.9473 21.008 87.5633 21.12 87.1953 21.344C86.8273 21.568 86.4793 21.908 86.1513 22.364C85.8233 22.82 85.5193 23.392 85.2393 24.08V25.064H90.2913ZM96.66 19.04C96.452 19.04 96.288 18.98 96.168 18.86C96.048 18.732 95.988 18.552 95.988 18.32C95.988 18.088 96.048 17.912 96.168 17.792C96.288 17.664 96.452 17.6 96.66 17.6C96.876 17.6 97.04 17.668 97.152 17.804C97.272 17.932 97.332 18.104 97.332 18.32C97.332 18.536 97.272 18.712 97.152 18.848C97.04 18.976 96.876 19.04 96.66 19.04ZM100.104 25.064C100.136 25.064 100.152 25.072 100.152 25.088C100.16 25.096 100.164 25.108 100.164 25.124V25.952C100.164 25.984 100.144 26 100.104 26H92.772C92.732 26 92.712 25.98 92.712 25.94V25.112C92.712 25.08 92.732 25.064 92.772 25.064H94.596C94.46 24.912 94.344 24.736 94.248 24.536C94.16 24.336 94.092 24.128 94.044 23.912C93.996 23.688 93.972 23.468 93.972 23.252C93.972 22.62 94.104 22.076 94.368 21.62C94.64 21.156 95.02 20.8 95.508 20.552C96.004 20.304 96.588 20.18 97.26 20.18H98.832V25.064H100.104ZM97.812 25.064V21.116H97.296C96.824 21.116 96.42 21.2 96.084 21.368C95.748 21.536 95.488 21.78 95.304 22.1C95.128 22.42 95.04 22.804 95.04 23.252C95.04 23.652 95.1 23.988 95.22 24.26C95.34 24.524 95.52 24.724 95.76 24.86C96.008 24.996 96.316 25.064 96.684 25.064H97.812ZM99.9791 26C99.9391 26 99.9191 25.98 99.9191 25.94V25.112C99.9191 25.08 99.9391 25.064 99.9791 25.064H105.127C104.975 24.912 104.835 24.656 104.707 24.296C104.587 23.928 104.475 23.452 104.371 22.868C104.291 22.404 104.191 22.036 104.071 21.764C103.951 21.492 103.791 21.296 103.591 21.176C103.399 21.056 103.155 20.996 102.859 20.996C102.587 20.996 102.303 21.036 102.007 21.116C101.719 21.196 101.423 21.316 101.119 21.476L100.699 20.648C101.043 20.424 101.391 20.272 101.743 20.192C102.095 20.104 102.471 20.06 102.871 20.06C103.119 20.06 103.343 20.084 103.543 20.132C103.751 20.172 103.935 20.236 104.095 20.324C104.423 20.5 104.683 20.76 104.875 21.104C105.067 21.448 105.215 21.944 105.319 22.592C105.399 23.064 105.483 23.464 105.571 23.792C105.659 24.12 105.755 24.388 105.859 24.596C105.971 24.804 106.091 24.968 106.219 25.088V26H99.9791ZM29.4193 39.04C29.2353 39.04 29.0753 38.984 28.9393 38.872C28.8113 38.76 28.7473 38.576 28.7473 38.32C28.7473 38.064 28.8113 37.88 28.9393 37.768C29.0753 37.656 29.2353 37.6 29.4193 37.6C29.6273 37.6 29.7913 37.664 29.9113 37.792C30.0313 37.912 30.0913 38.088 30.0913 38.32C30.0913 38.552 30.0313 38.732 29.9113 38.86C29.7913 38.98 29.6273 39.04 29.4193 39.04ZM31.4953 39.04C31.2873 39.04 31.1233 38.98 31.0033 38.86C30.8833 38.732 30.8233 38.552 30.8233 38.32C30.8233 38.088 30.8833 37.912 31.0033 37.792C31.1233 37.664 31.2873 37.6 31.4953 37.6C31.7113 37.6 31.8753 37.668 31.9873 37.804C32.1073 37.932 32.1673 38.104 32.1673 38.32C32.1673 38.536 32.1073 38.712 31.9873 38.848C31.8753 38.976 31.7113 39.04 31.4953 39.04ZM30.5953 46.12C29.7153 46.12 29.0313 45.88 28.5433 45.4C28.0553 44.912 27.8113 44.224 27.8113 43.336C27.8113 42.752 27.9353 42.204 28.1833 41.692C28.4233 41.188 28.7593 40.792 29.1913 40.504C29.6233 40.208 30.1033 40.06 30.6313 40.06C30.8793 40.06 31.1193 40.1 31.3513 40.18C31.5833 40.252 31.8073 40.36 32.0233 40.504C32.3113 40.704 32.5593 40.956 32.7673 41.26C32.9753 41.556 33.1353 41.884 33.2473 42.244C33.3593 42.596 33.4153 42.96 33.4153 43.336C33.4153 44.24 33.1793 44.932 32.7073 45.412C32.2353 45.884 31.5313 46.12 30.5953 46.12ZM30.6193 45.196C31.1873 45.196 31.6153 45.044 31.9033 44.74C32.1913 44.428 32.3353 43.964 32.3353 43.348C32.3353 42.86 32.2673 42.44 32.1313 42.088C31.9953 41.736 31.7953 41.464 31.5313 41.272C31.2753 41.08 30.9673 40.984 30.6073 40.984C30.2793 40.984 29.9873 41.084 29.7313 41.284C29.4753 41.484 29.2713 41.76 29.1193 42.112C28.9673 42.464 28.8913 42.876 28.8913 43.348C28.8913 43.964 29.0353 44.428 29.3233 44.74C29.6113 45.044 30.0433 45.196 30.6193 45.196ZM34.9354 48.88C34.7434 48.88 34.5434 48.852 34.3354 48.796C34.1354 48.74 33.9274 48.656 33.7114 48.544L34.0234 47.74C34.2154 47.828 34.3754 47.884 34.5034 47.908C34.6314 47.932 34.7674 47.944 34.9114 47.944C35.2714 47.944 35.5514 47.796 35.7514 47.5C35.9594 47.212 36.0634 46.828 36.0634 46.348V40.18H37.0714V46.288C37.0714 46.824 36.9874 47.284 36.8194 47.668C36.6594 48.06 36.4194 48.36 36.0994 48.568C35.7794 48.776 35.3914 48.88 34.9354 48.88ZM41.0338 48.88C40.6258 48.88 40.2418 48.828 39.8818 48.724C39.5218 48.62 39.1858 48.468 38.8738 48.268L39.3538 47.464C39.6098 47.6 39.8738 47.712 40.1458 47.8C40.4258 47.896 40.7298 47.944 41.0578 47.944C41.6018 47.944 42.0258 47.796 42.3298 47.5C42.6418 47.212 42.7978 46.828 42.7978 46.348V46H41.6217C41.0538 46 40.5698 45.896 40.1698 45.688C39.7698 45.48 39.4658 45.172 39.2578 44.764C39.0498 44.356 38.9458 43.856 38.9458 43.264C38.9458 42.632 39.0818 42.088 39.3538 41.632C39.6258 41.168 40.0058 40.812 40.4938 40.564C40.9898 40.308 41.5698 40.18 42.2338 40.18H43.8058V45.064H44.7898C44.8298 45.064 44.8498 45.08 44.8498 45.112V45.94C44.8498 45.98 44.8298 46 44.7898 46H43.8058V46.288C43.8058 46.832 43.6978 47.296 43.4818 47.68C43.2658 48.072 42.9498 48.368 42.5338 48.568C42.1178 48.776 41.6178 48.88 41.0338 48.88ZM42.7858 45.064V41.116H42.2698C41.5578 41.116 41.0018 41.304 40.6018 41.68C40.2098 42.056 40.0138 42.58 40.0138 43.252C40.0138 43.876 40.1498 44.336 40.4218 44.632C40.6938 44.92 41.1058 45.064 41.6578 45.064H42.7858ZM44.6666 46C44.6266 46 44.6066 45.98 44.6066 45.94V45.112C44.6066 45.08 44.6266 45.064 44.6666 45.064H46.1306V40.54H47.1506V42.76C47.3986 42.16 47.6906 41.66 48.0266 41.26C48.3706 40.86 48.7466 40.56 49.1546 40.36C49.5626 40.16 50.0026 40.06 50.4746 40.06C51.3786 40.06 52.0626 40.308 52.5266 40.804C52.9906 41.292 53.2226 42.06 53.2226 43.108V45.064H54.8066C54.8466 45.064 54.8666 45.08 54.8666 45.112V45.94C54.8666 45.98 54.8466 46 54.8066 46H44.6666ZM52.2026 45.064V43.156C52.2026 42.42 52.0386 41.88 51.7106 41.536C51.3906 41.184 50.9066 41.008 50.2586 41.008C49.8506 41.008 49.4626 41.124 49.0946 41.356C48.7266 41.58 48.3786 41.92 48.0506 42.376C47.7306 42.832 47.4306 43.4 47.1506 44.08V45.064H52.2026ZM54.6861 46C54.6461 46 54.6261 45.98 54.6261 45.94V45.112C54.6261 45.08 54.6461 45.064 54.6861 45.064H59.7381V42.856C59.7381 42.256 59.5581 41.816 59.1981 41.536C58.8381 41.256 58.2821 41.116 57.5301 41.116H55.4901V40.132C55.6181 39.86 55.7701 39.592 55.9461 39.328C56.1301 39.064 56.3341 38.8 56.5581 38.536C57.0141 38.016 57.5221 37.552 58.0821 37.144C58.6421 36.736 59.1861 36.432 59.7141 36.232L60.0981 37.144C59.7301 37.288 59.3581 37.476 58.9821 37.708C58.6141 37.932 58.2661 38.184 57.9381 38.464C57.6101 38.736 57.3181 39.02 57.0621 39.316C56.8141 39.612 56.6221 39.9 56.4861 40.18H57.5301C58.5781 40.18 59.3781 40.396 59.9301 40.828C60.4821 41.26 60.7581 41.876 60.7581 42.676V46H54.6861ZM68.9423 38.32C68.7583 38.32 68.5983 38.264 68.4623 38.152C68.3343 38.04 68.2703 37.856 68.2703 37.6C68.2703 37.344 68.3343 37.16 68.4623 37.048C68.5983 36.936 68.7583 36.88 68.9423 36.88C69.1503 36.88 69.3143 36.944 69.4343 37.072C69.5543 37.192 69.6143 37.368 69.6143 37.6C69.6143 37.832 69.5543 38.012 69.4343 38.14C69.3143 38.26 69.1503 38.32 68.9423 38.32ZM71.0183 38.32C70.8103 38.32 70.6463 38.26 70.5263 38.14C70.4063 38.012 70.3463 37.832 70.3463 37.6C70.3463 37.368 70.4063 37.192 70.5263 37.072C70.6463 36.944 70.8103 36.88 71.0183 36.88C71.2343 36.88 71.3983 36.948 71.5103 37.084C71.6303 37.212 71.6903 37.384 71.6903 37.6C71.6903 37.816 71.6303 37.992 71.5103 38.128C71.3983 38.256 71.2343 38.32 71.0183 38.32ZM69.5663 46C68.9263 46 68.3783 45.892 67.9223 45.676C67.4663 45.452 67.1183 45.136 66.8783 44.728C66.6383 44.312 66.5183 43.812 66.5183 43.228C66.5183 42.596 66.6503 42.052 66.9143 41.596C67.1863 41.14 67.5663 40.792 68.0543 40.552C68.5503 40.304 69.1343 40.18 69.8063 40.18H70.5983V39.424H71.6183V45.064H72.9863C73.0263 45.064 73.0463 45.08 73.0463 45.112V45.94C73.0463 45.98 73.0263 46 72.9863 46H69.5663ZM70.5983 45.064V41.116H69.8423C69.1223 41.116 68.5663 41.3 68.1743 41.668C67.7823 42.036 67.5863 42.552 67.5863 43.216C67.5863 43.816 67.7543 44.276 68.0903 44.596C68.4343 44.908 68.9183 45.064 69.5423 45.064H70.5983ZM74.3379 48.4C74.1539 48.4 73.9939 48.344 73.8579 48.232C73.7299 48.12 73.6659 47.936 73.6659 47.68C73.6659 47.424 73.7299 47.24 73.8579 47.128C73.9939 47.016 74.1539 46.96 74.3379 46.96C74.5459 46.96 74.7099 47.02 74.8299 47.14C74.9499 47.268 75.0099 47.448 75.0099 47.68C75.0099 47.912 74.9499 48.088 74.8299 48.208C74.7099 48.336 74.5459 48.4 74.3379 48.4ZM76.4139 48.4C76.2059 48.4 76.0419 48.336 75.9219 48.208C75.8019 48.088 75.7419 47.912 75.7419 47.68C75.7419 47.448 75.8019 47.268 75.9219 47.14C76.0419 47.02 76.2059 46.96 76.4139 46.96C76.6299 46.96 76.7939 47.024 76.9059 47.152C77.0259 47.288 77.0859 47.464 77.0859 47.68C77.0859 47.896 77.0259 48.068 76.9059 48.196C76.7939 48.332 76.6299 48.4 76.4139 48.4ZM72.8619 46C72.8219 46 72.8019 45.98 72.8019 45.94V45.112C72.8019 45.08 72.8219 45.064 72.8619 45.064H74.8059V40.18H75.8739V45.064H77.6739C77.7139 45.064 77.7339 45.08 77.7339 45.112V45.94C77.7339 45.98 77.7139 46 77.6739 46H72.8619ZM79.0374 45.064C78.8854 44.672 78.7734 44.308 78.7014 43.972C78.6294 43.628 78.5934 43.308 78.5934 43.012C78.5934 42.66 78.6294 42.324 78.7014 42.004C78.7734 41.684 78.8814 41.384 79.0254 41.104C79.3214 40.856 79.6574 40.66 80.0334 40.516C80.4174 40.372 80.8134 40.3 81.2214 40.3C81.4694 40.3 81.7014 40.328 81.9174 40.384C82.1414 40.44 82.3494 40.52 82.5414 40.624C82.9174 40.848 83.2054 41.164 83.4054 41.572C83.6134 41.98 83.7174 42.44 83.7174 42.952C83.7174 43.208 83.6974 43.456 83.6574 43.696C83.6174 43.928 83.5534 44.152 83.4654 44.368C83.6334 44.624 83.8214 44.804 84.0294 44.908C84.2454 45.012 84.5294 45.064 84.8814 45.064H84.9414C84.9814 45.064 85.0014 45.08 85.0014 45.112V45.94C85.0014 45.98 84.9814 46 84.9414 46H84.8814C84.4574 46 84.0934 45.944 83.7894 45.832C83.4934 45.712 83.2054 45.508 82.9254 45.22C82.6694 45.484 82.3734 45.68 82.0374 45.808C81.7014 45.936 81.3494 46 80.9814 46H77.5494C77.5094 46 77.4894 45.98 77.4894 45.94V45.112C77.4894 45.08 77.5094 45.064 77.5494 45.064H79.0374ZM79.6734 42.808C79.6734 43.176 79.7054 43.54 79.7694 43.9C79.8334 44.26 79.9534 44.648 80.1294 45.064H80.9814C81.3414 45.064 81.6414 44.984 81.8814 44.824C82.1294 44.656 82.3174 44.416 82.4454 44.104C82.5734 43.784 82.6374 43.396 82.6374 42.94C82.6374 42.436 82.4974 42.024 82.2174 41.704C81.9454 41.384 81.6134 41.224 81.2214 41.224C80.9654 41.224 80.7134 41.272 80.4654 41.368C80.2254 41.456 80.0094 41.572 79.8174 41.716C79.7534 41.884 79.7134 42.056 79.6974 42.232C79.6814 42.408 79.6734 42.6 79.6734 42.808ZM92.6507 46C92.2907 46 91.9587 45.94 91.6547 45.82C91.3507 45.7 91.0387 45.48 90.7187 45.16C90.5427 45.408 90.3067 45.612 90.0107 45.772C89.7227 45.924 89.3747 46 88.9667 46H84.8267C84.7867 46 84.7667 45.98 84.7667 45.94V45.112C84.7667 45.08 84.7867 45.064 84.8267 45.064H86.5427V41.116H87.5627V45.064H88.8587C89.2427 45.064 89.5427 44.936 89.7587 44.68C89.9747 44.424 90.0827 44.088 90.0827 43.672V41.116H91.1027V43.732C91.1027 43.796 91.0987 43.864 91.0907 43.936C91.0907 44 91.0907 44.064 91.0907 44.128C91.2907 44.472 91.5067 44.716 91.7387 44.86C91.9787 44.996 92.2827 45.064 92.6507 45.064H93.3827V40.18H94.4027V46H92.6507ZM98.3019 46V46.288C98.3019 46.824 98.2179 47.284 98.0499 47.668C97.8899 48.06 97.6499 48.36 97.3299 48.568C97.0099 48.776 96.6219 48.88 96.1659 48.88C95.9739 48.88 95.7739 48.852 95.5659 48.796C95.3659 48.74 95.1579 48.656 94.9419 48.544L95.2539 47.74C95.4459 47.828 95.6059 47.884 95.7339 47.908C95.8619 47.932 95.9979 47.944 96.1419 47.944C96.5019 47.944 96.7819 47.796 96.9819 47.5C97.1899 47.212 97.2939 46.828 97.2939 46.348V40.18H98.3019V45.064H99.7899C99.8299 45.064 99.8499 45.08 99.8499 45.112V45.94C99.8499 45.98 99.8299 46 99.7899 46H98.3019ZM99.6744 46C99.6344 46 99.6144 45.98 99.6144 45.94V45.112C99.6144 45.08 99.6344 45.064 99.6744 45.064H101.258V36.88H102.326V46H99.6744ZM104.731 36.88H105.799V46H104.731V36.88Z" fill="#4C3D8F"/>
<g clip-path="url(#clip0_384_1832)">
<path d="M135.042 21H123.958C122.909 21.0013 121.903 21.4187 121.161 22.1608C120.419 22.9028 120.001 23.9089 120 24.9583V36.0417C120.001 37.0911 120.419 38.0972 121.161 38.8392C121.903 39.5813 122.909 39.9987 123.958 40H132.938C133.458 40.0013 133.973 39.8994 134.454 39.7004C134.934 39.5013 135.37 39.2089 135.737 38.8402L137.841 36.7375C138.21 36.3707 138.502 35.9345 138.701 35.454C138.9 34.9735 139.001 34.4583 139 33.9382V24.9583C138.999 23.9089 138.581 22.9028 137.839 22.1608C137.097 21.4187 136.091 21.0013 135.042 21V21ZM121.583 36.0417V24.9583C121.583 24.3284 121.834 23.7244 122.279 23.279C122.724 22.8336 123.328 22.5833 123.958 22.5833H135.042C135.672 22.5833 136.276 22.8336 136.721 23.279C137.166 23.7244 137.417 24.3284 137.417 24.9583V32.875H134.25C133.62 32.875 133.016 33.1252 132.571 33.5706C132.125 34.016 131.875 34.6201 131.875 35.25V38.4167H123.958C123.328 38.4167 122.724 38.1664 122.279 37.721C121.834 37.2756 121.583 36.6716 121.583 36.0417ZM134.617 37.7208C134.298 38.0365 133.896 38.256 133.458 38.3541V35.25C133.458 35.04 133.542 34.8387 133.69 34.6902C133.839 34.5417 134.04 34.4583 134.25 34.4583H137.355C137.259 34.8974 137.039 35.2998 136.722 35.6181L134.617 37.7208ZM131.083 28.1915V26.529C131.084 26.3219 131.126 26.1169 131.206 25.9259C131.286 25.7348 131.402 25.5614 131.549 25.4155C131.697 25.2696 131.871 25.1542 132.063 25.0757C132.254 24.9973 132.46 24.9574 132.667 24.9583C132.956 24.9606 133.239 25.0412 133.486 25.1915C133.733 25.3417 133.935 25.5561 134.07 25.8118C134.1 25.8695 134.118 25.9325 134.124 25.9974C134.13 26.0622 134.123 26.1276 134.103 26.1897C134.084 26.2518 134.052 26.3095 134.01 26.3594C133.969 26.4093 133.917 26.4506 133.86 26.4807C133.802 26.5109 133.739 26.5293 133.674 26.5351C133.609 26.5409 133.544 26.5338 133.482 26.5144C133.42 26.4949 133.362 26.4634 133.312 26.4216C133.262 26.3798 133.221 26.3286 133.191 26.2709C133.139 26.1759 133.064 26.096 132.972 26.0393C132.88 25.9827 132.775 25.9511 132.667 25.9479C132.589 25.9472 132.511 25.962 132.439 25.9916C132.366 26.0212 132.301 26.0649 132.245 26.1202C132.19 26.1755 132.147 26.2413 132.117 26.3136C132.088 26.386 132.073 26.4635 132.074 26.5417V28.1788C132.073 28.257 132.087 28.3347 132.117 28.4071C132.146 28.4796 132.19 28.5454 132.245 28.6008C132.3 28.6562 132.366 28.7 132.439 28.7296C132.511 28.7592 132.588 28.7741 132.667 28.7734C132.822 28.7716 132.97 28.7101 133.08 28.6017C133.191 28.4933 133.256 28.3463 133.26 28.1915V28.125H133.063C132.958 28.125 132.857 28.0833 132.783 28.0091C132.708 27.9348 132.667 27.8341 132.667 27.7292C132.667 27.6242 132.708 27.5235 132.783 27.4493C132.857 27.375 132.958 27.3333 133.063 27.3333H133.656C133.814 27.3333 133.965 27.3959 134.076 27.5072C134.187 27.6186 134.25 27.7696 134.25 27.9271V28.1915C134.247 28.6092 134.078 29.0087 133.782 29.3029C133.485 29.5971 133.084 29.7622 132.667 29.7622C132.46 29.7631 132.254 29.7232 132.063 29.6448C131.871 29.5663 131.697 29.4509 131.549 29.305C131.402 29.1591 131.286 28.9857 131.206 28.7946C131.126 28.6036 131.084 28.3986 131.083 28.1915ZM126.333 25.4729V28.1298C126.333 28.3451 126.29 28.5582 126.207 28.7569C126.123 28.9556 126.002 29.136 125.849 29.2877C125.696 29.4394 125.515 29.5595 125.316 29.641C125.116 29.7226 124.903 29.764 124.687 29.763C124.382 29.7573 124.084 29.668 123.826 29.5049C123.568 29.3417 123.36 29.1109 123.224 28.8375C123.192 28.777 123.173 28.7107 123.167 28.6427C123.161 28.5746 123.168 28.506 123.189 28.4409C123.21 28.3758 123.244 28.3156 123.288 28.2636C123.332 28.2116 123.387 28.169 123.448 28.1381C123.509 28.1073 123.575 28.089 123.643 28.0841C123.712 28.0792 123.78 28.088 123.845 28.1098C123.91 28.1316 123.969 28.1661 124.021 28.2113C124.072 28.2564 124.114 28.3113 124.144 28.3728C124.194 28.4762 124.271 28.5643 124.366 28.6282C124.462 28.6921 124.573 28.7293 124.687 28.7362C124.769 28.737 124.85 28.7215 124.925 28.6907C125.001 28.6598 125.069 28.6141 125.127 28.5563C125.184 28.4985 125.229 28.4298 125.26 28.3543C125.29 28.2787 125.305 28.1978 125.304 28.1163V25.4721C125.304 25.3356 125.358 25.2048 125.455 25.1083C125.551 25.0118 125.682 24.9575 125.819 24.9575C125.955 24.9575 126.086 25.0118 126.183 25.1083C126.279 25.2048 126.333 25.3356 126.333 25.4721V25.4729ZM128.78 24.9583H127.917C127.707 24.9583 127.505 25.0417 127.357 25.1902C127.208 25.3387 127.125 25.54 127.125 25.75V29.2682C127.125 29.3994 127.177 29.5252 127.27 29.618C127.363 29.7108 127.489 29.763 127.62 29.763C127.751 29.763 127.877 29.7108 127.97 29.618C128.062 29.5252 128.115 29.3994 128.115 29.2682V28.3015H128.78C128.999 28.3015 129.216 28.2583 129.419 28.1743C129.622 28.0903 129.806 27.9672 129.962 27.8119C130.117 27.6567 130.24 27.4724 130.324 27.2696C130.408 27.0668 130.451 26.8495 130.451 26.6299C130.451 26.4104 130.408 26.1931 130.324 25.9902C130.24 25.7874 130.117 25.6032 129.962 25.4479C129.806 25.2927 129.622 25.1696 129.419 25.0856C129.216 25.0016 128.999 24.9583 128.78 24.9583ZM128.78 27.3088H128.121L128.116 25.9479H128.78C128.871 25.9448 128.962 25.9601 129.047 25.9929C129.132 26.0257 129.21 26.0753 129.276 26.1388C129.342 26.2023 129.394 26.2784 129.43 26.3625C129.465 26.4466 129.484 26.537 129.484 26.6284C129.484 26.7197 129.465 26.8101 129.43 26.8943C129.394 26.9784 129.342 27.0544 129.276 27.1179C129.21 27.1814 129.132 27.231 129.047 27.2638C128.962 27.2966 128.871 27.3119 128.78 27.3088Z" fill="#4C3D8F"/>
</g>
<path d="M139.5 58.5H25" stroke="#E3EDFF"/>
<path d="M42.4462 70.32C42.2622 70.32 42.1022 70.264 41.9662 70.152C41.8382 70.04 41.7742 69.856 41.7742 69.6C41.7742 69.344 41.8382 69.16 41.9662 69.048C42.1022 68.936 42.2622 68.88 42.4462 68.88C42.6542 68.88 42.8182 68.944 42.9382 69.072C43.0582 69.192 43.1182 69.368 43.1182 69.6C43.1182 69.832 43.0582 70.012 42.9382 70.14C42.8182 70.26 42.6542 70.32 42.4462 70.32ZM44.5222 70.32C44.3142 70.32 44.1502 70.26 44.0302 70.14C43.9102 70.012 43.8502 69.832 43.8502 69.6C43.8502 69.368 43.9102 69.192 44.0302 69.072C44.1502 68.944 44.3142 68.88 44.5222 68.88C44.7382 68.88 44.9022 68.948 45.0142 69.084C45.1342 69.212 45.1942 69.384 45.1942 69.6C45.1942 69.816 45.1342 69.992 45.0142 70.128C44.9022 70.256 44.7382 70.32 44.5222 70.32ZM43.0702 78C42.4302 78 41.8822 77.892 41.4262 77.676C40.9702 77.452 40.6222 77.136 40.3822 76.728C40.1422 76.312 40.0222 75.812 40.0222 75.228C40.0222 74.596 40.1542 74.052 40.4182 73.596C40.6902 73.14 41.0702 72.792 41.5582 72.552C42.0542 72.304 42.6382 72.18 43.3102 72.18H44.1022V71.424H45.1222V77.064H46.4902C46.5302 77.064 46.5502 77.08 46.5502 77.112V77.94C46.5502 77.98 46.5302 78 46.4902 78H43.0702ZM44.1022 77.064V73.116H43.3462C42.6262 73.116 42.0702 73.3 41.6782 73.668C41.2862 74.036 41.0902 74.552 41.0902 75.216C41.0902 75.816 41.2582 76.276 41.5942 76.596C41.9382 76.908 42.4222 77.064 43.0462 77.064H44.1022ZM49.4138 71.04C49.2298 71.04 49.0698 70.984 48.9338 70.872C48.8058 70.76 48.7418 70.576 48.7418 70.32C48.7418 70.064 48.8058 69.88 48.9338 69.768C49.0698 69.656 49.2298 69.6 49.4138 69.6C49.6218 69.6 49.7858 69.664 49.9058 69.792C50.0258 69.912 50.0858 70.088 50.0858 70.32C50.0858 70.552 50.0258 70.732 49.9058 70.86C49.7858 70.98 49.6218 71.04 49.4138 71.04ZM51.4898 71.04C51.2818 71.04 51.1178 70.98 50.9978 70.86C50.8778 70.732 50.8178 70.552 50.8178 70.32C50.8178 70.088 50.8778 69.912 50.9978 69.792C51.1178 69.664 51.2818 69.6 51.4898 69.6C51.7058 69.6 51.8698 69.668 51.9818 69.804C52.1018 69.932 52.1618 70.104 52.1618 70.32C52.1618 70.536 52.1018 70.712 51.9818 70.848C51.8698 70.976 51.7058 71.04 51.4898 71.04ZM46.3658 78C46.3258 78 46.3058 77.98 46.3058 77.94V77.112C46.3058 77.08 46.3258 77.064 46.3658 77.064H48.1898C48.0538 76.912 47.9378 76.736 47.8418 76.536C47.7538 76.336 47.6858 76.128 47.6378 75.912C47.5898 75.688 47.5658 75.468 47.5658 75.252C47.5658 74.628 47.6978 74.088 47.9618 73.632C48.2258 73.168 48.6018 72.812 49.0898 72.564C49.5858 72.308 50.1738 72.18 50.8538 72.18H52.4258V78H46.3658ZM50.2778 77.064H51.4058V73.116H50.8898C50.4178 73.116 50.0138 73.2 49.6778 73.368C49.3418 73.536 49.0818 73.78 48.8978 74.1C48.7218 74.412 48.6338 74.792 48.6338 75.24C48.6338 75.648 48.6938 75.988 48.8138 76.26C48.9338 76.524 49.1138 76.724 49.3538 76.86C49.6018 76.996 49.9098 77.064 50.2778 77.064ZM57.2973 77.064C57.3373 77.064 57.3573 77.08 57.3573 77.112V77.94C57.3573 77.98 57.3373 78 57.2973 78H54.6453V68.88H55.7133V77.064H57.2973ZM57.1822 78C57.1422 78 57.1222 77.98 57.1222 77.94V77.112C57.1222 77.08 57.1422 77.064 57.1822 77.064H58.6462V68.88H59.6662V74.76C59.9142 74.16 60.2062 73.66 60.5422 73.26C60.8862 72.86 61.2622 72.56 61.6702 72.36C62.0782 72.16 62.5182 72.06 62.9902 72.06C63.8942 72.06 64.5782 72.308 65.0422 72.804C65.5062 73.292 65.7382 74.06 65.7382 75.108V77.064H67.3222C67.3622 77.064 67.3822 77.08 67.3822 77.112V77.94C67.3822 77.98 67.3622 78 67.3222 78H57.1822ZM64.7182 77.064V75.156C64.7182 74.42 64.5542 73.88 64.2262 73.536C63.9062 73.184 63.4222 73.008 62.7742 73.008C62.3662 73.008 61.9782 73.124 61.6102 73.356C61.2422 73.58 60.8942 73.92 60.5662 74.376C60.2462 74.832 59.9462 75.4 59.6662 76.08V77.064H64.7182ZM69.2537 80.4C69.0457 80.4 68.8817 80.336 68.7617 80.208C68.6417 80.088 68.5817 79.912 68.5817 79.68C68.5817 79.448 68.6417 79.268 68.7617 79.14C68.8817 79.02 69.0457 78.96 69.2537 78.96C69.4697 78.96 69.6337 79.024 69.7457 79.152C69.8657 79.288 69.9257 79.464 69.9257 79.68C69.9257 79.896 69.8657 80.068 69.7457 80.196C69.6337 80.332 69.4697 80.4 69.2537 80.4ZM67.2017 78C67.1617 78 67.1417 77.98 67.1417 77.94V77.112C67.1417 77.08 67.1617 77.064 67.2017 77.064H68.7857V72.18H69.8537V77.064H71.4137C71.4537 77.064 71.4737 77.08 71.4737 77.112V77.94C71.4737 77.98 71.4537 78 71.4137 78H67.2017ZM71.2916 78C71.2516 78 71.2316 77.98 71.2316 77.94V77.112C71.2316 77.08 71.2516 77.064 71.2916 77.064H72.8756V68.88H73.9436V78H71.2916ZM76.3484 68.88H77.4164V78H76.3484V68.88ZM88.1913 71.04C87.9833 71.04 87.8193 70.98 87.6993 70.86C87.5793 70.732 87.5193 70.552 87.5193 70.32C87.5193 70.088 87.5793 69.912 87.6993 69.792C87.8193 69.664 87.9833 69.6 88.1913 69.6C88.4073 69.6 88.5713 69.668 88.6833 69.804C88.8033 69.932 88.8633 70.104 88.8633 70.32C88.8633 70.536 88.8033 70.712 88.6833 70.848C88.5713 70.976 88.4073 71.04 88.1913 71.04ZM83.0553 77.064H84.2193V68.88H85.2393V74.76C85.4873 74.16 85.7793 73.66 86.1153 73.26C86.4513 72.86 86.8233 72.56 87.2313 72.36C87.6473 72.16 88.0913 72.06 88.5633 72.06C89.1633 72.06 89.6673 72.168 90.0753 72.384C90.4833 72.6 90.7913 72.936 90.9993 73.392C91.2073 73.84 91.3113 74.412 91.3113 75.108V77.064H92.8953C92.9353 77.064 92.9553 77.08 92.9553 77.112V77.94C92.9553 77.98 92.9353 78 92.8953 78H83.0553V77.064ZM90.2913 77.064V75.156C90.2913 74.42 90.1313 73.88 89.8113 73.536C89.4913 73.184 89.0033 73.008 88.3473 73.008C87.9473 73.008 87.5633 73.12 87.1953 73.344C86.8273 73.568 86.4793 73.908 86.1513 74.364C85.8233 74.82 85.5193 75.392 85.2393 76.08V77.064H90.2913ZM96.66 71.04C96.452 71.04 96.288 70.98 96.168 70.86C96.048 70.732 95.988 70.552 95.988 70.32C95.988 70.088 96.048 69.912 96.168 69.792C96.288 69.664 96.452 69.6 96.66 69.6C96.876 69.6 97.04 69.668 97.152 69.804C97.272 69.932 97.332 70.104 97.332 70.32C97.332 70.536 97.272 70.712 97.152 70.848C97.04 70.976 96.876 71.04 96.66 71.04ZM100.104 77.064C100.136 77.064 100.152 77.072 100.152 77.088C100.16 77.096 100.164 77.108 100.164 77.124V77.952C100.164 77.984 100.144 78 100.104 78H92.772C92.732 78 92.712 77.98 92.712 77.94V77.112C92.712 77.08 92.732 77.064 92.772 77.064H94.596C94.46 76.912 94.344 76.736 94.248 76.536C94.16 76.336 94.092 76.128 94.044 75.912C93.996 75.688 93.972 75.468 93.972 75.252C93.972 74.62 94.104 74.076 94.368 73.62C94.64 73.156 95.02 72.8 95.508 72.552C96.004 72.304 96.588 72.18 97.26 72.18H98.832V77.064H100.104ZM97.812 77.064V73.116H97.296C96.824 73.116 96.42 73.2 96.084 73.368C95.748 73.536 95.488 73.78 95.304 74.1C95.128 74.42 95.04 74.804 95.04 75.252C95.04 75.652 95.1 75.988 95.22 76.26C95.34 76.524 95.52 76.724 95.76 76.86C96.008 76.996 96.316 77.064 96.684 77.064H97.812ZM99.9791 78C99.9391 78 99.9191 77.98 99.9191 77.94V77.112C99.9191 77.08 99.9391 77.064 99.9791 77.064H105.127C104.975 76.912 104.835 76.656 104.707 76.296C104.587 75.928 104.475 75.452 104.371 74.868C104.291 74.404 104.191 74.036 104.071 73.764C103.951 73.492 103.791 73.296 103.591 73.176C103.399 73.056 103.155 72.996 102.859 72.996C102.587 72.996 102.303 73.036 102.007 73.116C101.719 73.196 101.423 73.316 101.119 73.476L100.699 72.648C101.043 72.424 101.391 72.272 101.743 72.192C102.095 72.104 102.471 72.06 102.871 72.06C103.119 72.06 103.343 72.084 103.543 72.132C103.751 72.172 103.935 72.236 104.095 72.324C104.423 72.5 104.683 72.76 104.875 73.104C105.067 73.448 105.215 73.944 105.319 74.592C105.399 75.064 105.483 75.464 105.571 75.792C105.659 76.12 105.755 76.388 105.859 76.596C105.971 76.804 106.091 76.968 106.219 77.088V78H99.9791ZM42.8383 89.432C43.9583 89.432 44.7743 89.652 45.2863 90.092C45.7983 90.532 46.0543 91.152 46.0543 91.952C46.0543 92.304 45.9943 92.644 45.8743 92.972C45.7623 93.292 45.5743 93.58 45.3103 93.836C45.0463 94.092 44.6943 94.296 44.2543 94.448C43.8143 94.592 43.2743 94.664 42.6343 94.664H41.6503V98H40.5703V89.432H42.8383ZM42.7423 90.356H41.6503V93.74H42.5143C43.0583 93.74 43.5103 93.684 43.8703 93.572C44.2303 93.452 44.4983 93.264 44.6743 93.008C44.8503 92.752 44.9383 92.416 44.9383 92C44.9383 91.448 44.7623 91.036 44.4103 90.764C44.0583 90.492 43.5023 90.356 42.7423 90.356ZM54.6999 93.632C54.6999 94.592 54.5199 95.396 54.1599 96.044C53.8079 96.692 53.2999 97.18 52.6359 97.508C51.9719 97.836 51.1679 98 50.2239 98H47.8359V89.432H50.4759C51.3399 89.432 52.0879 89.592 52.7199 89.912C53.3519 90.232 53.8399 90.704 54.1839 91.328C54.5279 91.944 54.6999 92.712 54.6999 93.632ZM53.5599 93.668C53.5599 92.908 53.4319 92.284 53.1759 91.796C52.9279 91.308 52.5599 90.948 52.0719 90.716C51.5919 90.476 51.0079 90.356 50.3199 90.356H48.9159V97.076H50.0799C51.2399 97.076 52.1079 96.792 52.6839 96.224C53.2679 95.648 53.5599 94.796 53.5599 93.668ZM57.6815 98H56.6015V89.432H61.3895V90.38H57.6815V93.416H61.1615V94.364H57.6815V98ZM68.9423 90.32C68.7583 90.32 68.5983 90.264 68.4623 90.152C68.3343 90.04 68.2703 89.856 68.2703 89.6C68.2703 89.344 68.3343 89.16 68.4623 89.048C68.5983 88.936 68.7583 88.88 68.9423 88.88C69.1503 88.88 69.3143 88.944 69.4343 89.072C69.5543 89.192 69.6143 89.368 69.6143 89.6C69.6143 89.832 69.5543 90.012 69.4343 90.14C69.3143 90.26 69.1503 90.32 68.9423 90.32ZM71.0183 90.32C70.8103 90.32 70.6463 90.26 70.5263 90.14C70.4063 90.012 70.3463 89.832 70.3463 89.6C70.3463 89.368 70.4063 89.192 70.5263 89.072C70.6463 88.944 70.8103 88.88 71.0183 88.88C71.2343 88.88 71.3983 88.948 71.5103 89.084C71.6303 89.212 71.6903 89.384 71.6903 89.6C71.6903 89.816 71.6303 89.992 71.5103 90.128C71.3983 90.256 71.2343 90.32 71.0183 90.32ZM69.5663 98C68.9263 98 68.3783 97.892 67.9223 97.676C67.4663 97.452 67.1183 97.136 66.8783 96.728C66.6383 96.312 66.5183 95.812 66.5183 95.228C66.5183 94.596 66.6503 94.052 66.9143 93.596C67.1863 93.14 67.5663 92.792 68.0543 92.552C68.5503 92.304 69.1343 92.18 69.8063 92.18H70.5983V91.424H71.6183V97.064H72.9863C73.0263 97.064 73.0463 97.08 73.0463 97.112V97.94C73.0463 97.98 73.0263 98 72.9863 98H69.5663ZM70.5983 97.064V93.116H69.8423C69.1223 93.116 68.5663 93.3 68.1743 93.668C67.7823 94.036 67.5863 94.552 67.5863 95.216C67.5863 95.816 67.7543 96.276 68.0903 96.596C68.4343 96.908 68.9183 97.064 69.5423 97.064H70.5983ZM74.3379 100.4C74.1539 100.4 73.9939 100.344 73.8579 100.232C73.7299 100.12 73.6659 99.936 73.6659 99.68C73.6659 99.424 73.7299 99.24 73.8579 99.128C73.9939 99.016 74.1539 98.96 74.3379 98.96C74.5459 98.96 74.7099 99.02 74.8299 99.14C74.9499 99.268 75.0099 99.448 75.0099 99.68C75.0099 99.912 74.9499 100.088 74.8299 100.208C74.7099 100.336 74.5459 100.4 74.3379 100.4ZM76.4139 100.4C76.2059 100.4 76.0419 100.336 75.9219 100.208C75.8019 100.088 75.7419 99.912 75.7419 99.68C75.7419 99.448 75.8019 99.268 75.9219 99.14C76.0419 99.02 76.2059 98.96 76.4139 98.96C76.6299 98.96 76.7939 99.024 76.9059 99.152C77.0259 99.288 77.0859 99.464 77.0859 99.68C77.0859 99.896 77.0259 100.068 76.9059 100.196C76.7939 100.332 76.6299 100.4 76.4139 100.4ZM72.8619 98C72.8219 98 72.8019 97.98 72.8019 97.94V97.112C72.8019 97.08 72.8219 97.064 72.8619 97.064H74.8059V92.18H75.8739V97.064H77.6739C77.7139 97.064 77.7339 97.08 77.7339 97.112V97.94C77.7339 97.98 77.7139 98 77.6739 98H72.8619ZM79.0374 97.064C78.8854 96.672 78.7734 96.308 78.7014 95.972C78.6294 95.628 78.5934 95.308 78.5934 95.012C78.5934 94.66 78.6294 94.324 78.7014 94.004C78.7734 93.684 78.8814 93.384 79.0254 93.104C79.3214 92.856 79.6574 92.66 80.0334 92.516C80.4174 92.372 80.8134 92.3 81.2214 92.3C81.4694 92.3 81.7014 92.328 81.9174 92.384C82.1414 92.44 82.3494 92.52 82.5414 92.624C82.9174 92.848 83.2054 93.164 83.4054 93.572C83.6134 93.98 83.7174 94.44 83.7174 94.952C83.7174 95.208 83.6974 95.456 83.6574 95.696C83.6174 95.928 83.5534 96.152 83.4654 96.368C83.6334 96.624 83.8214 96.804 84.0294 96.908C84.2454 97.012 84.5294 97.064 84.8814 97.064H84.9414C84.9814 97.064 85.0014 97.08 85.0014 97.112V97.94C85.0014 97.98 84.9814 98 84.9414 98H84.8814C84.4574 98 84.0934 97.944 83.7894 97.832C83.4934 97.712 83.2054 97.508 82.9254 97.22C82.6694 97.484 82.3734 97.68 82.0374 97.808C81.7014 97.936 81.3494 98 80.9814 98H77.5494C77.5094 98 77.4894 97.98 77.4894 97.94V97.112C77.4894 97.08 77.5094 97.064 77.5494 97.064H79.0374ZM79.6734 94.808C79.6734 95.176 79.7054 95.54 79.7694 95.9C79.8334 96.26 79.9534 96.648 80.1294 97.064H80.9814C81.3414 97.064 81.6414 96.984 81.8814 96.824C82.1294 96.656 82.3174 96.416 82.4454 96.104C82.5734 95.784 82.6374 95.396 82.6374 94.94C82.6374 94.436 82.4974 94.024 82.2174 93.704C81.9454 93.384 81.6134 93.224 81.2214 93.224C80.9654 93.224 80.7134 93.272 80.4654 93.368C80.2254 93.456 80.0094 93.572 79.8174 93.716C79.7534 93.884 79.7134 94.056 79.6974 94.232C79.6814 94.408 79.6734 94.6 79.6734 94.808ZM92.6507 98C92.2907 98 91.9587 97.94 91.6547 97.82C91.3507 97.7 91.0387 97.48 90.7187 97.16C90.5427 97.408 90.3067 97.612 90.0107 97.772C89.7227 97.924 89.3747 98 88.9667 98H84.8267C84.7867 98 84.7667 97.98 84.7667 97.94V97.112C84.7667 97.08 84.7867 97.064 84.8267 97.064H86.5427V93.116H87.5627V97.064H88.8587C89.2427 97.064 89.5427 96.936 89.7587 96.68C89.9747 96.424 90.0827 96.088 90.0827 95.672V93.116H91.1027V95.732C91.1027 95.796 91.0987 95.864 91.0907 95.936C91.0907 96 91.0907 96.064 91.0907 96.128C91.2907 96.472 91.5067 96.716 91.7387 96.86C91.9787 96.996 92.2827 97.064 92.6507 97.064H93.3827V92.18H94.4027V98H92.6507ZM98.3019 98V98.288C98.3019 98.824 98.2179 99.284 98.0499 99.668C97.8899 100.06 97.6499 100.36 97.3299 100.568C97.0099 100.776 96.6219 100.88 96.1659 100.88C95.9739 100.88 95.7739 100.852 95.5659 100.796C95.3659 100.74 95.1579 100.656 94.9419 100.544L95.2539 99.74C95.4459 99.828 95.6059 99.884 95.7339 99.908C95.8619 99.932 95.9979 99.944 96.1419 99.944C96.5019 99.944 96.7819 99.796 96.9819 99.5C97.1899 99.212 97.2939 98.828 97.2939 98.348V92.18H98.3019V97.064H99.7899C99.8299 97.064 99.8499 97.08 99.8499 97.112V97.94C99.8499 97.98 99.8299 98 99.7899 98H98.3019ZM99.6744 98C99.6344 98 99.6144 97.98 99.6144 97.94V97.112C99.6144 97.08 99.6344 97.064 99.6744 97.064H101.258V88.88H102.326V98H99.6744ZM104.731 88.88H105.799V98H104.731V88.88Z" fill="#4C3D8F"/>
<g clip-path="url(#clip1_384_1832)">
<mask id="mask0_384_1832" style="mask-type:luminance" maskUnits="userSpaceOnUse" x="120" y="73" width="19" height="19">
<path d="M139 73H120V92H139V73Z" fill="white"/>
</mask>
<g mask="url(#mask0_384_1832)">
<path d="M127.893 81.2019C127.893 81.471 128.114 81.6927 128.384 81.6927C128.384 81.6927 129.231 81.6927 129.563 81.6848C130.774 81.661 131.645 80.6081 131.645 79.1752C131.645 77.671 130.79 76.6577 129.516 76.6577H128.376C128.099 76.6577 127.885 76.8794 127.885 77.1565V81.2019H127.893ZM129.531 77.6552C130.371 77.6552 130.671 78.4469 130.671 79.1831C130.671 79.9194 130.331 80.6873 129.563 80.7031C129.405 80.7031 129.136 80.7031 128.898 80.7031V77.6552H129.539H129.531Z" fill="#4C3D8E"/>
<path d="M123.262 77.0929V81.2571C123.262 81.5341 123.483 81.7479 123.753 81.7479C124.022 81.7479 124.243 81.5262 124.243 81.2571V79.9429H124.908C125.835 79.9429 126.579 79.1987 126.579 78.2725C126.579 77.3462 125.835 76.6021 124.908 76.6021H123.745C123.713 76.6021 123.531 76.6021 123.396 76.7525C123.262 76.895 123.254 77.0612 123.254 77.0929H123.262ZM124.908 78.9533H124.251V77.5916H124.908C125.281 77.5916 125.589 77.8925 125.589 78.2725C125.589 78.6446 125.281 78.9533 124.908 78.9533Z" fill="#4C3D8E"/>
<path d="M135.042 73H123.958C121.773 73 120 74.7733 120 76.9583V88.0417C120 90.2267 121.773 92 123.958 92H132.936C133.989 92 134.994 91.5883 135.738 90.8442L137.844 88.7383C138.588 87.9942 139.008 86.9888 139 85.9438V76.9583C139 74.7733 137.227 73 135.042 73ZM121.583 88.0417V76.9583C121.583 75.6442 122.644 74.5833 123.958 74.5833H135.042C136.356 74.5833 137.417 75.6442 137.417 76.9583V84.875H134.25C132.936 84.875 131.875 85.9358 131.875 87.25V90.4167H123.958C122.644 90.4167 121.583 89.3558 121.583 88.0417ZM134.614 89.72C134.297 90.0367 133.894 90.2583 133.458 90.3533V87.25C133.458 86.8146 133.815 86.4583 134.25 86.4583H137.361C137.266 86.8938 137.045 87.2975 136.728 87.6142L134.622 89.72H134.614Z" fill="#4C3D8E"/>
</g>
<path d="M133.956 79.6897V81.1147C133.956 81.2493 133.901 81.368 133.814 81.463C133.719 81.558 133.592 81.6055 133.465 81.6055C133.339 81.6055 133.212 81.5501 133.117 81.463C133.022 81.368 132.975 81.2413 132.975 81.1147V77.3068C132.975 77.1722 133.03 77.0534 133.117 76.9584C133.212 76.8634 133.339 76.8159 133.465 76.8159H135.057C135.191 76.8159 135.31 76.8713 135.405 76.9584C135.5 77.0534 135.548 77.1801 135.548 77.3068C135.548 77.4334 135.492 77.5601 135.405 77.6551C135.31 77.7501 135.183 77.7976 135.057 77.7976H133.956V78.7001H134.938C135.073 78.7001 135.191 78.7555 135.286 78.8426C135.381 78.9376 135.429 79.0643 135.429 79.1909C135.429 79.3176 135.373 79.4443 135.286 79.5393C135.191 79.6343 135.065 79.6818 134.938 79.6818H133.956V79.6897Z" fill="#4C3D8E"/>
</g>
</g>
<defs>
<filter id="filter0_d_384_1832" x="4" y="4" width="157" height="117" filterUnits="userSpaceOnUse" color-interpolation-filters="sRGB">
<feFlood flood-opacity="0" result="BackgroundImageFix"/>
<feColorMatrix in="SourceAlpha" type="matrix" values="0 0 0 0 0 0 0 0 0 0 0 0 0 0 0 0 0 0 127 0" result="hardAlpha"/>
<feOffset dy="4"/>
<feGaussianBlur stdDeviation="2"/>
<feComposite in2="hardAlpha" operator="out"/>
<feColorMatrix type="matrix" values="0 0 0 0 0 0 0 0 0 0 0 0 0 0 0 0 0 0 0.25 0"/>
<feBlend mode="normal" in2="BackgroundImageFix" result="effect1_dropShadow_384_1832"/>
<feBlend mode="normal" in="SourceGraphic" in2="effect1_dropShadow_384_1832" result="shape"/>
</filter>
<filter id="filter1_d_384_1832" x="0" y="0" width="165" height="125" filterUnits="userSpaceOnUse" color-interpolation-filters="sRGB">
<feFlood flood-opacity="0" result="BackgroundImageFix"/>
<feColorMatrix in="SourceAlpha" type="matrix" values="0 0 0 0 0 0 0 0 0 0 0 0 0 0 0 0 0 0 127 0" result="hardAlpha"/>
<feOffset dy="4"/>
<feGaussianBlur stdDeviation="4"/>
<feColorMatrix type="matrix" values="0 0 0 0 0.298039 0 0 0 0 0.239216 0 0 0 0 0.560784 0 0 0 0.12 0"/>
<feBlend mode="normal" in2="BackgroundImageFix" result="effect1_dropShadow_384_1832"/>
<feBlend mode="normal" in="SourceGraphic" in2="effect1_dropShadow_384_1832" result="shape"/>
</filter>
<clipPath id="clip0_384_1832">
<rect width="19" height="19" fill="white" transform="translate(120 21)"/>
</clipPath>
<clipPath id="clip1_384_1832">
<rect width="19" height="19" fill="white" transform="translate(120 73)"/>
</clipPath>
</defs>
</svg>
