<svg width="58" height="75" viewBox="0 0 58 75" fill="none" xmlns="http://www.w3.org/2000/svg">
<g clip-path="url(#clip0_2258_29804)">
<g opacity="0.99">
<path d="M10.821 72.4072H8.97063L9.34391 63.395C9.37591 62.6091 8.736 61.9541 7.93611 61.9541C7.18422 61.9541 6.5603 62.5409 6.52831 63.2797L6.1497 72.1137V72.4072H4.43794C3.95267 72.4072 3.72337 72.1819 3.75003 71.7312L4.10198 63.4002C4.13398 62.6143 3.49407 61.9593 2.69418 61.9593C1.94229 61.9593 1.31837 62.5409 1.28638 63.285L0.913097 71.8413C0.886434 72.7582 1.04108 73.4865 1.37703 74.0314C1.71298 74.5711 2.29424 74.8436 3.12079 74.8436H12.7621C13.5087 74.8436 14.1166 74.2672 14.1539 73.5389L14.6338 63.4055C14.6712 62.6195 14.0313 61.9593 13.226 61.9593H13.2154C12.4635 61.9593 11.8396 62.5409 11.8076 63.285L11.4396 71.8308C11.4236 72.1557 11.1517 72.4124 10.821 72.4124V72.4072Z" fill="white"/>
<path d="M26.2209 64.228C26.0503 63.7565 25.773 63.3373 25.3837 62.9601C24.9997 62.5828 24.4878 62.2841 23.8479 62.0588C23.208 61.8335 22.4348 61.7183 21.5122 61.7183C20.5897 61.7183 19.8005 61.8283 19.1712 62.0588C18.542 62.2841 18.0301 62.5828 17.6461 62.9601C17.2568 63.3321 16.9795 63.7565 16.8089 64.228C16.6382 64.6996 16.5529 65.1817 16.5529 65.6689L16.377 70.9924C16.377 71.4797 16.4623 71.9617 16.6329 72.4333C16.8036 72.9049 17.0809 73.3293 17.4701 73.7013C17.8594 74.0785 18.366 74.3772 18.9953 74.6025C19.6245 74.8278 20.4084 74.9431 21.3363 74.9431C22.2641 74.9431 23.032 74.833 23.6719 74.6025C24.3065 74.3772 24.8184 74.0785 25.2077 73.7013C25.5917 73.3293 25.8743 72.9049 26.0449 72.4333C26.2156 71.9617 26.3009 71.4797 26.3009 70.9924L26.4769 65.6689C26.4769 65.1817 26.3915 64.6996 26.2209 64.228ZM23.464 70.7409C23.464 71.2439 23.2986 71.6316 22.9627 71.9041C22.6267 72.1766 22.0882 72.3075 21.3363 72.3075C20.5844 72.3075 20.0458 72.1713 19.7098 71.9041C19.3739 71.6316 19.2086 71.2439 19.2086 70.7409L19.3845 65.9257C19.3845 65.4227 19.5498 65.0245 19.8858 64.7363C20.2217 64.4429 20.7603 64.3014 21.5122 64.3014C22.2641 64.3014 22.8027 64.4429 23.1387 64.7363C23.4746 65.0245 23.6399 65.4227 23.6399 65.9257L23.464 70.7409Z" fill="white"/>
<path d="M36.1884 68.7552C35.9377 68.4513 35.5645 68.1893 35.0632 67.964C34.5619 67.7387 33.8954 67.5134 33.0528 67.2986C32.5942 67.1833 32.2263 67.089 31.949 67.0157C31.6717 66.9475 31.4584 66.8585 31.3091 66.7642C31.1597 66.6698 31.0584 66.5388 31.0051 66.3764C30.9518 66.214 30.9251 65.9939 30.9251 65.711C30.9251 65.2342 31.0371 64.925 31.2717 64.7836C31.501 64.6421 31.9223 64.5687 32.5409 64.5687H35.1912C35.8898 64.5687 36.4657 64.0291 36.4977 63.3427C36.5297 62.6091 35.9377 61.9961 35.1912 61.9961H32.5036C31.8317 61.9961 31.2184 62.0747 30.6638 62.2371C30.1039 62.3995 29.6293 62.6301 29.2347 62.9235C28.8401 63.2222 28.5308 63.5837 28.3122 64.0186C28.0882 64.4535 27.9762 64.9355 27.9762 65.4804C27.9762 66.1249 28.0295 66.6751 28.1415 67.1257C28.2535 67.5763 28.4455 67.9588 28.7228 68.2679C29.0001 68.5771 29.368 68.8338 29.8373 69.0434C30.3012 69.2477 30.8985 69.4259 31.6184 69.5674C32.0503 69.6564 32.4076 69.7507 32.6902 69.8398C32.9728 69.9289 33.1968 70.0337 33.3568 70.1489C33.5168 70.2642 33.6341 70.4057 33.7034 70.5734C33.7727 70.741 33.8047 70.9401 33.8047 71.1707C33.8047 71.6213 33.6821 71.9199 33.4314 72.0614C33.1808 72.2029 32.7062 72.2762 32.013 72.2762H29.128C28.4295 72.2762 27.8535 72.8159 27.8216 73.5076C27.7896 74.2411 28.3815 74.8541 29.128 74.8541H31.9703C35.1752 74.8541 36.775 73.6857 36.775 71.3541C36.775 70.7725 36.7376 70.2747 36.6683 69.8555C36.599 69.4364 36.4337 69.0748 36.1884 68.7709V68.7552Z" fill="white"/>
<path d="M47.8074 64.228C47.6367 63.7565 47.3594 63.3373 46.9702 62.9601C46.5809 62.5828 46.0689 62.2841 45.4344 62.0588C44.7998 61.8335 44.0212 61.7183 43.104 61.7183C42.1868 61.7183 41.3923 61.8283 40.763 62.0588C40.1338 62.2841 39.6219 62.5828 39.2379 62.9601C38.8486 63.3321 38.5713 63.7565 38.4007 64.228C38.23 64.6996 38.1447 65.1817 38.1447 65.6689L37.9688 70.9924C37.9688 71.4797 38.0541 71.9617 38.2247 72.4333C38.3954 72.9049 38.6727 73.3293 39.0619 73.7013C39.4512 74.0785 39.9578 74.3772 40.5871 74.6025C41.2163 74.8278 41.9949 74.9431 42.9281 74.9431C43.8613 74.9431 44.6238 74.833 45.2637 74.6025C45.8983 74.3772 46.4102 74.0785 46.7995 73.7013C47.1888 73.3293 47.4661 72.9049 47.6367 72.4333C47.8074 71.9617 47.8927 71.4797 47.8927 70.9924L48.0687 65.6689C48.0687 65.1817 47.9833 64.6996 47.8127 64.228H47.8074ZM45.0504 70.7409C45.0504 71.2439 44.8851 71.6316 44.5492 71.9041C44.2132 72.1766 43.6746 72.3075 42.9227 72.3075C42.1708 72.3075 41.6322 72.1713 41.2963 71.9041C40.9603 71.6316 40.795 71.2439 40.795 70.7409L40.971 65.9257C40.971 65.4227 41.1363 65.0245 41.4723 64.7363C41.8082 64.4429 42.3468 64.3014 43.0987 64.3014C43.8506 64.3014 44.3892 64.4429 44.7251 64.7363C45.0611 65.0245 45.2264 65.4227 45.2264 65.9257L45.0504 70.7409Z" fill="white"/>
<path d="M52.649 72.2711L52.937 63.3846C52.9637 62.6039 52.3237 61.9595 51.5292 61.9595C50.772 61.9595 50.1481 62.5515 50.1214 63.2956L49.7641 73.8849C49.7481 74.4088 50.1747 74.8437 50.708 74.8437H56.5632C57.2671 74.8437 57.843 74.2988 57.8696 73.6072C57.8963 72.8789 57.3044 72.2711 56.5632 72.2711H52.6437H52.649Z" fill="white"/>
<path d="M57.9131 47.8543C57.9078 47.0107 57.7692 46.2981 57.5079 45.706C57.2466 45.114 56.82 44.6581 56.2334 44.3385C55.6468 44.0189 54.8256 43.8564 53.7644 43.8564H53.1991C52.6339 43.8564 52.0526 43.9246 51.4607 44.0555C50.8688 44.1865 50.3302 44.4171 49.8503 44.7524C49.3703 45.0878 48.9811 45.5488 48.6771 46.1304C48.3732 46.7173 48.2238 47.4718 48.2238 48.3992L48.1172 50.5789C48.1172 51.019 48.1492 51.4225 48.2078 51.784C48.2665 52.1455 48.3785 52.4599 48.5438 52.7114C48.7091 52.9682 48.9437 53.1673 49.2424 53.3087C49.541 53.4502 49.9356 53.5236 50.4315 53.5236H54.3243C54.223 53.9899 54.0577 54.3671 53.8337 54.6501C53.6098 54.933 53.3165 55.1531 52.9538 55.305C52.5912 55.457 52.154 55.5565 51.6474 55.6037C51.1408 55.6561 50.5488 55.6823 49.8823 55.6823C49.7863 55.6823 49.701 55.6823 49.6156 55.6823C49.541 55.6823 49.4663 55.6823 49.397 55.677C48.9917 55.698 48.6398 55.9181 48.4425 56.2377C48.3305 56.4158 48.2665 56.6307 48.2665 56.856C48.2665 56.9607 48.2825 57.0603 48.3038 57.1599C48.4318 57.6314 48.8424 57.9877 49.349 58.0349C49.3703 58.0349 49.3917 58.0349 49.4077 58.0349C49.7223 58.0558 50.0263 58.0715 50.3249 58.0715C51.3221 58.0715 52.2393 58.0139 53.0658 57.9091C53.8924 57.8043 54.6123 57.5895 55.2309 57.2751C55.8494 56.9607 56.3454 56.5154 56.7186 55.939C57.0973 55.3574 57.3319 54.5924 57.4332 53.6388L57.7532 50.668C57.8705 49.6253 57.9185 48.6874 57.9131 47.8438V47.8543ZM54.9696 49.0122C54.9109 49.51 54.8522 50.0654 54.7989 50.6784H52.1006C51.7967 50.6784 51.578 50.6208 51.4501 50.4898C51.3221 50.3588 51.2528 50.1545 51.2528 49.8715L51.3594 48.0743C51.3594 47.5189 51.5194 47.1417 51.834 46.9373C52.154 46.7382 52.5592 46.6387 53.0552 46.6387H53.7751C54.1963 46.6387 54.495 46.733 54.6763 46.9164C54.8576 47.0998 54.9696 47.3722 55.0016 47.7285C55.0389 48.0848 55.0282 48.5145 54.9696 49.0122Z" fill="white"/>
<path d="M49.6151 55.6874C49.5405 55.6874 49.4658 55.6874 49.3965 55.6821C49.4178 55.6821 49.4445 55.6821 49.4711 55.6821C49.5191 55.6821 49.5725 55.6821 49.6151 55.6926V55.6874Z" fill="white"/>
<path d="M46.6556 47.5345C46.5756 46.7014 46.373 46.0097 46.053 45.4596C45.7331 44.9146 45.2585 44.5007 44.6345 44.223C44.0106 43.9453 43.1894 43.8091 42.1762 43.8091H40.7204C40.0699 43.8091 39.4139 43.9191 38.7634 44.1235C38.1128 44.3278 37.4942 44.6265 36.913 45.0142C36.7957 44.5636 36.481 44.1916 36.0651 43.9925C35.8571 43.8929 35.6278 43.8405 35.3825 43.8405C34.9186 43.8405 34.5026 44.0396 34.2093 44.3488C33.98 44.6003 33.8307 44.9199 33.8041 45.2762V45.3652V45.3914L33.5374 50.7044H23.8695H23.0696C23.1869 49.667 23.2349 48.7238 23.2296 47.8803C23.2189 47.0367 23.0856 46.3241 22.8243 45.732C22.563 45.1399 22.1364 44.6841 21.5498 44.3645C20.9632 44.0449 20.1367 43.8824 19.0808 43.8877H18.5155C17.9503 43.8877 17.369 43.9558 16.7771 44.0868C16.1799 44.2178 15.6466 44.4483 15.1667 44.7836C14.6868 45.119 14.2975 45.5801 13.9935 46.1669C13.6896 46.7485 13.5402 47.5083 13.5402 48.4357L13.4336 50.6154C13.4336 51.0555 13.4656 51.4589 13.5242 51.8257C13.5829 52.1872 13.6949 52.4964 13.8655 52.7531C14.0308 53.0099 14.2655 53.209 14.5641 53.3504C14.8627 53.4919 15.2573 53.5653 15.7479 53.5653H19.6407C19.5394 54.0263 19.3741 54.4088 19.1501 54.6918C18.9262 54.9747 18.6329 55.1948 18.2702 55.3467C17.9076 55.4987 17.4757 55.5982 16.9638 55.6506C16.4572 55.703 15.8653 55.724 15.1987 55.7292C15.1187 55.7292 15.044 55.7292 14.9694 55.7292C14.8734 55.7292 14.7774 55.7292 14.6921 55.724C14.2868 55.7554 13.9402 55.9912 13.7482 56.3213C13.6469 56.4942 13.5936 56.6933 13.5936 56.9081C13.5936 56.9972 13.6042 57.0863 13.6256 57.1701C13.7376 57.6574 14.1588 58.0347 14.6761 58.0871C14.6974 58.0871 14.7187 58.0871 14.7401 58.0871C15.0494 58.108 15.348 58.1237 15.6413 58.1237C16.6438 58.1237 17.5557 58.0661 18.3822 57.9613C19.2088 57.8513 19.9287 57.6417 20.5473 57.3273C21.1658 57.0129 21.6618 56.5676 22.0351 55.9912C22.4083 55.4149 22.6483 54.6446 22.7496 53.691V53.5653H24.4454L45.925 53.5443H46.101C46.3463 53.5076 46.533 53.3138 46.5703 53.0727C46.5703 53.0727 46.5703 53.0413 46.5703 53.0256C46.5703 53.0151 46.5703 53.0046 46.5703 52.9994C46.5703 52.9575 46.5756 52.9155 46.5809 52.8736C46.6023 52.5959 46.6183 52.3078 46.6343 52.0091C46.6503 51.7104 46.6556 51.4223 46.6663 51.1446C46.6716 50.8669 46.6823 50.6416 46.6983 50.4686C46.7516 49.3578 46.7409 48.3833 46.6609 47.5502L46.6556 47.5345ZM20.2753 49.0487C20.2166 49.5465 20.158 50.1019 20.1047 50.7149H17.4064C17.1024 50.7149 16.8838 50.6573 16.7558 50.5263C16.6278 50.3953 16.5585 50.1909 16.5585 49.908L16.6651 48.1108C16.6651 47.5554 16.8198 47.1782 17.1397 46.9791C17.4597 46.7799 17.865 46.6804 18.3609 46.6804H19.0808C19.5021 46.6804 19.8007 46.7695 19.982 46.9581C20.1633 47.1415 20.2753 47.4139 20.3073 47.7702C20.3446 48.1265 20.334 48.5562 20.2753 49.0539V49.0487ZM43.7547 50.6939L36.641 50.7044L36.7903 47.4978C36.9076 47.3249 37.0569 47.1886 37.2436 47.0786C37.4302 46.9738 37.6435 46.8847 37.8728 46.8219C38.1021 46.759 38.3368 46.7118 38.5661 46.6909C38.7954 46.6699 39.014 46.6542 39.2166 46.6542H42.1762C42.5975 46.6542 42.9228 46.7485 43.1574 46.9476C43.3867 47.1467 43.5574 47.4192 43.6587 47.7702C43.76 48.1213 43.8133 48.5457 43.8133 49.0435C43.8133 49.5412 43.792 50.0914 43.7493 50.6887L43.7547 50.6939Z" fill="white"/>
<path d="M14.9648 55.724C14.8688 55.724 14.7728 55.724 14.6875 55.7188C14.7195 55.7188 14.7568 55.7188 14.7888 55.7188C14.8475 55.7188 14.9061 55.7188 14.9648 55.7292V55.724Z" fill="white"/>
<path d="M54.5276 36.6466C54.3676 36.4894 54.197 36.3794 54.0157 36.3165C53.8344 36.2536 53.6477 36.2169 53.4611 36.2222C53.0825 36.2222 52.7412 36.3479 52.4426 36.5994C52.1386 36.8509 51.9733 37.1391 51.9413 37.464C51.9146 37.7941 51.952 38.0403 52.0533 38.2132C52.1546 38.3809 52.2719 38.5171 52.3999 38.6167L51.2907 38.9468C51.2907 38.9468 51.2854 38.9468 51.2801 38.9468C51.0827 39.0097 50.9334 39.1826 50.9121 39.3921C50.9121 39.4131 50.9121 39.4341 50.9121 39.4498C50.9121 39.586 50.9654 39.7065 51.0508 39.8008C51.1467 39.9109 51.2907 39.979 51.4507 39.979C51.4987 39.979 51.5467 39.9737 51.5947 39.958L51.6267 39.9475L53.1945 39.4865C53.6584 39.345 54.0743 39.1249 54.4423 38.8315C54.8102 38.5381 54.9969 38.1504 54.9969 37.6683C54.9969 37.3277 54.8422 36.9819 54.5383 36.6413L54.5276 36.6466ZM53.7437 37.8989C53.7011 37.9617 53.6477 38.0194 53.5784 38.0613C53.5144 38.1032 53.4557 38.1399 53.4131 38.1713C53.3384 38.1137 53.2584 38.0456 53.1625 37.9565C53.0665 37.8727 53.0291 37.7521 53.0398 37.595C53.0558 37.4378 53.1411 37.333 53.3011 37.2753C53.4611 37.2177 53.5997 37.2701 53.7117 37.422C53.7864 37.5216 53.8184 37.6107 53.813 37.6893C53.8077 37.7679 53.781 37.836 53.7384 37.9041L53.7437 37.8989Z" fill="white"/>
<path d="M46.0959 53.5337C46.0639 53.5337 46.0372 53.5389 46.0052 53.5389C45.9732 53.5389 45.9466 53.5389 45.9199 53.5337H46.0959Z" fill="white"/>
<path d="M10.5444 38.7632C10.5071 38.7632 10.4698 38.7632 10.4325 38.7632C10.1818 38.7632 9.94186 38.8208 9.73389 38.9256C9.23796 39.1666 8.89134 39.6592 8.85935 40.2303C8.85935 40.2565 8.85935 40.2879 8.85935 40.3141L8.44341 53.5861V54.1205C8.44341 54.6183 8.29943 55.0008 8.01147 55.2628C7.72351 55.53 7.29157 55.661 6.72632 55.661C6.16106 55.661 5.74512 55.53 5.47849 55.268C5.21186 55.006 5.07321 54.6235 5.07321 54.1258L5.23852 49.0381V48.9543C5.23852 48.9543 5.23852 48.9176 5.23852 48.8966C5.23852 48.8704 5.23852 48.839 5.23852 48.8128C5.23852 48.7918 5.23852 48.7709 5.23852 48.7551C5.23852 48.7342 5.23852 48.7132 5.23319 48.6975C5.23319 48.6713 5.22253 48.6451 5.21719 48.6189C5.21186 48.5822 5.2012 48.5403 5.19053 48.5036C5.17987 48.4565 5.16387 48.4146 5.14787 48.3727C5.13721 48.3517 5.13187 48.3307 5.12121 48.3045C5.09988 48.2574 5.07855 48.2102 5.05188 48.1631C5.04122 48.1421 5.03055 48.1212 5.01456 48.1054C5.00389 48.0845 4.99323 48.0688 4.97723 48.0478C4.96656 48.0268 4.9559 48.0111 4.9399 47.9954C4.93457 47.9849 4.9239 47.9797 4.91857 47.9692C4.9079 47.9535 4.89724 47.943 4.88657 47.9273C4.88657 47.922 4.87591 47.9168 4.87058 47.9063C4.85991 47.8959 4.84925 47.8854 4.84391 47.8749C4.83325 47.8644 4.82258 47.8539 4.81192 47.8435C4.79592 47.8277 4.77992 47.812 4.76392 47.7963C4.75326 47.7806 4.73726 47.7701 4.7266 47.7596C4.68927 47.7282 4.64661 47.6967 4.60395 47.6653C4.60395 47.6653 4.60395 47.6653 4.59861 47.6653C4.59861 47.6653 4.59328 47.6601 4.58795 47.6548C4.57728 47.6496 4.56662 47.6391 4.55595 47.6339C4.53462 47.6234 4.51863 47.6077 4.49729 47.5972C4.43864 47.5605 4.37465 47.5343 4.30532 47.5029C4.27333 47.4872 4.236 47.4767 4.19867 47.461C4.17734 47.4557 4.15601 47.4505 4.14001 47.44C4.11868 47.44 4.10268 47.4295 4.08135 47.4243C4.01736 47.4086 3.9587 47.3981 3.88938 47.3876C3.82539 47.3824 3.7614 47.3771 3.69741 47.3771C3.47877 47.3771 3.27613 47.419 3.08949 47.4976C2.57756 47.7125 2.20428 48.1893 2.14562 48.7551C2.14562 48.7761 2.14562 48.7918 2.14029 48.8128C2.14029 48.8442 2.14029 48.8757 2.14029 48.9123C2.14029 48.9123 2.14029 48.9543 2.14029 48.97L1.95898 54.0629C1.95898 54.6026 2.03364 55.1265 2.17762 55.6243C2.3216 56.1221 2.57756 56.5727 2.94018 56.9709C3.3028 57.3691 3.79339 57.6887 4.40664 57.9193C5.02522 58.155 5.80378 58.2703 6.74765 58.2703C7.69151 58.2703 8.4754 58.1498 9.09932 57.914C9.72323 57.6782 10.2192 57.3586 10.5871 56.9604C10.9551 56.5622 11.2164 56.1116 11.3657 55.6138C11.5203 55.1161 11.5896 54.5921 11.5896 54.0524V53.6018L11.9789 40.7123L12.0002 40.0521C11.8723 39.371 11.2857 38.8418 10.5658 38.7946L10.5444 38.7632Z" fill="white"/>
<path d="M24.2801 16.5888C23.8908 16.5888 23.5762 16.2797 23.5762 15.8972C23.5762 15.5147 23.8908 15.2056 24.2801 15.2056C24.6694 15.2056 24.984 15.5147 24.984 15.8972C24.984 16.2797 24.6694 16.5888 24.2801 16.5888Z" fill="white"/>
<path d="M21.6889 12.3289C21.0063 12.3289 20.457 11.784 20.457 11.1186C20.457 10.4531 21.0116 9.9082 21.6889 9.9082C22.3661 9.9082 22.9207 10.4531 22.9207 11.1186C22.9207 11.784 22.3661 12.3289 21.6889 12.3289Z" fill="white"/>
<path d="M23.0423 7.41387C22.1304 7.41387 21.3945 6.6908 21.3945 5.79483C21.3945 4.89885 22.1304 4.17578 23.0423 4.17578C23.9542 4.17578 24.6901 4.89885 24.6901 5.79483C24.6901 6.6908 23.9542 7.41387 23.0423 7.41387Z" fill="white"/>
<path d="M27.4796 4.38059C26.4077 4.38059 25.5332 3.52653 25.5332 2.46813C25.5332 1.40972 26.4024 0.555664 27.4796 0.555664C28.5568 0.555664 29.426 1.40972 29.426 2.46813C29.426 3.52653 28.5568 4.38059 27.4796 4.38059Z" fill="white"/>
<path d="M33.0991 4.2441C31.9047 4.2441 30.9395 3.29572 30.9395 2.12205C30.9395 0.948372 31.9047 0 33.0991 0C34.2936 0 35.2588 0.948372 35.2588 2.12205C35.2588 3.29572 34.2936 4.2441 33.0991 4.2441Z" fill="white"/>
<path d="M38.2137 6.71739C36.9285 6.71739 35.8887 5.69566 35.8887 4.43291C35.8887 3.17016 36.9285 2.14844 38.2137 2.14844C39.4988 2.14844 40.5387 3.17016 40.5387 4.43291C40.5387 5.69566 39.4988 6.71739 38.2137 6.71739Z" fill="white"/>
<path d="M41.6111 11.1969C42.9335 11.1969 44.0055 10.1436 44.0055 8.84429C44.0055 7.54499 42.9335 6.4917 41.6111 6.4917C40.2888 6.4917 39.2168 7.54499 39.2168 8.84429C39.2168 10.1436 40.2888 11.1969 41.6111 11.1969Z" fill="white"/>
<path d="M42.7044 16.6566C41.3819 16.6566 40.3047 15.6034 40.3047 14.2987C40.3047 12.9941 41.3765 11.9409 42.7044 11.9409C44.0322 11.9409 45.104 12.9941 45.104 14.2987C45.104 15.6034 44.0322 16.6566 42.7044 16.6566Z" fill="white"/>
<path d="M41.7497 22.0694C40.4593 22.0694 39.4141 21.0424 39.4141 19.7744C39.4141 18.5065 40.4593 17.4795 41.7497 17.4795C43.0402 17.4795 44.0854 18.5065 44.0854 19.7744C44.0854 21.0424 43.0402 22.0694 41.7497 22.0694Z" fill="white"/>
<path d="M38.8964 26.7062C37.6966 26.7062 36.7207 25.7473 36.7207 24.5684C36.7207 23.3895 37.6966 22.4307 38.8964 22.4307C40.0962 22.4307 41.0721 23.3895 41.0721 24.5684C41.0721 25.7473 40.0962 26.7062 38.8964 26.7062Z" fill="white"/>
<path d="M34.5029 30.0021C33.415 30.0021 32.5352 29.1376 32.5352 28.0687C32.5352 26.9998 33.415 26.1353 34.5029 26.1353C35.5907 26.1353 36.4706 26.9998 36.4706 28.0687C36.4706 29.1376 35.5907 30.0021 34.5029 30.0021Z" fill="white"/>
<path d="M29.1378 31.5061C28.2153 31.5061 27.4688 30.7725 27.4688 29.8661C27.4688 28.9596 28.2153 28.2261 29.1378 28.2261C30.0604 28.2261 30.8069 28.9596 30.8069 29.8661C30.8069 30.7725 30.0604 31.5061 29.1378 31.5061Z" fill="white"/>
<path d="M23.4748 31.3908C24.1728 31.3908 24.7386 30.8348 24.7386 30.149C24.7386 29.4632 24.1728 28.9072 23.4748 28.9072C22.7768 28.9072 22.2109 29.4632 22.2109 30.149C22.2109 30.8348 22.7768 31.3908 23.4748 31.3908Z" fill="white"/>
<path d="M17.9346 29.6983C17.524 29.6983 17.1934 29.3735 17.1934 28.97C17.1934 28.5666 17.524 28.2417 17.9346 28.2417C18.3452 28.2417 18.6758 28.5666 18.6758 28.97C18.6758 29.3735 18.3452 29.6983 17.9346 29.6983Z" fill="white"/>
<path d="M13.7746 27.0206C13.7479 27.0206 13.7266 26.9996 13.7266 26.9734C13.7266 26.9472 13.7479 26.9263 13.7746 26.9263C13.8012 26.9263 13.8225 26.9472 13.8225 26.9734C13.8225 26.9996 13.8012 27.0206 13.7746 27.0206Z" fill="white"/>
</g>
</g>
<defs>
<clipPath id="clip0_2258_29804">
<rect width="57" height="75" fill="white" transform="translate(0.914062)"/>
</clipPath>
</defs>
</svg>
