<svg width="14" height="14" viewBox="0 0 14 14" fill="none" xmlns="http://www.w3.org/2000/svg">
<g clip-path="url(#clip0_1945_43577)">
<path d="M11.0833 0H2.91667C2.1434 0.00092625 1.40208 0.308514 0.855295 0.855295C0.308514 1.40208 0.00092625 2.1434 0 2.91667L0 11.0833C0.00092625 11.8566 0.308514 12.5979 0.855295 13.1447C1.40208 13.6915 2.1434 13.9991 2.91667 14H11.0833C11.8566 13.9991 12.5979 13.6915 13.1447 13.1447C13.6915 12.5979 13.9991 11.8566 14 11.0833V2.91667C13.9991 2.1434 13.6915 1.40208 13.1447 0.855295C12.5979 0.308514 11.8566 0.00092625 11.0833 0V0ZM2.91667 1.16667H11.0833C11.5475 1.16667 11.9926 1.35104 12.3208 1.67923C12.649 2.00742 12.8333 2.45254 12.8333 2.91667V11.0833C12.8323 11.3432 12.7725 11.5995 12.6583 11.8329L7.31325 6.48783C7.0424 6.21691 6.72084 6.00201 6.36692 5.85538C6.013 5.70876 5.63367 5.63329 5.25058 5.63329C4.8675 5.63329 4.48816 5.70876 4.13425 5.85538C3.78033 6.00201 3.45876 6.21691 3.18792 6.48783L1.16667 8.5085V2.91667C1.16667 2.45254 1.35104 2.00742 1.67923 1.67923C2.00742 1.35104 2.45254 1.16667 2.91667 1.16667ZM2.91667 12.8333C2.45254 12.8333 2.00742 12.649 1.67923 12.3208C1.35104 11.9926 1.16667 11.5475 1.16667 11.0833V10.1582L4.01217 7.31267C4.17468 7.15005 4.36765 7.02104 4.58004 6.93302C4.79244 6.84501 5.02009 6.79971 5.25 6.79971C5.47991 6.79971 5.70756 6.84501 5.91996 6.93302C6.13235 7.02104 6.32532 7.15005 6.48783 7.31267L11.8329 12.6583C11.5995 12.7725 11.3432 12.8323 11.0833 12.8333H2.91667Z" fill="#4C3C8D"/>
<path d="M9.33268 6.12484C9.73649 6.12484 10.1312 6.0051 10.467 5.78076C10.8027 5.55641 11.0644 5.23755 11.2189 4.86448C11.3735 4.49142 11.4139 4.08091 11.3351 3.68486C11.2563 3.28882 11.0619 2.92503 10.7764 2.6395C10.4908 2.35396 10.127 2.15951 9.73099 2.08073C9.33495 2.00196 8.92444 2.04239 8.55137 2.19692C8.1783 2.35145 7.85944 2.61313 7.6351 2.94888C7.41076 3.28463 7.29102 3.67937 7.29102 4.08317C7.29102 4.62466 7.50612 5.14396 7.88901 5.52685C8.27189 5.90973 8.7912 6.12484 9.33268 6.12484ZM9.33268 3.20817C9.50574 3.20817 9.67491 3.25949 9.81881 3.35564C9.9627 3.45178 10.0748 3.58844 10.1411 3.74832C10.2073 3.90821 10.2246 4.08414 10.1909 4.25388C10.1571 4.42361 10.0738 4.57952 9.9514 4.70189C9.82903 4.82426 9.67312 4.9076 9.50339 4.94136C9.33365 4.97512 9.15772 4.95779 8.99783 4.89157C8.83795 4.82534 8.70129 4.71319 8.60515 4.5693C8.509 4.4254 8.45768 4.25623 8.45768 4.08317C8.45768 3.85111 8.54987 3.62855 8.71396 3.46445C8.87806 3.30036 9.10062 3.20817 9.33268 3.20817Z" fill="#4C3C8D"/>
</g>
<defs>
<clipPath id="clip0_1945_43577">
<rect width="14" height="14" fill="white"/>
</clipPath>
</defs>
</svg>
