<svg width="24" height="12" viewBox="0 0 24 12" fill="none" xmlns="http://www.w3.org/2000/svg">
<path d="M12.0041 11.672C11.347 11.6731 10.6962 11.5448 10.0888 11.2943C9.48137 11.0438 8.92928 10.676 8.46409 10.212L0.294092 2.04197C0.105788 1.85367 0 1.59827 0 1.33197C0 1.06567 0.105788 0.810276 0.294092 0.621973C0.482395 0.433669 0.73779 0.327881 1.00409 0.327881C1.27039 0.327881 1.52579 0.433669 1.71409 0.621973L9.88409 8.79197C10.4466 9.35378 11.2091 9.66933 12.0041 9.66933C12.7991 9.66933 13.5616 9.35378 14.1241 8.79197L22.2941 0.621973C22.4824 0.433669 22.7378 0.327881 23.0041 0.327881C23.2704 0.327881 23.5258 0.433669 23.7141 0.621973C23.9024 0.810276 24.0082 1.06567 24.0082 1.33197C24.0082 1.59827 23.9024 1.85367 23.7141 2.04197L15.5441 10.212C15.0789 10.676 14.5268 11.0438 13.9194 11.2943C13.312 11.5448 12.6611 11.6731 12.0041 11.672Z" fill="#4C3D8F"/>
</svg>
