<svg width="11" height="13" viewBox="0 0 11 13" fill="none" xmlns="http://www.w3.org/2000/svg">
<path d="M6.57739 9.03447C6.94763 8.75082 7.2197 8.35829 7.35534 7.91203C7.49099 7.46578 7.4834 6.98825 7.33365 6.54653C7.18389 6.10482 6.8995 5.72113 6.52043 5.44938C6.14136 5.17763 5.68667 5.03149 5.22026 5.03149C4.75385 5.03149 4.29916 5.17763 3.92009 5.44938C3.54102 5.72113 3.25662 6.10482 3.10687 6.54653C2.95711 6.98825 2.94953 7.46578 3.08517 7.91203C3.22082 8.35829 3.49288 8.75082 3.86313 9.03447C3.16842 9.29393 2.56312 9.74795 2.11959 10.3423C2.06352 10.417 2.03944 10.511 2.05266 10.6035C2.06587 10.696 2.1153 10.7795 2.19006 10.8356C2.26482 10.8916 2.35879 10.9157 2.4513 10.9025C2.5438 10.8893 2.62728 10.8398 2.68334 10.7651C2.97873 10.3712 3.36175 10.0516 3.80208 9.83142C4.24241 9.61125 4.72795 9.49663 5.22026 9.49663C5.71256 9.49663 6.1981 9.61125 6.63843 9.83142C7.07876 10.0516 7.46179 10.3712 7.75717 10.7651C7.81324 10.8398 7.89671 10.8893 7.98922 10.9025C8.08173 10.9157 8.1757 10.8916 8.25046 10.8356C8.32522 10.7795 8.37464 10.696 8.38786 10.6035C8.40107 10.511 8.377 10.417 8.32093 10.3423C7.8774 9.74795 7.2721 9.29393 6.57739 9.03447ZM5.22026 5.73824C5.52224 5.73824 5.81744 5.82779 6.06853 5.99556C6.31962 6.16334 6.51532 6.4018 6.63088 6.68079C6.74644 6.95979 6.77668 7.26678 6.71776 7.56296C6.65885 7.85914 6.51343 8.1312 6.2999 8.34473C6.08637 8.55827 5.81431 8.70368 5.51813 8.7626C5.22195 8.82151 4.91495 8.79128 4.63596 8.67571C4.35696 8.56015 4.1185 8.36445 3.95073 8.11336C3.78296 7.86227 3.69341 7.56707 3.69341 7.26509C3.69341 6.86015 3.85428 6.47179 4.14061 6.18545C4.42695 5.89911 4.81531 5.73824 5.22026 5.73824ZM9.44845 0.805359H0.99207C0.774022 0.805359 0.564906 0.891978 0.410723 1.04616C0.256541 1.20034 0.169922 1.40946 0.169922 1.62751V11.9631C0.169922 12.1811 0.256541 12.3902 0.410723 12.5444C0.564906 12.6986 0.774022 12.7852 0.99207 12.7852H9.44845C9.66649 12.7852 9.87561 12.6986 10.0298 12.5444C10.184 12.3902 10.2706 12.1811 10.2706 11.9631V1.62751C10.2706 1.40946 10.184 1.20034 10.0298 1.04616C9.87561 0.891978 9.66649 0.805359 9.44845 0.805359ZM9.5659 11.9631C9.5659 11.9942 9.55352 12.0241 9.5315 12.0461C9.50947 12.0682 9.4796 12.0805 9.44845 12.0805H0.99207C0.96092 12.0805 0.931046 12.0682 0.90902 12.0461C0.886994 12.0241 0.87462 11.9942 0.87462 11.9631V1.62751C0.87462 1.59636 0.886994 1.56648 0.90902 1.54446C0.931046 1.52243 0.96092 1.51006 0.99207 1.51006H9.44845C9.4796 1.51006 9.50947 1.52243 9.5315 1.54446C9.55352 1.56648 9.5659 1.59636 9.5659 1.62751V11.9631ZM2.98871 3.0369C2.98871 2.94345 3.02584 2.85383 3.09191 2.78775C3.15799 2.72168 3.24761 2.68455 3.34106 2.68455H7.09945C7.1929 2.68455 7.28252 2.72168 7.3486 2.78775C7.41468 2.85383 7.4518 2.94345 7.4518 3.0369C7.4518 3.13035 7.41468 3.21997 7.3486 3.28605C7.28252 3.35213 7.1929 3.38925 7.09945 3.38925H3.34106C3.24761 3.38925 3.15799 3.35213 3.09191 3.28605C3.02584 3.21997 2.98871 3.13035 2.98871 3.0369Z" fill="white"/>
</svg>
