<svg width="100" height="130" viewBox="0 0 100 130" fill="none" xmlns="http://www.w3.org/2000/svg">
<path d="M27.0115 84.1133L26.7296 49.3555L58.7573 27.6224L59.0647 62.3546L27.0115 84.1133Z" stroke="#F5A053" stroke-width="0.939597"/>
<path d="M14.014 92.8555L-17.1083 113.977V79.0406L14.014 57.8931V92.8555Z" stroke="#F5A053" stroke-width="0.939597"/>
<path d="M-17.1083 59.5914V22.2384L14.014 1.19352V42.4696L-17.0867 63.5685L-17.1083 59.5927V59.5914Z" stroke="#F5A053" stroke-width="0.939597"/>
<path d="M36.6625 144.796L65.23 124.924L101.292 139.062L72.7243 158.908L36.6625 144.796Z" stroke="#F5A053" stroke-width="0.939597"/>
<path d="M50.9702 119.281L22.07 139L-12.9537 125.286L15.9465 105.568L50.9702 119.281Z" stroke="#F5A053" stroke-width="0.939597"/>
<path d="M63.7347 110.559L28.7301 96.8694L31.9976 94.6012L32.0006 94.5991L62.902 73.51L97.8744 87.2487L63.7347 110.559Z" stroke="#F5A053" stroke-width="0.939597"/>
</svg>
