<svg width="284" height="43" viewBox="0 0 284 43" fill="none" xmlns="http://www.w3.org/2000/svg">
<path d="M12.2744 16.5624C12.2744 16.4393 12.3393 16.3745 12.4626 16.3745H14.7404C14.8637 16.3745 14.9286 16.4393 14.9286 16.5624V20.9999C14.9545 21.2979 15.0843 21.5376 15.3309 21.706C15.571 21.8809 15.915 21.9651 16.3498 21.9651H16.7586C17.0052 21.9651 17.1934 22.0493 17.3167 22.2242C17.44 22.3991 17.5049 22.6842 17.5049 23.0793C17.5049 23.8373 17.2583 24.2195 16.7586 24.2195C16.2979 24.2195 15.8955 24.1612 15.5451 24.0511C15.1946 23.9409 14.9026 23.6818 14.669 23.2866C14.4808 23.6624 14.2017 23.9085 13.8383 24.0316C13.4684 24.1547 12.9558 24.2195 12.2938 24.2195H3.00729C2.22205 24.2195 1.66395 24.0316 1.3265 23.6494C0.989041 23.2737 0.820312 22.6777 0.820312 21.8679V17.7479C0.820312 17.6248 0.885208 17.56 1.00851 17.56H3.28634C3.40964 17.56 3.47454 17.6248 3.47454 17.7479V20.974C3.47454 21.3497 3.54592 21.6023 3.68869 21.7449C3.83146 21.8874 4.05859 21.9586 4.37009 21.9586H11.3593C11.7552 21.9586 12.0083 21.8615 12.1186 21.6606C12.2224 21.4598 12.2744 21.097 12.2744 20.5594V16.5494V16.5624ZM6.70633 28.0545C6.58303 28.0545 6.51813 27.9897 6.51813 27.8667V26.0398C6.51813 25.9168 6.58303 25.852 6.70633 25.852H9.02309C9.1464 25.852 9.21129 25.9168 9.21129 26.0398V27.8667C9.21129 27.9897 9.1464 28.0545 9.02309 28.0545H6.70633Z" fill="#2F266D"/>
<path d="M16.7043 24.2263C16.4577 24.2263 16.2695 24.1486 16.1462 23.9931C16.0229 23.8376 15.958 23.5591 15.958 23.1639C15.958 22.3671 16.2046 21.9719 16.7043 21.9719H17.8659C18.1774 21.9719 18.4046 21.9007 18.5473 21.7582C18.6901 21.6157 18.7615 21.3565 18.7615 20.9873V16.5692C18.7615 16.4461 18.8199 16.3813 18.9497 16.3813H21.1951C21.3184 16.3813 21.3833 16.4461 21.3833 16.5692V21.8877C21.3833 22.6975 21.2145 23.2935 20.8836 23.6692C20.5526 24.0514 19.9945 24.2393 19.2158 24.2393H16.7173L16.7043 24.2263ZM17.3987 28.0484C17.2754 28.0484 17.2105 27.9836 17.2105 27.8605V26.0337C17.2105 25.9106 17.2754 25.8458 17.3987 25.8458H19.2677C19.391 25.8458 19.4559 25.9106 19.4559 26.0337V27.8605C19.4559 27.9836 19.391 28.0484 19.2677 28.0484H17.3987ZM20.2736 28.0484C20.1503 28.0484 20.0854 27.9836 20.0854 27.8605V26.0337C20.0854 25.9106 20.1503 25.8458 20.2736 25.8458H22.162C22.2853 25.8458 22.3502 25.9106 22.3502 26.0337V27.8605C22.3502 27.9836 22.2853 28.0484 22.162 28.0484H20.2736Z" fill="#2F266D"/>
<path d="M22.8933 28.0477C22.77 28.0477 22.7051 27.9829 22.7051 27.8598V25.9747C22.7051 25.8516 22.77 25.7868 22.8933 25.7868H23.3021C23.8148 25.7868 24.1782 25.6573 24.3924 25.3981C24.613 25.139 24.7168 24.7374 24.7168 24.2062V16.5555C24.7168 16.4325 24.7817 16.3677 24.905 16.3677H27.1829C27.3062 16.3677 27.3711 16.4325 27.3711 16.5555V24.2969C27.3711 25.5795 27.0725 26.5253 26.4755 27.1343C25.8785 27.7432 24.9699 28.0477 23.7499 28.0477H22.8933Z" fill="#2F266D"/>
<path d="M32.6449 21.972C32.9564 21.972 33.203 21.9526 33.3912 21.9072C33.5794 21.8619 33.7157 21.7906 33.8131 21.6934C33.9104 21.5963 33.9688 21.4667 34.0013 21.3047C34.0337 21.1428 34.0467 20.942 34.0467 20.7088V19.7047C34.0467 19.2188 33.9039 18.869 33.6249 18.6487C33.3458 18.4285 32.924 18.3248 32.3659 18.3248H30.2179C30.0946 18.3248 30.0297 18.26 30.0297 18.137V16.2518C30.0297 16.1287 30.0946 16.064 30.2179 16.064H33.1511C34.3128 16.064 35.2018 16.3166 35.8313 16.8219C36.4608 17.3272 36.7723 18.1953 36.7723 19.4261V20.9744C36.7983 21.2853 36.928 21.5315 37.1746 21.7129C37.4148 21.8943 37.7587 21.9849 38.1935 21.9849H38.6023C38.8489 21.9849 39.0371 22.0692 39.1604 22.2441C39.2837 22.419 39.3486 22.704 39.3486 23.0992C39.3486 23.8571 39.102 24.2393 38.6023 24.2393C38.1027 24.2393 37.6484 24.1681 37.2655 24.032C36.8826 23.896 36.5776 23.6109 36.3375 23.1769C36.1104 23.5721 35.8054 23.8506 35.4095 24.0061C35.0201 24.1616 34.5269 24.2393 33.9429 24.2393H29.4196C29.2963 24.2393 29.2314 24.1745 29.2314 24.0515V22.1663C29.2314 22.0433 29.2963 21.9785 29.4196 21.9785H32.632L32.6449 21.972Z" fill="#2F266D"/>
<path d="M40.7179 16.5622C40.7179 16.4391 40.7763 16.3743 40.9061 16.3743H43.1515C43.2748 16.3743 43.3397 16.4391 43.3397 16.5622V20.9673C43.3656 21.2782 43.4954 21.5244 43.742 21.7058C43.9821 21.8872 44.3261 21.9779 44.7609 21.9779H45.1892C45.4358 21.9779 45.624 22.0621 45.7473 22.237C45.8706 22.4119 45.9355 22.6969 45.9355 23.0921C45.9355 23.85 45.6889 24.2322 45.1892 24.2322C44.6895 24.2322 44.3066 24.1739 43.9562 24.0638C43.6057 23.9537 43.3137 23.6946 43.0801 23.2994C42.8789 23.6946 42.5869 23.9537 42.1975 24.0638C41.8081 24.1739 41.276 24.2322 40.5946 24.2322H38.6672C38.4206 24.2322 38.2324 24.1545 38.1091 23.999C37.9858 23.8435 37.9209 23.552 37.9209 23.131C37.9209 22.7099 37.9793 22.4119 38.0961 22.237C38.2129 22.0621 38.4076 21.9779 38.6672 21.9779H39.8288C40.2247 21.9779 40.4778 21.8612 40.5751 21.6345C40.6725 21.4078 40.7244 21.0126 40.7244 20.449V16.5686L40.7179 16.5622ZM39.6341 14.4892C39.5108 14.4892 39.4459 14.4244 39.4459 14.3013V12.4745C39.4459 12.3514 39.5108 12.2866 39.6341 12.2866H41.5031C41.6264 12.2866 41.6913 12.3514 41.6913 12.4745V14.3013C41.6913 14.4244 41.6264 14.4892 41.5031 14.4892H39.6341ZM42.509 14.4892C42.3857 14.4892 42.3208 14.4244 42.3208 14.3013V12.4745C42.3208 12.3514 42.3857 12.2866 42.509 12.2866H44.3975C44.5208 12.2866 44.5857 12.3514 44.5857 12.4745V14.3013C44.5857 14.4244 44.5208 14.4892 44.3975 14.4892H42.509Z" fill="#2F266D"/>
<path d="M45.2043 24.2256C44.9577 24.2256 44.7695 24.1803 44.6462 24.0961C44.5229 24.0118 44.458 23.8369 44.458 23.5713C44.458 23.4223 44.471 23.2539 44.5034 23.066C44.5359 22.8782 44.5748 22.7033 44.6332 22.5413C44.6916 22.3794 44.763 22.2433 44.8604 22.1332C44.9577 22.0231 45.068 21.9648 45.2043 21.9648H45.8598C46.1712 21.9648 46.3984 21.8935 46.5412 21.751C46.6839 21.6085 46.7553 21.3493 46.7553 20.9801V11.7294C46.7553 11.6063 46.8202 11.5415 46.9435 11.5415H49.2213C49.3446 11.5415 49.4095 11.6063 49.4095 11.7294V21.8741C49.4095 22.6838 49.2408 23.2798 48.9033 23.6555C48.5659 24.0378 48.0078 24.2256 47.2226 24.2256H45.2043Z" fill="#2F266D"/>
<path d="M54.2624 24.0378C54.2624 24.1608 54.1975 24.2256 54.0742 24.2256H51.8288C51.7055 24.2256 51.6406 24.1608 51.6406 24.0378V11.7294C51.6406 11.6063 51.7055 11.5415 51.8288 11.5415H54.0742C54.1975 11.5415 54.2624 11.6063 54.2624 11.7294V24.0378Z" fill="#2F266D"/>
<path d="M58.0216 28.0484C57.8983 28.0484 57.8334 27.9837 57.8334 27.8606V25.9755C57.8334 25.8524 57.8983 25.7876 58.0216 25.7876H60.1696C60.4162 25.7876 60.6434 25.7746 60.8445 25.7422C61.0457 25.7099 61.2144 25.6386 61.3572 25.5285C61.5 25.4183 61.6103 25.2564 61.6947 25.0556C61.7725 24.8483 61.818 24.5762 61.818 24.2264H61.0327C60.2864 24.2264 59.618 24.181 59.021 24.0968C58.4304 24.0126 57.9242 23.8247 57.5089 23.5462C57.0936 23.2676 56.7756 22.8724 56.5549 22.3736C56.3343 21.8683 56.2305 21.1946 56.2305 20.3525C56.2305 19.5557 56.3473 18.8819 56.5744 18.3378C56.8016 17.7936 57.113 17.3466 57.4894 17.0162C57.8723 16.6794 58.3071 16.4397 58.8003 16.2907C59.2935 16.1417 59.7997 16.064 60.3254 16.064C60.851 16.064 61.3961 16.1352 61.8958 16.2713C62.3955 16.4073 62.8303 16.634 63.2067 16.9515C63.5831 17.2689 63.8752 17.6964 64.0958 18.2406C64.3164 18.7848 64.4268 19.452 64.4268 20.2488V24.5956C64.4268 25.7617 64.1282 26.6362 63.5312 27.2063C62.9342 27.7764 62.0062 28.0614 60.7472 28.0614H58.0216V28.0484ZM60.3384 18.3119C59.8257 18.3119 59.4428 18.4868 59.1767 18.8366C58.9171 19.1864 58.7873 19.6593 58.7873 20.2553C58.7873 20.942 58.9366 21.3954 59.2286 21.6287C59.5207 21.8619 59.9035 21.972 60.3773 21.972H61.818V20.1646C61.818 18.9338 61.3248 18.3183 60.3448 18.3183L60.3384 18.3119Z" fill="#2F266D"/>
<path d="M76.6362 24.3552C76.0717 24.3552 75.559 24.284 75.0917 24.1479C74.6245 24.0119 74.2156 23.7787 73.8652 23.4548C73.7744 23.5908 73.6835 23.6945 73.5862 23.7722C73.4888 23.8499 73.3915 23.9277 73.2941 24.0248C73.1968 24.122 73.1254 24.2321 73.0605 24.3617C72.9956 24.4913 72.9697 24.6726 72.9697 24.8929V28.0477H70.3154V24.5042C70.3154 24.0831 70.3673 23.7333 70.4647 23.4677C70.562 23.2021 70.6918 22.9754 70.8476 22.794C71.0033 22.6126 71.1721 22.4636 71.3538 22.347C71.5355 22.2304 71.7107 22.1138 71.8794 21.9907C72.0481 21.8741 72.1909 21.7445 72.3077 21.602C72.4245 21.4595 72.4959 21.2716 72.5219 21.032C72.5089 20.9218 72.5024 20.8052 72.5024 20.6757V20.287C72.5024 19.4643 72.6127 18.7841 72.8399 18.2464C73.067 17.7087 73.3655 17.2747 73.7484 16.9507C74.1313 16.6268 74.5726 16.4001 75.0723 16.2576C75.572 16.1216 76.0976 16.0503 76.6427 16.0503C77.1879 16.0503 77.7135 16.1216 78.2132 16.2576C78.7129 16.3936 79.1542 16.6268 79.5306 16.9507C79.9135 17.2747 80.212 17.7087 80.4391 18.2464C80.6663 18.7841 80.7766 19.4707 80.7766 20.287C80.7766 20.3712 80.7766 20.4554 80.7701 20.5396C80.7636 20.6174 80.7636 20.6951 80.7636 20.7728C80.7896 21.1809 80.9064 21.4854 81.1205 21.6798C81.3347 21.8741 81.6007 21.9713 81.9252 21.9713H82.4509C82.6975 21.9713 82.8857 22.0555 83.009 22.2304C83.1323 22.4053 83.1972 22.6903 83.1972 23.0855C83.1972 23.8434 82.9506 24.2257 82.4509 24.2257C82.2237 24.2257 81.9966 24.2192 81.7695 24.1997C81.5358 24.1803 81.3152 24.135 81.0946 24.0572C80.8739 23.9795 80.6663 23.8758 80.4651 23.7333C80.2639 23.5908 80.0822 23.3965 79.92 23.1438C79.5436 23.5908 79.0763 23.9082 78.5052 24.0831C77.9342 24.2645 77.3176 24.3552 76.6427 24.3552H76.6362ZM76.6362 18.3111C75.6239 18.3111 75.1112 18.9395 75.1112 20.1963C75.1112 20.9024 75.241 21.4012 75.4941 21.6798C75.7472 21.9583 76.1301 22.1008 76.6362 22.1008C77.1424 22.1008 77.5383 21.9583 77.7849 21.6798C78.0315 21.4012 78.1548 20.9089 78.1548 20.1963C78.1548 18.9395 77.6486 18.3111 76.6298 18.3111H76.6362Z" fill="#2F266D"/>
<path d="M84.5372 16.5624C84.5372 16.4393 84.5956 16.3745 84.7254 16.3745H86.9708C87.0941 16.3745 87.159 16.4393 87.159 16.5624V20.9675C87.185 21.2784 87.3148 21.5246 87.5614 21.706C87.8015 21.8874 88.1454 21.9781 88.5802 21.9781H89.0085C89.2551 21.9781 89.4433 22.0623 89.5666 22.2372C89.6899 22.4121 89.7548 22.6971 89.7548 23.0923C89.7548 23.8502 89.5082 24.2324 89.0085 24.2324C88.5088 24.2324 88.1259 24.1741 87.7755 24.064C87.4251 23.9539 87.133 23.6948 86.8994 23.2996C86.6982 23.6948 86.4062 23.9539 86.0168 24.064C85.6275 24.1741 85.0953 24.2324 84.4139 24.2324H82.4865C82.2399 24.2324 82.0517 24.1547 81.9284 23.9992C81.8051 23.8438 81.7402 23.5522 81.7402 23.1312C81.7402 22.7101 81.7986 22.4121 81.9154 22.2372C82.0323 22.0623 82.2269 21.9781 82.4865 21.9781H83.6482C84.044 21.9781 84.2971 21.8615 84.3945 21.6347C84.4918 21.408 84.5437 21.0128 84.5437 20.4492V16.5689L84.5372 16.5624ZM83.3626 28.0545C83.2393 28.0545 83.1744 27.9897 83.1744 27.8667V26.0398C83.1744 25.9168 83.2393 25.852 83.3626 25.852H85.2316C85.3549 25.852 85.4198 25.9168 85.4198 26.0398V27.8667C85.4198 27.9897 85.3549 28.0545 85.2316 28.0545H83.3626ZM86.2375 28.0545C86.1142 28.0545 86.0493 27.9897 86.0493 27.8667V26.0398C86.0493 25.9168 86.1142 25.852 86.2375 25.852H88.1259C88.2492 25.852 88.3141 25.9168 88.3141 26.0398V27.8667C88.3141 27.9897 88.2492 28.0545 88.1259 28.0545H86.2375Z" fill="#2F266D"/>
<path d="M90.5698 11.7294C90.5698 11.6063 90.6347 11.5415 90.758 11.5415H93.0358C93.1591 11.5415 93.224 11.6063 93.224 11.7294V20.9607C93.2499 21.2846 93.3797 21.5307 93.6134 21.7056C93.847 21.8805 94.1909 21.9648 94.6387 21.9648H95.067C95.3136 21.9648 95.5018 22.049 95.6251 22.2239C95.7484 22.3988 95.8133 22.6838 95.8133 23.079C95.8133 23.8369 95.5667 24.2191 95.067 24.2191C94.5673 24.2191 94.1844 24.1608 93.834 24.0507C93.4836 23.9406 93.1915 23.6815 92.9579 23.2863C92.7697 23.6491 92.4972 23.8952 92.1467 24.0248C91.7898 24.1544 91.3096 24.2191 90.6996 24.2191H89.0188C88.7722 24.2191 88.584 24.1738 88.4607 24.0896C88.3374 24.0054 88.2725 23.8305 88.2725 23.5649C88.2725 23.4159 88.2854 23.2474 88.3179 23.0596C88.3503 22.8717 88.3893 22.6968 88.4477 22.5348C88.5061 22.3729 88.5775 22.2368 88.6748 22.1267C88.7722 22.0166 88.8825 21.9583 89.0188 21.9583H89.6742C89.8884 21.9583 90.0571 21.9194 90.1804 21.8482C90.3037 21.7769 90.3945 21.6668 90.4529 21.5243C90.5114 21.3817 90.5438 21.2068 90.5568 20.993C90.5698 20.7793 90.5763 20.5396 90.5763 20.2675V11.7229L90.5698 11.7294Z" fill="#2F266D"/>
<path d="M100.424 16.0571C101.183 16.0571 101.838 16.1284 102.396 16.2709C102.948 16.4134 103.409 16.6142 103.772 16.8798C104.136 17.139 104.395 17.4499 104.564 17.8062C104.733 18.1625 104.817 18.5447 104.817 18.9528C104.817 19.2897 104.765 19.6071 104.661 19.9051C104.557 20.2031 104.415 20.4817 104.239 20.7343C104.064 20.987 103.869 21.2202 103.649 21.4275C103.428 21.6348 103.214 21.8097 103.006 21.9587C103.143 21.9716 103.285 21.9781 103.428 21.9781H105.829C106.076 21.9781 106.258 22.0623 106.374 22.2308C106.485 22.3992 106.543 22.6842 106.543 23.0794C106.543 23.5393 106.478 23.8503 106.348 24.0058C106.219 24.1612 106.043 24.239 105.836 24.239H102.864C102.416 24.239 101.988 24.2001 101.585 24.1159C101.183 24.0381 100.8 23.8827 100.437 23.6559C100.028 23.8827 99.5864 24.0317 99.1256 24.1159C98.6649 24.1936 98.256 24.239 97.8926 24.239H95.0697C94.8231 24.239 94.6414 24.1677 94.531 24.0317C94.4207 23.8956 94.3623 23.6041 94.3623 23.1571C94.3623 22.8073 94.4077 22.5287 94.5051 22.3085C94.5959 22.0882 94.7906 21.9846 95.0762 21.9846H97.036C97.2501 21.9846 97.4773 21.9846 97.7174 21.9652C97.9575 21.9522 98.1911 21.9133 98.4183 21.855C98.2431 21.3303 97.964 20.8639 97.5746 20.4493C97.1853 20.0347 96.7634 19.6654 96.3027 19.3415C96.2053 19.2638 96.1339 19.1796 96.095 19.0694C96.0561 18.9658 96.0366 18.8168 96.0366 18.6289V17.4175C96.0366 17.2556 96.1664 17.1001 96.426 16.9446C96.6856 16.7892 97.0295 16.6466 97.4448 16.5171C97.8602 16.3875 98.3339 16.2839 98.8531 16.1996C99.3787 16.1219 99.8979 16.0766 100.424 16.0766V16.0571ZM100.631 21.5246C101.04 21.2785 101.39 20.974 101.67 20.6112C101.949 20.2485 102.091 19.8727 102.091 19.4711C102.091 19.0694 101.942 18.7779 101.65 18.5965C101.358 18.4087 100.949 18.318 100.424 18.318C100.002 18.318 99.6253 18.3569 99.3008 18.4411C98.9764 18.5188 98.7622 18.5965 98.6454 18.6548C99.1581 19.0047 99.5799 19.4387 99.9174 19.9505C100.255 20.4687 100.488 20.9934 100.625 21.5246H100.631Z" fill="#2F266D"/>
<path d="M107.929 16.5622C107.929 16.4391 107.987 16.3743 108.117 16.3743H110.362C110.486 16.3743 110.551 16.4391 110.551 16.5622V20.9673C110.577 21.2782 110.706 21.5244 110.953 21.7058C111.193 21.8872 111.537 21.9779 111.972 21.9779H112.4C112.647 21.9779 112.835 22.0621 112.958 22.237C113.082 22.4119 113.146 22.6969 113.146 23.0921C113.146 23.85 112.9 24.2322 112.4 24.2322C111.9 24.2322 111.518 24.1739 111.167 24.0638C110.817 23.9537 110.525 23.6946 110.291 23.2994C110.09 23.6946 109.798 23.9537 109.408 24.0638C109.019 24.1739 108.487 24.2322 107.806 24.2322H105.878C105.632 24.2322 105.443 24.1545 105.32 23.999C105.197 23.8435 105.132 23.552 105.132 23.131C105.132 22.7099 105.19 22.4119 105.307 22.237C105.424 22.0621 105.619 21.9779 105.878 21.9779H107.04C107.436 21.9779 107.689 21.8612 107.786 21.6345C107.883 21.4078 107.935 21.0126 107.935 20.449V16.5686L107.929 16.5622ZM106.845 14.4892C106.722 14.4892 106.657 14.4244 106.657 14.3013V12.4745C106.657 12.3514 106.722 12.2866 106.845 12.2866H108.714C108.837 12.2866 108.902 12.3514 108.902 12.4745V14.3013C108.902 14.4244 108.837 14.4892 108.714 14.4892H106.845ZM109.72 14.4892C109.597 14.4892 109.532 14.4244 109.532 14.3013V12.4745C109.532 12.3514 109.597 12.2866 109.72 12.2866H111.608C111.732 12.2866 111.797 12.3514 111.797 12.4745V14.3013C111.797 14.4244 111.732 14.4892 111.608 14.4892H109.72Z" fill="#2F266D"/>
<path d="M112.415 24.2256C112.169 24.2256 111.98 24.1803 111.857 24.0961C111.734 24.0118 111.669 23.8369 111.669 23.5713C111.669 23.4223 111.682 23.2539 111.714 23.066C111.747 22.8782 111.786 22.7033 111.844 22.5413C111.903 22.3794 111.974 22.2433 112.071 22.1332C112.169 22.0231 112.279 21.9648 112.415 21.9648H113.071C113.382 21.9648 113.609 21.8935 113.752 21.751C113.895 21.6085 113.966 21.3493 113.966 20.9801V11.7294C113.966 11.6063 114.031 11.5415 114.154 11.5415H116.432C116.556 11.5415 116.62 11.6063 116.62 11.7294V21.8741C116.62 22.6838 116.452 23.2798 116.114 23.6555C115.777 24.0378 115.219 24.2256 114.433 24.2256H112.415Z" fill="#2F266D"/>
<path d="M121.479 24.0378C121.479 24.1608 121.414 24.2256 121.291 24.2256H119.046C118.922 24.2256 118.857 24.1608 118.857 24.0378V11.7294C118.857 11.6063 118.922 11.5415 119.046 11.5415H121.291C121.414 11.5415 121.479 11.6063 121.479 11.7294V24.0378Z" fill="#2F266D"/>
<path d="M133.779 24.3552C133.214 24.3552 132.702 24.284 132.234 24.1479C131.767 24.0119 131.358 23.7787 131.008 23.4548C130.917 23.5908 130.826 23.6945 130.729 23.7722C130.631 23.8499 130.534 23.9277 130.437 24.0248C130.339 24.122 130.268 24.2321 130.203 24.3617C130.138 24.4913 130.112 24.6726 130.112 24.8929V28.0477H127.458V24.5042C127.458 24.0831 127.51 23.7333 127.607 23.4677C127.705 23.2021 127.834 22.9754 127.99 22.794C128.146 22.6126 128.315 22.4636 128.496 22.347C128.678 22.2304 128.853 22.1138 129.022 21.9907C129.191 21.8741 129.333 21.7445 129.45 21.602C129.567 21.4595 129.638 21.2716 129.664 21.032C129.651 20.9218 129.645 20.8052 129.645 20.6757V20.287C129.645 19.4643 129.755 18.7841 129.982 18.2464C130.21 17.7087 130.508 17.2747 130.891 16.9507C131.274 16.6268 131.715 16.4001 132.215 16.2576C132.715 16.1216 133.24 16.0503 133.785 16.0503C134.33 16.0503 134.856 16.1216 135.356 16.2576C135.855 16.3936 136.297 16.6268 136.673 16.9507C137.056 17.2747 137.355 17.7087 137.582 18.2464C137.809 18.7841 137.919 19.4707 137.919 20.287C137.919 20.3712 137.919 20.4554 137.913 20.5396C137.906 20.6174 137.906 20.6951 137.906 20.7728C137.932 21.1809 138.049 21.4854 138.263 21.6798C138.477 21.8741 138.743 21.9713 139.068 21.9713H139.593C139.84 21.9713 140.028 22.0555 140.152 22.2304C140.275 22.4053 140.34 22.6903 140.34 23.0855C140.34 23.8434 140.093 24.2257 139.593 24.2257C139.366 24.2257 139.139 24.2192 138.912 24.1997C138.678 24.1803 138.458 24.135 138.237 24.0572C138.016 23.9795 137.809 23.8758 137.608 23.7333C137.406 23.5908 137.225 23.3965 137.063 23.1438C136.686 23.5908 136.219 23.9082 135.648 24.0831C135.077 24.2645 134.46 24.3552 133.785 24.3552H133.779ZM133.779 18.3111C132.766 18.3111 132.254 18.9395 132.254 20.1963C132.254 20.9024 132.384 21.4012 132.637 21.6798C132.89 21.9583 133.273 22.1008 133.779 22.1008C134.285 22.1008 134.681 21.9583 134.927 21.6798C135.174 21.4012 135.297 20.9089 135.297 20.1963C135.297 18.9395 134.791 18.3111 133.772 18.3111H133.779Z" fill="#2F266D"/>
<path d="M139.569 24.2263C139.322 24.2263 139.134 24.1486 139.01 23.9931C138.887 23.8376 138.822 23.5591 138.822 23.1639C138.822 22.3671 139.069 21.9719 139.569 21.9719H140.73C141.042 21.9719 141.269 21.9007 141.412 21.7582C141.554 21.6157 141.626 21.3565 141.626 20.9873V16.5692C141.626 16.4461 141.684 16.3813 141.814 16.3813H144.059C144.183 16.3813 144.248 16.4461 144.248 16.5692V21.8877C144.248 22.6975 144.079 23.2935 143.748 23.6692C143.417 24.0514 142.859 24.2393 142.08 24.2393H139.582L139.569 24.2263ZM140.263 28.0484C140.14 28.0484 140.075 27.9836 140.075 27.8605V26.0337C140.075 25.9106 140.14 25.8458 140.263 25.8458H142.132C142.255 25.8458 142.32 25.9106 142.32 26.0337V27.8605C142.32 27.9836 142.255 28.0484 142.132 28.0484H140.263ZM143.138 28.0484C143.015 28.0484 142.95 27.9836 142.95 27.8605V26.0337C142.95 25.9106 143.015 25.8458 143.138 25.8458H145.026C145.15 25.8458 145.214 25.9106 145.214 26.0337V27.8605C145.214 27.9836 145.15 28.0484 145.026 28.0484H143.138Z" fill="#2F266D"/>
<path d="M148.144 28.0481C148.02 28.0481 147.955 27.9833 147.955 27.8602V25.9751C147.955 25.852 148.02 25.7872 148.144 25.7872H150.292C150.551 25.7872 150.785 25.7678 150.993 25.7225C151.2 25.6771 151.369 25.5994 151.505 25.4892C151.642 25.3791 151.745 25.2172 151.823 25.0163C151.901 24.809 151.934 24.5499 151.934 24.226H150.142C148.922 24.226 147.981 23.9345 147.332 23.3515C146.677 22.7684 146.353 21.7643 146.353 20.3456C146.353 19.5488 146.469 18.8751 146.696 18.3309C146.93 17.7868 147.235 17.3398 147.612 17.0094C147.994 16.6725 148.429 16.4329 148.922 16.2839C149.416 16.1349 149.922 16.0571 150.447 16.0571C150.973 16.0571 151.518 16.1284 152.018 16.2644C152.518 16.4005 152.952 16.6272 153.329 16.9446C153.705 17.2621 153.997 17.6896 154.218 18.2338C154.439 18.7715 154.542 19.4452 154.542 20.242V21.9781H155.814C156.314 21.9781 156.561 22.3538 156.561 23.0988C156.561 23.5717 156.502 23.8762 156.385 24.0252C156.269 24.1742 156.08 24.239 155.814 24.239H154.542V24.5953C154.542 25.7613 154.244 26.6359 153.647 27.2059C153.05 27.776 152.122 28.061 150.863 28.061H148.137L148.144 28.0481ZM150.46 18.3115C149.961 18.3115 149.578 18.4864 149.312 18.8362C149.046 19.1861 148.909 19.659 148.909 20.2549C148.909 20.9416 149.059 21.3951 149.351 21.6283C149.643 21.8615 150.026 21.9716 150.499 21.9716H151.94V20.1642C151.94 18.9334 151.447 18.318 150.46 18.318V18.3115Z" fill="#2F266D"/>
<path d="M161.049 16.0569C161.685 16.0569 162.256 16.1281 162.762 16.2707C163.275 16.4132 163.71 16.6205 164.067 16.8861C164.424 17.1517 164.703 17.4885 164.897 17.8837C165.092 18.2789 165.189 18.7388 165.189 19.2635C165.189 19.8466 165.053 20.3713 164.781 20.8377C164.508 21.3041 164.164 21.6863 163.742 21.9843C163.84 21.9714 163.943 21.9649 164.054 21.9649H166.267C166.513 21.9649 166.701 22.0426 166.825 22.1981C166.948 22.3536 167.013 22.6516 167.013 23.0856C167.013 23.5196 166.955 23.8047 166.838 23.9731C166.721 24.1415 166.533 24.2258 166.267 24.2258H163.483C163.035 24.2258 162.613 24.2063 162.211 24.1675C161.808 24.1286 161.432 23.999 161.069 23.7788C160.66 24.0055 160.218 24.1351 159.751 24.1675C159.284 24.1998 158.869 24.2258 158.505 24.2258H155.799C155.539 24.2258 155.345 24.1415 155.228 23.9666C155.111 23.7917 155.053 23.4937 155.053 23.0727C155.053 22.6775 155.111 22.3925 155.228 22.224C155.345 22.0556 155.533 21.9714 155.799 21.9714H158.343C157.921 21.6863 157.577 21.3106 157.311 20.8442C157.045 20.3778 156.915 19.853 156.915 19.27C156.915 18.7453 157.013 18.2853 157.207 17.8902C157.402 17.495 157.675 17.1582 158.038 16.8925C158.395 16.6269 158.836 16.4196 159.342 16.2771C159.855 16.1346 160.426 16.0634 161.056 16.0634L161.049 16.0569ZM158.726 14.4892C158.603 14.4892 158.538 14.4244 158.538 14.3013V12.4745C158.538 12.3514 158.603 12.2866 158.726 12.2866H160.595C160.718 12.2866 160.783 12.3514 160.783 12.4745V14.3013C160.783 14.4244 160.718 14.4892 160.595 14.4892H158.726ZM161.049 17.9031C160.647 17.9031 160.296 18.0262 159.985 18.2789C159.68 18.525 159.524 18.9267 159.524 19.4708C159.524 20.015 159.673 20.5008 159.978 20.8442C160.277 21.1875 160.634 21.4596 161.049 21.654C161.464 21.4531 161.821 21.1875 162.12 20.8442C162.418 20.5008 162.574 20.0474 162.574 19.4708C162.574 18.8943 162.418 18.525 162.107 18.2789C161.795 18.0327 161.445 17.9031 161.056 17.9031H161.049ZM161.601 14.4892C161.477 14.4892 161.412 14.4244 161.412 14.3013V12.4745C161.412 12.3514 161.477 12.2866 161.601 12.2866H163.489C163.612 12.2866 163.677 12.3514 163.677 12.4745V14.3013C163.677 14.4244 163.612 14.4892 163.489 14.4892H161.601Z" fill="#2F266D"/>
<path d="M166.27 24.2258C166.023 24.2258 165.835 24.148 165.712 23.9925C165.588 23.8371 165.523 23.5585 165.523 23.1633C165.523 22.3665 165.77 21.9714 166.27 21.9714H167.431C167.743 21.9714 167.97 21.9001 168.113 21.7576C168.256 21.6151 168.327 21.356 168.327 20.9867V16.5686C168.327 16.4456 168.385 16.3808 168.515 16.3808H170.76C170.884 16.3808 170.949 16.4456 170.949 16.5686V21.8872C170.949 22.6969 170.78 23.2929 170.449 23.6686C170.118 24.0508 169.56 24.2387 168.781 24.2387H166.283L166.27 24.2258ZM167.126 14.4892C167.003 14.4892 166.938 14.4244 166.938 14.3013V12.4745C166.938 12.3514 167.003 12.2866 167.126 12.2866H168.995C169.119 12.2866 169.184 12.3514 169.184 12.4745V14.3013C169.184 14.4244 169.119 14.4892 168.995 14.4892H167.126ZM170.001 14.4892C169.878 14.4892 169.813 14.4244 169.813 14.3013V12.4745C169.813 12.3514 169.878 12.2866 170.001 12.2866H171.89C172.013 12.2866 172.078 12.3514 172.078 12.4745V14.3013C172.078 14.4244 172.013 14.4892 171.89 14.4892H170.001Z" fill="#2F266D"/>
<path d="M182.977 16.0567V15.2535C182.977 15.1304 183.042 15.0656 183.165 15.0656H185.443C185.567 15.0656 185.631 15.1304 185.631 15.2535V20.9801C185.631 21.3558 185.703 21.6085 185.846 21.751C185.988 21.8935 186.216 21.9648 186.527 21.9648H187.105C187.604 21.9648 187.851 22.347 187.851 23.1049C187.851 23.5389 187.792 23.8369 187.676 23.9924C187.559 24.1479 187.364 24.2256 187.105 24.2256H185.164C184.554 24.2256 184.08 24.1284 183.737 23.9341C183.393 23.7398 183.165 23.377 183.055 22.8458C182.783 23.0725 182.465 23.2345 182.101 23.3511C181.738 23.4677 181.361 23.5195 180.959 23.5195C180.472 23.5195 180.012 23.4482 179.57 23.3122C179.129 23.1762 178.74 22.9624 178.402 22.6774C178.065 22.3923 177.799 22.0166 177.61 21.5566C177.416 21.0967 177.318 20.5396 177.318 19.8788C177.318 19.1338 177.429 18.5119 177.643 18.0196C177.857 17.5273 178.149 17.1386 178.499 16.8471C178.856 16.5556 179.259 16.3483 179.713 16.2316C180.167 16.115 180.635 16.0567 181.102 16.0567H182.971H182.977ZM179.181 13.7441C179.058 13.7441 178.993 13.6793 178.993 13.5562V11.7294C178.993 11.6063 179.058 11.5415 179.181 11.5415H181.05C181.173 11.5415 181.238 11.6063 181.238 11.7294V13.5562C181.238 13.6793 181.173 13.7441 181.05 13.7441H179.181ZM181.433 21.2587C181.906 21.2587 182.276 21.1226 182.555 20.857C182.834 20.5914 182.971 20.1703 182.971 19.6003V18.3111H181.485C181.017 18.3111 180.635 18.4212 180.349 18.648C180.063 18.8747 179.921 19.2828 179.921 19.8788C179.921 20.3906 180.063 20.7469 180.349 20.9542C180.635 21.1615 180.991 21.2651 181.426 21.2651L181.433 21.2587ZM182.056 13.7441C181.932 13.7441 181.868 13.6793 181.868 13.5562V11.7294C181.868 11.6063 181.932 11.5415 182.056 11.5415H183.944C184.067 11.5415 184.132 11.6063 184.132 11.7294V13.5562C184.132 13.6793 184.067 13.7441 183.944 13.7441H182.056Z" fill="#2F266D"/>
<path d="M191.256 23.2932C191.042 23.6819 190.75 23.9281 190.38 24.0511C190.003 24.1677 189.484 24.226 188.809 24.226H187.317C187.07 24.226 186.882 24.1872 186.758 24.103C186.635 24.0252 186.57 23.8438 186.57 23.5718C186.57 23.4098 186.583 23.2349 186.609 23.047C186.635 22.8592 186.681 22.6843 186.739 22.5223C186.804 22.3604 186.882 22.2243 186.986 22.1207C187.089 22.017 187.213 21.9587 187.362 21.9587H187.979C188.368 21.9587 188.608 21.8486 188.718 21.6348C188.822 21.4145 188.881 21.0259 188.881 20.4687V16.5495C188.881 16.4523 188.971 16.394 189.153 16.3811C189.335 16.3681 189.491 16.3616 189.627 16.3616H191.347C191.47 16.3616 191.535 16.4264 191.535 16.5495V20.9546C191.561 21.2656 191.697 21.5117 191.937 21.6931C192.177 21.8745 192.521 21.9652 192.956 21.9652H193.384C193.631 21.9652 193.819 22.0494 193.942 22.2243C194.066 22.3992 194.131 22.6843 194.131 23.0794C194.131 23.8374 193.884 24.2196 193.384 24.2196C192.885 24.2196 192.502 24.1613 192.151 24.0511C191.801 23.941 191.509 23.6819 191.275 23.2867L191.256 23.2932ZM188.692 13.4076C188.621 13.2845 188.556 13.1485 188.504 12.9995C188.452 12.8505 188.426 12.6756 188.426 12.4748C188.426 12.248 188.465 12.0278 188.55 11.814C188.634 11.6002 188.757 11.3994 188.926 11.2245C189.095 11.0496 189.309 10.9136 189.581 10.8034C189.854 10.6933 190.172 10.6479 190.542 10.6479C190.938 10.6479 191.301 10.7257 191.619 10.8747C191.937 11.0237 192.171 11.2051 192.32 11.4188C192.372 11.4836 192.365 11.5419 192.301 11.6067L191.704 12.2416C191.652 12.2934 191.6 12.2804 191.535 12.2027C191.399 12.0796 191.256 11.976 191.113 11.9047C190.97 11.8334 190.795 11.7946 190.6 11.7946C190.354 11.7946 190.153 11.8658 190.01 12.0019C189.867 12.1379 189.796 12.3258 189.796 12.559C189.796 12.7922 189.854 12.9606 189.964 13.0967C190.075 13.2327 190.198 13.3364 190.341 13.4141H192.301C192.378 13.4141 192.411 13.4594 192.411 13.5437V14.4182C192.411 14.5024 192.372 14.5478 192.301 14.5478H188.037C187.959 14.5478 187.927 14.5024 187.927 14.4182V13.5437C187.927 13.4594 187.966 13.4141 188.037 13.4141H188.692V13.4076Z" fill="#2F266D"/>
<path d="M195.402 16.5624C195.402 16.4393 195.461 16.3745 195.591 16.3745H197.836C197.959 16.3745 198.024 16.4393 198.024 16.5624V20.9675C198.05 21.2784 198.186 21.5246 198.427 21.706C198.667 21.8874 199.011 21.9781 199.445 21.9781H199.874C200.12 21.9781 200.309 22.0623 200.432 22.2372C200.555 22.4121 200.62 22.6971 200.62 23.0923C200.62 23.8502 200.373 24.2324 199.874 24.2324C199.374 24.2324 198.991 24.1741 198.641 24.064C198.29 23.9539 197.998 23.6948 197.765 23.2996C197.57 23.6948 197.271 23.9539 196.882 24.064C196.493 24.1741 195.961 24.2324 195.279 24.2324H193.352C193.105 24.2324 192.917 24.1547 192.794 23.9992C192.67 23.8438 192.605 23.5522 192.605 23.1312C192.605 22.7101 192.664 22.4121 192.781 22.2372C192.897 22.0623 193.092 21.9781 193.352 21.9781H194.513C194.909 21.9781 195.162 21.8615 195.26 21.6347C195.357 21.408 195.409 21.0128 195.409 20.4492V16.5689L195.402 16.5624ZM194.228 28.0545C194.105 28.0545 194.04 27.9897 194.04 27.8667V26.0398C194.04 25.9168 194.105 25.852 194.228 25.852H196.097C196.22 25.852 196.285 25.9168 196.285 26.0398V27.8667C196.285 27.9897 196.22 28.0545 196.097 28.0545H194.228ZM197.103 28.0545C196.979 28.0545 196.915 27.9897 196.915 27.8667V26.0398C196.915 25.9168 196.979 25.852 197.103 25.852H198.991C199.114 25.852 199.179 25.9168 199.179 26.0398V27.8667C199.179 27.9897 199.114 28.0545 198.991 28.0545H197.103Z" fill="#2F266D"/>
<path d="M199.889 24.2256C199.642 24.2256 199.454 24.1414 199.331 23.973C199.207 23.8045 199.143 23.5195 199.143 23.1243C199.143 22.7292 199.201 22.4182 199.318 22.2368C199.435 22.0555 199.623 21.9648 199.889 21.9648H201.719C201.544 21.589 201.453 21.155 201.453 20.6562C201.453 20.1574 201.537 19.7104 201.706 19.3476C201.875 18.9848 202.089 18.6933 202.361 18.4731C202.627 18.2463 202.939 18.0844 203.289 17.9807C203.64 17.8771 203.997 17.8188 204.373 17.8188C205.308 17.8188 206.041 18.0455 206.58 18.499C207.118 18.9524 207.384 19.6715 207.384 20.6562C207.384 20.9153 207.352 21.155 207.28 21.3753C207.209 21.5955 207.131 21.7898 207.047 21.9648C207.605 21.9648 207.981 21.7963 208.17 21.453C208.358 21.1096 208.449 20.6886 208.449 20.1962C208.449 19.7039 208.371 19.2958 208.215 18.946C208.059 18.5961 207.839 18.3111 207.56 18.0909C207.28 17.8706 206.943 17.7022 206.554 17.5985C206.164 17.4949 205.729 17.443 205.256 17.443C204.834 17.443 204.386 17.4754 203.919 17.5467C203.452 17.618 202.997 17.7151 202.543 17.8576C202.491 17.8836 202.433 17.903 202.355 17.9159C202.277 17.9289 202.232 17.8965 202.206 17.8253L201.816 16.426C201.79 16.3482 201.784 16.2835 201.79 16.2316C201.797 16.1798 201.842 16.128 201.933 16.0891C202.543 15.8559 203.147 15.668 203.737 15.532C204.328 15.396 205.029 15.3247 205.84 15.3247C206.885 15.3247 207.754 15.4672 208.449 15.7458C209.143 16.0243 209.688 16.3936 210.09 16.8535C210.493 17.3135 210.778 17.8317 210.941 18.4018C211.103 18.9719 211.181 19.5614 211.181 20.1574C211.181 20.857 211.116 21.4595 210.992 21.9777C210.869 22.496 210.662 22.917 210.369 23.2539C210.077 23.5908 209.688 23.8369 209.214 23.9989C208.734 24.1608 208.137 24.2386 207.43 24.2386H199.902L199.889 24.2256ZM204.399 19.4124C204.055 19.4124 203.783 19.529 203.594 19.7557C203.406 19.9889 203.309 20.3128 203.309 20.7339C203.309 21.155 203.393 21.4919 203.568 21.6927C203.744 21.8935 203.984 22.0101 204.289 22.036H204.49C204.808 22.0101 205.055 21.8935 205.21 21.6927C205.373 21.4854 205.45 21.168 205.45 20.7339C205.45 20.2999 205.36 19.9825 205.184 19.7557C205.003 19.529 204.743 19.4124 204.399 19.4124Z" fill="#2F266D"/>
<path d="M1.5498 33.2439C1.5498 33.1727 1.58874 33.1338 1.66013 33.1338H6.16387C6.23525 33.1338 6.27419 33.1727 6.27419 33.2439V33.9371C6.27419 34.0083 6.23525 34.0472 6.16387 34.0472H2.60111C2.55568 34.0472 2.53622 34.0666 2.53622 34.112V36.3081C2.53622 36.3534 2.55568 36.3728 2.60111 36.3728H5.62524C5.69662 36.3728 5.73556 36.4117 5.73556 36.483V37.1761C5.73556 37.2474 5.69662 37.2862 5.62524 37.2862H2.60111C2.55568 37.2862 2.53622 37.3057 2.53622 37.351V39.6248C2.53622 39.6702 2.55568 39.6896 2.60111 39.6896H6.16387C6.23525 39.6896 6.27419 39.7285 6.27419 39.7998V40.4929C6.27419 40.5642 6.23525 40.603 6.16387 40.603H1.66013C1.58874 40.603 1.5498 40.5642 1.5498 40.4929V33.2504V33.2439Z" fill="#2F266D"/>
<path d="M11.0144 40.5973C10.943 40.5973 10.9041 40.5584 10.9041 40.4872V39.9819H10.8911C10.7678 40.1957 10.5861 40.3706 10.346 40.5066C10.1058 40.6427 9.78785 40.7139 9.39199 40.7139C8.93123 40.7139 8.54835 40.6103 8.23685 40.3965C7.93184 40.1827 7.7112 39.8718 7.57492 39.4507C7.50353 39.2369 7.45161 39.0167 7.42566 38.7899C7.3997 38.5632 7.38672 38.2846 7.38672 37.9542C7.38672 37.6239 7.3997 37.3518 7.42566 37.125C7.45161 36.9048 7.50353 36.6845 7.57492 36.4708C7.70471 36.0562 7.92535 35.7387 8.23685 35.525C8.54186 35.3112 8.93123 35.2075 9.39199 35.2075C9.78785 35.2075 10.1058 35.2723 10.346 35.4083C10.5861 35.5444 10.7678 35.7193 10.8911 35.9331H10.9041V33.2317C10.9041 33.1604 10.943 33.1216 11.0144 33.1216H11.7152C11.7866 33.1216 11.8256 33.1604 11.8256 33.2317V40.4742C11.8256 40.5455 11.7866 40.5843 11.7152 40.5843H11.0144V40.5973ZM9.61912 39.8588C10.2226 39.8588 10.6055 39.5932 10.7872 39.0555C10.8327 38.9324 10.8651 38.7834 10.8781 38.6085C10.8976 38.4336 10.9041 38.2198 10.9041 37.9542C10.9041 37.6886 10.8976 37.4749 10.8781 37.3064C10.8586 37.138 10.8262 36.989 10.7872 36.8594C10.612 36.3347 10.2226 36.0691 9.61912 36.0691C9.01559 36.0691 8.64569 36.3347 8.46398 36.8594C8.41856 37.0084 8.38611 37.1639 8.37313 37.3453C8.35366 37.5202 8.34717 37.7275 8.34717 37.9607C8.34717 38.1939 8.35366 38.4077 8.37313 38.5891C8.3926 38.764 8.42505 38.9195 8.46398 39.062C8.64569 39.5932 9.03506 39.8653 9.61912 39.8653V39.8588Z" fill="#2F266D"/>
<path d="M16.9429 40.5966C16.8715 40.5966 16.8325 40.5578 16.8325 40.4865V39.9942H16.8196C16.6833 40.2144 16.4886 40.3893 16.255 40.5189C16.0213 40.6485 15.7228 40.7197 15.3789 40.7197C14.8013 40.7197 14.3535 40.5383 14.0291 40.1756C13.7111 39.8128 13.5488 39.3334 13.5488 38.731V35.4466C13.5488 35.3753 13.5878 35.3364 13.6592 35.3364H14.36C14.4314 35.3364 14.4703 35.3753 14.4703 35.4466V38.5107C14.4703 38.9447 14.5677 39.2751 14.7559 39.5083C14.9441 39.7415 15.2426 39.8581 15.6385 39.8581C15.9954 39.8581 16.2874 39.7415 16.5016 39.5083C16.7157 39.2751 16.826 38.9577 16.826 38.5625V35.4466C16.826 35.3753 16.865 35.3364 16.9364 35.3364H17.6372C17.7086 35.3364 17.7476 35.3753 17.7476 35.4466V40.4865C17.7476 40.5578 17.7086 40.5966 17.6372 40.5966H16.9364H16.9429Z" fill="#2F266D"/>
<path d="M19.2422 37.9674C19.2422 37.6759 19.2552 37.4233 19.2876 37.203C19.3136 36.9892 19.359 36.8014 19.4109 36.6394C19.5602 36.1795 19.8133 35.8296 20.1832 35.5835C20.5466 35.3438 20.9879 35.2207 21.4941 35.2207C21.8964 35.2207 22.2533 35.2984 22.5519 35.4539C22.8569 35.6094 23.1035 35.8296 23.2917 36.1082C23.3306 36.1665 23.3176 36.2183 23.2592 36.2637L22.7725 36.6588C22.7141 36.7042 22.6622 36.6977 22.6168 36.6459C22.461 36.458 22.2988 36.3155 22.13 36.2183C21.9613 36.1212 21.7472 36.0758 21.4811 36.0758C21.1955 36.0758 20.9489 36.1406 20.7413 36.2766C20.5336 36.4127 20.3908 36.62 20.3 36.8985C20.2546 37.0346 20.2221 37.19 20.2091 37.3585C20.1897 37.5269 20.1832 37.7277 20.1832 37.9609C20.1832 38.1941 20.1897 38.395 20.2091 38.5699C20.2286 38.7448 20.261 38.9003 20.3 39.0363C20.3908 39.3149 20.5336 39.5222 20.7413 39.6582C20.9489 39.7942 21.1891 39.859 21.4811 39.859C21.7472 39.859 21.9613 39.8137 22.13 39.7165C22.2988 39.6193 22.461 39.4768 22.6168 39.2889C22.6622 39.2371 22.7141 39.2371 22.7725 39.276L23.2592 39.6712C23.3176 39.7165 23.3306 39.7683 23.2917 39.8266C23.1035 40.1052 22.8569 40.3254 22.5519 40.4809C22.2468 40.6364 21.8964 40.7141 21.4941 40.7141C20.9879 40.7141 20.5531 40.591 20.1832 40.3514C19.8198 40.1117 19.5602 39.7554 19.4109 39.2954C19.359 39.1335 19.3201 38.9456 19.2876 38.7318C19.2552 38.5181 19.2422 38.2589 19.2422 37.9609V37.9674Z" fill="#2F266D"/>
<path d="M27.7972 40.5975C27.7258 40.5975 27.6868 40.5587 27.6868 40.4874V40.0275H27.6739C27.5506 40.2218 27.3559 40.3902 27.1028 40.5198C26.8497 40.6493 26.5187 40.7206 26.1164 40.7206C25.8698 40.7206 25.6361 40.6882 25.4155 40.6234C25.2013 40.5587 25.0131 40.4615 24.8574 40.3254C24.7017 40.1959 24.5719 40.0275 24.481 39.8266C24.3902 39.6258 24.3447 39.3991 24.3447 39.1335C24.3447 38.5764 24.5264 38.1618 24.8898 37.9026C25.2533 37.6435 25.7594 37.5075 26.4019 37.5075H27.6025C27.6479 37.5075 27.6674 37.488 27.6674 37.4427V37.0605C27.6674 36.6977 27.5765 36.4386 27.4013 36.2766C27.2261 36.1147 26.8886 36.0369 26.4019 36.0369C26.1034 36.0369 25.8503 36.0693 25.6556 36.1406C25.4609 36.2119 25.2792 36.3025 25.13 36.4127C25.0651 36.4645 25.0132 36.458 24.9742 36.3997L24.6757 35.8944C24.6497 35.8361 24.6562 35.7843 24.6952 35.739C24.8898 35.5835 25.1429 35.4604 25.4415 35.3632C25.74 35.2661 26.0904 35.2207 26.4863 35.2207C27.2326 35.2207 27.7647 35.3567 28.0762 35.6353C28.3877 35.9074 28.5435 36.3673 28.5435 37.0151V40.4939C28.5435 40.5651 28.5045 40.604 28.4331 40.604H27.7907L27.7972 40.5975ZM26.3305 39.9303C26.7523 39.9303 27.0768 39.8396 27.3104 39.6582C27.5441 39.4768 27.6609 39.2242 27.6609 38.8938V38.3108C27.6609 38.2654 27.6414 38.246 27.596 38.246H26.5382C26.0774 38.246 25.74 38.3108 25.5323 38.4468C25.3246 38.5828 25.2208 38.7966 25.2208 39.1011C25.2208 39.3732 25.3182 39.574 25.5064 39.7165C25.6946 39.8525 25.9671 39.9238 26.324 39.9238L26.3305 39.9303Z" fill="#2F266D"/>
<path d="M31.8502 40.6554C31.3375 40.6554 30.9741 40.5388 30.7535 40.2991C30.5393 40.0594 30.429 39.6836 30.429 39.1654V36.1596C30.429 36.1142 30.4095 36.0948 30.3641 36.0948H29.9228C29.8514 36.0948 29.8125 36.0559 29.8125 35.9847V35.4599C29.8125 35.3887 29.8514 35.3498 29.9228 35.3498H30.3641C30.4095 35.3498 30.429 35.3304 30.429 35.285V33.8015C30.429 33.7303 30.4679 33.6914 30.5393 33.6914H31.2402C31.3116 33.6914 31.3505 33.7303 31.3505 33.8015V35.285C31.3505 35.3304 31.37 35.3498 31.4154 35.3498H32.2526C32.324 35.3498 32.3629 35.3887 32.3629 35.4599V35.9847C32.3629 36.0559 32.324 36.0948 32.2526 36.0948H31.4154C31.37 36.0948 31.3505 36.1142 31.3505 36.1596V39.133C31.3505 39.3986 31.4024 39.5735 31.5128 39.6642C31.6166 39.7549 31.7918 39.8003 32.0254 39.8003H32.2591C32.3304 39.8003 32.3694 39.8391 32.3694 39.9104V40.5452C32.3694 40.6165 32.3304 40.6554 32.2591 40.6554H31.8502Z" fill="#2F266D"/>
<path d="M33.8838 34.1573C33.8124 34.1573 33.7734 34.1185 33.7734 34.0472V33.2439C33.7734 33.1727 33.8124 33.1338 33.8838 33.1338H34.6301C34.7014 33.1338 34.7404 33.1727 34.7404 33.2439V34.0472C34.7404 34.1185 34.7014 34.1573 34.6301 34.1573H33.8838ZM33.9032 40.5966C33.8318 40.5966 33.7929 40.5577 33.7929 40.4864V35.4465C33.7929 35.3752 33.8318 35.3363 33.9032 35.3363H34.6041C34.6755 35.3363 34.7144 35.3752 34.7144 35.4465V40.4864C34.7144 40.5577 34.6755 40.5966 34.6041 40.5966H33.9032Z" fill="#2F266D"/>
<path d="M38.4579 40.7203C37.9453 40.7203 37.504 40.5972 37.147 40.3445C36.7836 40.0984 36.5305 39.7485 36.3813 39.3015C36.3229 39.1202 36.2774 38.9258 36.2515 38.725C36.219 38.5242 36.2061 38.2715 36.2061 37.9606C36.2061 37.6496 36.219 37.4035 36.2515 37.2026C36.2774 37.0018 36.3229 36.814 36.3813 36.6326C36.5305 36.1791 36.7836 35.8293 37.147 35.5831C37.5105 35.337 37.9453 35.2139 38.4579 35.2139C38.9706 35.2139 39.4119 35.337 39.7688 35.5831C40.1257 35.8293 40.3853 36.1791 40.5346 36.6326C40.593 36.814 40.6384 37.0083 40.6644 37.2026C40.6903 37.397 40.7098 37.6496 40.7098 37.9606C40.7098 38.2715 40.6968 38.5242 40.6644 38.725C40.6319 38.9258 40.593 39.1202 40.5346 39.3015C40.3853 39.7485 40.1322 40.0984 39.7688 40.3445C39.4054 40.5907 38.9706 40.7203 38.4579 40.7203ZM38.4579 39.8651C38.75 39.8651 39.003 39.7939 39.2042 39.6514C39.4119 39.5088 39.5547 39.308 39.6455 39.0424C39.6909 38.8934 39.7234 38.7444 39.7364 38.589C39.7558 38.4335 39.7623 38.2262 39.7623 37.9671C39.7623 37.7079 39.7558 37.5071 39.7364 37.3516C39.7169 37.1962 39.6844 37.0472 39.6455 36.9047C39.5547 36.639 39.4119 36.4382 39.2042 36.2957C38.9966 36.1532 38.75 36.0819 38.4579 36.0819C38.1659 36.0819 37.9128 36.1532 37.7116 36.2957C37.504 36.4382 37.3612 36.639 37.2703 36.9047C37.2249 37.0536 37.1925 37.2026 37.1795 37.3516C37.16 37.5071 37.1535 37.7079 37.1535 37.9671C37.1535 38.2262 37.16 38.427 37.1795 38.589C37.199 38.7444 37.2314 38.8999 37.2703 39.0424C37.3612 39.308 37.504 39.5088 37.7116 39.6514C37.9193 39.7939 38.1659 39.8651 38.4579 39.8651Z" fill="#2F266D"/>
<path d="M45.6124 40.5964C45.541 40.5964 45.502 40.5575 45.502 40.4863V37.4157C45.502 36.9946 45.4047 36.6642 45.21 36.431C45.0153 36.1978 44.7233 36.0812 44.3274 36.0812C43.9705 36.0812 43.6785 36.1978 43.4514 36.4245C43.2307 36.6577 43.1139 36.9687 43.1139 37.3638V40.4928C43.1139 40.564 43.075 40.6029 43.0036 40.6029H42.3027C42.2313 40.6029 42.1924 40.564 42.1924 40.4928V35.4528C42.1924 35.3815 42.2313 35.3427 42.3027 35.3427H43.0036C43.075 35.3427 43.1139 35.3815 43.1139 35.4528V35.9387H43.1269C43.2502 35.7314 43.4384 35.5629 43.685 35.4269C43.9316 35.2909 44.2366 35.2261 44.6 35.2261C45.1711 35.2261 45.6189 35.4075 45.9433 35.7638C46.2678 36.1201 46.4301 36.5994 46.4301 37.2019V40.4928C46.4301 40.564 46.3911 40.6029 46.3197 40.6029H45.6189L45.6124 40.5964Z" fill="#2F266D"/>
<path d="M50.6826 38.7638C50.6826 38.3557 50.7994 37.967 51.0395 37.5977C51.2797 37.2285 51.656 36.8398 52.1752 36.4252C52.0065 36.2114 51.8637 36.0235 51.7469 35.8616C51.6301 35.6996 51.5327 35.5442 51.4614 35.4081C51.39 35.2721 51.3316 35.136 51.2991 35.0065C51.2602 34.8769 51.2472 34.7474 51.2472 34.6178C51.2472 34.3911 51.2861 34.1773 51.3705 33.9829C51.4549 33.7821 51.5717 33.6137 51.7274 33.4712C51.8832 33.3287 52.0649 33.2185 52.2726 33.1343C52.4802 33.0566 52.7074 33.0112 52.9604 33.0112C53.2265 33.0112 53.4601 33.0566 53.6678 33.1343C53.8755 33.2185 54.0572 33.3351 54.2064 33.4777C54.3557 33.6267 54.4725 33.7951 54.5504 33.9894C54.6283 34.1838 54.6737 34.3911 54.6737 34.6113C54.6737 34.7798 54.6477 34.9352 54.6023 35.0842C54.5569 35.2332 54.479 35.3822 54.3752 35.5312C54.2713 35.6802 54.1351 35.8357 53.9663 36.0041C53.7976 36.1661 53.5899 36.3475 53.3368 36.5483L54.758 38.3686L55.5173 37.4358C55.5628 37.3775 55.6147 37.371 55.6731 37.4163L56.1014 37.7921C56.1598 37.8374 56.1663 37.8892 56.1209 37.9475L55.2642 39.0359L55.6276 39.5088C55.699 39.5995 55.7704 39.6642 55.8353 39.7096C55.9002 39.7549 55.9781 39.7744 56.0689 39.7744H56.2312C56.3026 39.7744 56.3415 39.8132 56.3415 39.8845V40.4999C56.3415 40.5712 56.3026 40.61 56.2312 40.61H55.9327C55.712 40.61 55.5368 40.5777 55.407 40.5129C55.2772 40.4481 55.1344 40.3056 54.9787 40.0983L54.6802 39.7161C54.3492 40.0659 54.0312 40.325 53.7197 40.487C53.4082 40.6489 53.0578 40.7331 52.6554 40.7331C52.3375 40.7331 52.0584 40.6813 51.8118 40.5841C51.5652 40.487 51.364 40.3509 51.1953 40.176C51.0331 40.0011 50.9033 39.8003 50.8189 39.5606C50.728 39.3209 50.6891 39.0618 50.6891 38.7767L50.6826 38.7638ZM51.5587 38.712C51.5587 39.0877 51.6625 39.3792 51.8637 39.593C52.0649 39.8068 52.3504 39.9104 52.7268 39.9104C52.9864 39.9104 53.2265 39.8456 53.4472 39.7161C53.6678 39.5865 53.9209 39.3662 54.187 39.0553L52.6684 37.0795C52.2726 37.3839 51.987 37.669 51.8183 37.9216C51.6431 38.1743 51.5587 38.4399 51.5587 38.7184V38.712ZM52.8436 35.894C53.0513 35.732 53.2135 35.5895 53.3433 35.4729C53.4731 35.3498 53.5705 35.2397 53.6354 35.1425C53.7003 35.0454 53.7457 34.9482 53.7651 34.864C53.7846 34.7733 53.7976 34.6891 53.7976 34.5984C53.7976 34.3716 53.7197 34.1838 53.564 34.0283C53.4082 33.8728 53.2006 33.7951 52.941 33.7951C52.6814 33.7951 52.4737 33.8728 52.331 34.0283C52.1882 34.1838 52.1168 34.3781 52.1168 34.6113C52.1168 34.6891 52.1298 34.7733 52.1493 34.8445C52.1687 34.9223 52.2077 35.0065 52.2661 35.1037C52.318 35.2008 52.3959 35.311 52.4932 35.434C52.5905 35.5571 52.7074 35.7126 52.8436 35.894Z" fill="#2F266D"/>
<path d="M61.9606 40.5966C61.8892 40.5966 61.8503 40.5577 61.8503 40.4864V34.112C61.8503 34.0666 61.8308 34.0472 61.7854 34.0472H59.7412C59.6698 34.0472 59.6309 34.0083 59.6309 33.9371V33.2439C59.6309 33.1727 59.6698 33.1338 59.7412 33.1338H64.9523C65.0237 33.1338 65.0626 33.1727 65.0626 33.2439V33.9371C65.0626 34.0083 65.0237 34.0472 64.9523 34.0472H62.9081C62.8626 34.0472 62.8432 34.0666 62.8432 34.112V40.4864C62.8432 40.5577 62.8042 40.5966 62.7329 40.5966H61.9671H61.9606Z" fill="#2F266D"/>
<path d="M66.2998 40.5972C66.2284 40.5972 66.1895 40.5583 66.1895 40.487V35.4471C66.1895 35.3758 66.2284 35.337 66.2998 35.337H67.0006C67.072 35.337 67.111 35.3758 67.111 35.4471V35.9848H67.1239C67.2408 35.758 67.416 35.5702 67.6431 35.4276C67.8767 35.2851 68.1688 35.2139 68.5192 35.2139C68.7334 35.2139 68.9345 35.2463 69.1162 35.3175C69.3044 35.3888 69.4602 35.4859 69.5965 35.609C69.6484 35.6609 69.6549 35.7127 69.6159 35.7645L69.2071 36.3022C69.1617 36.3605 69.1097 36.367 69.0513 36.3216C68.928 36.2439 68.7982 36.1791 68.6685 36.1338C68.5387 36.0884 68.3959 36.069 68.2401 36.069C67.8378 36.069 67.5458 36.2115 67.3705 36.4901C67.1953 36.7686 67.1045 37.1443 67.1045 37.6043V40.4806C67.1045 40.5518 67.0655 40.5907 66.9942 40.5907H66.2933L66.2998 40.5972Z" fill="#2F266D"/>
<path d="M73.6194 40.5975C73.548 40.5975 73.5091 40.5587 73.5091 40.4874V40.0275H73.4961C73.3728 40.2218 73.1781 40.3902 72.925 40.5198C72.672 40.6493 72.341 40.7206 71.9386 40.7206C71.692 40.7206 71.4584 40.6882 71.2378 40.6234C71.0236 40.5587 70.8354 40.4615 70.6797 40.3254C70.5239 40.1959 70.3941 40.0275 70.3033 39.8266C70.2124 39.6258 70.167 39.3991 70.167 39.1335C70.167 38.5764 70.3487 38.1618 70.7121 37.9026C71.0755 37.6435 71.5817 37.5075 72.2242 37.5075H73.4247C73.4702 37.5075 73.4896 37.488 73.4896 37.4427V37.0605C73.4896 36.6977 73.3988 36.4386 73.2236 36.2766C73.0483 36.1147 72.7109 36.0369 72.2242 36.0369C71.9257 36.0369 71.6726 36.0693 71.4779 36.1406C71.2832 36.2119 71.1015 36.3025 70.9522 36.4127C70.8873 36.4645 70.8354 36.458 70.7965 36.3997L70.498 35.8944C70.472 35.8361 70.4785 35.7843 70.5174 35.739C70.7121 35.5835 70.9652 35.4604 71.2637 35.3632C71.5622 35.2661 71.9127 35.2207 72.3085 35.2207C73.0548 35.2207 73.587 35.3567 73.8985 35.6353C74.21 35.9074 74.3657 36.3673 74.3657 37.0151V40.4939C74.3657 40.5651 74.3268 40.604 74.2554 40.604H73.6129L73.6194 40.5975ZM72.1528 39.9303C72.5746 39.9303 72.8991 39.8396 73.1327 39.6582C73.3663 39.4768 73.4831 39.2242 73.4831 38.8938V38.3108C73.4831 38.2654 73.4637 38.246 73.4183 38.246H72.3605C71.8997 38.246 71.5622 38.3108 71.3546 38.4468C71.1469 38.5828 71.0431 38.7966 71.0431 39.1011C71.0431 39.3732 71.1404 39.574 71.3286 39.7165C71.5168 39.8525 71.7894 39.9238 72.1463 39.9238L72.1528 39.9303Z" fill="#2F266D"/>
<path d="M76.2304 34.1573C76.1591 34.1573 76.1201 34.1185 76.1201 34.0472V33.2439C76.1201 33.1727 76.1591 33.1338 76.2304 33.1338H76.9767C77.0481 33.1338 77.0871 33.1727 77.0871 33.2439V34.0472C77.0871 34.1185 77.0481 34.1573 76.9767 34.1573H76.2304ZM76.2499 40.5966C76.1785 40.5966 76.1396 40.5577 76.1396 40.4864V35.4465C76.1396 35.3752 76.1785 35.3363 76.2499 35.3363H76.9508C77.0222 35.3363 77.0611 35.3752 77.0611 35.4465V40.4864C77.0611 40.5577 77.0222 40.5966 76.9508 40.5966H76.2499Z" fill="#2F266D"/>
<path d="M82.293 40.5964C82.2217 40.5964 82.1827 40.5575 82.1827 40.4863V37.4157C82.1827 36.9946 82.0854 36.6642 81.8907 36.431C81.696 36.1978 81.404 36.0812 81.0081 36.0812C80.6512 36.0812 80.3592 36.1978 80.132 36.4245C79.9114 36.6577 79.7946 36.9687 79.7946 37.3638V40.4928C79.7946 40.564 79.7556 40.6029 79.6842 40.6029H78.9834C78.912 40.6029 78.873 40.564 78.873 40.4928V35.4528C78.873 35.3815 78.912 35.3427 78.9834 35.3427H79.6842C79.7556 35.3427 79.7946 35.3815 79.7946 35.4528V35.9387H79.8075C79.9308 35.7314 80.119 35.5629 80.3656 35.4269C80.6122 35.2909 80.9173 35.2261 81.2807 35.2261C81.8518 35.2261 82.2995 35.4075 82.624 35.7638C82.9485 36.1201 83.1107 36.5994 83.1107 37.2019V40.4928C83.1107 40.564 83.0718 40.6029 83.0004 40.6029H82.2995L82.293 40.5964Z" fill="#2F266D"/>
<path d="M84.9414 34.1573C84.87 34.1573 84.8311 34.1185 84.8311 34.0472V33.2439C84.8311 33.1727 84.87 33.1338 84.9414 33.1338H85.6877C85.7591 33.1338 85.798 33.1727 85.798 33.2439V34.0472C85.798 34.1185 85.7591 34.1573 85.6877 34.1573H84.9414ZM84.9608 40.5966C84.8895 40.5966 84.8505 40.5577 84.8505 40.4864V35.4465C84.8505 35.3752 84.8895 35.3363 84.9608 35.3363H85.6617C85.7331 35.3363 85.772 35.3752 85.772 35.4465V40.4864C85.772 40.5577 85.7331 40.5966 85.6617 40.5966H84.9608Z" fill="#2F266D"/>
<path d="M90.9932 40.5964C90.9218 40.5964 90.8829 40.5575 90.8829 40.4863V37.4157C90.8829 36.9946 90.7856 36.6642 90.5909 36.431C90.3962 36.1978 90.1042 36.0812 89.7083 36.0812C89.3514 36.0812 89.0593 36.1978 88.8322 36.4245C88.6116 36.6577 88.4948 36.9687 88.4948 37.3638V40.4928C88.4948 40.564 88.4558 40.6029 88.3844 40.6029H87.6836C87.6122 40.6029 87.5732 40.564 87.5732 40.4928V35.4528C87.5732 35.3815 87.6122 35.3427 87.6836 35.3427H88.3844C88.4558 35.3427 88.4948 35.3815 88.4948 35.4528V35.9387H88.5077C88.631 35.7314 88.8192 35.5629 89.0658 35.4269C89.3124 35.2909 89.6175 35.2261 89.9809 35.2261C90.5519 35.2261 90.9997 35.4075 91.3242 35.7638C91.6487 36.1201 91.8109 36.5994 91.8109 37.2019V40.4928C91.8109 40.564 91.772 40.6029 91.7006 40.6029H90.9997L90.9932 40.5964Z" fill="#2F266D"/>
<path d="M95.2724 42.6964C94.896 42.6964 94.5455 42.6252 94.2146 42.4827C93.8836 42.3401 93.624 42.1523 93.4488 41.9191C93.4034 41.8672 93.4099 41.8154 93.4618 41.7636L93.9096 41.3166C93.9615 41.2648 94.0134 41.2648 94.0718 41.3166C94.2535 41.485 94.4417 41.6146 94.6364 41.7053C94.8311 41.796 95.0582 41.8413 95.3113 41.8413C95.7526 41.8413 96.0836 41.7247 96.3042 41.4915C96.5249 41.2583 96.6417 40.902 96.6417 40.4161V39.8007H96.6287C96.5054 40.021 96.3237 40.2024 96.0965 40.3319C95.8629 40.468 95.5579 40.5327 95.1685 40.5327C94.7208 40.5327 94.3444 40.4226 94.0458 40.2088C93.7473 39.9951 93.5267 39.6776 93.3969 39.2566C93.332 39.0557 93.2866 38.8549 93.2606 38.6476C93.2347 38.4403 93.2217 38.1812 93.2217 37.8767C93.2217 37.5723 93.2347 37.3131 93.2606 37.1058C93.2866 36.8985 93.332 36.6912 93.3969 36.4969C93.5267 36.0823 93.7473 35.7649 94.0458 35.5446C94.3444 35.3308 94.7208 35.2207 95.1685 35.2207C95.5579 35.2207 95.8694 35.2855 96.0965 35.415C96.3302 35.5446 96.5054 35.7195 96.6287 35.9398H96.6417V35.4474C96.6417 35.3762 96.6806 35.3373 96.752 35.3373H97.4529C97.5242 35.3373 97.5632 35.3762 97.5632 35.4474V40.3643C97.5632 41.1158 97.3685 41.6923 96.9726 42.094C96.5833 42.4956 96.0122 42.69 95.2659 42.69L95.2724 42.6964ZM95.3957 39.6776C95.9603 39.6776 96.3367 39.412 96.5249 38.8873C96.5703 38.7577 96.6027 38.6087 96.6157 38.4468C96.6352 38.2848 96.6417 38.0905 96.6417 37.8638C96.6417 37.637 96.6352 37.4492 96.6157 37.2872C96.5962 37.1253 96.5638 36.9827 96.5249 36.8467C96.3431 36.3285 95.9667 36.0693 95.3957 36.0693C94.8246 36.0693 94.4612 36.3285 94.2795 36.8467C94.234 36.9827 94.2016 37.1382 94.1821 37.3002C94.1627 37.4621 94.1497 37.65 94.1497 37.8638C94.1497 38.2784 94.1951 38.6217 94.2795 38.8808C94.4612 39.4056 94.8376 39.6712 95.3957 39.6712V39.6776Z" fill="#2F266D"/>
<path d="M102.032 33.2439C102.032 33.1727 102.071 33.1338 102.143 33.1338H106.646C106.718 33.1338 106.757 33.1727 106.757 33.2439V33.9371C106.757 34.0083 106.718 34.0472 106.646 34.0472H103.084C103.038 34.0472 103.019 34.0666 103.019 34.112V36.3081C103.019 36.3534 103.038 36.3728 103.084 36.3728H106.108C106.179 36.3728 106.218 36.4117 106.218 36.483V37.1761C106.218 37.2474 106.179 37.2862 106.108 37.2862H103.084C103.038 37.2862 103.019 37.3057 103.019 37.351V39.6248C103.019 39.6702 103.038 39.6896 103.084 39.6896H106.646C106.718 39.6896 106.757 39.7285 106.757 39.7998V40.4929C106.757 40.5642 106.718 40.603 106.646 40.603H102.143C102.071 40.603 102.032 40.5642 102.032 40.4929V33.2504V33.2439Z" fill="#2F266D"/>
<path d="M109.413 40.5966C109.348 40.5966 109.303 40.5578 109.283 40.4865L107.395 35.4466C107.375 35.3753 107.401 35.3364 107.486 35.3364H108.245C108.31 35.3364 108.355 35.3753 108.388 35.4466L109.751 39.2233H109.77L111.1 35.4466C111.12 35.3753 111.165 35.3364 111.23 35.3364H111.976C112.054 35.3364 112.087 35.3753 112.067 35.4466L110.185 40.4865C110.166 40.5578 110.114 40.5966 110.043 40.5966H109.413Z" fill="#2F266D"/>
<path d="M116.38 40.5975C116.309 40.5975 116.27 40.5587 116.27 40.4874V40.0275H116.257C116.134 40.2218 115.939 40.3902 115.686 40.5198C115.433 40.6493 115.102 40.7206 114.699 40.7206C114.453 40.7206 114.219 40.6882 113.999 40.6234C113.784 40.5587 113.596 40.4615 113.44 40.3254C113.285 40.1959 113.155 40.0275 113.064 39.8266C112.973 39.6258 112.928 39.3991 112.928 39.1335C112.928 38.5764 113.109 38.1618 113.473 37.9026C113.836 37.6435 114.342 37.5075 114.985 37.5075H116.185C116.231 37.5075 116.25 37.488 116.25 37.4427V37.0605C116.25 36.6977 116.16 36.4386 115.984 36.2766C115.809 36.1147 115.472 36.0369 114.985 36.0369C114.686 36.0369 114.433 36.0693 114.239 36.1406C114.044 36.2119 113.862 36.3025 113.713 36.4127C113.648 36.4645 113.596 36.458 113.557 36.3997L113.259 35.8944C113.233 35.8361 113.239 35.7843 113.278 35.739C113.473 35.5835 113.726 35.4604 114.024 35.3632C114.323 35.2661 114.673 35.2207 115.069 35.2207C115.816 35.2207 116.348 35.3567 116.659 35.6353C116.971 35.9074 117.126 36.3673 117.126 37.0151V40.4939C117.126 40.5651 117.088 40.604 117.016 40.604H116.374L116.38 40.5975ZM114.914 39.9303C115.335 39.9303 115.66 39.8396 115.893 39.6582C116.127 39.4768 116.244 39.2242 116.244 38.8938V38.3108C116.244 38.2654 116.224 38.246 116.179 38.246H115.121C114.66 38.246 114.323 38.3108 114.115 38.4468C113.908 38.5828 113.804 38.7966 113.804 39.1011C113.804 39.3732 113.901 39.574 114.089 39.7165C114.278 39.8525 114.55 39.9238 114.907 39.9238L114.914 39.9303Z" fill="#2F266D"/>
<path d="M120.166 40.6549C119.705 40.6549 119.374 40.5447 119.179 40.318C118.978 40.0977 118.881 39.7479 118.881 39.2685V33.2439C118.881 33.1727 118.92 33.1338 118.991 33.1338H119.692C119.763 33.1338 119.802 33.1727 119.802 33.2439V39.2167C119.802 39.437 119.841 39.586 119.926 39.6702C120.01 39.7544 120.146 39.7933 120.328 39.7933H120.536C120.607 39.7933 120.646 39.8321 120.646 39.9034V40.5383C120.646 40.6095 120.607 40.6484 120.536 40.6484H120.159L120.166 40.6549Z" fill="#2F266D"/>
<path d="M125.259 40.5966C125.188 40.5966 125.149 40.5578 125.149 40.4865V39.9942H125.136C125 40.2144 124.805 40.3893 124.571 40.5189C124.338 40.6485 124.039 40.7197 123.695 40.7197C123.118 40.7197 122.67 40.5383 122.345 40.1756C122.027 39.8128 121.865 39.3334 121.865 38.731V35.4466C121.865 35.3753 121.904 35.3364 121.976 35.3364H122.676C122.748 35.3364 122.787 35.3753 122.787 35.4466V38.5107C122.787 38.9447 122.884 39.2751 123.072 39.5083C123.26 39.7415 123.559 39.8581 123.955 39.8581C124.312 39.8581 124.604 39.7415 124.818 39.5083C125.032 39.2751 125.142 38.9577 125.142 38.5625V35.4466C125.142 35.3753 125.181 35.3364 125.253 35.3364H125.954C126.025 35.3364 126.064 35.3753 126.064 35.4466V40.4865C126.064 40.5578 126.025 40.5966 125.954 40.5966H125.253H125.259Z" fill="#2F266D"/>
<path d="M131.061 40.5975C130.989 40.5975 130.951 40.5587 130.951 40.4874V40.0275H130.938C130.814 40.2218 130.62 40.3902 130.366 40.5198C130.113 40.6493 129.782 40.7206 129.38 40.7206C129.133 40.7206 128.9 40.6882 128.679 40.6234C128.465 40.5587 128.277 40.4615 128.121 40.3254C127.965 40.1959 127.836 40.0275 127.745 39.8266C127.654 39.6258 127.608 39.3991 127.608 39.1335C127.608 38.5764 127.79 38.1618 128.154 37.9026C128.517 37.6435 129.023 37.5075 129.666 37.5075H130.866C130.912 37.5075 130.931 37.488 130.931 37.4427V37.0605C130.931 36.6977 130.84 36.4386 130.665 36.2766C130.49 36.1147 130.152 36.0369 129.666 36.0369C129.367 36.0369 129.114 36.0693 128.919 36.1406C128.725 36.2119 128.543 36.3025 128.394 36.4127C128.329 36.4645 128.277 36.458 128.238 36.3997L127.939 35.8944C127.913 35.8361 127.92 35.7843 127.959 35.739C128.154 35.5835 128.407 35.4604 128.705 35.3632C129.004 35.2661 129.354 35.2207 129.75 35.2207C130.496 35.2207 131.028 35.3567 131.34 35.6353C131.651 35.9074 131.807 36.3673 131.807 37.0151V40.4939C131.807 40.5651 131.768 40.604 131.697 40.604H131.054L131.061 40.5975ZM129.594 39.9303C130.016 39.9303 130.341 39.8396 130.574 39.6582C130.808 39.4768 130.925 39.2242 130.925 38.8938V38.3108C130.925 38.2654 130.905 38.246 130.86 38.246H129.802C129.341 38.246 129.004 38.3108 128.796 38.4468C128.588 38.5828 128.484 38.7966 128.484 39.1011C128.484 39.3732 128.582 39.574 128.77 39.7165C128.958 39.8525 129.231 39.9238 129.588 39.9238L129.594 39.9303Z" fill="#2F266D"/>
<path d="M135.102 40.6554C134.589 40.6554 134.226 40.5388 134.005 40.2991C133.791 40.0594 133.681 39.6836 133.681 39.1654V36.1596C133.681 36.1142 133.661 36.0948 133.616 36.0948H133.175C133.103 36.0948 133.064 36.0559 133.064 35.9847V35.4599C133.064 35.3887 133.103 35.3498 133.175 35.3498H133.616C133.661 35.3498 133.681 35.3304 133.681 35.285V33.8015C133.681 33.7303 133.72 33.6914 133.791 33.6914H134.492C134.564 33.6914 134.602 33.7303 134.602 33.8015V35.285C134.602 35.3304 134.622 35.3498 134.667 35.3498H135.505C135.576 35.3498 135.615 35.3887 135.615 35.4599V35.9847C135.615 36.0559 135.576 36.0948 135.505 36.0948H134.667C134.622 36.0948 134.602 36.1142 134.602 36.1596V39.133C134.602 39.3986 134.654 39.5735 134.765 39.6642C134.869 39.7549 135.044 39.8003 135.277 39.8003H135.511C135.582 39.8003 135.621 39.8391 135.621 39.9104V40.5452C135.621 40.6165 135.582 40.6554 135.511 40.6554H135.102Z" fill="#2F266D"/>
<path d="M137.142 34.1573C137.07 34.1573 137.031 34.1185 137.031 34.0472V33.2439C137.031 33.1727 137.07 33.1338 137.142 33.1338H137.888C137.959 33.1338 137.998 33.1727 137.998 33.2439V34.0472C137.998 34.1185 137.959 34.1573 137.888 34.1573H137.142ZM137.161 40.5966C137.09 40.5966 137.051 40.5577 137.051 40.4864V35.4465C137.051 35.3752 137.09 35.3363 137.161 35.3363H137.862C137.933 35.3363 137.972 35.3752 137.972 35.4465V40.4864C137.972 40.5577 137.933 40.5966 137.862 40.5966H137.161Z" fill="#2F266D"/>
<path d="M141.716 40.7203C141.203 40.7203 140.768 40.5972 140.405 40.3445C140.041 40.0984 139.788 39.7485 139.639 39.3015C139.581 39.1202 139.535 38.9258 139.509 38.725C139.477 38.5242 139.464 38.2715 139.464 37.9606C139.464 37.6496 139.477 37.4035 139.509 37.2026C139.535 37.0018 139.581 36.814 139.639 36.6326C139.782 36.1791 140.041 35.8293 140.405 35.5831C140.768 35.337 141.203 35.2139 141.716 35.2139C142.228 35.2139 142.663 35.337 143.033 35.5831C143.397 35.8293 143.65 36.1791 143.799 36.6326C143.857 36.814 143.903 37.0083 143.929 37.2026C143.955 37.397 143.974 37.6496 143.974 37.9606C143.974 38.2715 143.961 38.5242 143.929 38.725C143.903 38.9258 143.857 39.1202 143.799 39.3015C143.65 39.7485 143.397 40.0984 143.033 40.3445C142.67 40.5907 142.235 40.7203 141.716 40.7203ZM141.716 39.8651C142.008 39.8651 142.261 39.7939 142.462 39.6514C142.663 39.5088 142.812 39.308 142.903 39.0424C142.949 38.8934 142.981 38.7444 142.994 38.589C143.014 38.4335 143.02 38.2262 143.02 37.9671C143.02 37.7079 143.014 37.5071 142.994 37.3516C142.975 37.1962 142.942 37.0472 142.903 36.9047C142.819 36.639 142.67 36.4382 142.462 36.2957C142.254 36.1532 142.008 36.0819 141.716 36.0819C141.424 36.0819 141.171 36.1532 140.969 36.2957C140.762 36.4382 140.619 36.639 140.528 36.9047C140.483 37.0536 140.45 37.2026 140.437 37.3516C140.418 37.5071 140.411 37.7079 140.411 37.9671C140.411 38.2262 140.418 38.427 140.437 38.589C140.457 38.7444 140.489 38.8999 140.528 39.0424C140.619 39.308 140.762 39.5088 140.969 39.6514C141.177 39.7939 141.424 39.8651 141.716 39.8651Z" fill="#2F266D"/>
<path d="M148.875 40.5964C148.804 40.5964 148.765 40.5575 148.765 40.4863V37.4157C148.765 36.9946 148.667 36.6642 148.473 36.431C148.278 36.1978 147.986 36.0812 147.59 36.0812C147.233 36.0812 146.941 36.1978 146.714 36.4245C146.493 36.6577 146.377 36.9687 146.377 37.3638V40.4928C146.377 40.564 146.338 40.6029 146.266 40.6029H145.565C145.494 40.6029 145.455 40.564 145.455 40.4928V35.4528C145.455 35.3815 145.494 35.3427 145.565 35.3427H146.266C146.338 35.3427 146.377 35.3815 146.377 35.4528V35.9387H146.39C146.513 35.7314 146.701 35.5629 146.948 35.4269C147.194 35.2909 147.499 35.2261 147.863 35.2261C148.434 35.2261 148.882 35.4075 149.206 35.7638C149.531 36.1201 149.693 36.5994 149.693 37.2019V40.4928C149.693 40.564 149.654 40.6029 149.582 40.6029H148.882L148.875 40.5964Z" fill="#2F266D"/>
<path d="M154.03 38.9646C153.991 38.8545 153.965 38.7443 153.939 38.6277C153.913 38.5176 153.893 38.3816 153.88 38.2196C153.867 38.0641 153.854 37.8763 153.848 37.656C153.841 37.4358 153.835 37.1702 153.835 36.8657C153.835 36.5612 153.835 36.2956 153.848 36.0754C153.854 35.8551 153.867 35.6673 153.88 35.5118C153.893 35.3563 153.913 35.2203 153.939 35.1037C153.965 34.9935 153.997 34.8769 154.03 34.7668C154.218 34.1708 154.529 33.7303 154.951 33.4453C155.379 33.1537 155.899 33.0112 156.515 33.0112C157.073 33.0112 157.56 33.1408 157.975 33.3999C158.391 33.659 158.702 34.0283 158.916 34.5141C158.936 34.5789 158.923 34.6308 158.871 34.6567L158.209 34.9741C158.138 35.013 158.086 34.9935 158.053 34.9223C157.904 34.6308 157.709 34.3911 157.469 34.2032C157.229 34.0153 156.911 33.9246 156.515 33.9246C156.119 33.9246 155.775 34.0218 155.529 34.2097C155.282 34.3975 155.094 34.6696 154.971 35.0194C154.951 35.0972 154.925 35.1879 154.912 35.2786C154.893 35.3693 154.88 35.4859 154.867 35.6219C154.854 35.7579 154.847 35.9264 154.841 36.1272C154.834 36.328 154.828 36.5742 154.828 36.8657C154.828 37.1572 154.828 37.4034 154.841 37.6042C154.847 37.805 154.86 37.9735 154.867 38.1095C154.873 38.2455 154.893 38.3621 154.912 38.4528C154.932 38.55 154.951 38.6342 154.971 38.7055C155.094 39.0553 155.282 39.3274 155.529 39.5152C155.775 39.7031 156.106 39.8003 156.515 39.8003C156.924 39.8003 157.229 39.7096 157.469 39.5217C157.709 39.3339 157.904 39.0942 158.053 38.8026C158.079 38.7314 158.131 38.712 158.209 38.7508L158.871 39.0683C158.923 39.1006 158.936 39.146 158.916 39.2108C158.702 39.6966 158.391 40.0659 157.975 40.325C157.56 40.5841 157.073 40.7137 156.515 40.7137C155.899 40.7137 155.379 40.5712 154.951 40.2797C154.529 39.9881 154.218 39.5476 154.03 38.9581V38.9646Z" fill="#2F266D"/>
<path d="M162.232 40.7203C161.72 40.7203 161.278 40.5972 160.921 40.3445C160.558 40.0984 160.305 39.7485 160.156 39.3015C160.097 39.1202 160.052 38.9258 160.026 38.725C160 38.5242 159.98 38.2715 159.98 37.9606C159.98 37.6496 159.993 37.4035 160.026 37.2026C160.052 37.0018 160.097 36.814 160.156 36.6326C160.305 36.1791 160.558 35.8293 160.921 35.5831C161.285 35.337 161.72 35.2139 162.232 35.2139C162.745 35.2139 163.18 35.337 163.543 35.5831C163.907 35.8293 164.16 36.1791 164.309 36.6326C164.367 36.814 164.413 37.0083 164.439 37.2026C164.465 37.397 164.484 37.6496 164.484 37.9606C164.484 38.2715 164.471 38.5242 164.439 38.725C164.413 38.9258 164.367 39.1202 164.309 39.3015C164.16 39.7485 163.907 40.0984 163.543 40.3445C163.18 40.5907 162.745 40.7203 162.232 40.7203ZM162.232 39.8651C162.524 39.8651 162.777 39.7939 162.979 39.6514C163.186 39.5088 163.329 39.308 163.42 39.0424C163.465 38.8934 163.498 38.7444 163.511 38.589C163.53 38.4335 163.537 38.2262 163.537 37.9671C163.537 37.7079 163.53 37.5071 163.511 37.3516C163.491 37.1962 163.459 37.0472 163.42 36.9047C163.336 36.639 163.186 36.4382 162.979 36.2957C162.771 36.1532 162.524 36.0819 162.232 36.0819C161.94 36.0819 161.687 36.1532 161.486 36.2957C161.278 36.4382 161.136 36.639 161.045 36.9047C160.999 37.0536 160.967 37.2026 160.954 37.3516C160.934 37.5071 160.928 37.7079 160.928 37.9671C160.928 38.2262 160.934 38.427 160.954 38.589C160.973 38.7444 161.006 38.8999 161.045 39.0424C161.136 39.308 161.278 39.5088 161.486 39.6514C161.694 39.7939 161.94 39.8651 162.232 39.8651Z" fill="#2F266D"/>
<path d="M172.701 40.5968C172.629 40.5968 172.59 40.5579 172.59 40.4866V37.416C172.59 36.995 172.493 36.6646 172.298 36.4314C172.104 36.1981 171.812 36.0815 171.416 36.0815C171.065 36.0815 170.773 36.1981 170.546 36.4249C170.319 36.6581 170.209 36.969 170.209 37.3642V40.4931C170.209 40.5644 170.17 40.6033 170.098 40.6033H169.398C169.326 40.6033 169.287 40.5644 169.287 40.4931V37.4225C169.287 37.0014 169.19 36.671 168.995 36.4378C168.8 36.2046 168.508 36.088 168.113 36.088C167.756 36.088 167.464 36.2046 167.237 36.4314C167.016 36.6646 166.899 36.9755 166.899 37.3707V40.4996C166.899 40.5709 166.86 40.6097 166.789 40.6097H166.088C166.016 40.6097 165.978 40.5709 165.978 40.4996V35.4596C165.978 35.3884 166.016 35.3495 166.088 35.3495H166.789C166.86 35.3495 166.899 35.3884 166.899 35.4596V35.9455H166.912C167.035 35.7382 167.224 35.5698 167.47 35.4337C167.717 35.2977 168.022 35.2329 168.385 35.2329C168.749 35.2329 169.054 35.3042 169.313 35.4467C169.573 35.5892 169.774 35.79 169.923 36.0556H169.936C170.118 35.7965 170.351 35.5957 170.624 35.4532C170.897 35.3042 171.241 35.2329 171.643 35.2329C172.259 35.2329 172.727 35.4143 173.045 35.7706C173.363 36.1269 173.525 36.6063 173.525 37.2087V40.4996C173.525 40.5709 173.486 40.6097 173.415 40.6097H172.714L172.701 40.5968Z" fill="#2F266D"/>
<path d="M181.985 40.5968C181.914 40.5968 181.875 40.5579 181.875 40.4866V37.416C181.875 36.995 181.777 36.6646 181.583 36.4314C181.388 36.1981 181.096 36.0815 180.7 36.0815C180.35 36.0815 180.057 36.1981 179.83 36.4249C179.603 36.6581 179.493 36.969 179.493 37.3642V40.4931C179.493 40.5644 179.454 40.6033 179.383 40.6033H178.682C178.61 40.6033 178.571 40.5644 178.571 40.4931V37.4225C178.571 37.0014 178.474 36.671 178.279 36.4378C178.085 36.2046 177.793 36.088 177.397 36.088C177.04 36.088 176.748 36.2046 176.521 36.4314C176.3 36.6646 176.183 36.9755 176.183 37.3707V40.4996C176.183 40.5709 176.144 40.6097 176.073 40.6097H175.372C175.301 40.6097 175.262 40.5709 175.262 40.4996V35.4596C175.262 35.3884 175.301 35.3495 175.372 35.3495H176.073C176.144 35.3495 176.183 35.3884 176.183 35.4596V35.9455H176.196C176.32 35.7382 176.508 35.5698 176.754 35.4337C177.001 35.2977 177.306 35.2329 177.669 35.2329C178.033 35.2329 178.338 35.3042 178.597 35.4467C178.857 35.5892 179.058 35.79 179.207 36.0556H179.22C179.402 35.7965 179.636 35.5957 179.908 35.4532C180.181 35.3042 180.525 35.2329 180.927 35.2329C181.544 35.2329 182.011 35.4143 182.329 35.7706C182.647 36.1269 182.809 36.6063 182.809 37.2087V40.4996C182.809 40.5709 182.77 40.6097 182.699 40.6097H181.998L181.985 40.5968Z" fill="#2F266D"/>
<path d="M184.641 34.1573C184.569 34.1573 184.53 34.1185 184.53 34.0472V33.2439C184.53 33.1727 184.569 33.1338 184.641 33.1338H185.387C185.458 33.1338 185.497 33.1727 185.497 33.2439V34.0472C185.497 34.1185 185.458 34.1573 185.387 34.1573H184.641ZM184.66 40.5966C184.589 40.5966 184.55 40.5577 184.55 40.4864V35.4465C184.55 35.3752 184.589 35.3363 184.66 35.3363H185.361C185.432 35.3363 185.471 35.3752 185.471 35.4465V40.4864C185.471 40.5577 185.432 40.5966 185.361 40.5966H184.66Z" fill="#2F266D"/>
<path d="M189.094 40.7206C188.834 40.7206 188.601 40.6947 188.38 40.6494C188.159 40.604 187.958 40.5392 187.783 40.4615C187.601 40.3837 187.439 40.2995 187.296 40.2088C187.153 40.1181 187.024 40.021 186.92 39.9303C186.868 39.8785 186.868 39.8266 186.92 39.7748L187.368 39.2889C187.419 39.2371 187.471 39.2371 187.523 39.2889C187.718 39.4574 187.958 39.5999 188.244 39.7165C188.523 39.8331 188.828 39.8914 189.152 39.8914C189.542 39.8914 189.827 39.8137 190.022 39.6647C190.216 39.5157 190.307 39.3213 190.307 39.0881C190.307 38.8808 190.242 38.7189 190.106 38.6023C189.97 38.4792 189.697 38.4014 189.288 38.3561L188.73 38.3043C188.211 38.246 187.815 38.0905 187.556 37.8443C187.29 37.5982 187.16 37.2548 187.16 36.8208C187.16 36.3155 187.329 35.9203 187.673 35.6418C188.017 35.3632 188.497 35.2207 189.12 35.2207C189.509 35.2207 189.86 35.2725 190.178 35.3827C190.496 35.4928 190.768 35.6288 190.989 35.7973C191.047 35.8361 191.054 35.8879 191.008 35.9527L190.632 36.4256C190.586 36.4775 190.534 36.4839 190.476 36.4451C190.307 36.3349 190.1 36.2378 189.847 36.1471C189.593 36.0564 189.334 36.0175 189.061 36.0175C188.73 36.0175 188.484 36.0823 188.315 36.2183C188.146 36.3544 188.062 36.5293 188.062 36.7366C188.062 36.9439 188.133 37.1123 188.283 37.2224C188.432 37.339 188.704 37.4103 189.1 37.4492L189.652 37.501C190.191 37.5528 190.586 37.7083 190.846 37.9609C191.106 38.2201 191.235 38.5569 191.235 38.9845C191.235 39.5027 191.054 39.9238 190.684 40.2348C190.314 40.5457 189.788 40.7077 189.1 40.7077L189.094 40.7206Z" fill="#2F266D"/>
<path d="M194.478 40.7206C194.218 40.7206 193.984 40.6947 193.764 40.6494C193.543 40.604 193.342 40.5392 193.167 40.4615C192.985 40.3837 192.823 40.2995 192.68 40.2088C192.537 40.1181 192.407 40.021 192.304 39.9303C192.252 39.8785 192.252 39.8266 192.304 39.7748L192.751 39.2889C192.803 39.2371 192.855 39.2371 192.907 39.2889C193.102 39.4574 193.342 39.5999 193.627 39.7165C193.907 39.8331 194.212 39.8914 194.536 39.8914C194.925 39.8914 195.211 39.8137 195.406 39.6647C195.6 39.5157 195.691 39.3213 195.691 39.0881C195.691 38.8808 195.626 38.7189 195.49 38.6023C195.354 38.4792 195.081 38.4014 194.672 38.3561L194.114 38.3043C193.595 38.246 193.199 38.0905 192.94 37.8443C192.673 37.5982 192.544 37.2548 192.544 36.8208C192.544 36.3155 192.712 35.9203 193.056 35.6418C193.4 35.3632 193.881 35.2207 194.504 35.2207C194.893 35.2207 195.243 35.2725 195.561 35.3827C195.879 35.4928 196.152 35.6288 196.373 35.7973C196.431 35.8361 196.437 35.8879 196.392 35.9527L196.016 36.4256C195.97 36.4775 195.918 36.4839 195.86 36.4451C195.691 36.3349 195.483 36.2378 195.23 36.1471C194.977 36.0564 194.718 36.0175 194.445 36.0175C194.114 36.0175 193.868 36.0823 193.699 36.2183C193.53 36.3544 193.446 36.5293 193.446 36.7366C193.446 36.9439 193.517 37.1123 193.666 37.2224C193.816 37.339 194.088 37.4103 194.484 37.4492L195.036 37.501C195.574 37.5528 195.97 37.7083 196.23 37.9609C196.489 38.2201 196.619 38.5569 196.619 38.9845C196.619 39.5027 196.437 39.9238 196.068 40.2348C195.698 40.5457 195.172 40.7077 194.484 40.7077L194.478 40.7206Z" fill="#2F266D"/>
<path d="M198.141 34.1573C198.069 34.1573 198.03 34.1185 198.03 34.0472V33.2439C198.03 33.1727 198.069 33.1338 198.141 33.1338H198.887C198.958 33.1338 198.997 33.1727 198.997 33.2439V34.0472C198.997 34.1185 198.958 34.1573 198.887 34.1573H198.141ZM198.16 40.5966C198.089 40.5966 198.05 40.5577 198.05 40.4864V35.4465C198.05 35.3752 198.089 35.3363 198.16 35.3363H198.861C198.932 35.3363 198.971 35.3752 198.971 35.4465V40.4864C198.971 40.5577 198.932 40.5966 198.861 40.5966H198.16Z" fill="#2F266D"/>
<path d="M202.715 40.7203C202.202 40.7203 201.761 40.5972 201.404 40.3445C201.04 40.0984 200.787 39.7485 200.638 39.3015C200.58 39.1202 200.534 38.9258 200.508 38.725C200.482 38.5242 200.463 38.2715 200.463 37.9606C200.463 37.6496 200.476 37.4035 200.508 37.2026C200.534 37.0018 200.58 36.814 200.638 36.6326C200.787 36.1791 201.04 35.8293 201.404 35.5831C201.767 35.337 202.202 35.2139 202.715 35.2139C203.227 35.2139 203.662 35.337 204.026 35.5831C204.389 35.8293 204.642 36.1791 204.791 36.6326C204.85 36.814 204.895 37.0083 204.921 37.2026C204.947 37.397 204.967 37.6496 204.967 37.9606C204.967 38.2715 204.954 38.5242 204.921 38.725C204.895 38.9258 204.85 39.1202 204.791 39.3015C204.642 39.7485 204.389 40.0984 204.026 40.3445C203.662 40.5907 203.227 40.7203 202.715 40.7203ZM202.715 39.8651C203.007 39.8651 203.26 39.7939 203.461 39.6514C203.669 39.5088 203.811 39.308 203.902 39.0424C203.948 38.8934 203.98 38.7444 203.993 38.589C204.013 38.4335 204.019 38.2262 204.019 37.9671C204.019 37.7079 204.013 37.5071 203.993 37.3516C203.974 37.1962 203.941 37.0472 203.902 36.9047C203.818 36.639 203.669 36.4382 203.461 36.2957C203.253 36.1532 203.007 36.0819 202.715 36.0819C202.423 36.0819 202.17 36.1532 201.968 36.2957C201.761 36.4382 201.618 36.639 201.527 36.9047C201.482 37.0536 201.449 37.2026 201.436 37.3516C201.417 37.5071 201.41 37.7079 201.41 37.9671C201.41 38.2262 201.417 38.427 201.436 38.589C201.456 38.7444 201.488 38.8999 201.527 39.0424C201.618 39.308 201.761 39.5088 201.968 39.6514C202.176 39.7939 202.423 39.8651 202.715 39.8651Z" fill="#2F266D"/>
<path d="M209.868 40.5964C209.797 40.5964 209.758 40.5575 209.758 40.4863V37.4157C209.758 36.9946 209.661 36.6642 209.466 36.431C209.271 36.1978 208.979 36.0812 208.583 36.0812C208.226 36.0812 207.934 36.1978 207.707 36.4245C207.487 36.6577 207.37 36.9687 207.37 37.3638V40.4928C207.37 40.564 207.331 40.6029 207.259 40.6029H206.559C206.487 40.6029 206.448 40.564 206.448 40.4928V35.4528C206.448 35.3815 206.487 35.3427 206.559 35.3427H207.259C207.331 35.3427 207.37 35.3815 207.37 35.4528V35.9387H207.383C207.506 35.7314 207.694 35.5629 207.941 35.4269C208.187 35.2909 208.492 35.2261 208.856 35.2261C209.427 35.2261 209.875 35.4075 210.199 35.7638C210.524 36.1201 210.686 36.5994 210.686 37.2019V40.4928C210.686 40.564 210.647 40.6029 210.576 40.6029H209.875L209.868 40.5964Z" fill="#2F266D"/>
<path d="M272.612 7.38281L264.526 12.8698L264.598 21.6735L272.69 16.1801L272.612 7.38281Z" fill="#2F266D"/>
<path d="M253.773 29.0021L261.639 23.6642V14.8086L253.773 20.153V29.0021Z" fill="#2F266D"/>
<path d="M261.639 0.899414L253.773 6.21793V15.4427L253.78 16.6347L261.639 11.3032V0.899414Z" fill="#2F266D"/>
<path d="M283.179 34.9093L274.074 31.3398L266.838 36.3733L275.943 39.9363L283.179 34.9093Z" fill="#2F266D"/>
<path d="M254.662 31.5854L263.514 35.0512L270.834 30.0566L261.982 26.5908L254.662 31.5854Z" fill="#2F266D"/>
<path d="M265.871 23.9354L264.891 24.6156L273.736 28.0749L282.341 22.1993L273.502 18.7271L265.871 23.9354Z" fill="#2F266D"/>
<path d="M231.994 7.38281L240.08 12.8698L240.008 21.6735L231.916 16.1801L231.994 7.38281Z" fill="#2F266D"/>
<path d="M250.837 29.0021L242.972 23.6642V14.8086L250.837 20.153V29.0021Z" fill="#2F266D"/>
<path d="M242.972 0.899414V11.3032L250.824 16.6347L250.837 15.4427V6.21793L242.972 0.899414Z" fill="#2F266D"/>
<path d="M221.435 34.9093L230.539 31.3398L237.769 36.3733L228.664 39.9363L221.435 34.9093Z" fill="#2F266D"/>
<path d="M249.942 31.5854L241.091 35.0512L233.771 30.0566L242.622 26.5908L249.942 31.5854Z" fill="#2F266D"/>
<path d="M238.737 23.9354L239.717 24.6156L230.872 28.0749L222.273 22.1993L231.112 18.7271L238.737 23.9354Z" fill="#2F266D"/>
</svg>
