<svg width="164" height="124" viewBox="0 0 164 124" fill="none" xmlns="http://www.w3.org/2000/svg">
<rect width="164" height="124" rx="10" fill="#F1FAFF"/>
<path d="M93 51H71C70.4696 51 69.9609 51.2107 69.5858 51.5858C69.2107 51.9609 69 52.4696 69 53V71C69 71.5304 69.2107 72.0391 69.5858 72.4142C69.9609 72.7893 70.4696 73 71 73H93C93.5304 73 94.0391 72.7893 94.4142 72.4142C94.7893 72.0391 95 71.5304 95 71V53C95 52.4696 94.7893 51.9609 94.4142 51.5858C94.0391 51.2107 93.5304 51 93 51ZM93 71H71V53H93V71ZM89 58C89 58.2652 88.8946 58.5196 88.7071 58.7071C88.5196 58.8946 88.2652 59 88 59H76C75.7348 59 75.4804 58.8946 75.2929 58.7071C75.1054 58.5196 75 58.2652 75 58C75 57.7348 75.1054 57.4804 75.2929 57.2929C75.4804 57.1054 75.7348 57 76 57H88C88.2652 57 88.5196 57.1054 88.7071 57.2929C88.8946 57.4804 89 57.7348 89 58ZM89 62C89 62.2652 88.8946 62.5196 88.7071 62.7071C88.5196 62.8946 88.2652 63 88 63H76C75.7348 63 75.4804 62.8946 75.2929 62.7071C75.1054 62.5196 75 62.2652 75 62C75 61.7348 75.1054 61.4804 75.2929 61.2929C75.4804 61.1054 75.7348 61 76 61H88C88.2652 61 88.5196 61.1054 88.7071 61.2929C88.8946 61.4804 89 61.7348 89 62ZM89 66C89 66.2652 88.8946 66.5196 88.7071 66.7071C88.5196 66.8946 88.2652 67 88 67H76C75.7348 67 75.4804 66.8946 75.2929 66.7071C75.1054 66.5196 75 66.2652 75 66C75 65.7348 75.1054 65.4804 75.2929 65.2929C75.4804 65.1054 75.7348 65 76 65H88C88.2652 65 88.5196 65.1054 88.7071 65.2929C88.8946 65.4804 89 65.7348 89 66Z" fill="#C8C3DC"/>
<rect width="164" height="124" rx="10" fill="#F1FAFF"/>
<path d="M93 51H71C70.4696 51 69.9609 51.2107 69.5858 51.5858C69.2107 51.9609 69 52.4696 69 53V71C69 71.5304 69.2107 72.0391 69.5858 72.4142C69.9609 72.7893 70.4696 73 71 73H93C93.5304 73 94.0391 72.7893 94.4142 72.4142C94.7893 72.0391 95 71.5304 95 71V53C95 52.4696 94.7893 51.9609 94.4142 51.5858C94.0391 51.2107 93.5304 51 93 51ZM93 71H71V53H93V71ZM89 58C89 58.2652 88.8946 58.5196 88.7071 58.7071C88.5196 58.8946 88.2652 59 88 59H76C75.7348 59 75.4804 58.8946 75.2929 58.7071C75.1054 58.5196 75 58.2652 75 58C75 57.7348 75.1054 57.4804 75.2929 57.2929C75.4804 57.1054 75.7348 57 76 57H88C88.2652 57 88.5196 57.1054 88.7071 57.2929C88.8946 57.4804 89 57.7348 89 58ZM89 62C89 62.2652 88.8946 62.5196 88.7071 62.7071C88.5196 62.8946 88.2652 63 88 63H76C75.7348 63 75.4804 62.8946 75.2929 62.7071C75.1054 62.5196 75 62.2652 75 62C75 61.7348 75.1054 61.4804 75.2929 61.2929C75.4804 61.1054 75.7348 61 76 61H88C88.2652 61 88.5196 61.1054 88.7071 61.2929C88.8946 61.4804 89 61.7348 89 62ZM89 66C89 66.2652 88.8946 66.5196 88.7071 66.7071C88.5196 66.8946 88.2652 67 88 67H76C75.7348 67 75.4804 66.8946 75.2929 66.7071C75.1054 66.5196 75 66.2652 75 66C75 65.7348 75.1054 65.4804 75.2929 65.2929C75.4804 65.1054 75.7348 65 76 65H88C88.2652 65 88.5196 65.1054 88.7071 65.2929C88.8946 65.4804 89 65.7348 89 66Z" fill="#C8C3DC"/>
<rect width="164" height="124" rx="10" fill="#F1FAFF"/>
<path d="M93 51H71C70.4696 51 69.9609 51.2107 69.5858 51.5858C69.2107 51.9609 69 52.4696 69 53V71C69 71.5304 69.2107 72.0391 69.5858 72.4142C69.9609 72.7893 70.4696 73 71 73H93C93.5304 73 94.0391 72.7893 94.4142 72.4142C94.7893 72.0391 95 71.5304 95 71V53C95 52.4696 94.7893 51.9609 94.4142 51.5858C94.0391 51.2107 93.5304 51 93 51ZM93 71H71V53H93V71ZM89 58C89 58.2652 88.8946 58.5196 88.7071 58.7071C88.5196 58.8946 88.2652 59 88 59H76C75.7348 59 75.4804 58.8946 75.2929 58.7071C75.1054 58.5196 75 58.2652 75 58C75 57.7348 75.1054 57.4804 75.2929 57.2929C75.4804 57.1054 75.7348 57 76 57H88C88.2652 57 88.5196 57.1054 88.7071 57.2929C88.8946 57.4804 89 57.7348 89 58ZM89 62C89 62.2652 88.8946 62.5196 88.7071 62.7071C88.5196 62.8946 88.2652 63 88 63H76C75.7348 63 75.4804 62.8946 75.2929 62.7071C75.1054 62.5196 75 62.2652 75 62C75 61.7348 75.1054 61.4804 75.2929 61.2929C75.4804 61.1054 75.7348 61 76 61H88C88.2652 61 88.5196 61.1054 88.7071 61.2929C88.8946 61.4804 89 61.7348 89 62ZM89 66C89 66.2652 88.8946 66.5196 88.7071 66.7071C88.5196 66.8946 88.2652 67 88 67H76C75.7348 67 75.4804 66.8946 75.2929 66.7071C75.1054 66.5196 75 66.2652 75 66C75 65.7348 75.1054 65.4804 75.2929 65.2929C75.4804 65.1054 75.7348 65 76 65H88C88.2652 65 88.5196 65.1054 88.7071 65.2929C88.8946 65.4804 89 65.7348 89 66Z" fill="#C8C3DC"/>
<rect width="164" height="124" rx="5" fill="#F1FAFF"/>
<path d="M92 50H72C71.4696 50 70.9609 50.2107 70.5858 50.5858C70.2107 50.9609 70 51.4696 70 52V72C70 72.5304 70.2107 73.0391 70.5858 73.4142C70.9609 73.7893 71.4696 74 72 74H92C92.5304 74 93.0391 73.7893 93.4142 73.4142C93.7893 73.0391 94 72.5304 94 72V52C94 51.4696 93.7893 50.9609 93.4142 50.5858C93.0391 50.2107 92.5304 50 92 50ZM78 61C78 60.2089 78.2346 59.4355 78.6741 58.7777C79.1136 58.1199 79.7384 57.6072 80.4693 57.3045C81.2002 57.0017 82.0044 56.9225 82.7804 57.0769C83.5563 57.2312 84.269 57.6122 84.8284 58.1716C85.3878 58.731 85.7688 59.4437 85.9231 60.2196C86.0775 60.9956 85.9983 61.7998 85.6955 62.5307C85.3928 63.2616 84.8801 63.8864 84.2223 64.3259C83.5645 64.7654 82.7911 65 82 65C80.9391 65 79.9217 64.5786 79.1716 63.8284C78.4214 63.0783 78 62.0609 78 61ZM74.5837 72C75.0955 70.7402 75.9182 69.6306 76.975 68.775C78.3979 67.6264 80.1714 66.9999 82 66.9999C83.8286 66.9999 85.6021 67.6264 87.025 68.775C88.0818 69.6306 88.9045 70.7402 89.4163 72H74.5837ZM92 72H91.5413C91.0966 70.5846 90.3422 69.286 89.3329 68.1986C88.3236 67.1113 87.0847 66.2624 85.7062 65.7138C86.6876 64.9429 87.4042 63.8853 87.7562 62.6882C88.1083 61.491 88.0784 60.2139 87.6706 59.0345C87.2628 57.8552 86.4974 56.8323 85.481 56.1083C84.4647 55.3844 83.2479 54.9953 82 54.9953C80.7521 54.9953 79.5353 55.3844 78.519 56.1083C77.5026 56.8323 76.7372 57.8552 76.3294 59.0345C75.9216 60.2139 75.8917 61.491 76.2438 62.6882C76.5958 63.8853 77.3124 64.9429 78.2937 65.7138C76.9153 66.2624 75.6764 67.1113 74.6671 68.1986C73.6578 69.286 72.9034 70.5846 72.4587 72H72V52H92V72Z" fill="#C8C3DC"/>
</svg>
