<svg width="96" height="41" viewBox="0 0 96 41" fill="none" xmlns="http://www.w3.org/2000/svg">
<g clip-path="url(#clip0_2035_1379)">
<path d="M10.2525 37.9666H8.35209L8.73546 28.5108C8.76832 27.6862 8.11112 26.999 7.28961 26.999C6.5174 26.999 5.87663 27.6147 5.84377 28.3899L5.45492 37.6587V37.9666H3.6969C3.19853 37.9666 2.96303 37.7302 2.99041 37.2574L3.35187 28.5163C3.38473 27.6917 2.72753 27.0045 1.90603 27.0045C1.13381 27.0045 0.49304 27.6147 0.46018 28.3954L0.0768117 37.3783C0.0494283 38.3404 0.208252 39.1046 0.553284 39.6763C0.898315 40.2425 1.49527 40.5284 2.34416 40.5284H12.246C13.0128 40.5284 13.6371 39.9237 13.6754 39.1595L14.1683 28.5273C14.2067 27.7027 13.5495 27.01 12.7225 27.01H12.7115C11.9393 27.01 11.2986 27.6202 11.2657 28.4009L10.8878 37.3673C10.8714 37.7082 10.5921 37.9776 10.2525 37.9776V37.9666Z" fill="white"/>
<path d="M26.0691 29.3848C25.8939 28.89 25.6091 28.4502 25.2093 28.0544C24.815 27.6586 24.2892 27.3452 23.632 27.1088C22.9748 26.8724 22.1807 26.7515 21.2332 26.7515C20.2858 26.7515 19.4752 26.8669 18.829 27.1088C18.1827 27.3452 17.6569 27.6586 17.2626 28.0544C16.8628 28.4447 16.578 28.89 16.4028 29.3848C16.2275 29.8796 16.1399 30.3853 16.1399 30.8966L15.9592 36.4821C15.9592 36.9933 16.0468 37.4991 16.222 37.9939C16.3973 38.4887 16.6821 38.934 17.0819 39.3243C17.4817 39.7201 18.002 40.0335 18.6482 40.2699C19.2945 40.5063 20.0995 40.6272 21.0525 40.6272C22.0054 40.6272 22.7941 40.5118 23.4513 40.2699C24.103 40.0335 24.6288 39.7201 25.0286 39.3243C25.4229 38.934 25.7132 38.4887 25.8884 37.9939C26.0637 37.4991 26.1513 36.9933 26.1513 36.4821L26.332 30.8966C26.332 30.3853 26.2444 29.8796 26.0691 29.3848ZM23.2377 36.2182C23.2377 36.746 23.0679 37.1528 22.7229 37.4386C22.3778 37.7245 21.8247 37.862 21.0525 37.862C20.2803 37.862 19.7271 37.719 19.3821 37.4386C19.0371 37.1528 18.8673 36.746 18.8673 36.2182L19.048 31.166C19.048 30.6382 19.2178 30.2204 19.5628 29.918C19.9079 29.6102 20.461 29.4617 21.2332 29.4617C22.0054 29.4617 22.5586 29.6102 22.9036 29.918C23.2486 30.2204 23.4184 30.6382 23.4184 31.166L23.2377 36.2182Z" fill="white"/>
<path d="M36.3051 34.1401C36.0477 33.8213 35.6643 33.5464 35.1495 33.31C34.6347 33.0736 33.9501 32.8372 33.0848 32.6118C32.6138 32.4909 32.2359 32.3919 31.9511 32.315C31.6663 32.2435 31.4473 32.15 31.2939 32.0511C31.1406 31.9521 31.0365 31.8147 30.9817 31.6443C30.927 31.4738 30.8996 31.2429 30.8996 30.9461C30.8996 30.4458 31.0146 30.1215 31.2556 29.973C31.4911 29.8246 31.9237 29.7476 32.559 29.7476H35.2809C35.9984 29.7476 36.5899 29.1814 36.6227 28.4612C36.6556 27.6915 36.0477 27.0483 35.2809 27.0483H32.5207C31.8306 27.0483 31.2008 27.1308 30.6312 27.3012C30.0562 27.4716 29.5687 27.7135 29.1635 28.0214C28.7582 28.3348 28.4405 28.7141 28.216 29.1704C27.986 29.6267 27.871 30.1324 27.871 30.7042C27.871 31.3804 27.9257 31.9576 28.0408 32.4304C28.1558 32.9032 28.3529 33.3045 28.6377 33.6289C28.9225 33.9532 29.3004 34.2226 29.7823 34.4425C30.2588 34.6569 30.8722 34.8438 31.6116 34.9923C32.0552 35.0857 32.4221 35.1847 32.7124 35.2781C33.0026 35.3716 33.2327 35.4815 33.397 35.6025C33.5613 35.7234 33.6817 35.8719 33.7529 36.0478C33.8241 36.2237 33.857 36.4326 33.857 36.6745C33.857 37.1473 33.731 37.4606 33.4736 37.6091C33.2162 37.7575 32.7288 37.8345 32.0168 37.8345H29.0539C28.3365 37.8345 27.745 38.4007 27.7121 39.1264C27.6793 39.896 28.2872 40.5393 29.0539 40.5393H31.973C35.2645 40.5393 36.9075 39.3133 36.9075 36.8669C36.9075 36.2567 36.8692 35.7344 36.798 35.2946C36.7268 34.8548 36.557 34.4755 36.3051 34.1566V34.1401Z" fill="white"/>
<path d="M48.2388 29.3848C48.0636 28.89 47.7788 28.4502 47.379 28.0544C46.9792 27.6586 46.4534 27.3452 45.8017 27.1088C45.15 26.8724 44.3504 26.7515 43.4084 26.7515C42.4664 26.7515 41.6504 26.8669 41.0041 27.1088C40.3579 27.3452 39.8321 27.6586 39.4378 28.0544C39.038 28.4447 38.7532 28.89 38.578 29.3848C38.4027 29.8796 38.3151 30.3853 38.3151 30.8966L38.1343 36.4821C38.1343 36.9933 38.222 37.4991 38.3972 37.9939C38.5725 38.4887 38.8573 38.934 39.2571 39.3243C39.6569 39.7201 40.1771 40.0335 40.8234 40.2699C41.4696 40.5063 42.2692 40.6272 43.2277 40.6272C44.1861 40.6272 44.9692 40.5118 45.6265 40.2699C46.2782 40.0335 46.8039 39.7201 47.2037 39.3243C47.6035 38.934 47.8883 38.4887 48.0636 37.9939C48.2388 37.4991 48.3265 36.9933 48.3265 36.4821L48.5072 30.8966C48.5072 30.3853 48.4196 29.8796 48.2443 29.3848H48.2388ZM45.4074 36.2182C45.4074 36.746 45.2376 37.1528 44.8926 37.4386C44.5475 37.7245 43.9944 37.862 43.2222 37.862C42.45 37.862 41.8968 37.719 41.5518 37.4386C41.2068 37.1528 41.037 36.746 41.037 36.2182L41.2177 31.166C41.2177 30.6382 41.3875 30.2204 41.7325 29.918C42.0776 29.6102 42.6307 29.4617 43.4029 29.4617C44.1751 29.4617 44.7283 29.6102 45.0733 29.918C45.4183 30.2204 45.5881 30.6382 45.5881 31.166L45.4074 36.2182Z" fill="white"/>
<path d="M53.2117 37.8235L53.5074 28.4997C53.5348 27.6806 52.8776 27.0044 52.0616 27.0044C51.2839 27.0044 50.6431 27.6256 50.6157 28.4063L50.2488 39.5167C50.2324 40.0665 50.6705 40.5228 51.2182 40.5228H57.2316C57.9545 40.5228 58.546 39.9511 58.5734 39.2254C58.6008 38.4612 57.9928 37.8235 57.2316 37.8235H53.2062H53.2117Z" fill="white"/>
<path d="M58.6171 12.2053C58.6117 11.3202 58.4693 10.5726 58.2009 9.95137C57.9326 9.33015 57.4944 8.85186 56.892 8.51651C56.2895 8.18117 55.4461 8.01074 54.3563 8.01074H53.7757C53.1952 8.01074 52.5983 8.08221 51.9903 8.21965C51.3824 8.35709 50.8293 8.59898 50.3364 8.95082C49.8435 9.30266 49.4437 9.78644 49.1315 10.3967C48.8193 11.0124 48.666 11.804 48.666 12.7771L48.5565 15.0641C48.5565 15.5259 48.5893 15.9492 48.6496 16.3285C48.7098 16.7078 48.8248 17.0377 48.9946 17.3015C49.1644 17.5709 49.4053 17.7798 49.712 17.9283C50.0187 18.0767 50.424 18.1537 50.9333 18.1537H54.9313C54.8273 18.6429 54.6575 19.0388 54.4275 19.3356C54.1975 19.6325 53.8962 19.8634 53.5238 20.0228C53.1514 20.1822 52.7023 20.2867 52.182 20.3362C51.6617 20.3912 51.0538 20.4186 50.3692 20.4186C50.2707 20.4186 50.183 20.4186 50.0954 20.4186C50.0187 20.4186 49.9421 20.4186 49.8709 20.4131C49.4546 20.4351 49.0932 20.666 48.8905 21.0014C48.7755 21.1883 48.7098 21.4137 48.7098 21.6501C48.7098 21.76 48.7262 21.8645 48.7481 21.9689C48.8796 22.4637 49.3013 22.8376 49.8216 22.887C49.8435 22.887 49.8654 22.887 49.8818 22.887C50.2049 22.909 50.5171 22.9255 50.8238 22.9255C51.848 22.9255 52.7899 22.865 53.6388 22.7551C54.4877 22.6451 55.2271 22.4197 55.8624 22.0899C56.4977 21.76 57.007 21.2927 57.3904 20.688C57.7792 20.0778 58.0202 19.2752 58.1242 18.2746L58.4528 15.1575C58.5733 14.0635 58.6226 13.0795 58.6171 12.1944V12.2053ZM55.594 13.4203C55.5338 13.9426 55.4735 14.5253 55.4188 15.1685H52.6475C52.3354 15.1685 52.1108 15.108 51.9794 14.9706C51.8479 14.8332 51.7768 14.6188 51.7768 14.3219L51.8863 12.4362C51.8863 11.8535 52.0506 11.4577 52.3737 11.2433C52.7023 11.0344 53.1185 10.9299 53.6279 10.9299H54.3672C54.7999 10.9299 55.1066 11.0289 55.2928 11.2213C55.479 11.4137 55.594 11.6996 55.6269 12.0734C55.6652 12.4472 55.6543 12.898 55.594 13.4203Z" fill="white"/>
<path d="M50.0954 20.424C50.0187 20.424 49.942 20.424 49.8708 20.4185C49.8928 20.4185 49.9201 20.4185 49.9475 20.4185C49.9968 20.4185 50.0516 20.4185 50.0954 20.4295V20.424Z" fill="white"/>
<path d="M47.0559 11.8697C46.9737 10.9956 46.7656 10.2699 46.437 9.69266C46.1084 9.12091 45.621 8.68661 44.9802 8.39524C44.3394 8.10387 43.496 7.96094 42.4555 7.96094H40.9603C40.2922 7.96094 39.6185 8.07639 38.9504 8.29079C38.2822 8.50519 37.6469 8.81855 37.05 9.22537C36.9295 8.75258 36.6064 8.36226 36.1792 8.15335C35.9656 8.0489 35.7301 7.99392 35.4782 7.99392C35.0017 7.99392 34.5745 8.20283 34.2733 8.52718C34.0378 8.79106 33.8844 9.12641 33.8571 9.50024V9.5937V9.62119L33.5832 15.1957H23.654H22.8325C22.953 14.1072 23.0023 13.1176 22.9968 12.2325C22.9858 11.3474 22.8489 10.5997 22.5805 9.97853C22.3122 9.35731 21.8741 8.87902 21.2716 8.54367C20.6692 8.20833 19.8203 8.0379 18.7359 8.0434H18.1554C17.5749 8.0434 16.9779 8.11487 16.37 8.25231C15.7566 8.38974 15.2089 8.63164 14.716 8.98348C14.2231 9.33532 13.8233 9.8191 13.5111 10.4348C13.199 11.045 13.0456 11.8422 13.0456 12.8152L12.9361 15.1022C12.9361 15.564 12.969 15.9873 13.0292 16.3721C13.0894 16.7515 13.2045 17.0758 13.3797 17.3452C13.5495 17.6146 13.7905 17.8235 14.0972 17.9719C14.4038 18.1204 14.8091 18.1973 15.313 18.1973H19.311C19.2069 18.6811 19.0371 19.0824 18.8071 19.3793C18.5771 19.6762 18.2759 19.907 17.9035 20.0665C17.531 20.2259 17.0874 20.3304 16.5617 20.3853C16.0414 20.4403 15.4335 20.4623 14.7489 20.4678C14.6667 20.4678 14.5901 20.4678 14.5134 20.4678C14.4148 20.4678 14.3162 20.4678 14.2286 20.4623C13.8124 20.4953 13.4564 20.7427 13.2592 21.089C13.1552 21.2704 13.1004 21.4793 13.1004 21.7047C13.1004 21.7982 13.1114 21.8917 13.1333 21.9796C13.2483 22.4909 13.6809 22.8867 14.2122 22.9417C14.2341 22.9417 14.256 22.9417 14.2779 22.9417C14.5955 22.9637 14.9022 22.9802 15.2034 22.9802C16.2331 22.9802 17.1696 22.9197 18.0185 22.8097C18.8674 22.6943 19.6067 22.4744 20.242 22.1445C20.8773 21.8147 21.3866 21.3474 21.77 20.7427C22.1534 20.1379 22.3998 19.3298 22.5039 18.3293V18.1973H24.2455L46.3056 18.1753H46.4863C46.7382 18.1368 46.9299 17.9334 46.9683 17.6806C46.9683 17.6806 46.9683 17.6476 46.9683 17.6311C46.9683 17.6201 46.9683 17.6091 46.9683 17.6036C46.9683 17.5596 46.9737 17.5156 46.9792 17.4716C47.0011 17.1803 47.0175 16.8779 47.034 16.5646C47.0504 16.2512 47.0559 15.9488 47.0668 15.6575C47.0723 15.3661 47.0833 15.1297 47.0997 14.9483C47.1545 13.7828 47.1435 12.7603 47.0614 11.8862L47.0559 11.8697ZM19.9627 13.4585C19.9024 13.9807 19.8422 14.5635 19.7874 15.2067H17.0162C16.7041 15.2067 16.4795 15.1462 16.3481 15.0088C16.2166 14.8713 16.1454 14.6569 16.1454 14.3601L16.255 12.4744C16.255 11.8917 16.4138 11.4958 16.7424 11.2869C17.071 11.078 17.4872 10.9736 17.9966 10.9736H18.7359C19.1686 10.9736 19.4753 11.067 19.6615 11.2649C19.8477 11.4574 19.9627 11.7432 19.9956 12.1171C20.0339 12.4909 20.0229 12.9417 19.9627 13.464V13.4585ZM44.0766 15.1847L36.7707 15.1957L36.924 11.8312C37.0445 11.6498 37.1978 11.5068 37.3895 11.3914C37.5812 11.2814 37.8003 11.188 38.0358 11.122C38.2713 11.056 38.5122 11.0066 38.7477 10.9846C38.9832 10.9626 39.2078 10.9461 39.4159 10.9461H42.4555C42.8881 10.9461 43.2222 11.045 43.4632 11.254C43.6987 11.4629 43.8739 11.7487 43.978 12.1171C44.082 12.4854 44.1368 12.9307 44.1368 13.453C44.1368 13.9752 44.1149 14.5525 44.0711 15.1792L44.0766 15.1847Z" fill="white"/>
<path d="M14.5079 20.4625C14.4093 20.4625 14.3107 20.4625 14.2231 20.457C14.2559 20.457 14.2943 20.457 14.3271 20.457C14.3874 20.457 14.4476 20.457 14.5079 20.468V20.4625Z" fill="white"/>
<path d="M55.1395 0.445819C54.9752 0.280893 54.7999 0.165445 54.6137 0.0994748C54.4275 0.0335046 54.2358 -0.00497803 54.0441 0.000519491C53.6553 0.000519491 53.3048 0.13246 52.9981 0.396341C52.6859 0.660222 52.5161 0.962585 52.4833 1.30343C52.4559 1.64978 52.4942 1.90816 52.5983 2.08958C52.7023 2.2655 52.8228 2.40843 52.9543 2.51289L51.8151 2.85923C51.8151 2.85923 51.8096 2.85923 51.8042 2.85923C51.6015 2.9252 51.4482 3.10662 51.4263 3.32652C51.4263 3.34851 51.4263 3.3705 51.4263 3.38699C51.4263 3.52993 51.481 3.65637 51.5687 3.75533C51.6672 3.87077 51.8151 3.94224 51.9794 3.94224C52.0287 3.94224 52.078 3.93674 52.1273 3.92025L52.1601 3.90926L53.7703 3.42547C54.2468 3.27704 54.6739 3.04615 55.0518 2.73828C55.4297 2.43042 55.6214 2.02361 55.6214 1.51783C55.6214 1.1605 55.4626 0.79766 55.1504 0.440321L55.1395 0.445819ZM54.3344 1.75973C54.2906 1.8257 54.2358 1.88617 54.1646 1.93015C54.0989 1.97413 54.0386 2.01261 53.9948 2.0456C53.9182 1.98512 53.836 1.91366 53.7374 1.8202C53.6389 1.73224 53.6005 1.6058 53.6115 1.44087C53.6279 1.27594 53.7155 1.16599 53.8798 1.10552C54.0441 1.04505 54.1865 1.10002 54.3015 1.25945C54.3782 1.3639 54.4111 1.45736 54.4056 1.53982C54.4001 1.62229 54.3727 1.69376 54.3289 1.76522L54.3344 1.75973Z" fill="white"/>
<path d="M46.4808 18.1646C46.448 18.1646 46.4206 18.17 46.3877 18.17C46.3549 18.17 46.3275 18.17 46.3001 18.1646H46.4808Z" fill="white"/>
<path d="M9.96774 2.66699C9.9294 2.66699 9.89107 2.66699 9.85273 2.66699C9.59533 2.66699 9.34888 2.72746 9.13528 2.83742C8.62595 3.0903 8.26997 3.60707 8.23711 4.2063C8.23711 4.23379 8.23711 4.26677 8.23711 4.29426L7.80993 18.2195V18.7802C7.80993 19.3025 7.66205 19.7038 7.36631 19.9787C7.07057 20.2591 6.62696 20.3965 6.04643 20.3965C5.4659 20.3965 5.03872 20.2591 4.76488 19.9842C4.49105 19.7093 4.34866 19.308 4.34866 18.7857L4.51843 13.4476V13.3597C4.51843 13.3597 4.51843 13.3212 4.51843 13.2992C4.51843 13.2717 4.51843 13.2387 4.51843 13.2112C4.51843 13.1892 4.51843 13.1673 4.51843 13.1508C4.51843 13.1288 4.51843 13.1068 4.51296 13.0903C4.51296 13.0628 4.502 13.0353 4.49653 13.0078C4.49105 12.9693 4.4801 12.9254 4.46914 12.8869C4.45819 12.8374 4.44176 12.7934 4.42533 12.7494C4.41438 12.7275 4.4089 12.7055 4.39795 12.678C4.37604 12.6285 4.35413 12.579 4.32675 12.5295C4.3158 12.5076 4.30484 12.4856 4.28841 12.4691C4.27746 12.4471 4.26651 12.4306 4.25008 12.4086C4.23912 12.3866 4.22817 12.3701 4.21174 12.3536C4.20626 12.3426 4.19531 12.3371 4.18983 12.3261C4.17888 12.3096 4.16793 12.2986 4.15697 12.2822C4.15697 12.2767 4.14602 12.2712 4.14054 12.2602C4.12959 12.2492 4.11864 12.2382 4.11316 12.2272C4.10221 12.2162 4.09125 12.2052 4.0803 12.1942C4.06387 12.1777 4.04744 12.1612 4.03101 12.1447C4.02005 12.1282 4.00362 12.1172 3.99267 12.1062C3.95433 12.0732 3.91052 12.0403 3.86671 12.0073C3.86671 12.0073 3.86671 12.0073 3.86123 12.0073C3.86123 12.0073 3.85575 12.0018 3.85028 11.9963C3.83932 11.9908 3.82837 11.9798 3.81742 11.9743C3.79551 11.9633 3.77908 11.9468 3.75717 11.9358C3.69693 11.8973 3.63121 11.8698 3.56001 11.8369C3.52715 11.8204 3.48882 11.8094 3.45048 11.7929C3.42857 11.7874 3.40667 11.7819 3.39024 11.7709C3.36833 11.7709 3.3519 11.7599 3.32999 11.7544C3.26427 11.7379 3.20403 11.7269 3.13283 11.7159C3.06711 11.7104 3.00139 11.7049 2.93567 11.7049C2.71113 11.7049 2.50301 11.7489 2.31133 11.8314C1.78556 12.0568 1.4022 12.557 1.34195 13.1508C1.34195 13.1728 1.34195 13.1892 1.33648 13.2112C1.33648 13.2442 1.33648 13.2772 1.33648 13.3157C1.33648 13.3157 1.33648 13.3597 1.33648 13.3762L1.15027 18.7197C1.15027 19.286 1.22694 19.8357 1.37481 20.358C1.52268 20.8803 1.78556 21.3531 2.15798 21.7709C2.53039 22.1887 3.03425 22.524 3.66407 22.7659C4.29937 23.0133 5.09896 23.1343 6.06834 23.1343C7.03771 23.1343 7.84279 23.0078 8.48356 22.7604C9.12433 22.513 9.63366 22.1777 10.0116 21.7599C10.3894 21.3421 10.6578 20.8693 10.8112 20.347C10.97 19.8248 11.0412 19.275 11.0412 18.7088V18.236L11.441 4.71207L11.4629 4.01938C11.3314 3.3047 10.729 2.74945 9.98965 2.69998L9.96774 2.66699Z" fill="white"/>
<path d="M74.5398 21.1877C74.14 21.1877 73.8168 20.8633 73.8168 20.462C73.8168 20.0607 74.14 19.7363 74.5398 19.7363C74.9396 19.7363 75.2627 20.0607 75.2627 20.462C75.2627 20.8633 74.9396 21.1877 74.5398 21.1877Z" fill="#4CB27B"/>
<path d="M71.8726 16.7239C71.1716 16.7239 70.6075 16.1522 70.6075 15.454C70.6075 14.7558 71.1771 14.1841 71.8726 14.1841C72.5681 14.1841 73.1377 14.7558 73.1377 15.454C73.1377 16.1522 72.5681 16.7239 71.8726 16.7239Z" fill="#4CB27B"/>
<path d="M73.2637 11.5669C72.3272 11.5669 71.5714 10.8082 71.5714 9.86817C71.5714 8.92809 72.3272 8.16943 73.2637 8.16943C74.2002 8.16943 74.956 8.92809 74.956 9.86817C74.956 10.8082 74.2002 11.5669 73.2637 11.5669Z" fill="#4CB27B"/>
<path d="M77.8257 8.37842C76.7249 8.37842 75.8267 7.48233 75.8267 6.37183C75.8267 5.26133 76.7194 4.36523 77.8257 4.36523C78.932 4.36523 79.8247 5.26133 79.8247 6.37183C79.8247 7.48233 78.932 8.37842 77.8257 8.37842Z" fill="#4CB27B"/>
<path d="M83.5982 8.24108C82.3714 8.24108 81.3801 7.24603 81.3801 6.01458C81.3801 4.78314 82.3714 3.78809 83.5982 3.78809C84.825 3.78809 85.8162 4.78314 85.8162 6.01458C85.8162 7.24603 84.825 8.24108 83.5982 8.24108Z" fill="#4CB27B"/>
<path d="M88.8503 10.8305C87.5304 10.8305 86.4625 9.75844 86.4625 8.43354C86.4625 7.10864 87.5304 6.03662 88.8503 6.03662C90.1702 6.03662 91.2381 7.10864 91.2381 8.43354C91.2381 9.75844 90.1702 10.8305 88.8503 10.8305Z" fill="#4CB27B"/>
<path d="M92.339 15.531C93.6971 15.531 94.798 14.4259 94.798 13.0626C94.798 11.6994 93.6971 10.5942 92.339 10.5942C90.9809 10.5942 89.8799 11.6994 89.8799 13.0626C89.8799 14.4259 90.9809 15.531 92.339 15.531Z" fill="#4CB27B"/>
<path d="M93.4617 21.2593C92.1035 21.2593 90.9972 20.1543 90.9972 18.7854C90.9972 17.4165 92.098 16.3115 93.4617 16.3115C94.8254 16.3115 95.9262 17.4165 95.9262 18.7854C95.9262 20.1543 94.8254 21.2593 93.4617 21.2593Z" fill="#4CB27B"/>
<path d="M92.4814 26.9379C91.156 26.9379 90.0826 25.8604 90.0826 24.53C90.0826 23.1996 91.156 22.1221 92.4814 22.1221C93.8067 22.1221 94.8802 23.1996 94.8802 24.53C94.8802 25.8604 93.8067 26.9379 92.4814 26.9379Z" fill="#4CB27B"/>
<path d="M89.5513 31.8034C88.3191 31.8034 87.3168 30.7973 87.3168 29.5604C87.3168 28.3234 88.3191 27.3174 89.5513 27.3174C90.7836 27.3174 91.7858 28.3234 91.7858 29.5604C91.7858 30.7973 90.7836 31.8034 89.5513 31.8034Z" fill="#4CB27B"/>
<path d="M85.033 35.2666C83.9158 35.2666 83.0121 34.3596 83.0121 33.2381C83.0121 32.1166 83.9158 31.2095 85.033 31.2095C86.1503 31.2095 87.0539 32.1166 87.0539 33.2381C87.0539 34.3596 86.1503 35.2666 85.033 35.2666Z" fill="#4CB27B"/>
<path d="M79.529 36.8389C78.5816 36.8389 77.8148 36.0693 77.8148 35.1182C77.8148 34.1671 78.5816 33.3975 79.529 33.3975C80.4765 33.3975 81.2432 34.1671 81.2432 35.1182C81.2432 36.0693 80.4765 36.8389 79.529 36.8389Z" fill="#4CB27B"/>
<path d="M73.7128 36.7181C74.4296 36.7181 75.0107 36.1348 75.0107 35.4152C75.0107 34.6956 74.4296 34.1123 73.7128 34.1123C72.9959 34.1123 72.4148 34.6956 72.4148 35.4152C72.4148 36.1348 72.9959 36.7181 73.7128 36.7181Z" fill="#4CB27B"/>
<path d="M68.017 34.9424C67.5953 34.9424 67.2557 34.6015 67.2557 34.1782C67.2557 33.7549 67.5953 33.4141 68.017 33.4141C68.4387 33.4141 68.7783 33.7549 68.7783 34.1782C68.7783 34.6015 68.4387 34.9424 68.017 34.9424Z" fill="#4CB27B"/>
<path d="M63.7452 32.1331C63.7178 32.1331 63.6959 32.1111 63.6959 32.0837C63.6959 32.0562 63.7178 32.0342 63.7452 32.0342C63.7725 32.0342 63.7944 32.0562 63.7944 32.0837C63.7944 32.1111 63.7725 32.1331 63.7452 32.1331Z" fill="#4CB27B"/>
</g>
<defs>
<clipPath id="clip0_2035_1379">
<rect width="95.8524" height="40.6272" fill="white" transform="translate(0.0737915)"/>
</clipPath>
</defs>
</svg>
