<svg width="52" height="52" viewBox="0 0 52 52" fill="none" xmlns="http://www.w3.org/2000/svg">
<g clip-path="url(#clip0_1898_6972)">
<path d="M41.1667 2.16687H10.8333C7.96121 2.17031 5.20771 3.31278 3.17681 5.34368C1.14591 7.37458 0.00344036 10.1281 0 13.0002L0 39.0002C0.00344036 41.8723 1.14591 44.6258 3.17681 46.6567C5.20771 48.6876 7.96121 49.8301 10.8333 49.8335H41.1667C44.0388 49.8301 46.7923 48.6876 48.8232 46.6567C50.8541 44.6258 51.9966 41.8723 52 39.0002V13.0002C51.9966 10.1281 50.8541 7.37458 48.8232 5.34368C46.7923 3.31278 44.0388 2.17031 41.1667 2.16687ZM10.8333 6.5002H41.1667C42.8906 6.5002 44.5439 7.18502 45.7629 8.40401C46.9818 9.623 47.6667 11.2763 47.6667 13.0002V15.1669H4.33333V13.0002C4.33333 11.2763 5.01815 9.623 6.23714 8.40401C7.45613 7.18502 9.10943 6.5002 10.8333 6.5002ZM41.1667 45.5002H10.8333C9.10943 45.5002 7.45613 44.8154 6.23714 43.5964C5.01815 42.3774 4.33333 40.7241 4.33333 39.0002V19.5002H47.6667V39.0002C47.6667 40.7241 46.9818 42.3774 45.7629 43.5964C44.5439 44.8154 42.8906 45.5002 41.1667 45.5002ZM41.1667 28.1669C41.1667 28.7415 40.9384 29.2926 40.5321 29.6989C40.1257 30.1053 39.5746 30.3335 39 30.3335H13C12.4254 30.3335 11.8743 30.1053 11.4679 29.6989C11.0616 29.2926 10.8333 28.7415 10.8333 28.1669C10.8333 27.5922 11.0616 27.0411 11.4679 26.6348C11.8743 26.2285 12.4254 26.0002 13 26.0002H39C39.5746 26.0002 40.1257 26.2285 40.5321 26.6348C40.9384 27.0411 41.1667 27.5922 41.1667 28.1669ZM32.5 36.8335C32.5 37.4082 32.2717 37.9593 31.8654 38.3656C31.4591 38.7719 30.908 39.0002 30.3333 39.0002H13C12.4254 39.0002 11.8743 38.7719 11.4679 38.3656C11.0616 37.9593 10.8333 37.4082 10.8333 36.8335C10.8333 36.2589 11.0616 35.7078 11.4679 35.3015C11.8743 34.8951 12.4254 34.6669 13 34.6669H30.3333C30.908 34.6669 31.4591 34.8951 31.8654 35.3015C32.2717 35.7078 32.5 36.2589 32.5 36.8335ZM6.5 10.8335C6.5 10.405 6.62707 9.98611 6.86515 9.6298C7.10323 9.27349 7.44161 8.99579 7.83752 8.8318C8.23343 8.66781 8.66907 8.6249 9.08936 8.7085C9.50965 8.7921 9.89572 8.99846 10.1987 9.30147C10.5017 9.60449 10.7081 9.99055 10.7917 10.4108C10.8753 10.8311 10.8324 11.2668 10.6684 11.6627C10.5044 12.0586 10.2267 12.397 9.8704 12.6351C9.5141 12.8731 9.09519 13.0002 8.66667 13.0002C8.09203 13.0002 7.54093 12.7719 7.1346 12.3656C6.72827 11.9593 6.5 11.4082 6.5 10.8335ZM13 10.8335C13 10.405 13.1271 9.98611 13.3651 9.6298C13.6032 9.27349 13.9416 8.99579 14.3375 8.8318C14.7334 8.66781 15.1691 8.6249 15.5894 8.7085C16.0097 8.7921 16.3957 8.99846 16.6987 9.30147C17.0017 9.60449 17.2081 9.99055 17.2917 10.4108C17.3753 10.8311 17.3324 11.2668 17.1684 11.6627C17.0044 12.0586 16.7267 12.397 16.3704 12.6351C16.0141 12.8731 15.5952 13.0002 15.1667 13.0002C14.592 13.0002 14.0409 12.7719 13.6346 12.3656C13.2283 11.9593 13 11.4082 13 10.8335ZM19.5 10.8335C19.5 10.405 19.6271 9.98611 19.8652 9.6298C20.1032 9.27349 20.4416 8.99579 20.8375 8.8318C21.2334 8.66781 21.6691 8.6249 22.0894 8.7085C22.5097 8.7921 22.8957 8.99846 23.1987 9.30147C23.5017 9.60449 23.7081 9.99055 23.7917 10.4108C23.8753 10.8311 23.8324 11.2668 23.6684 11.6627C23.5044 12.0586 23.2267 12.397 22.8704 12.6351C22.5141 12.8731 22.0952 13.0002 21.6667 13.0002C21.092 13.0002 20.5409 12.7719 20.1346 12.3656C19.7283 11.9593 19.5 11.4082 19.5 10.8335Z" fill="#4C3D8F"/>
</g>
<defs>
<clipPath id="clip0_1898_6972">
<rect width="52" height="52" fill="white"/>
</clipPath>
</defs>
</svg>
