<svg width="82" height="81" viewBox="0 0 82 81" fill="none" xmlns="http://www.w3.org/2000/svg">
<g clip-path="url(#clip0_22_540)">
<path d="M78.9655 23.5869L80.9419 68.3471C81.1511 73.0856 77.4732 77.0948 72.7165 77.3048L12.0007 79.9857C7.2522 80.1954 3.22705 76.5263 3.01783 71.7878L1.04147 27.0276L78.9655 23.5869Z" fill="#E4E3FF"/>
<path d="M73.2572 64.4987C73.3494 66.5885 71.7277 68.3563 69.6335 68.4488L14.2831 70.8928C12.1889 70.9852 10.4176 69.3672 10.3254 67.2775L9.04319 38.2392C8.95092 36.1494 10.5726 34.3816 12.6669 34.2892L68.0173 31.8452C70.1115 31.7527 71.8827 33.3707 71.975 35.4605L73.2572 64.4987Z" fill="white"/>
<path d="M34.2568 61.668C33.9403 61.6819 33.6321 61.517 33.4805 61.2153L25.6318 45.5495C25.4269 45.1447 25.5921 44.6504 25.9979 44.4459C26.4036 44.2413 26.8988 44.4061 27.1038 44.8109L34.9525 60.4767C35.1574 60.8816 34.9922 61.3758 34.5864 61.5804C34.483 61.6336 34.3705 61.663 34.2568 61.668Z" fill="#474646"/>
<path d="M19.1892 51.7828C18.7905 51.9628 18.3341 51.7557 18.1856 51.3402C16.4679 46.5142 18.7341 41.1064 23.4956 38.9809C28.2567 36.8472 33.8147 38.7606 36.2821 43.2533C36.4941 43.6334 36.3363 44.1111 35.9457 44.2907L19.1974 51.7825L19.1892 51.7828Z" fill="#7979F7"/>
<path d="M35.9372 44.283L19.1889 51.7748C18.7902 51.9547 18.3337 51.7476 18.1853 51.3322C18.0835 51.0526 17.9972 50.7561 17.9278 50.4752L31.0709 44.5871C32.7458 43.8396 33.1373 41.6554 31.8438 40.3572C31.027 39.5411 29.9258 38.7295 28.4442 38.1456C31.6532 38.4341 34.6379 40.2744 36.2737 43.2456C36.4775 43.6261 36.3278 44.1034 35.9291 44.2834L35.9372 44.283Z" fill="#5E5EEF"/>
<path d="M24.3491 49.4694C22.103 44.4638 21.7166 39.7656 23.4871 38.9732C25.2576 38.1809 28.5231 41.5914 30.7693 46.597L24.3491 49.4694Z" fill="#F9B938"/>
<path d="M30.7693 46.5969L24.3491 49.4693C24.1144 48.944 23.8964 48.4261 23.7111 47.9149L26.1436 46.8255C27.635 46.1591 28.181 44.3414 27.3466 42.9417C26.2836 41.1545 25.1393 39.7361 24.0761 38.866C25.9156 38.8984 28.7408 42.1011 30.7608 46.5891L30.7693 46.5969Z" fill="#ECB021"/>
<path d="M78.6855 17.2448L78.9652 23.579L1.04111 27.0197L0.761433 20.6855C0.551851 15.939 4.23794 11.9294 8.98644 11.7197L69.7023 9.03883C74.4589 8.8288 78.4759 12.4983 78.6855 17.2448Z" fill="#FC6559"/>
<path d="M78.6855 17.2447L78.9652 23.5789L1.04111 27.0196L0.896622 23.7472L70.8254 20.6595C73.0819 20.5599 74.8278 18.6568 74.7284 16.405L74.6286 14.1451C74.5528 12.4279 73.9794 10.8625 73.0596 9.55594C76.2176 10.715 78.5359 13.6723 78.6936 17.2444L78.6855 17.2447Z" fill="#F05543"/>
<path d="M78.9655 23.587L80.9419 68.3472C81.1511 73.0857 77.4732 77.0949 72.7165 77.3049L12.0007 79.9858C8.42918 80.1435 5.26471 78.1001 3.82971 75.0714C5.09391 75.7054 6.54004 76.0392 8.06605 75.9718L68.7819 73.291C73.5385 73.0809 77.2165 69.0717 77.0073 64.3332L75.2155 23.7526L78.9655 23.587Z" fill="#D0D0F7"/>
<path d="M42.0927 62.6773C39.1932 64.607 36.7329 67.0936 34.8355 69.9854L14.2831 70.8929C12.197 70.985 10.4258 69.367 10.3335 67.2772L10.2444 65.2603C14.7382 61.491 20.4566 59.1203 26.7636 58.8418C32.3482 58.5952 37.6246 60.026 42.0927 62.6773Z" fill="#F7C9A9"/>
<path d="M42.0927 62.6773C39.1932 64.607 36.7329 67.0936 34.8355 69.9854L14.2831 70.8929C12.335 70.9789 10.6546 69.576 10.3672 67.6734C11.0038 68.0917 11.7701 68.3175 12.5981 68.281L32.144 67.4179C32.7772 67.39 33.348 67.0564 33.7158 66.5451C35.1941 64.4752 36.9749 62.6274 38.997 61.0854C40.0663 61.5413 41.0982 62.072 42.1005 62.6689L42.0927 62.6773Z" fill="#F0B68E"/>
<path d="M73.2675 64.7336C73.2334 66.7235 71.6465 68.3599 69.6416 68.4484L34.8355 69.9852C36.7326 67.0853 39.1932 64.6069 42.0927 62.6772C45.8528 60.1576 50.3471 58.6119 55.2011 58.3976C62.0925 58.0933 68.4625 60.5308 73.2679 64.7417L73.2675 64.7336Z" fill="#F7C9A9"/>
<path d="M73.2675 64.7338C73.2334 66.7236 71.6465 68.36 69.6416 68.4486L34.8355 69.9854C35.4452 69.0576 36.1054 68.1682 36.8411 67.3323L67.5318 65.9772C69.277 65.9001 70.7024 64.6604 71.0692 63.021C71.8326 63.5473 72.5656 64.1236 73.2594 64.7341L73.2675 64.7338Z" fill="#F0B68E"/>
<path d="M22.9954 6.10163L23.4078 15.4409C23.4972 17.4658 21.922 19.1829 19.8927 19.2725C17.8635 19.3621 16.1431 17.7906 16.0537 15.7656L15.6413 6.42635C15.5519 4.40137 17.1271 2.68432 19.1563 2.59472C21.1856 2.50512 22.906 4.07665 22.9954 6.10163Z" fill="#474646"/>
<path d="M62.5987 4.35285L63.011 13.6921C63.1005 15.7171 61.5253 17.4341 59.496 17.5237C57.4667 17.6133 55.7464 16.0418 55.657 14.0168L55.2446 4.67757C55.1552 2.65259 56.7303 0.935545 58.7596 0.845943C60.7889 0.756342 62.5093 2.32787 62.5987 4.35285Z" fill="#474646"/>
<path d="M22.995 6.09374L23.4074 15.433C23.4968 17.4579 21.9216 19.175 19.8924 19.2646C18.8777 19.3094 17.9504 18.9364 17.2555 18.3016C16.8571 17.9378 16.5449 17.4971 16.3434 16.9866C16.689 17.0768 17.0487 17.1177 17.4302 17.1009C19.4594 17.0113 21.0346 15.2943 20.9452 13.2693L20.5332 3.93816C20.5139 3.50076 20.4229 3.09899 20.2678 2.71629C20.852 2.86904 21.3773 3.16235 21.8095 3.55717C22.5044 4.19198 22.9588 5.08899 23.0032 6.09338L22.995 6.09374Z" fill="#2D2C2C"/>
<path d="M62.6064 4.3446L63.0188 13.6838C63.1082 15.7088 61.5331 17.4258 59.5038 17.5155C58.4891 17.5603 57.5537 17.1877 56.8587 16.5528C56.4604 16.189 56.1482 15.7483 55.9467 15.2378C56.3004 15.3277 56.6601 15.3686 57.0416 15.3518C59.0708 15.2622 60.646 13.5451 60.5566 11.5201L60.1446 2.18902C60.1253 1.75162 60.0343 1.34985 59.8792 0.967147C60.4634 1.1199 60.9887 1.41322 61.4209 1.80803C62.1158 2.44284 62.5702 3.33985 62.6146 4.34424L62.6064 4.3446Z" fill="#2D2C2C"/>
<path d="M57.2028 45.5269C57.323 48.2485 55.2124 50.5492 52.4851 50.6696C49.7577 50.79 47.4445 48.6847 47.3243 45.9631C47.2041 43.2415 49.3228 40.9405 52.0502 40.8201C54.7775 40.6996 57.0826 42.8053 57.2028 45.5269Z" fill="#FC6559"/>
<path d="M57.2028 45.5269C57.323 48.2485 55.2124 50.5492 52.4851 50.6696C50.8048 50.7438 49.291 49.9828 48.3413 48.7344C48.9622 48.9829 49.6427 49.107 50.357 49.0755C53.0844 48.9551 55.1949 46.6544 55.0748 43.9328C55.0286 42.8879 54.661 41.9303 54.0659 41.1612C55.8366 41.8459 57.1145 43.5262 57.2028 45.5269Z" fill="#E24B40"/>
<path d="M51.9811 39.2569C51.5266 39.2769 51.1452 38.9286 51.1252 38.475L51.0576 36.9441C51.0376 36.4905 51.3867 36.1098 51.8413 36.0898C52.2958 36.0697 52.6772 36.4181 52.6972 36.8717L52.7648 38.4026C52.7849 38.8562 52.4357 39.2368 51.9811 39.2569Z" fill="#474646"/>
<path d="M46.8968 41.6238C46.6858 41.6331 46.4712 41.5615 46.3017 41.4066L45.1745 40.377C44.8356 40.0673 44.8127 39.549 45.1234 39.2187C45.4341 38.8885 45.9533 38.8574 46.2841 39.1675L47.4113 40.1971C47.7503 40.5068 47.7732 41.0251 47.4624 41.3554C47.3072 41.5245 47.0998 41.6149 46.8887 41.6242L46.8968 41.6238Z" fill="#474646"/>
<path d="M44.974 46.8865L43.4399 46.9542C42.9853 46.9743 42.6039 46.6259 42.5839 46.1723C42.5639 45.7187 42.9131 45.3381 43.3676 45.318L44.9017 45.2503C45.3563 45.2302 45.7377 45.5786 45.7577 46.0322C45.7777 46.4858 45.4285 46.8664 44.974 46.8865Z" fill="#474646"/>
<path d="M46.3134 53.0927C46.1024 53.1021 45.8878 53.0304 45.7183 52.8755C45.3793 52.5659 45.3564 52.0475 45.6671 51.7173L46.6991 50.5923C47.0095 50.254 47.529 50.231 47.8599 50.541C48.1908 50.8511 48.2218 51.3691 47.911 51.6993L46.879 52.8243C46.7238 52.9935 46.5164 53.0838 46.3053 53.0931L46.3134 53.0927Z" fill="#474646"/>
<path d="M52.6939 55.3999C52.2394 55.42 51.858 55.0716 51.838 54.618L51.7704 53.0871C51.7503 52.6335 52.0995 52.2529 52.5541 52.2328C53.0086 52.2128 53.39 52.5611 53.41 53.0147L53.4776 54.5456C53.4976 54.9992 53.1485 55.3798 52.6939 55.3999Z" fill="#474646"/>
<path d="M58.8381 52.5397C58.6271 52.549 58.4124 52.4773 58.2429 52.3225L57.1158 51.2929C56.7768 50.9832 56.7539 50.4648 57.0647 50.1346C57.375 49.7963 57.8945 49.7733 58.2254 50.0833L59.3525 51.113C59.6915 51.4226 59.7144 51.941 59.4037 52.2713C59.2485 52.4404 59.041 52.5307 58.83 52.5401L58.8381 52.5397Z" fill="#474646"/>
<path d="M61.1595 46.1719L59.6253 46.2396C59.1708 46.2597 58.7894 45.9113 58.7694 45.4577C58.7494 45.0041 59.0985 44.6235 59.5531 44.6034L61.0872 44.5357C61.5418 44.5156 61.9231 44.864 61.9432 45.3176C61.9632 45.7712 61.614 46.1518 61.1595 46.1719Z" fill="#474646"/>
<path d="M57.2542 41.1665C57.0432 41.1758 56.8286 41.1041 56.6591 40.9493C56.3201 40.6396 56.2972 40.1212 56.6079 39.791L57.6399 38.666C57.9503 38.3277 58.4698 38.3048 58.8007 38.6148C59.1316 38.9248 59.1626 39.4428 58.8518 39.7731L57.8198 40.898C57.6646 41.0672 57.4572 41.1575 57.2461 41.1668L57.2542 41.1665Z" fill="#474646"/>
</g>
<defs>
<clipPath id="clip0_22_540">
<rect width="78" height="77" fill="white" transform="translate(0 3.44067) rotate(-2.52822)"/>
</clipPath>
</defs>
</svg>
