<svg width="57" height="39" viewBox="0 0 57 39" fill="none" xmlns="http://www.w3.org/2000/svg">
<path d="M26.7243 2.43994C20.5904 11.4689 15.7834 24.0231 12.4395 36.5229C13.8655 37.4239 15.2614 38.2595 16.6243 39C20.36 26.3536 25.5277 14.4385 31.9543 6.66285C30.2603 5.26823 28.5157 3.8508 26.7243 2.43994Z" fill="#4C3D8F"/>
<path d="M15.4662 0.000244141C11.1937 9.53991 7.90928 20.4207 5.65039 30.4428C7.17403 31.4497 8.67667 32.4484 10.1524 33.4044C12.772 23.0715 16.4019 12.4533 20.9848 3.65056C19.182 2.39942 17.3408 1.17065 15.4662 0.000244141Z" fill="#4C3D8F"/>
<path d="M32.3452 11.9087C27.5808 18.0661 23.5356 26.5729 20.2949 35.9702C21.3846 36.479 22.4495 36.9219 23.4888 37.2854C26.9379 28.0536 31.1722 20.0445 36.0912 14.6565C34.8764 13.7824 33.6271 12.8613 32.3452 11.9087Z" fill="#4C3D8F"/>
<path d="M33.8862 21.114C31.1211 25.0585 28.612 29.8733 26.3809 35.2539C27.1223 35.4669 27.8755 35.6362 28.6367 35.7609C30.9538 30.5396 33.5417 25.9709 36.3763 22.3467C35.5657 21.9749 34.7357 21.5642 33.8862 21.114Z" fill="#4C3D8F"/>
<path d="M3.52829 13.2691C2.53404 16.9135 1.66754 20.4995 0.931641 23.9206C1.89417 24.4747 2.8516 25.0414 3.80392 25.6206C4.62142 22.1155 5.56689 18.4906 6.63967 14.8488C5.61035 14.3023 4.57322 13.775 3.52829 13.2671" fill="#4C3D8F"/>
<path d="M39.7532 25.7476H39.0823C39.068 25.7456 39.0535 25.7469 39.0398 25.7514C39.0261 25.756 39.0137 25.7637 39.0035 25.7739C38.9933 25.7841 38.9856 25.7966 38.9811 25.8103C38.9765 25.824 38.9752 25.8386 38.9773 25.8529V30.4264C38.9773 31.0221 38.6941 31.32 38.1278 31.3202H37.8872C37.873 31.318 37.8584 31.3193 37.8447 31.3238C37.8311 31.3283 37.8186 31.3359 37.8084 31.3461C37.7982 31.3563 37.7905 31.3688 37.786 31.3825C37.7814 31.3962 37.7801 31.4107 37.7822 31.425V32.0354C37.7802 32.0497 37.7815 32.0643 37.786 32.078C37.7906 32.0917 37.7983 32.1041 37.8084 32.1144C37.8186 32.1246 37.8311 32.1323 37.8447 32.1369C37.8584 32.1414 37.873 32.1427 37.8872 32.1407H38.1701C38.3988 32.1569 38.6284 32.1261 38.8448 32.0501C39.0612 31.9741 39.2599 31.8546 39.4286 31.6988C39.5815 31.522 39.6982 31.3167 39.772 31.0946C39.8457 30.8725 39.8751 30.638 39.8584 30.4045V25.8518C39.8605 25.8375 39.8592 25.823 39.8546 25.8093C39.8501 25.7956 39.8424 25.7831 39.8323 25.7729C39.8221 25.7627 39.8097 25.755 39.7961 25.7504C39.7824 25.7458 39.7679 25.7445 39.7537 25.7465" fill="#4C3D8F"/>
<path d="M55.6756 29.9898C55.9149 29.9077 56.1307 29.7687 56.3048 29.5848C56.4877 29.3823 56.6238 29.1418 56.7031 28.8804C56.8045 28.5463 56.8524 28.1983 56.8451 27.8493C56.8451 27.0432 56.6667 26.4596 56.3098 26.0984C55.9001 25.7488 55.3797 25.5569 54.8418 25.5569C54.3039 25.5569 53.7835 25.7488 53.3738 26.0984C53.0173 26.4595 52.839 27.0431 52.839 27.8493V28.0649C52.8389 28.1335 52.8424 28.202 52.8493 28.2702C52.8529 28.4247 52.8335 28.5788 52.7917 28.7274C52.7614 28.8349 52.7098 28.9351 52.6399 29.0221C52.5834 29.0908 52.5113 29.1449 52.4297 29.1798C52.3567 29.2104 52.2785 29.2264 52.1993 29.227H51.5597C51.3179 29.2393 51.0782 29.1769 50.873 29.0482C50.7881 28.9883 50.7198 28.9075 50.6749 28.8136C50.6299 28.7197 50.6097 28.6158 50.6162 28.5118V25.8513C50.6182 25.837 50.6169 25.8225 50.6123 25.8088C50.6078 25.7951 50.6001 25.7827 50.5899 25.7725C50.5797 25.7624 50.5673 25.7547 50.5536 25.7502C50.54 25.7456 50.5254 25.7444 50.5112 25.7465H49.84C49.8258 25.7443 49.8113 25.7456 49.7976 25.7501C49.7839 25.7546 49.7715 25.7622 49.7613 25.7724C49.7511 25.7826 49.7434 25.7951 49.7388 25.8088C49.7343 25.8225 49.733 25.837 49.735 25.8513V28.67C49.7518 28.8255 49.7088 28.9815 49.6147 29.1063C49.5081 29.196 49.3703 29.2396 49.2317 29.2274H48.9911C48.7524 29.2381 48.5157 29.1798 48.3092 29.0594C48.2244 29.0065 48.1554 28.9318 48.1092 28.843C48.0631 28.7543 48.0415 28.6547 48.0467 28.5548V26.7558C48.0487 26.7416 48.0474 26.727 48.0429 26.7134C48.0384 26.6997 48.0307 26.6873 48.0206 26.677C48.0104 26.6668 47.9981 26.6591 47.9845 26.6545C47.9708 26.6499 47.9563 26.6486 47.9421 26.6505H47.271C47.2567 26.6485 47.2421 26.6498 47.2285 26.6544C47.2148 26.6589 47.2024 26.6666 47.1922 26.6768C47.182 26.6871 47.1743 26.6995 47.1698 26.7132C47.1652 26.7269 47.1639 26.7415 47.166 26.7558V28.6697C47.1829 28.8253 47.1397 28.9815 47.0452 29.1061C46.9925 29.1506 46.9315 29.1842 46.8657 29.205C46.8 29.2257 46.7308 29.2333 46.6622 29.2272H46.3997C46.1628 29.2392 45.9282 29.1767 45.7285 29.0484C45.6449 28.9875 45.5781 28.9064 45.5342 28.8126C45.4903 28.7188 45.4707 28.6154 45.4774 28.512V26.7569C45.4794 26.7427 45.4781 26.7281 45.4736 26.7144C45.469 26.7007 45.4614 26.6883 45.4512 26.678C45.4411 26.6678 45.4287 26.6601 45.415 26.6555C45.4014 26.651 45.3868 26.6496 45.3726 26.6516H44.7028C44.6885 26.6496 44.6739 26.6509 44.6603 26.6555C44.6466 26.66 44.6342 26.6677 44.624 26.6779C44.6138 26.6882 44.6061 26.7006 44.6016 26.7143C44.597 26.728 44.5957 26.7426 44.5978 26.7569V28.6708C44.6147 28.8264 44.5714 28.9826 44.477 29.1072C44.4243 29.1516 44.3634 29.1852 44.2977 29.206C44.2321 29.2268 44.163 29.2344 44.0944 29.2283H42.6576C42.519 29.2404 42.3812 29.1969 42.2746 29.1072C42.1803 28.9825 42.1372 28.8264 42.1542 28.6708V23.0018C42.1563 22.9875 42.155 22.9729 42.1504 22.9591C42.1459 22.9454 42.1382 22.933 42.128 22.9228C42.1178 22.9125 42.1054 22.9048 42.0917 22.9003C42.0781 22.8957 42.0635 22.8944 42.0492 22.8965H41.3777C41.3634 22.8944 41.3488 22.8957 41.3352 22.9003C41.3215 22.9048 41.3091 22.9125 41.2989 22.9228C41.2887 22.933 41.281 22.9454 41.2765 22.9591C41.2719 22.9729 41.2706 22.9875 41.2726 23.0018V28.7224C41.2431 29.0804 41.3436 29.437 41.5557 29.7265C41.7453 29.9405 42.0599 30.0474 42.4994 30.0473H44.2495C44.8021 30.0473 45.1657 29.8649 45.3404 29.5003C45.4233 29.6746 45.559 29.8182 45.7281 29.9106C45.9092 30.005 46.1111 30.0521 46.3152 30.0475H46.8184C47.3705 30.0475 47.734 29.8652 47.9089 29.5006C47.9918 29.675 48.1276 29.8186 48.2969 29.9108C48.4779 30.0053 48.6798 30.0524 48.8839 30.0477H49.387C49.9391 30.0477 50.3026 29.8654 50.4775 29.5008C50.5606 29.675 50.6964 29.8186 50.8656 29.911C51.0467 30.0056 51.2488 30.0527 51.4529 30.0479H52.1239C52.34 30.0452 52.5549 30.0152 52.7635 29.9586C53 29.8951 53.2029 29.7425 53.3299 29.5326C53.5014 29.7341 53.7216 29.888 53.9695 29.9795C54.2486 30.0789 54.5434 30.127 54.8395 30.1214C55.1228 30.1251 55.4047 30.0806 55.6732 29.9898M53.7175 27.8497C53.696 27.47 53.7891 27.0926 53.9848 26.7668C54.0914 26.6446 54.2228 26.5466 54.3702 26.4795C54.5176 26.4123 54.6776 26.3776 54.8395 26.3776C55.0014 26.3776 55.1615 26.4123 55.3089 26.4795C55.4563 26.5466 55.5877 26.6446 55.6942 26.7668C55.8901 27.0925 55.9833 27.47 55.9615 27.8497C55.9615 28.3544 55.8724 28.7225 55.6942 28.9541C55.465 29.1766 55.1585 29.301 54.8395 29.301C54.5205 29.301 54.214 29.1766 53.9848 28.9541C53.8069 28.7227 53.7178 28.3546 53.7175 27.8497Z" fill="#4C3D8F"/>
<path d="M38.9808 33.5252H38.7318C38.712 33.5246 38.6924 33.5305 38.6763 33.542C38.6601 33.5536 38.6482 33.5702 38.6424 33.5893L37.2616 36.7111H37.236L35.8232 33.5893C35.8165 33.5695 35.8035 33.5526 35.7861 33.541C35.7688 33.5294 35.7482 33.5239 35.7274 33.5252H35.4844C35.4757 33.524 35.4668 33.5248 35.4585 33.5276C35.4502 33.5303 35.4427 33.535 35.4365 33.5412C35.4303 33.5475 35.4256 33.555 35.4228 33.5634C35.42 33.5717 35.4192 33.5806 35.4205 33.5893V37.8201C35.4192 37.8288 35.42 37.8377 35.4228 37.846C35.4256 37.8544 35.4303 37.8619 35.4365 37.8682C35.4427 37.8744 35.4502 37.8791 35.4585 37.8818C35.4668 37.8846 35.4757 37.8854 35.4844 37.8842H35.7206C35.7293 37.8855 35.7382 37.8847 35.7465 37.8819C35.7549 37.8792 35.7624 37.8745 35.7687 37.8683C35.7749 37.862 35.7795 37.8544 35.7823 37.8461C35.785 37.8377 35.7858 37.8288 35.7845 37.8201V34.4111H35.8038L37.0568 37.1738C37.0653 37.1956 37.0805 37.2141 37.1001 37.2268C37.1198 37.2394 37.1429 37.2455 37.1662 37.2442H37.2939C37.3194 37.2464 37.3449 37.2409 37.3672 37.2284C37.385 37.2136 37.3993 37.1949 37.409 37.1738L38.6616 34.4111H38.6804V37.8212C38.6792 37.8299 38.68 37.8387 38.6828 37.8471C38.6856 37.8554 38.6903 37.8629 38.6965 37.8691C38.7027 37.8754 38.7102 37.88 38.7185 37.8828C38.7268 37.8856 38.7356 37.8865 38.7443 37.8853H38.981C38.9897 37.8865 38.9985 37.8857 39.0068 37.8829C39.0151 37.8801 39.0227 37.8755 39.0289 37.8692C39.0351 37.863 39.0398 37.8555 39.0425 37.8471C39.0453 37.8388 39.0461 37.8299 39.0449 37.8212V33.5893C39.0461 33.5806 39.0453 33.5717 39.0425 33.5634C39.0398 33.555 39.0351 33.5475 39.0289 33.5412C39.0227 33.535 39.0151 33.5303 39.0068 33.5276C38.9985 33.5248 38.9894 33.524 38.9808 33.5252Z" fill="#4C3D8F"/>
<path d="M42.2856 33.5254H42.0557C42.0374 33.5252 42.0196 33.5315 42.0055 33.5432C41.9914 33.555 41.9819 33.5714 41.9787 33.5895L40.4575 37.8203C40.4448 37.8641 40.4599 37.8843 40.5012 37.8843H40.7508C40.7697 37.8841 40.7881 37.8777 40.803 37.8662C40.818 37.8546 40.8289 37.8385 40.834 37.8203L41.217 36.7499H43.1093L43.493 37.8203C43.4955 37.8398 43.5057 37.8575 43.5212 37.8695C43.5368 37.8815 43.5564 37.8868 43.5759 37.8843H43.8255C43.8677 37.8843 43.8828 37.8624 43.8692 37.8203L42.3598 33.5895C42.3568 33.5713 42.3473 33.5548 42.3332 33.5431C42.3191 33.5313 42.3012 33.525 42.2828 33.5254M41.3406 36.3974L42.1585 34.1158H42.178L42.99 36.3974H41.3406Z" fill="#4C3D8F"/>
<path d="M46.7975 35.5124L46.5995 35.4867C46.3145 35.4723 46.0399 35.3743 45.81 35.2048C45.7338 35.1366 45.6734 35.0524 45.6331 34.9583C45.5928 34.8641 45.5735 34.7623 45.5766 34.6599C45.5721 34.544 45.593 34.4285 45.6378 34.3216C45.6826 34.2148 45.7503 34.119 45.836 34.0412C46.0397 33.8745 46.2986 33.791 46.561 33.8073C46.7431 33.8063 46.9243 33.8334 47.0982 33.8876C47.28 33.9461 47.4539 34.0267 47.616 34.1276C47.6227 34.1329 47.6303 34.1367 47.6385 34.1389C47.6466 34.1411 47.6551 34.1416 47.6635 34.1404C47.6718 34.1392 47.6799 34.1364 47.6871 34.132C47.6943 34.1276 47.7006 34.1218 47.7055 34.1149L47.8333 33.9159C47.8628 33.8775 47.8586 33.8479 47.8206 33.8262C47.6537 33.7066 47.4676 33.6167 47.2704 33.5603C47.0466 33.4929 46.814 33.4593 46.5802 33.4607C46.2191 33.4419 45.864 33.5585 45.5838 33.7878C45.4593 33.9004 45.3614 34.0393 45.2971 34.1945C45.2327 34.3498 45.2037 34.5174 45.2119 34.6853C45.2058 34.8289 45.23 34.9721 45.2827 35.1058C45.3355 35.2394 45.4157 35.3603 45.5182 35.4608C45.7856 35.684 46.1167 35.8165 46.4638 35.8393L46.6623 35.8645C46.8339 35.8832 47.0027 35.9219 47.1654 35.9799C47.2825 36.021 47.3907 36.0841 47.4844 36.1657C47.5597 36.2332 47.6179 36.3178 47.6539 36.4125C47.6887 36.508 47.7061 36.609 47.7051 36.7106C47.7092 36.8346 47.6841 36.9578 47.6319 37.0702C47.5797 37.1827 47.5018 37.2812 47.4045 37.3578C47.1661 37.5324 46.8746 37.6187 46.5798 37.6018C46.3371 37.6044 46.0966 37.5563 45.8734 37.4605C45.6818 37.3802 45.5006 37.2771 45.3335 37.1534C45.3281 37.1464 45.321 37.1409 45.3129 37.1373C45.3048 37.1337 45.2959 37.1322 45.2871 37.1328C45.2783 37.1334 45.2698 37.1362 45.2623 37.1409C45.2548 37.1456 45.2485 37.1521 45.2441 37.1597L45.0909 37.3519C45.084 37.3574 45.0785 37.3645 45.0749 37.3726C45.0714 37.3807 45.0698 37.3896 45.0704 37.3985C45.0711 37.4073 45.0738 37.4159 45.0785 37.4234C45.0832 37.4309 45.0896 37.4372 45.0973 37.4416C45.1826 37.512 45.2734 37.5752 45.369 37.6307C45.479 37.6954 45.5945 37.7502 45.7142 37.7944C45.8442 37.8427 45.9779 37.8801 46.1141 37.9063C46.2529 37.9341 46.3941 37.9482 46.5356 37.9482C46.7606 37.9519 46.9848 37.9205 47.2002 37.8552C47.3765 37.8016 47.5398 37.712 47.6797 37.5919C47.8054 37.4819 47.9049 37.345 47.9709 37.1913C48.0381 37.0311 48.0719 36.8588 48.07 36.685C48.0761 36.5401 48.0524 36.3955 48.0001 36.2603C47.9478 36.1251 47.8683 36.0022 47.7663 35.8994C47.4926 35.6705 47.1534 35.5347 46.7977 35.5117" fill="#4C3D8F"/>
<path d="M51.0937 33.5254H50.8631C50.8448 33.5252 50.8269 33.5315 50.8128 33.5432C50.7987 33.555 50.7892 33.5714 50.7861 33.5895L49.2662 37.8203C49.2533 37.8641 49.2686 37.8843 49.3112 37.8843H49.5604C49.5793 37.8841 49.5976 37.8777 49.6126 37.8662C49.6276 37.8546 49.6384 37.8385 49.6435 37.8203L50.0266 36.7499H51.9188L52.3025 37.8203C52.3051 37.8398 52.3152 37.8575 52.3308 37.8695C52.3463 37.8815 52.3659 37.8868 52.3854 37.8843H52.635C52.6772 37.8843 52.6923 37.8624 52.6788 37.8203L51.1693 33.5895C51.1663 33.5713 51.1568 33.5548 51.1427 33.5431C51.1286 33.5313 51.1107 33.525 51.0923 33.5254M50.1477 36.3974L50.9657 34.1158H50.9849L51.7969 36.3974H50.1477Z" fill="#4C3D8F"/>
<path d="M56.994 37.8141L56.0474 35.8848C56.3058 35.8311 56.5377 35.6894 56.7037 35.4838C56.865 35.2669 56.9473 35.001 56.9367 34.7306C56.9455 34.5665 56.9186 34.4024 56.858 34.2497C56.7973 34.097 56.7043 33.9594 56.5854 33.8463C56.3139 33.6196 55.9667 33.505 55.6141 33.5255H54.1563C54.1476 33.5243 54.1388 33.5251 54.1304 33.5279C54.1221 33.5307 54.1146 33.5353 54.1084 33.5416C54.1022 33.5478 54.0975 33.5553 54.0947 33.5637C54.092 33.572 54.0912 33.5809 54.0924 33.5896V37.8204C54.0911 37.8291 54.0919 37.838 54.0946 37.8464C54.0974 37.8547 54.102 37.8623 54.1083 37.8686C54.1145 37.8748 54.122 37.8795 54.1304 37.8822C54.1387 37.885 54.1476 37.8858 54.1563 37.8845H54.3923C54.401 37.8858 54.4099 37.885 54.4182 37.8822C54.4266 37.8795 54.4341 37.8748 54.4403 37.8686C54.4466 37.8623 54.4512 37.8547 54.454 37.8464C54.4567 37.838 54.4575 37.8291 54.4562 37.8204V35.9743C54.4554 35.969 54.4559 35.9636 54.4576 35.9586C54.4592 35.9535 54.4621 35.9489 54.4658 35.9451C54.4696 35.9414 54.4742 35.9385 54.4792 35.9368C54.4843 35.9352 54.4897 35.9347 54.4949 35.9355H55.6773L56.5911 37.8266C56.5962 37.843 56.6064 37.8574 56.6201 37.8677C56.6338 37.8781 56.6504 37.8839 56.6676 37.8843H56.9623C56.9703 37.8854 56.9785 37.8841 56.9858 37.8807C56.9931 37.8773 56.9993 37.8718 57.0036 37.865C57.0064 37.8563 57.007 37.8471 57.0054 37.8382C57.0038 37.8293 56.9999 37.8209 56.9942 37.8138M55.6064 35.5895H54.4947C54.4895 35.5903 54.4841 35.5899 54.4791 35.5882C54.4741 35.5866 54.4695 35.5838 54.4657 35.5801C54.462 35.5763 54.4591 35.5718 54.4574 35.5668C54.4557 35.5617 54.4552 35.5564 54.456 35.5511V33.9101C54.4552 33.9049 54.4557 33.8995 54.4574 33.8945C54.4591 33.8895 54.462 33.8849 54.4657 33.8812C54.4695 33.8774 54.4741 33.8746 54.4791 33.873C54.4841 33.8714 54.4895 33.8709 54.4947 33.8717H55.6064C55.8646 33.8542 56.1199 33.9342 56.3222 34.0959C56.4824 34.2688 56.5715 34.4961 56.5715 34.7322C56.5715 34.9682 56.4824 35.1955 56.3222 35.3684C56.119 35.5281 55.864 35.6068 55.6064 35.5895Z" fill="#4C3D8F"/>
</svg>
