<svg width="47" height="47" viewBox="0 0 47 47" fill="none" xmlns="http://www.w3.org/2000/svg">
<g clip-path="url(#clip0_293_23229)">
<path d="M31.3327 11.75C31.8521 11.75 32.3502 11.9563 32.7174 12.3236C33.0847 12.6908 33.291 13.189 33.291 13.7083C33.291 14.2277 33.0847 14.7258 32.7174 15.0931C32.3502 15.4603 31.8521 15.6667 31.3327 15.6667H15.666C15.1466 15.6667 14.6485 15.4603 14.2813 15.0931C13.914 14.7258 13.7077 14.2277 13.7077 13.7083C13.7077 13.189 13.914 12.6908 14.2813 12.3236C14.6485 11.9563 15.1466 11.75 15.666 11.75H31.3327ZM46.4256 46.4262C46.0583 46.7933 45.5603 46.9996 45.041 46.9996C44.5217 46.9996 44.0237 46.7933 43.6565 46.4262L38.9428 41.7125C37.5468 42.6035 35.9262 43.0789 34.2702 43.0833C32.5272 43.0833 30.8234 42.5665 29.3742 41.5982C27.925 40.6298 26.7955 39.2535 26.1285 37.6432C25.4615 36.033 25.287 34.2611 25.627 32.5516C25.967 30.8421 26.8064 29.2719 28.0388 28.0395C29.2713 26.807 30.8415 25.9677 32.5509 25.6277C34.2604 25.2876 36.0323 25.4621 37.6426 26.1291C39.2529 26.7961 40.6292 27.9257 41.5975 29.3749C42.5658 30.8241 43.0827 32.5279 43.0827 34.2708C43.0783 35.9269 42.6028 37.5475 41.7118 38.9434L46.4256 43.6571C46.7927 44.0244 46.9989 44.5224 46.9989 45.0417C46.9989 45.5609 46.7927 46.059 46.4256 46.4262ZM34.2702 39.1667C35.2385 39.1667 36.185 38.8795 36.9902 38.3416C37.7953 37.8036 38.4228 37.039 38.7933 36.1444C39.1639 35.2498 39.2609 34.2654 39.0719 33.3157C38.883 32.366 38.4168 31.4937 37.7321 30.809C37.0474 30.1243 36.175 29.658 35.2253 29.4691C34.2756 29.2802 33.2912 29.3771 32.3966 29.7477C31.502 30.1182 30.7374 30.7457 30.1994 31.5509C29.6615 32.356 29.3743 33.3025 29.3743 34.2708C29.3743 35.5693 29.8902 36.8146 30.8083 37.7327C31.7265 38.6509 32.9717 39.1667 34.2702 39.1667ZM25.4577 43.0833H13.7077C12.1495 43.0833 10.6552 42.4644 9.55343 41.3626C8.45165 40.2608 7.83268 38.7665 7.83268 37.2083V9.79167C7.83268 8.23352 8.45165 6.73919 9.55343 5.63741C10.6552 4.53564 12.1495 3.91667 13.7077 3.91667H37.2077C37.7271 3.91667 38.2252 4.12299 38.5924 4.49025C38.9597 4.85751 39.166 5.35562 39.166 5.875V21.5417C39.166 22.061 39.3723 22.5592 39.7396 22.9264C40.1069 23.2937 40.605 23.5 41.1244 23.5C41.6437 23.5 42.1418 23.2937 42.5091 22.9264C42.8764 22.5592 43.0827 22.061 43.0827 21.5417V5.875C43.0827 4.31685 42.4637 2.82252 41.3619 1.72075C40.2602 0.618971 38.7658 0 37.2077 0L13.7077 0C11.1117 0.00310955 8.62298 1.03573 6.78736 2.87135C4.95174 4.70697 3.91913 7.19571 3.91602 9.79167V37.2083C3.91913 39.8043 4.95174 42.293 6.78736 44.1287C8.62298 45.9643 11.1117 46.9969 13.7077 47H25.4577C25.9771 47 26.4752 46.7937 26.8424 46.4264C27.2097 46.0592 27.416 45.5611 27.416 45.0417C27.416 44.5223 27.2097 44.0242 26.8424 43.6569C26.4752 43.2897 25.9771 43.0833 25.4577 43.0833Z" fill="#C8C3DC"/>
</g>
<defs>
<clipPath id="clip0_293_23229">
<rect width="47" height="47" fill="white"/>
</clipPath>
</defs>
</svg>
