<svg width="24" height="25" viewBox="0 0 24 25" fill="none" xmlns="http://www.w3.org/2000/svg">
<g id="ICON" clip-path="url(#clip0_2253_29636)">
<path id="Vector" d="M23.2706 10.0135C21.7196 7.48751 18.1916 3.24951 11.9996 3.24951C5.80756 3.24951 2.27956 7.48751 0.728563 10.0135C0.249091 10.789 -0.00488281 11.6828 -0.00488281 12.5945C-0.00488281 13.5063 0.249091 14.4 0.728563 15.1755C2.27956 17.7015 5.80756 21.9395 11.9996 21.9395C18.1916 21.9395 21.7196 17.7015 23.2706 15.1755C23.75 14.4 24.004 13.5063 24.004 12.5945C24.004 11.6828 23.75 10.789 23.2706 10.0135ZM21.5656 14.1285C20.2336 16.2945 17.2186 19.9395 11.9996 19.9395C6.78056 19.9395 3.76556 16.2945 2.43356 14.1285C2.1487 13.6676 1.99781 13.1364 1.99781 12.5945C1.99781 12.0526 2.1487 11.5215 2.43356 11.0605C3.76556 8.89451 6.78056 5.24951 11.9996 5.24951C17.2186 5.24951 20.2336 8.89051 21.5656 11.0605C21.8504 11.5215 22.0013 12.0526 22.0013 12.5945C22.0013 13.1364 21.8504 13.6676 21.5656 14.1285Z" fill="#4C3D8F"/>
<path id="Vector_2" d="M12 7.59473C11.0111 7.59473 10.0444 7.88797 9.22215 8.43738C8.39991 8.98679 7.75904 9.76768 7.3806 10.6813C7.00217 11.5949 6.90315 12.6003 7.09608 13.5702C7.289 14.5401 7.76521 15.431 8.46447 16.1303C9.16373 16.8295 10.0546 17.3057 11.0246 17.4987C11.9945 17.6916 12.9998 17.5926 13.9134 17.2141C14.827 16.8357 15.6079 16.1948 16.1574 15.3726C16.7068 14.5503 17 13.5836 17 12.5947C16.9984 11.2691 16.4711 9.99828 15.5338 9.06095C14.5964 8.12361 13.3256 7.59631 12 7.59473ZM12 15.5947C11.4067 15.5947 10.8266 15.4188 10.3333 15.0891C9.83994 14.7595 9.45543 14.291 9.22836 13.7428C9.0013 13.1946 8.94189 12.5914 9.05765 12.0095C9.1734 11.4275 9.45912 10.893 9.87868 10.4734C10.2982 10.0538 10.8328 9.76813 11.4147 9.65237C11.9967 9.53662 12.5999 9.59602 13.1481 9.82309C13.6962 10.0502 14.1648 10.4347 14.4944 10.928C14.8241 11.4214 15 12.0014 15 12.5947C15 13.3904 14.6839 14.1534 14.1213 14.716C13.5587 15.2787 12.7957 15.5947 12 15.5947Z" fill="#4C3D8F"/>
</g>
<defs>
<clipPath id="clip0_2253_29636">
<rect width="24" height="24" fill="white" transform="translate(0 0.594727)"/>
</clipPath>
</defs>
</svg>
