<svg width="24" height="24" viewBox="0 0 24 24" fill="none" xmlns="http://www.w3.org/2000/svg">
<g clip-path="url(#clip0_293_22404)">
<path d="M19 0H5C3.67441 0.00158786 2.40356 0.528882 1.46622 1.46622C0.528882 2.40356 0.00158786 3.67441 0 5L0 19C0.00158786 20.3256 0.528882 21.5964 1.46622 22.5338C2.40356 23.4711 3.67441 23.9984 5 24H19C20.3256 23.9984 21.5964 23.4711 22.5338 22.5338C23.4711 21.5964 23.9984 20.3256 24 19V5C23.9984 3.67441 23.4711 2.40356 22.5338 1.46622C21.5964 0.528882 20.3256 0.00158786 19 0V0ZM5 2H19C19.7956 2 20.5587 2.31607 21.1213 2.87868C21.6839 3.44129 22 4.20435 22 5V19C21.9983 19.4455 21.8957 19.8848 21.7 20.285L12.537 11.122C12.0727 10.6576 11.5214 10.2892 10.9147 10.0378C10.308 9.78644 9.65772 9.65707 9.001 9.65707C8.34428 9.65707 7.69399 9.78644 7.08728 10.0378C6.48056 10.2892 5.92931 10.6576 5.465 11.122L2 14.586V5C2 4.20435 2.31607 3.44129 2.87868 2.87868C3.44129 2.31607 4.20435 2 5 2ZM5 22C4.20435 22 3.44129 21.6839 2.87868 21.1213C2.31607 20.5587 2 19.7956 2 19V17.414L6.878 12.536C7.1566 12.2572 7.4874 12.0361 7.85151 11.8852C8.21561 11.7343 8.60587 11.6566 9 11.6566C9.39413 11.6566 9.78439 11.7343 10.1485 11.8852C10.5126 12.0361 10.8434 12.2572 11.122 12.536L20.285 21.7C19.8848 21.8957 19.4455 21.9983 19 22H5Z" fill="#4C3D8F"/>
<path d="M16 10.4998C16.6922 10.4998 17.3689 10.2945 17.9445 9.9099C18.5201 9.52532 18.9687 8.97869 19.2336 8.33915C19.4985 7.69961 19.5678 6.99588 19.4327 6.31694C19.2977 5.63801 18.9644 5.01437 18.4749 4.52488C17.9854 4.0354 17.3617 3.70206 16.6828 3.56701C16.0039 3.43196 15.3001 3.50127 14.6606 3.76618C14.0211 4.03109 13.4744 4.47969 13.0899 5.05526C12.7053 5.63083 12.5 6.30752 12.5 6.99976C12.5 7.92802 12.8687 8.81825 13.5251 9.47463C14.1815 10.131 15.0717 10.4998 16 10.4998ZM16 5.49976C16.2967 5.49976 16.5867 5.58773 16.8334 5.75255C17.08 5.91738 17.2723 6.15164 17.3858 6.42573C17.4994 6.69982 17.5291 7.00142 17.4712 7.29239C17.4133 7.58336 17.2704 7.85064 17.0607 8.06042C16.8509 8.2702 16.5836 8.41306 16.2926 8.47094C16.0017 8.52881 15.7001 8.49911 15.426 8.38558C15.1519 8.27205 14.9176 8.07979 14.7528 7.83311C14.588 7.58644 14.5 7.29643 14.5 6.99976C14.5 6.60193 14.658 6.2204 14.9393 5.9391C15.2206 5.65779 15.6022 5.49976 16 5.49976Z" fill="#4C3D8F"/>
</g>
<defs>
<clipPath id="clip0_293_22404">
<rect width="24" height="24" fill="white"/>
</clipPath>
</defs>
</svg>
