<svg width="91" height="88" viewBox="0 0 91 88" fill="none" xmlns="http://www.w3.org/2000/svg">
<g clip-path="url(#clip0_22_476)">
<path d="M2.82196 0.580566H57.269C58.5694 0.580566 59.6258 1.64085 59.6258 2.94451V59.4528C59.6258 60.7581 58.5694 61.8167 57.2707 61.8167H2.82196C1.52149 61.8167 0.466866 60.7564 0.466866 59.4528V2.94451C0.466866 1.64085 1.52318 0.580566 2.82196 0.580566Z" fill="white"/>
<path d="M51.4024 6.45654H8.69019C7.62709 6.45654 6.76576 7.3211 6.76576 8.3882V36.4696C11.1352 34.5703 15.5028 32.6726 19.8722 30.775C21.817 29.9309 24.284 29.1548 25.8676 30.5674C26.4797 31.1137 26.8273 31.9034 27.4021 32.4905C28.6585 33.7755 30.7949 33.8146 32.409 33.0317C34.0232 32.2489 35.2185 30.8142 36.2833 29.3658C37.755 27.3644 39.6947 24.9834 42.1244 25.4753C43.1129 25.6744 44.1421 26.3535 45.0441 25.8974C45.4409 25.6965 45.7088 25.3102 45.9394 24.929C47.0924 23.0348 47.8333 20.8529 49.361 19.2463C50.3715 18.1843 51.9212 17.4866 53.3251 17.5666V8.38649C53.3251 7.3194 52.4638 6.45483 51.4007 6.45483L51.4024 6.45654Z" fill="#F7B375"/>
<path d="M49.361 19.2463C47.8333 20.8529 47.094 23.0347 45.9394 24.929C45.7071 25.3102 45.4409 25.6965 45.0441 25.8973C44.1421 26.3535 43.1129 25.6744 42.1244 25.4753C39.6964 24.9834 37.755 27.3661 36.2833 29.3675C35.2185 30.8158 34.0232 32.2505 32.409 33.0334C30.7949 33.8163 28.6568 33.7754 27.4021 32.4922C26.8273 31.9051 26.4814 31.1154 25.8676 30.5691C24.284 29.1565 21.817 29.9309 19.8722 30.7767C15.5028 32.676 11.1352 34.5736 6.76576 36.473V41.9225C11.8015 41.8816 16.8389 41.8391 21.8747 41.7982C24.54 41.7761 27.2224 41.7557 29.8471 42.2169C30.6118 42.3513 31.4002 42.5266 32.153 42.3377C32.6837 42.205 33.1601 41.8969 33.6942 41.7846C35.0354 41.5021 36.2816 42.4739 37.5872 42.8959C40.6442 43.8847 43.8946 41.805 47.0924 42.1046C49.0897 42.2918 50.9887 43.4065 52.9826 43.1836C53.0979 43.1717 53.2115 43.1512 53.3251 43.1308V17.5682C51.9212 17.4865 50.3715 18.186 49.361 19.248V19.2463Z" fill="#30363D"/>
<path d="M45.4155 49.6501C43.6488 50.2202 41.604 49.8254 40.1746 48.6392C38.7385 47.6486 36.9752 47.1466 35.2339 47.2351C35.1542 46.6956 34.5302 46.4505 34.0012 46.3212C31.8496 45.7987 29.6505 45.4787 27.4395 45.3715C26.4866 45.3255 25.3726 45.2319 24.8572 44.4269C22.9938 45.0022 20.9269 44.8882 19.1382 44.1104C18.699 43.9198 18.2751 43.69 17.8139 43.5556C17.2341 43.3854 16.6203 43.3769 16.015 43.3684C12.9325 43.3258 9.84832 43.2816 6.76414 43.239V50.3002C6.76414 51.3656 7.62548 52.2319 8.68858 52.2319H47.5943C46.7448 51.4864 46.0039 50.6185 45.4138 49.6535L45.4155 49.6501Z" fill="#CBE8ED"/>
<path d="M53.3251 43.1281C53.2115 43.1485 53.0979 43.1689 52.9826 43.1808C50.9887 43.4038 49.0897 42.289 47.0923 42.1018C43.8946 41.8023 40.6425 43.882 37.5872 42.8932C36.2816 42.4711 35.0371 41.4994 33.6942 41.7819C33.1601 41.8942 32.682 42.2022 32.153 42.335C31.4002 42.5239 30.6118 42.3486 29.8471 42.2142C27.2224 41.7512 24.54 41.7734 21.8747 41.7955C16.8389 41.8363 11.8015 41.8789 6.76576 41.9197V43.2353C9.84824 43.2779 12.9324 43.3221 16.0166 43.3646C16.6219 43.3732 17.234 43.3834 17.8156 43.5519C18.275 43.6863 18.7006 43.9161 19.1398 44.1067C20.9286 44.8844 22.9954 45.0002 24.8588 44.4232C25.3742 45.2299 26.4882 45.3218 27.4411 45.3678C29.6521 45.4767 31.8512 45.795 34.0028 46.3174C34.5318 46.4468 35.1558 46.6919 35.2355 47.2314C36.9751 47.1429 38.7401 47.6449 40.1763 48.6354C41.6073 49.8217 43.6504 50.2165 45.4172 49.6464C46.0072 50.6113 46.7482 51.4793 47.5976 52.2248H53.3268V43.1247L53.3251 43.1281Z" fill="white"/>
<path d="M25.5839 21.4339C27.7147 19.2951 27.7147 15.8274 25.5839 13.6887C23.4531 11.5499 19.9984 11.5499 17.8677 13.6887C15.7369 15.8274 15.7369 19.2951 17.8677 21.4339C19.9984 23.5727 23.4531 23.5727 25.5839 21.4339Z" fill="white"/>
<path d="M88.9348 29.3664L37.399 11.7347C36.168 11.3126 34.8286 11.9747 34.4098 13.2103L16.2472 66.696C15.8267 67.9315 16.4863 69.276 17.7172 69.6964L69.253 87.3281C70.484 87.7502 71.8234 87.0882 72.2422 85.8526L90.4048 32.3669C90.8253 31.1313 90.1657 29.7868 88.9348 29.3664Z" fill="white"/>
<path d="M57.5487 56.1286L69.1054 49.5116L74.5684 59.8319L82.8511 35.442C83.1784 34.477 82.6646 33.4303 81.705 33.1002L40.8527 19.1241C39.8914 18.7957 38.8486 19.3114 38.5197 20.2746L29.4486 46.9894L48.4386 38.4561L57.547 56.1252L57.5487 56.1286Z" fill="#CBE8ED"/>
<path d="M54.6494 64.2623C55.1954 63.8675 55.5786 63.2514 55.6888 62.5859C50.726 61.1751 45.7631 59.7642 40.8003 58.3533C40.824 57.6198 41.1699 56.9016 41.7278 56.4268C37.1295 54.7589 32.4532 53.3123 27.7193 52.0835L24.9945 60.108C24.6673 61.0729 25.181 62.1196 26.1407 62.4498L66.9912 76.4258C67.9526 76.7543 68.9953 76.2386 69.3243 75.2753L71.2741 69.5331C67.5338 68.5562 63.7036 67.9418 59.9446 67.0296C57.9693 66.5514 55.8702 65.8927 54.6511 64.2623H54.6494Z" fill="#F7B375"/>
<path d="M69.1054 49.5119L57.5486 56.1289L48.4402 38.4597L29.4502 46.9931L27.7208 52.0851C32.4547 53.3156 37.131 54.7605 41.7293 56.4284C41.1715 56.9032 40.8256 57.6214 40.8018 58.355C45.7647 59.7658 50.7275 61.1767 55.6903 62.5876C55.5784 63.253 55.1969 63.8691 54.651 64.264C55.8701 65.8944 57.9691 66.553 59.9444 67.0313C63.7034 67.9435 67.5336 68.5579 71.274 69.5348L74.5684 59.8339L69.1054 49.5136V49.5119Z" fill="#474F5A"/>
</g>
<defs>
<clipPath id="clip0_22_476">
<rect width="90.0634" height="86.8753" fill="white" transform="translate(0.466778 0.580566)"/>
</clipPath>
</defs>
</svg>
