<svg width="44" height="32" viewBox="0 0 44 32" fill="none" xmlns="http://www.w3.org/2000/svg">
<path fill-rule="evenodd" clip-rule="evenodd" d="M5.34766 7.14465H13.0069C6.75258 11.3556 6.56479 14.6273 6.60105 23.7041C8.51041 23.7041 14.4445 23.186 14.4334 16.7141C14.7661 16.541 15.1601 16.2159 15.4665 15.3172V21.2438C15.4665 21.2438 16.8287 20.517 16.8289 14.7986V13.1693C17.3365 12.8729 17.5757 12.2923 17.7484 11.7284V21.2438C17.7484 21.2438 19.1126 20.517 19.1126 14.7986V9.30587C19.6633 8.76462 20.0368 8.06944 20.184 7.31195V24.9268H5.34766V7.14465ZM25.7193 25.4407C26.0104 25.4408 26.2948 25.5271 26.5368 25.6886C26.7787 25.8502 26.9673 26.0797 27.0785 26.3482C27.1898 26.6168 27.2188 26.9122 27.162 27.1972C27.1051 27.4823 26.9649 27.744 26.759 27.9494C26.5531 28.1549 26.2909 28.2947 26.0054 28.3513C25.7199 28.4079 25.4241 28.3786 25.1552 28.2673C24.8864 28.156 24.6567 27.9676 24.4951 27.7259C24.3335 27.4841 24.2473 27.2 24.2474 26.9094C24.2478 26.5198 24.4031 26.1463 24.6791 25.871C24.955 25.5956 25.3292 25.4409 25.7193 25.4407ZM29.1978 25.4407C29.4889 25.4408 29.7734 25.527 30.0154 25.6885C30.2573 25.85 30.4459 26.0796 30.5572 26.3481C30.6685 26.6166 30.6976 26.9121 30.6407 27.1971C30.5839 27.4821 30.4436 27.7439 30.2378 27.9494C30.0319 28.1548 29.7697 28.2947 29.4842 28.3513C29.1987 28.4079 28.9028 28.3787 28.634 28.2673C28.3651 28.156 28.1354 27.9676 27.9738 27.7259C27.8122 27.4842 27.726 27.2 27.7262 26.9094C27.7261 26.7165 27.7642 26.5254 27.8381 26.3471C27.9121 26.1689 28.0205 26.0069 28.1572 25.8705C28.2939 25.7341 28.4561 25.626 28.6347 25.5522C28.8132 25.4785 29.0046 25.4406 29.1978 25.4407ZM34.1663 3.61963C34.4573 3.61967 34.7419 3.70591 34.9839 3.86743C35.2259 4.02896 35.4145 4.25851 35.5258 4.52707C35.6371 4.79562 35.6662 5.09111 35.6094 5.37618C35.5525 5.66124 35.4123 5.92307 35.2064 6.12855C35.0006 6.33403 34.7383 6.47393 34.4528 6.53057C34.1673 6.5872 33.8714 6.55803 33.6025 6.44672C33.3336 6.33542 33.1038 6.147 32.9422 5.90528C32.7805 5.66356 32.6943 5.3794 32.6944 5.08874C32.6944 4.89576 32.7325 4.70469 32.8065 4.52641C32.8805 4.34814 32.9889 4.18617 33.1256 4.04975C33.2623 3.91333 33.4245 3.80513 33.6031 3.73133C33.7816 3.65753 33.973 3.61957 34.1663 3.61963ZM37.6437 3.61963C37.9347 3.61967 38.2193 3.70591 38.4613 3.86743C38.7033 4.02896 38.8918 4.25851 39.0032 4.52707C39.1145 4.79562 39.1436 5.09111 39.0868 5.37618C39.0299 5.66124 38.8897 5.92307 38.6838 6.12855C38.478 6.33403 38.2157 6.47393 37.9302 6.53057C37.6447 6.5872 37.3488 6.55803 37.0799 6.44672C36.811 6.33542 36.5812 6.147 36.4195 5.90528C36.2579 5.66356 36.1717 5.3794 36.1718 5.08874C36.1717 4.89575 36.2098 4.70464 36.2837 4.52635C36.3577 4.34805 36.4661 4.18605 36.6028 4.04962C36.7395 3.91319 36.9018 3.80499 37.0804 3.73121C37.259 3.65743 37.4504 3.61951 37.6437 3.61963ZM37.0418 7.14465C37.8061 7.14465 38.8541 7.14465 39.6186 7.14465C39.6186 13.072 39.6186 18.9991 39.6186 24.9259H21.1129V7.14465H28.7726C22.5176 11.3556 22.3296 14.6273 22.3661 23.7041C24.275 23.7041 30.2089 23.186 30.1996 16.7141L31.206 15.6907V23.6692C36.9743 24.5638 38.6585 18.7384 38.408 17.819C38.423 17.8109 38.4342 17.7971 38.4391 17.7808C37.6943 17.9794 36.9155 18.0169 36.155 17.8909C35.3944 17.7649 34.6696 17.4783 34.0288 17.0502C33.3881 16.622 32.8463 16.0623 32.4395 15.4083C32.0328 14.7543 31.7705 14.0212 31.6702 13.2579C31.5699 12.4946 31.634 11.7187 31.858 10.9821C32.0821 10.2455 32.461 9.56516 32.9694 8.98648C33.4779 8.40781 34.1042 7.94417 34.8065 7.62655C35.5087 7.30892 36.2708 7.14463 37.0418 7.14465Z" fill="#4C3D8F"/>
<path d="M39.4556 31.9999H5.51216C4.31734 32.0104 3.16717 31.5471 2.31395 30.7118C1.46074 29.8766 0.97415 28.7374 0.960938 27.5444V4.45503C0.974208 3.26206 1.4608 2.12306 2.31397 1.28787C3.16713 0.452684 4.31722 -0.0104987 5.51194 -6.97956e-05H39.4556C40.6504 -0.0105585 41.8006 0.452583 42.6539 1.28777C43.5072 2.12295 43.9939 3.26199 44.0073 4.45503V27.5448C43.9939 28.7379 43.5072 29.8769 42.6539 30.7121C41.8006 31.5473 40.6504 32.0104 39.4556 31.9999ZM5.51194 1.21486C4.64309 1.20733 3.80672 1.54424 3.18632 2.15167C2.56591 2.7591 2.21211 3.58746 2.20254 4.45503V27.5448C2.21205 28.4124 2.56584 29.2408 3.18627 29.8482C3.8067 30.4556 4.64309 30.7924 5.51194 30.7848H39.4556C40.3245 30.7924 41.1608 30.4556 41.7813 29.8482C42.4017 29.2408 42.7555 28.4124 42.765 27.5448V4.45503C42.7555 3.58742 42.4018 2.759 41.7814 2.15154C41.1609 1.54408 40.3245 1.20721 39.4556 1.21486H5.51194Z" fill="#4C3D8F"/>
</svg>
