<svg width="19" height="19" viewBox="0 0 19 19" fill="none" xmlns="http://www.w3.org/2000/svg">
<g clip-path="url(#clip0_293_15583)">
<path d="M15.0417 0H3.95833C2.9089 0.00125705 1.90282 0.418698 1.16076 1.16076C0.418698 1.90282 0.00125705 2.9089 0 3.95833L0 15.0417C0.00125705 16.0911 0.418698 17.0972 1.16076 17.8392C1.90282 18.5813 2.9089 18.9987 3.95833 19H12.9382C13.4582 19.0013 13.9733 18.8994 14.4536 18.7004C14.934 18.5013 15.3701 18.2089 15.7368 17.8402L17.841 15.7375C18.2097 15.3707 18.5019 14.9345 18.7009 14.454C18.8998 13.9735 19.0015 13.4583 19 12.9382V3.95833C18.9987 2.9089 18.5813 1.90282 17.8392 1.16076C17.0972 0.418698 16.0911 0.00125705 15.0417 0V0ZM1.58333 15.0417V3.95833C1.58333 3.32844 1.83356 2.72435 2.27895 2.27895C2.72435 1.83356 3.32844 1.58333 3.95833 1.58333H15.0417C15.6716 1.58333 16.2756 1.83356 16.721 2.27895C17.1664 2.72435 17.4167 3.32844 17.4167 3.95833V11.875H14.25C13.6201 11.875 13.016 12.1252 12.5706 12.5706C12.1252 13.016 11.875 13.6201 11.875 14.25V17.4167H3.95833C3.32844 17.4167 2.72435 17.1664 2.27895 16.721C1.83356 16.2756 1.58333 15.6716 1.58333 15.0417ZM14.6173 16.7208C14.2981 17.0365 13.8965 17.256 13.4583 17.3541V14.25C13.4583 14.04 13.5417 13.8387 13.6902 13.6902C13.8387 13.5417 14.04 13.4583 14.25 13.4583H17.3549C17.2587 13.8974 17.0389 14.2998 16.7216 14.6181L14.6173 16.7208ZM11.0833 7.1915V5.529C11.0841 5.32188 11.1256 5.11693 11.2056 4.92587C11.2856 4.73481 11.4024 4.56138 11.5495 4.41551C11.6965 4.26964 11.8709 4.15418 12.0626 4.07574C12.2543 3.99729 12.4595 3.9574 12.6667 3.95833C12.9558 3.96064 13.2389 4.0412 13.4858 4.19147C13.7328 4.34173 13.9345 4.55608 14.0695 4.81175C14.0997 4.86945 14.1181 4.93252 14.1239 4.99737C14.1297 5.06221 14.1226 5.12756 14.1032 5.18968C14.0837 5.2518 14.0521 5.30947 14.0104 5.35941C13.9686 5.40934 13.9174 5.45056 13.8597 5.48071C13.802 5.51086 13.7389 5.52935 13.6741 5.53512C13.6092 5.54089 13.5439 5.53384 13.4818 5.51436C13.4197 5.49488 13.362 5.46335 13.3121 5.42158C13.2621 5.37981 13.2209 5.32862 13.1908 5.27092C13.1393 5.17589 13.0639 5.09603 12.9719 5.03935C12.8799 4.98266 12.7747 4.95113 12.6667 4.94792C12.5885 4.94718 12.511 4.96203 12.4387 4.99162C12.3664 5.0212 12.3007 5.06492 12.2454 5.12022C12.1902 5.17551 12.1466 5.24127 12.1171 5.31364C12.0876 5.386 12.0729 5.46353 12.0737 5.54167V7.17883C12.0728 7.25704 12.0874 7.33465 12.1169 7.40711C12.1463 7.47957 12.1899 7.54542 12.2452 7.6008C12.3004 7.65618 12.3661 7.69997 12.4385 7.7296C12.5109 7.75924 12.5885 7.77412 12.6667 7.77338C12.8216 7.77162 12.9698 7.71011 13.0804 7.60169C13.191 7.49327 13.2555 7.34632 13.2604 7.1915V7.125H13.0625C12.9575 7.125 12.8568 7.0833 12.7826 7.00906C12.7084 6.93483 12.6667 6.83415 12.6667 6.72917C12.6667 6.62419 12.7084 6.5235 12.7826 6.44927C12.8568 6.37504 12.9575 6.33333 13.0625 6.33333H13.6563C13.8137 6.33333 13.9647 6.39589 14.0761 6.50724C14.1874 6.61859 14.25 6.76961 14.25 6.92708V7.1915C14.2467 7.60923 14.0784 8.00871 13.7818 8.30291C13.4852 8.59711 13.0844 8.76218 12.6667 8.76217C12.4595 8.76311 12.2543 8.72321 12.0626 8.64476C11.8709 8.56632 11.6965 8.45086 11.5495 8.30499C11.4024 8.15912 11.2856 7.9857 11.2056 7.79464C11.1256 7.60358 11.0841 7.39863 11.0833 7.1915ZM6.33333 4.47292V7.12975C6.33271 7.34512 6.28962 7.55825 6.20653 7.75694C6.12345 7.95564 6.00199 8.136 5.84911 8.2877C5.69624 8.4394 5.51494 8.55946 5.31561 8.64101C5.11628 8.72256 4.90282 8.764 4.68746 8.76296C4.38217 8.7573 4.08428 8.66802 3.82619 8.50485C3.56811 8.34168 3.35971 8.11086 3.22367 7.8375C3.19193 7.77698 3.17255 7.71075 3.16665 7.64266C3.16074 7.57458 3.16844 7.506 3.18929 7.44092C3.21014 7.37584 3.24373 7.31556 3.28809 7.26358C3.33246 7.2116 3.38672 7.16896 3.44772 7.13815C3.50871 7.10734 3.57523 7.08896 3.64339 7.08409C3.71156 7.07923 3.78001 7.08797 3.84477 7.1098C3.90952 7.13164 3.96929 7.16613 4.02059 7.21128C4.07189 7.25643 4.1137 7.31133 4.14358 7.37279C4.19383 7.47618 4.27069 7.56433 4.36627 7.62819C4.46185 7.69205 4.57271 7.72932 4.68746 7.73617C4.76895 7.73702 4.84979 7.72155 4.92521 7.69066C5.00062 7.65977 5.06909 7.61409 5.12657 7.55632C5.18405 7.49854 5.22938 7.42984 5.25988 7.35427C5.29038 7.2787 5.30544 7.19778 5.30417 7.11629V4.47213C5.30417 4.33565 5.35838 4.20476 5.45489 4.10826C5.55139 4.01176 5.68227 3.95754 5.81875 3.95754C5.95523 3.95754 6.08611 4.01176 6.18262 4.10826C6.27912 4.20476 6.33333 4.33565 6.33333 4.47213V4.47292ZM8.77958 3.95833H7.91667C7.7067 3.95833 7.50534 4.04174 7.35687 4.19021C7.20841 4.33867 7.125 4.54004 7.125 4.75V8.26817C7.125 8.39939 7.17713 8.52525 7.26992 8.61804C7.36271 8.71083 7.48857 8.76296 7.61979 8.76296C7.75102 8.76296 7.87687 8.71083 7.96966 8.61804C8.06246 8.52525 8.11458 8.39939 8.11458 8.26817V7.30154H8.77958C8.9991 7.30154 9.21647 7.25831 9.41928 7.1743C9.62209 7.09029 9.80637 6.96716 9.96159 6.81194C10.1168 6.65672 10.2399 6.47244 10.3239 6.26963C10.408 6.06682 10.4512 5.84946 10.4512 5.62994C10.4512 5.41042 10.408 5.19305 10.3239 4.99024C10.2399 4.78743 10.1168 4.60316 9.96159 4.44794C9.80637 4.29271 9.62209 4.16958 9.41928 4.08558C9.21647 4.00157 8.9991 3.95833 8.77958 3.95833ZM8.77958 6.30879H8.12092L8.11617 4.94792H8.77958C8.87089 4.9448 8.96189 4.9601 9.04717 4.99289C9.13244 5.02568 9.21025 5.0753 9.27594 5.13879C9.34164 5.20229 9.39388 5.27835 9.42956 5.36246C9.46524 5.44656 9.48363 5.53699 9.48363 5.62835C9.48363 5.71972 9.46524 5.81014 9.42956 5.89425C9.39388 5.97836 9.34164 6.05442 9.27594 6.11791C9.21025 6.18141 9.13244 6.23103 9.04717 6.26382C8.96189 6.29661 8.87089 6.31191 8.77958 6.30879Z" fill="#4C3D8F"/>
</g>
<defs>
<clipPath id="clip0_293_15583">
<rect width="19" height="19" fill="white"/>
</clipPath>
</defs>
</svg>
