<svg width="25" height="24" viewBox="0 0 25 24" fill="none" xmlns="http://www.w3.org/2000/svg">
<g id="ICON" clip-path="url(#clip0_2271_32397)">
<path id="Vector" d="M12.5 15.0002C12.2348 15.0002 11.9804 14.8949 11.7929 14.7073C11.6054 14.5198 11.5 14.2655 11.5 14.0002V6.00024C11.5 5.73502 11.6054 5.48067 11.7929 5.29313C11.9804 5.1056 12.2348 5.00024 12.5 5.00024C12.7652 5.00024 13.0196 5.1056 13.2071 5.29313C13.3946 5.48067 13.5 5.73502 13.5 6.00024V14.0002C13.5 14.2655 13.3946 14.5198 13.2071 14.7073C13.0196 14.8949 12.7652 15.0002 12.5 15.0002ZM13.293 23.7602C15.453 22.8922 22.5 19.4792 22.5 12.0432V6.87224C22.5011 5.82125 22.1706 4.79671 21.5554 3.94455C20.9403 3.0924 20.0719 2.45608 19.074 2.12624L12.815 0.0512379C12.6107 -0.0177303 12.3893 -0.0177303 12.185 0.0512379L5.926 2.12624C4.92811 2.45608 4.05975 3.0924 3.4446 3.94455C2.82946 4.79671 2.49889 5.82125 2.5 6.87224V12.0432C2.5 18.6052 9.505 22.6192 11.653 23.6932C11.9247 23.8229 12.2084 23.9257 12.5 24.0002C12.7712 23.9448 13.0366 23.8645 13.293 23.7602ZM18.444 4.02424C19.0425 4.22265 19.5633 4.60462 19.9324 5.11587C20.3015 5.62713 20.5001 6.24168 20.5 6.87224V12.0432C20.5 18.2262 14.413 21.1542 12.547 21.9042C10.659 20.9602 4.5 17.4592 4.5 12.0432V6.87224C4.49992 6.24168 4.69852 5.62713 5.06761 5.11587C5.43669 4.60462 5.95748 4.22265 6.556 4.02424L12.5 2.05424L18.444 4.02424ZM12.5 17.0002C12.3022 17.0002 12.1089 17.0589 11.9444 17.1688C11.78 17.2787 11.6518 17.4348 11.5761 17.6176C11.5004 17.8003 11.4806 18.0013 11.5192 18.1953C11.5578 18.3893 11.653 18.5675 11.7929 18.7073C11.9327 18.8472 12.1109 18.9424 12.3049 18.981C12.4989 19.0196 12.7 18.9998 12.8827 18.9241C13.0654 18.8484 13.2216 18.7203 13.3315 18.5558C13.4414 18.3914 13.5 18.198 13.5 18.0002C13.5 17.735 13.3946 17.4807 13.2071 17.2931C13.0196 17.1056 12.7652 17.0002 12.5 17.0002Z" fill="#CC0615"/>
</g>
<defs>
<clipPath id="clip0_2271_32397">
<rect width="24" height="24" fill="white" transform="translate(0.5)"/>
</clipPath>
</defs>
</svg>
