<svg width="24" height="24" viewBox="0 0 24 24" fill="none" xmlns="http://www.w3.org/2000/svg">
<g id="ICON" clip-path="url(#clip0_2271_31565)">
<path id="Vector" d="M18.581 2.14073L12.316 0.0517291C12.1109 -0.016592 11.8891 -0.016592 11.684 0.0517291L5.419 2.14073C4.42291 2.47161 3.55642 3.10799 2.94265 3.95944C2.32887 4.81089 1.99904 5.83412 2 6.88373V12.0007C2 19.5637 11.2 23.7407 11.594 23.9147C11.7218 23.9715 11.8601 24.0009 12 24.0009C12.1399 24.0009 12.2782 23.9715 12.406 23.9147C12.8 23.7407 22 19.5637 22 12.0007V6.88373C22.001 5.83412 21.6711 4.81089 21.0574 3.95944C20.4436 3.10799 19.5771 2.47161 18.581 2.14073ZM20 12.0007C20 17.4557 13.681 21.0337 12 21.8897C10.317 21.0367 4 17.4697 4 12.0007V6.88373C4.00006 6.25401 4.19828 5.64027 4.56657 5.12947C4.93486 4.61868 5.45455 4.23672 6.052 4.03773L12 2.05473L17.948 4.03773C18.5455 4.23672 19.0651 4.61868 19.4334 5.12947C19.8017 5.64027 19.9999 6.25401 20 6.88373V12.0007Z" fill="#3994C8"/>
<path id="Vector_2" d="M15.3008 8.30056L11.1128 12.5006L8.86877 10.1606C8.77871 10.0621 8.66986 9.98266 8.54863 9.92691C8.4274 9.87117 8.29623 9.84025 8.16287 9.83598C8.0295 9.83171 7.89663 9.85417 7.77207 9.90205C7.64752 9.94992 7.53381 10.0222 7.43764 10.1147C7.34147 10.2072 7.26478 10.3181 7.2121 10.4406C7.15942 10.5632 7.1318 10.6951 7.13088 10.8286C7.12996 10.962 7.15576 11.0943 7.20675 11.2176C7.25773 11.3409 7.33288 11.4528 7.42777 11.5466L9.73377 13.9466C9.90574 14.1323 10.1136 14.2813 10.3448 14.3844C10.576 14.4875 10.8257 14.5427 11.0788 14.5466H11.1118C11.3598 14.5474 11.6056 14.4989 11.8347 14.404C12.0639 14.3091 12.272 14.1696 12.4468 13.9936L16.7188 9.72157C16.8121 9.62846 16.8861 9.51789 16.9367 9.39616C16.9873 9.27443 17.0134 9.14394 17.0135 9.01213C17.0136 8.88031 16.9878 8.74976 16.9375 8.62793C16.8872 8.5061 16.8134 8.39537 16.7203 8.30206C16.6272 8.20876 16.5166 8.13471 16.3949 8.08414C16.2731 8.03356 16.1426 8.00746 16.0108 8.00732C15.879 8.00719 15.7485 8.03301 15.6266 8.08332C15.5048 8.13364 15.3941 8.20746 15.3008 8.30056Z" fill="#3994C8"/>
</g>
<defs>
<clipPath id="clip0_2271_31565">
<rect width="24" height="24" fill="white"/>
</clipPath>
</defs>
</svg>
