<svg width="68" height="68" viewBox="0 0 68 68" fill="none" xmlns="http://www.w3.org/2000/svg">
<g clip-path="url(#clip0_22_613)">
<path d="M55.8374 66.8356C41.2944 68.3882 26.7063 68.3882 12.1633 66.8356C6.36471 66.2167 1.78401 61.636 1.1651 55.8361C-0.387473 41.2931 -0.387473 26.705 1.1651 12.162C1.78401 6.36345 6.36339 1.78407 12.1633 1.16517C26.7063 -0.387412 41.2944 -0.387412 55.8374 1.16517C61.6373 1.78407 66.218 6.36478 66.8369 12.1634C68.3895 26.7063 68.3895 41.2945 66.8369 55.8374C66.218 61.6374 61.6386 66.2181 55.8387 66.837L55.8374 66.8356Z" fill="url(#paint0_linear_22_613)"/>
<path d="M63.1378 14.6227C62.5892 9.4762 58.5252 5.41214 53.3787 4.86229C40.4733 3.48503 27.5294 3.48503 14.624 4.86229C9.47753 5.41214 5.41347 9.4762 4.86362 14.6227C3.48636 27.5281 3.48636 40.472 4.86362 53.3774C5.41347 58.5239 9.47753 62.5893 14.624 63.1378C27.5294 64.515 40.4733 64.515 53.3787 63.1378C58.5252 62.5893 62.5906 58.5239 63.1391 53.3774C64.5164 40.472 64.5164 27.5281 63.1391 14.6227H63.1378Z" fill="url(#paint1_linear_22_613)"/>
<path d="M1.01871 54.4265C1.06519 54.8967 1.113 55.3668 1.16347 55.837C1.78238 61.6356 6.36308 66.2163 12.163 66.8352C26.706 68.3878 41.2941 68.3878 55.8371 66.8352C61.637 66.2163 66.2164 61.6356 66.8353 55.837C66.8857 55.3668 66.9335 54.8967 66.9814 54.4265H1.01871Z" fill="url(#paint2_linear_22_613)"/>
<path fill-rule="evenodd" clip-rule="evenodd" d="M48.8671 19.0507C44.9225 15.1036 39.8092 13.195 34.2205 13.1924C22.7043 13.1924 13.4659 22.4282 13.4606 33.9443C13.4592 37.6259 14.6878 41.0857 16.5153 44.2532L13.017 55.0761L25.7776 67.8354C35.7983 68.2379 45.827 67.9045 55.8357 66.8367C61.6357 66.2178 66.215 61.6371 66.8339 55.8372C67.4635 49.9443 67.8367 44.0434 67.9562 38.1412L48.8657 19.0507H48.8671Z" fill="url(#paint3_linear_22_613)"/>
<path d="M13.7461 54.3456L16.6082 43.8973C14.8432 40.8399 13.9148 37.3709 13.9161 33.8168C13.9214 22.6991 22.9686 13.6545 34.0864 13.6545C39.4812 13.6572 44.5467 15.757 48.3544 19.5674C52.1635 23.3791 54.2592 28.4445 54.2566 33.8327C54.2513 44.9505 45.2028 53.9963 34.0877 53.9963H34.0784C30.7036 53.9963 27.386 53.1477 24.4402 51.542L13.7475 54.3456H13.7461Z" fill="url(#paint4_linear_22_613)"/>
<path fill-rule="evenodd" clip-rule="evenodd" d="M48.8671 19.0506C44.9225 15.1034 39.6764 12.9279 34.0877 12.9253C22.5715 12.9253 13.1989 22.2939 13.195 33.8101C13.1936 37.4916 14.1552 41.0842 15.984 44.2518L13.0196 55.0747L24.0949 52.1701C27.1469 53.8342 30.5828 54.7108 34.0797 54.7121H34.089C45.6039 54.7121 54.9778 45.3408 54.9817 33.8247C54.9844 28.2439 52.8129 22.9965 48.8684 19.0479L48.8671 19.0506ZM34.0877 51.1859H34.081C30.9653 51.1833 27.9079 50.3465 25.2424 48.7647L24.6075 48.3889L18.0346 50.1128L19.7891 43.7072L19.376 43.0498C17.6375 40.286 16.7198 37.0919 16.7211 33.8114C16.7251 24.2396 24.5146 16.4528 34.093 16.4528C38.7321 16.4541 43.091 18.263 46.3702 21.5435C49.6493 24.8253 51.4529 29.1869 51.4516 33.826C51.4476 43.3978 43.6568 51.1859 34.0864 51.1859H34.0877Z" fill="white"/>
<path fill-rule="evenodd" clip-rule="evenodd" d="M43.613 38.1837C43.091 37.9234 40.5251 36.659 40.0457 36.485C39.5675 36.311 39.2196 36.2247 38.8716 36.7466C38.5236 37.2686 37.5235 38.444 37.2181 38.792C36.9139 39.1399 36.6085 39.1838 36.0865 38.9234C35.5646 38.6618 33.8832 38.1106 31.8883 36.3323C30.3371 34.9484 29.2892 33.2391 28.9837 32.7171C28.6782 32.1952 28.9505 31.9123 29.2135 31.652C29.4472 31.4182 29.7354 31.0424 29.9957 30.7382C30.256 30.4341 30.3437 30.2163 30.5177 29.8683C30.6917 29.5203 30.604 29.2149 30.4739 28.9545C30.3437 28.6929 29.329 26.111 28.8642 25.0791C28.4724 24.2105 28.0607 24.1919 27.6888 24.1773C27.3846 24.164 27.0367 24.1653 26.6887 24.1653C26.3407 24.1653 25.775 24.2955 25.2968 24.8188C24.8174 25.3407 23.4693 26.6038 23.4693 29.1724C23.4693 31.7409 25.3407 34.2232 25.601 34.5712C25.8626 34.9191 29.2135 40.3578 34.5193 42.4509C38.9287 44.1895 39.8265 43.8441 40.7841 43.7565C41.7417 43.6688 43.872 42.4948 44.3076 41.2756C44.7419 40.0563 44.7419 39.0124 44.6117 38.7933C44.4816 38.5755 44.1323 38.4453 43.6103 38.1837H43.613Z" fill="white"/>
</g>
<defs>
<linearGradient id="paint0_linear_22_613" x1="15.469" y1="-1.6996" x2="64.4675" y2="92.6956" gradientUnits="userSpaceOnUse">
<stop stop-color="#FFFCF8"/>
<stop offset="0.19" stop-color="#FAF8F6"/>
<stop offset="0.4" stop-color="#ECEEF2"/>
<stop offset="0.64" stop-color="#D5DCEA"/>
<stop offset="0.88" stop-color="#B5C4DF"/>
<stop offset="1" stop-color="#A1B5D8"/>
</linearGradient>
<linearGradient id="paint1_linear_22_613" x1="26.0804" y1="29.5455" x2="-89.1198" y2="-35.255" gradientUnits="userSpaceOnUse">
<stop stop-color="#A1B5D8" stop-opacity="0"/>
<stop offset="0.31" stop-color="#90A2BD" stop-opacity="0.31"/>
<stop offset="0.76" stop-color="#7C8B9C" stop-opacity="0.76"/>
<stop offset="1" stop-color="#748290"/>
</linearGradient>
<linearGradient id="paint2_linear_22_613" x1="34" y1="60.0272" x2="34" y2="70.6257" gradientUnits="userSpaceOnUse">
<stop stop-color="#A1B5D8" stop-opacity="0"/>
<stop offset="0.31" stop-color="#90A2BD" stop-opacity="0.31"/>
<stop offset="0.76" stop-color="#7C8B9C" stop-opacity="0.76"/>
<stop offset="1" stop-color="#748290"/>
</linearGradient>
<linearGradient id="paint3_linear_22_613" x1="45.05" y1="54.1053" x2="19.3707" y2="11.9041" gradientUnits="userSpaceOnUse">
<stop stop-color="#A1B5D8" stop-opacity="0"/>
<stop offset="0.31" stop-color="#90A2BD" stop-opacity="0.31"/>
<stop offset="0.76" stop-color="#7C8B9C" stop-opacity="0.76"/>
<stop offset="1" stop-color="#748290"/>
</linearGradient>
<linearGradient id="paint4_linear_22_613" x1="34" y1="54.3456" x2="34" y2="13.6545" gradientUnits="userSpaceOnUse">
<stop stop-color="#20B038"/>
<stop offset="1" stop-color="#60D66A"/>
</linearGradient>
<clipPath id="clip0_22_613">
<rect width="68" height="68" fill="white"/>
</clipPath>
</defs>
</svg>
