<svg width="12" height="13" viewBox="0 0 12 13" fill="none" xmlns="http://www.w3.org/2000/svg">
<path d="M10.7982 1.00674H9.27135V0.419488C9.27135 0.326039 9.23423 0.236418 9.16815 0.170339C9.10208 0.104261 9.01245 0.0671387 8.919 0.0671387C8.82556 0.0671387 8.73593 0.104261 8.66986 0.170339C8.60378 0.236418 8.56666 0.326039 8.56666 0.419488V1.00674H3.63377V0.419488C3.63377 0.326039 3.59665 0.236418 3.53057 0.170339C3.46449 0.104261 3.37487 0.0671387 3.28142 0.0671387C3.18797 0.0671387 3.09835 0.104261 3.03227 0.170339C2.96619 0.236418 2.92907 0.326039 2.92907 0.419488V1.00674H1.40223C1.18418 1.00674 0.975062 1.09335 0.82088 1.24754C0.666697 1.40172 0.580078 1.61084 0.580078 1.82888V11.2249C0.580078 11.4429 0.666697 11.652 0.82088 11.8062C0.975062 11.9604 1.18418 12.047 1.40223 12.047H10.7982C11.0162 12.047 11.2254 11.9604 11.3795 11.8062C11.5337 11.652 11.6203 11.4429 11.6203 11.2249V1.82888C11.6203 1.61084 11.5337 1.40172 11.3795 1.24754C11.2254 1.09335 11.0162 1.00674 10.7982 1.00674ZM1.40223 1.71143H2.92907V2.29868C2.92907 2.39213 2.96619 2.48175 3.03227 2.54783C3.09835 2.61391 3.18797 2.65103 3.28142 2.65103C3.37487 2.65103 3.46449 2.61391 3.53057 2.54783C3.59665 2.48175 3.63377 2.39213 3.63377 2.29868V1.71143H8.56666V2.29868C8.56666 2.39213 8.60378 2.48175 8.66986 2.54783C8.73593 2.61391 8.82556 2.65103 8.919 2.65103C9.01245 2.65103 9.10208 2.61391 9.16815 2.54783C9.23423 2.48175 9.27135 2.39213 9.27135 2.29868V1.71143H10.7982C10.8293 1.71143 10.8592 1.72381 10.8812 1.74583C10.9033 1.76786 10.9156 1.79773 10.9156 1.82888V3.82553H1.28478V1.82888C1.28478 1.79773 1.29715 1.76786 1.31918 1.74583C1.3412 1.72381 1.37108 1.71143 1.40223 1.71143ZM10.7982 11.3423H1.40223C1.37108 11.3423 1.3412 11.3299 1.31918 11.3079C1.29715 11.2859 1.28478 11.256 1.28478 11.2249V4.53023H10.9156V11.2249C10.9156 11.256 10.9033 11.2859 10.8812 11.3079C10.8592 11.3299 10.8293 11.3423 10.7982 11.3423ZM5.04317 6.05707V9.81546C5.04317 9.90891 5.00604 9.99853 4.93996 10.0646C4.87389 10.1307 4.78427 10.1678 4.69082 10.1678C4.59737 10.1678 4.50775 10.1307 4.44167 10.0646C4.37559 9.99853 4.33847 9.90891 4.33847 9.81546V6.62729L3.9086 6.84222C3.86719 6.86289 3.82211 6.8752 3.77594 6.87845C3.72977 6.88169 3.68342 6.87581 3.63952 6.86114C3.59562 6.84648 3.55504 6.8233 3.5201 6.79295C3.48516 6.7626 3.45653 6.72567 3.43587 6.68425C3.4152 6.64284 3.40289 6.59776 3.39964 6.55159C3.3964 6.50542 3.40228 6.45907 3.41695 6.41517C3.43161 6.37127 3.45479 6.33069 3.48514 6.29575C3.51549 6.26081 3.55242 6.23219 3.59384 6.21152L4.53343 5.74172C4.58716 5.7149 4.64685 5.70225 4.70684 5.70498C4.76683 5.70771 4.82513 5.72573 4.87619 5.75732C4.92726 5.78892 4.96941 5.83304 4.99863 5.8855C5.02785 5.93796 5.04318 5.99702 5.04317 6.05707ZM8.5414 7.77477L7.27471 9.46311H8.44921C8.54265 9.46311 8.63228 9.50023 8.69835 9.56631C8.76443 9.63239 8.80155 9.72201 8.80155 9.81546C8.80155 9.90891 8.76443 9.99853 8.69835 10.0646C8.63228 10.1307 8.54265 10.1678 8.44921 10.1678H6.57001C6.50458 10.1678 6.44043 10.1496 6.38477 10.1152C6.32911 10.0808 6.28412 10.0316 6.25486 9.97304C6.2256 9.91451 6.21321 9.84899 6.21909 9.78382C6.22496 9.71865 6.24887 9.6564 6.28813 9.60405L7.97941 7.34902C8.02811 7.28503 8.06315 7.21171 8.08236 7.13363C8.10156 7.05554 8.10453 6.97433 8.09106 6.89505C8.0776 6.81577 8.048 6.7401 8.00409 6.67273C7.96018 6.60536 7.9029 6.54772 7.83581 6.5034C7.76871 6.45907 7.69323 6.42899 7.61403 6.41503C7.53484 6.40108 7.45362 6.40353 7.37541 6.42225C7.2972 6.44097 7.22367 6.47555 7.15938 6.52385C7.09508 6.57215 7.0414 6.63314 7.00164 6.70304C6.98063 6.74685 6.95078 6.78585 6.91397 6.81757C6.87717 6.84929 6.8342 6.87305 6.78777 6.88737C6.74134 6.90169 6.69244 6.90625 6.64417 6.90076C6.59589 6.89528 6.54927 6.87987 6.50723 6.8555C6.46519 6.83113 6.42865 6.79833 6.3999 6.75916C6.37115 6.71999 6.35081 6.6753 6.34016 6.62789C6.32951 6.58048 6.32878 6.53138 6.33802 6.48368C6.34726 6.43598 6.36626 6.3907 6.39384 6.3507C6.48239 6.19868 6.60105 6.06634 6.74256 5.96181C6.88407 5.85727 7.04543 5.78274 7.21677 5.74279C7.3881 5.70283 7.56579 5.69828 7.73894 5.72943C7.91209 5.76058 8.07705 5.82676 8.22372 5.92393C8.37039 6.02109 8.49566 6.14718 8.59187 6.29448C8.68807 6.44177 8.75318 6.60717 8.7832 6.78052C8.81322 6.95387 8.80752 7.13152 8.76645 7.30259C8.72537 7.47366 8.64979 7.63454 8.54434 7.77536L8.5414 7.77477Z" fill="white"/>
</svg>
