<svg width="196" height="182" viewBox="0 0 196 182" fill="none" xmlns="http://www.w3.org/2000/svg">
<path d="M142.99 166.41C142.99 166.26 143.07 166.18 143.22 166.18H148.45C151.11 166.18 152.8 167.28 153.52 169.49C153.58 169.7 153.64 169.92 153.69 170.15C153.74 170.38 153.79 170.66 153.83 170.99C153.87 171.32 153.89 171.73 153.91 172.2C153.93 172.67 153.93 173.25 153.93 173.93C153.93 174.61 153.93 175.19 153.91 175.66C153.9 176.13 153.87 176.53 153.83 176.87C153.79 177.2 153.75 177.49 153.69 177.71C153.64 177.94 153.58 178.16 153.52 178.37C152.8 180.58 151.12 181.68 148.45 181.68H143.22C143.07 181.68 142.99 181.6 142.99 181.45V166.38V166.41ZM145.02 179.68C145.02 179.77 145.07 179.82 145.16 179.82H148.01C148.95 179.82 149.71 179.66 150.29 179.33C150.87 179 151.29 178.46 151.55 177.7C151.6 177.56 151.64 177.4 151.69 177.22C151.74 177.04 151.77 176.81 151.79 176.52C151.81 176.24 151.83 175.89 151.85 175.48C151.86 175.07 151.87 174.56 151.87 173.95C151.87 173.34 151.87 172.83 151.85 172.42C151.83 172.01 151.81 171.66 151.79 171.38C151.77 171.1 151.73 170.87 151.69 170.68C151.64 170.5 151.6 170.34 151.55 170.2C151.29 169.44 150.87 168.9 150.29 168.57C149.71 168.24 148.95 168.08 148.01 168.08H145.16C145.07 168.08 145.02 168.13 145.02 168.22V179.68Z" fill="#757575"/>
<path d="M157.211 166.41C157.211 166.26 157.291 166.18 157.441 166.18H166.781C166.931 166.18 167.011 166.26 167.011 166.41V167.85C167.011 168 166.931 168.08 166.781 168.08H159.381C159.291 168.08 159.241 168.13 159.241 168.22V172.78C159.241 172.87 159.291 172.92 159.381 172.92H165.661C165.811 172.92 165.891 173 165.891 173.15V174.59C165.891 174.74 165.811 174.82 165.661 174.82H159.381C159.291 174.82 159.241 174.87 159.241 174.96V179.69C159.241 179.78 159.291 179.83 159.381 179.83H166.781C166.931 179.83 167.011 179.91 167.011 180.06V181.5C167.011 181.65 166.931 181.73 166.781 181.73H157.441C157.291 181.73 157.211 181.65 157.211 181.5V166.43V166.41Z" fill="#757575"/>
<path d="M179.051 181.71C178.911 181.71 178.811 181.63 178.751 181.48L175.651 175.13H172.231C172.141 175.13 172.091 175.18 172.091 175.27V181.48C172.091 181.63 172.011 181.71 171.861 181.71H170.281C170.131 181.71 170.051 181.63 170.051 181.48V166.41C170.051 166.26 170.131 166.18 170.281 166.18H175.901C176.631 166.18 177.291 166.29 177.891 166.5C178.481 166.71 178.991 167.01 179.421 167.4C179.851 167.79 180.181 168.26 180.411 168.81C180.641 169.37 180.761 169.98 180.761 170.65C180.761 171.7 180.491 172.59 179.941 173.32C179.391 174.05 178.651 174.57 177.701 174.87L181.011 181.42C181.061 181.5 181.061 181.56 181.031 181.61C181.001 181.66 180.951 181.69 180.871 181.69H179.041L179.051 181.71ZM175.861 173.24C176.771 173.24 177.481 173.02 177.981 172.57C178.481 172.12 178.731 171.49 178.731 170.66C178.731 169.83 178.481 169.2 177.981 168.75C177.481 168.3 176.771 168.08 175.861 168.08H172.231C172.141 168.08 172.091 168.13 172.091 168.22V173.1C172.091 173.19 172.141 173.24 172.231 173.24H175.861Z" fill="#757575"/>
<path d="M188.16 166.41C188.21 166.26 188.3 166.18 188.43 166.18H189.91C190.06 166.18 190.16 166.26 190.21 166.41L195.53 181.48C195.58 181.63 195.53 181.71 195.37 181.71H193.77C193.62 181.71 193.52 181.63 193.47 181.48L192.28 178.1H186L184.81 181.48C184.75 181.63 184.65 181.71 184.51 181.71H182.91C182.76 181.71 182.7 181.63 182.75 181.48L188.14 166.41H188.16ZM191.63 176.23L189.19 169.18H189.14L186.68 176.23H191.63Z" fill="#757575"/>
<path d="M154.43 154.79C154.43 154.03 154.52 153.38 154.71 152.82C154.9 152.26 155.16 151.8 155.48 151.42C155.8 151.04 156.17 150.73 156.58 150.48C156.99 150.24 157.43 150.06 157.9 149.95C157.41 149.44 157 148.81 156.68 148.08C156.36 147.35 156.2 146.45 156.2 145.41C156.2 144.63 156.32 143.83 156.57 143.02C156.82 142.21 157.22 141.47 157.79 140.82C158.36 140.16 159.1 139.62 160.03 139.2C160.95 138.78 162.09 138.57 163.45 138.57C164.92 138.57 166.17 138.82 167.19 139.32C168.21 139.82 169.02 140.45 169.6 141.21C169.71 141.39 169.68 141.54 169.5 141.68L167.7 143.55C167.54 143.71 167.39 143.7 167.23 143.52C166.25 142.45 165.07 141.92 163.69 141.92C162.55 141.92 161.68 142.25 161.07 142.92C160.46 143.59 160.15 144.49 160.15 145.63C160.15 146.3 160.26 146.87 160.47 147.35C160.68 147.83 160.93 148.23 161.2 148.57C161.47 148.91 161.77 149.17 162.07 149.35C162.37 149.54 162.61 149.67 162.79 149.73H169.97C170.19 149.73 170.3 149.84 170.3 150.06V152.7C170.3 152.92 170.19 153.03 169.97 153.03H159.88C159.26 153.03 158.83 153.2 158.59 153.53C158.36 153.86 158.24 154.25 158.24 154.7C158.24 155.3 158.41 155.74 158.74 156.02C159.07 156.3 159.72 156.44 160.68 156.44H163.99C164.21 156.44 164.32 156.55 164.32 156.77V159.44C164.32 159.66 164.21 159.77 163.99 159.77H160.35C158.46 159.77 157 159.37 155.97 158.58C154.95 157.79 154.43 156.53 154.43 154.79Z" fill="#757575"/>
<path d="M172.07 159.77C171.85 159.77 171.74 159.66 171.74 159.44V156.77C171.74 156.55 171.85 156.44 172.07 156.44H172.8C173.73 156.44 174.41 156.21 174.82 155.74C175.23 155.27 175.44 154.56 175.44 153.6V139.5C175.44 139.28 175.55 139.17 175.77 139.17H178.88C179.1 139.17 179.21 139.28 179.21 139.5V153.67C179.21 157.75 177.24 159.78 173.3 159.78H172.07V159.77Z" fill="#757575"/>
<path d="M195.95 147.31C195.95 148.42 195.85 149.34 195.65 150.07C195.45 150.8 195.15 151.38 194.75 151.82C194.35 152.26 193.84 152.58 193.21 152.76C192.58 152.94 191.85 153.03 191.01 153.03H183.26C183.04 153.03 182.93 152.92 182.93 152.7V150.06C182.93 149.84 183.04 149.73 183.26 149.73H189.47C190.07 149.73 190.55 149.68 190.91 149.6C191.27 149.51 191.54 149.36 191.73 149.15C191.92 148.94 192.04 148.67 192.1 148.33C192.15 148 192.18 147.59 192.18 147.1V144.86C192.18 142.9 191.04 141.92 188.77 141.92H184.76C184.54 141.92 184.43 141.81 184.43 141.59V138.92C184.43 138.7 184.54 138.59 184.76 138.59H190.1C191.88 138.59 193.3 139.07 194.36 140.04C195.42 141.01 195.95 142.52 195.95 144.57V147.34V147.31Z" fill="#757575"/>
<path d="M0 101.24L23.92 134.14L30.5 123.33L19.62 108.37L46.63 64.08C45.07 55.73 41.91 47.64 37.16 40.27L0 101.25V101.24Z" fill="#4C3E90"/>
<path d="M27.3594 108.06L61.5394 155.06L69.9594 141.22L52.4294 117.12L92.4294 51.44C89.8994 41.22 85.6194 31.35 79.5794 22.3L27.3594 108.06Z" fill="#51B5C3"/>
<path d="M60.1504 116.81L107.18 181.48L134.8 136.11C147.05 115.99 153.12 93.37 153.12 70.8C153.12 46 145.77 21.28 131.26 0L60.1603 116.81H60.1504Z" fill="#41A1DA"/>
</svg>
