<svg width="51" height="37" viewBox="0 0 51 37" fill="none" xmlns="http://www.w3.org/2000/svg">
<path d="M35.806 29.9471C35.7927 29.949 35.7792 29.9478 35.7664 29.9437C35.7537 29.9396 35.7421 29.9327 35.7325 29.9235C35.723 29.9143 35.7158 29.903 35.7115 29.8906C35.7073 29.8783 35.706 29.8651 35.7079 29.8521V29.3007C35.706 29.2878 35.7073 29.2746 35.7115 29.2622C35.7158 29.2498 35.723 29.2386 35.7325 29.2294C35.7421 29.2202 35.7537 29.2132 35.7664 29.2091C35.7792 29.205 35.7927 29.2039 35.806 29.2058H36.0307C36.5592 29.2058 36.8233 28.9364 36.8232 28.3977V24.2614C36.8213 24.2484 36.8226 24.2353 36.8268 24.2229C36.8311 24.2105 36.8383 24.1993 36.8478 24.19C36.8573 24.1808 36.8689 24.1739 36.8817 24.1698C36.8945 24.1657 36.908 24.1645 36.9213 24.1664H37.5479C37.5612 24.1646 37.5747 24.1658 37.5874 24.1699C37.6001 24.174 37.6117 24.1809 37.6212 24.1901C37.6307 24.1994 37.6378 24.2106 37.642 24.223C37.6463 24.2353 37.6475 24.2485 37.6456 24.2614V26.6671C37.6397 26.7611 37.6586 26.855 37.7006 26.9399C37.7426 27.0247 37.8063 27.0977 37.8856 27.1518C38.0771 27.2682 38.3009 27.3247 38.5265 27.3135H38.6337C38.7383 27.3062 38.8423 27.3347 38.9275 27.394C38.963 27.4296 38.9902 27.4722 39.007 27.5189C39.0239 27.5656 39.0301 27.6154 39.0252 27.6647C39.0252 27.83 38.9944 27.9353 38.9324 27.9834C38.8436 28.0378 38.7389 28.0628 38.6342 28.0544H38.4283C38.2829 28.0632 38.1372 28.0405 38.0019 27.9879C37.8665 27.9353 37.7449 27.8541 37.6458 27.7502V28.3778C37.677 28.8038 37.5328 29.2244 37.2451 29.5472C37.0876 29.688 36.9022 29.796 36.7002 29.8646C36.4983 29.9333 36.284 29.9611 36.0706 29.9464L35.806 29.9471ZM36.9016 23.2262C36.8883 23.228 36.8747 23.2268 36.8619 23.2227C36.8492 23.2186 36.8376 23.2116 36.8281 23.2023C36.8185 23.1931 36.8114 23.1818 36.8072 23.1693C36.8029 23.1569 36.8017 23.1437 36.8037 23.1308V22.4357C36.8018 22.4228 36.803 22.4096 36.8072 22.3972C36.8115 22.3848 36.8186 22.3736 36.8281 22.3643C36.8377 22.3551 36.8493 22.3482 36.862 22.3441C36.8748 22.34 36.8883 22.3388 36.9016 22.3407H37.5672C37.5804 22.3389 37.594 22.3401 37.6067 22.3442C37.6194 22.3483 37.631 22.3552 37.6405 22.3645C37.6499 22.3737 37.6571 22.3849 37.6613 22.3973C37.6655 22.4096 37.6668 22.4228 37.6649 22.4357V23.1299C37.6668 23.1428 37.6656 23.156 37.6614 23.1684C37.6572 23.1808 37.65 23.1921 37.6406 23.2013C37.6311 23.2106 37.6195 23.2175 37.6068 23.2217C37.594 23.2259 37.5805 23.2271 37.5672 23.2253L36.9016 23.2262Z" fill="#4C3D8F"/>
<path d="M38.6436 28.0557C38.5962 28.0615 38.5481 28.0573 38.5025 28.0433C38.4569 28.0293 38.415 28.0059 38.3796 27.9747C38.3251 27.8912 38.3007 27.7926 38.3099 27.6942C38.2977 27.5872 38.3199 27.4793 38.3735 27.3852C38.4113 27.3565 38.4545 27.3354 38.5007 27.3232C38.547 27.311 38.5952 27.3079 38.6427 27.3141H39.719C39.8228 27.3069 39.926 27.3336 40.0124 27.3899C40.0488 27.4259 40.0765 27.4693 40.0934 27.5171C40.1103 27.5648 40.116 27.6156 40.11 27.6657C40.1178 27.7214 40.1135 27.7781 40.0975 27.8321C40.0815 27.8861 40.0542 27.9363 40.0172 27.9795C39.9299 28.0377 39.8245 28.0646 39.719 28.0557H38.6436Z" fill="#4C3D8F"/>
<path d="M39.7868 28.0557C39.6844 28.0623 39.5824 28.0387 39.494 27.9881C39.4568 27.9547 39.4284 27.9131 39.4113 27.8668C39.3942 27.8205 39.3888 27.7709 39.3956 27.7222C39.3819 27.6067 39.4152 27.4906 39.4884 27.3988C39.5731 27.3346 39.6797 27.304 39.7866 27.3133H40.4517C40.5158 27.3189 40.5803 27.3121 40.6417 27.2933C40.703 27.2745 40.7599 27.2441 40.8091 27.2039C40.8972 27.0912 40.9374 26.9501 40.9216 26.8094V24.2618C40.9198 24.2489 40.921 24.2358 40.9253 24.2234C40.9296 24.2111 40.9367 24.1999 40.9462 24.1907C40.9556 24.1815 40.9672 24.1745 40.9799 24.1704C40.9926 24.1663 41.0061 24.165 41.0193 24.1668H41.6459C41.6592 24.165 41.6727 24.1662 41.6855 24.1703C41.6982 24.1744 41.7098 24.1814 41.7193 24.1906C41.7288 24.1998 41.736 24.211 41.7403 24.2234C41.7446 24.2357 41.7459 24.2489 41.7441 24.2618V26.6676C41.738 26.7615 41.7568 26.8554 41.7988 26.9403C41.8407 27.0251 41.9043 27.0981 41.9836 27.1522C42.1751 27.2688 42.3989 27.3252 42.6245 27.314H42.742C42.8465 27.3065 42.9504 27.3352 43.0353 27.3949C43.071 27.4303 43.0982 27.4729 43.1151 27.5197C43.132 27.5664 43.1381 27.6162 43.133 27.6656C43.133 27.8304 43.1021 27.9362 43.0402 27.984C42.9514 28.0388 42.8467 28.0639 42.742 28.0555H42.5266C42.3362 28.0596 42.1477 28.0171 41.9787 27.9317C41.821 27.8482 41.6943 27.7184 41.6169 27.5609C41.4537 27.8906 41.1145 28.0555 40.5993 28.0555L39.7868 28.0557ZM40.286 29.8239C40.2727 29.8258 40.2592 29.8247 40.2464 29.8206C40.2337 29.8165 40.2221 29.8095 40.2126 29.8003C40.2031 29.7911 40.1959 29.7798 40.1916 29.7675C40.1874 29.7551 40.1862 29.7419 40.1881 29.729V29.035C40.1861 29.0221 40.1873 29.0089 40.1916 28.9964C40.1958 28.984 40.203 28.9727 40.2125 28.9635C40.222 28.9542 40.2336 28.9472 40.2463 28.9431C40.2591 28.9389 40.2727 28.9377 40.286 28.9396H40.9516C40.9649 28.9378 40.9785 28.939 40.9912 28.9432C41.0039 28.9473 41.0155 28.9543 41.025 28.9636C41.0345 28.9728 41.0416 28.9841 41.0458 28.9965C41.05 29.0089 41.0512 29.0221 41.0493 29.035V29.7292C41.0512 29.7421 41.05 29.7552 41.0457 29.7676C41.0415 29.78 41.0344 29.7912 41.0249 29.8004C41.0154 29.8096 41.0038 29.8166 40.9911 29.8207C40.9784 29.8248 40.9649 29.826 40.9516 29.8241L40.286 29.8239ZM41.4798 29.8239C41.4665 29.8258 41.4529 29.8246 41.4401 29.8205C41.4274 29.8164 41.4158 29.8095 41.4063 29.8003C41.3967 29.7911 41.3895 29.7798 41.3853 29.7675C41.381 29.7551 41.3797 29.7419 41.3816 29.729V29.035C41.3796 29.022 41.3808 29.0088 41.3851 28.9964C41.3893 28.9839 41.3965 28.9726 41.406 28.9634C41.4156 28.9541 41.4272 28.9471 41.44 28.943C41.4528 28.9389 41.4664 28.9377 41.4798 28.9396H42.1458C42.1591 28.9378 42.1727 28.939 42.1854 28.9432C42.1981 28.9473 42.2097 28.9543 42.2192 28.9636C42.2287 28.9728 42.2358 28.9841 42.24 28.9965C42.2442 29.0089 42.2454 29.0221 42.2435 29.035V29.7292C42.2453 29.7421 42.2441 29.7552 42.2398 29.7676C42.2356 29.7799 42.2284 29.7911 42.219 29.8003C42.2095 29.8095 42.1979 29.8165 42.1852 29.8206C42.1726 29.8247 42.1591 29.8259 42.1458 29.8241L41.4798 29.8239Z" fill="#4C3D8F"/>
<path d="M45.6971 28.1224C45.4206 28.1272 45.1455 28.0837 44.8848 27.9938C44.6536 27.9108 44.4481 27.7716 44.288 27.5895C44.1695 27.7792 43.9803 27.9172 43.7598 27.9747C43.5651 28.0259 43.3646 28.0531 43.1629 28.0556H42.7422C42.689 28.063 42.6348 28.0582 42.5839 28.0417C42.533 28.0252 42.4867 27.9973 42.4488 27.9604C42.4108 27.9235 42.3823 27.8785 42.3653 27.829C42.3484 27.7795 42.3435 27.7268 42.3512 27.6752C42.3512 27.5173 42.382 27.4169 42.444 27.3759C42.5352 27.3279 42.6388 27.3064 42.7422 27.3141H43.2314C43.3054 27.3136 43.3785 27.2989 43.4467 27.271C43.5227 27.2393 43.5898 27.1904 43.6424 27.1285C43.7076 27.0498 43.7559 26.9593 43.7844 26.8621C43.8235 26.7276 43.8417 26.5882 43.8382 26.4485C43.8317 26.387 43.8284 26.3252 43.8285 26.2633V26.0685C43.8285 25.3395 43.9947 24.8118 44.3272 24.4852C44.7094 24.1695 45.1947 23.9961 45.6964 23.9961C46.198 23.9961 46.6833 24.1695 47.0656 24.4852C47.3983 24.8118 47.5646 25.3395 47.5643 26.0685C47.5643 26.1379 47.5631 26.2078 47.5598 26.2775C47.5566 26.3472 47.5515 26.4128 47.545 26.4776C47.5223 26.7146 47.594 26.9511 47.7455 27.1382C47.8515 27.2467 47.9974 27.31 48.1514 27.3143H48.4352C48.5397 27.3068 48.6435 27.3353 48.7285 27.3948C48.7642 27.4302 48.7915 27.4728 48.8085 27.5196C48.8254 27.5663 48.8317 27.6161 48.8267 27.6655C48.8267 27.8309 48.7957 27.9371 48.7339 27.9841C48.6448 28.0385 48.54 28.0634 48.4352 28.0552H48.2198C48.1286 28.0552 48.0309 28.0504 47.9267 28.0407C47.8218 28.0314 47.7183 28.0107 47.6181 27.979C47.5156 27.9467 47.4183 27.9003 47.3294 27.8412C47.2347 27.7772 47.1548 27.6947 47.0948 27.5989C46.9351 27.7804 46.7293 27.918 46.4979 27.9981C46.2401 28.0843 45.9688 28.1262 45.6961 28.1219M45.6961 24.7369C45.5434 24.7247 45.39 24.7505 45.2505 24.8121C45.1109 24.8736 44.9899 24.9688 44.8988 25.0885C44.7159 25.3832 44.6289 25.7247 44.6491 26.0682C44.62 26.4183 44.7076 26.7682 44.8988 27.0662C45.1124 27.2676 45.3983 27.3802 45.6959 27.3802C45.9935 27.3802 46.2794 27.2676 46.493 27.0662C46.6841 26.7681 46.7716 26.4183 46.7425 26.0682C46.7628 25.7247 46.6758 25.3832 46.493 25.0885C46.402 24.9688 46.281 24.8736 46.1415 24.8121C46.002 24.7506 45.8486 24.7247 45.6959 24.7369" fill="#4C3D8F"/>
<path d="M48.4257 28.0551C48.3232 28.062 48.2208 28.039 48.1319 27.9888C48.0949 27.9552 48.0667 27.9135 48.0497 27.8672C48.0327 27.8208 48.0274 27.7712 48.0342 27.7224C48.0206 27.6071 48.0539 27.4912 48.1271 27.3994C48.2119 27.3353 48.3186 27.3047 48.4257 27.314H49.1006C49.1646 27.3196 49.2292 27.3128 49.2905 27.294C49.3518 27.2752 49.4087 27.2448 49.4579 27.2046C49.5458 27.0917 49.5859 26.9504 49.57 26.8097V24.2611C49.5682 24.2482 49.5694 24.235 49.5737 24.2227C49.578 24.2103 49.5852 24.199 49.5947 24.1898C49.6042 24.1806 49.6158 24.1737 49.6286 24.1696C49.6413 24.1655 49.6549 24.1643 49.6682 24.1662H50.2948C50.3081 24.1643 50.3216 24.1655 50.3344 24.1696C50.3471 24.1737 50.3587 24.1806 50.3683 24.1898C50.3778 24.199 50.385 24.2103 50.3893 24.2227C50.3935 24.235 50.3948 24.2482 50.3929 24.2611V26.857C50.4207 27.1809 50.3267 27.5036 50.1284 27.7653C50.0114 27.8717 49.8723 27.9527 49.7205 28.0027C49.5687 28.0526 49.4077 28.0705 49.2482 28.0551H48.4257ZM49.0523 23.2253C49.039 23.2271 49.0254 23.2259 49.0127 23.2217C49 23.2176 48.9885 23.2106 48.979 23.2013C48.9696 23.192 48.9625 23.1807 48.9583 23.1683C48.9542 23.1559 48.953 23.1428 48.9551 23.1299V22.4357C48.9531 22.4228 48.9543 22.4097 48.9585 22.3973C48.9627 22.385 48.9698 22.3738 48.9792 22.3645C48.9887 22.3553 49.0002 22.3484 49.0129 22.3442C49.0256 22.3401 49.0391 22.3389 49.0523 22.3407H49.7179C49.7311 22.3389 49.7447 22.3401 49.7574 22.3442C49.7701 22.3483 49.7817 22.3552 49.7911 22.3644C49.8006 22.3737 49.8078 22.3849 49.812 22.3973C49.8162 22.4096 49.8175 22.4228 49.8156 22.4357V23.1299C49.8175 23.1428 49.8164 23.156 49.8122 23.1684C49.808 23.1808 49.8008 23.1921 49.7914 23.2014C49.7819 23.2107 49.7703 23.2177 49.7575 23.2218C49.7448 23.2259 49.7312 23.2271 49.7179 23.2253H49.0523ZM50.2463 23.2253C50.2329 23.2272 50.2193 23.226 50.2065 23.2219C50.1937 23.2177 50.1821 23.2108 50.1725 23.2015C50.163 23.1922 50.1558 23.1809 50.1516 23.1685C50.1473 23.1561 50.1462 23.1428 50.1481 23.1299V22.4357C50.1462 22.4227 50.1475 22.4096 50.1518 22.3972C50.1561 22.3848 50.1632 22.3736 50.1728 22.3643C50.1823 22.3551 50.1939 22.3482 50.2066 22.3441C50.2194 22.34 50.233 22.3388 50.2463 22.3407H50.9111C50.9244 22.3389 50.9379 22.3401 50.9507 22.3442C50.9634 22.3483 50.9749 22.3552 50.9844 22.3644C50.9939 22.3737 51.001 22.3849 51.0053 22.3973C51.0095 22.4096 51.0107 22.4228 51.0088 22.4357V23.1299C51.0108 23.1428 51.0097 23.156 51.0055 23.1684C51.0013 23.1808 50.9941 23.1921 50.9846 23.2014C50.9751 23.2107 50.9636 23.2177 50.9508 23.2218C50.938 23.2259 50.9245 23.2271 50.9111 23.2253H50.2463Z" fill="#4C3D8F"/>
<path d="M31.6822 32.2741C31.681 32.2663 31.6817 32.2583 31.6843 32.2508C31.6869 32.2433 31.6912 32.2365 31.6969 32.2309C31.7027 32.2253 31.7097 32.2211 31.7174 32.2185C31.7251 32.216 31.7333 32.2153 31.7414 32.2164H31.9627C31.9836 32.215 32.0044 32.2198 32.0224 32.2301C32.0404 32.2404 32.0548 32.2557 32.0637 32.2741L34.0857 35.5144H34.1033V32.2741C34.1022 32.2662 34.1029 32.2582 34.1055 32.2507C34.1082 32.2431 34.1126 32.2363 34.1184 32.2307C34.1242 32.2251 34.1313 32.2209 34.139 32.2184C34.1468 32.2159 34.1551 32.2152 34.1632 32.2164H34.3839C34.3919 32.2153 34.4001 32.2161 34.4078 32.2186C34.4155 32.2212 34.4225 32.2254 34.4282 32.231C34.434 32.2366 34.4383 32.2434 34.4409 32.2508C34.4435 32.2583 34.4443 32.2663 34.4433 32.2741V36.0994C34.4443 36.1072 34.4435 36.1152 34.4409 36.1227C34.4383 36.1301 34.434 36.1369 34.4282 36.1425C34.4225 36.1481 34.4155 36.1523 34.4078 36.1549C34.4001 36.1574 34.3919 36.1582 34.3839 36.1571H34.1518C34.1311 36.1576 34.1107 36.1524 34.0929 36.1422C34.075 36.132 34.0605 36.1172 34.0508 36.0994L32.0456 32.8531H32.0224V36.0994C32.0235 36.1072 32.0228 36.1152 32.0202 36.1227C32.0177 36.1302 32.0134 36.137 32.0076 36.1426C32.0019 36.1482 31.9949 36.1524 31.9872 36.155C31.9795 36.1575 31.9713 36.1582 31.9632 36.1571H31.7418C31.7338 36.1582 31.7256 36.1575 31.7178 36.155C31.7101 36.1524 31.7031 36.1482 31.6974 36.1426C31.6916 36.137 31.6873 36.1302 31.6848 36.1227C31.6822 36.1152 31.6815 36.1072 31.6826 36.0994L31.6822 32.2741Z" fill="#4C3D8F"/>
<path d="M36.0701 35.3349C36.0541 35.2848 36.0392 35.2293 36.0256 35.1696C36.0095 35.096 35.9985 35.0215 35.9926 34.9465C35.9845 34.8574 35.9777 34.7523 35.9717 34.6308C35.9657 34.5092 35.9629 34.3601 35.9629 34.1874C35.9629 34.0146 35.9657 33.866 35.9717 33.744C35.9777 33.6219 35.9845 33.5171 35.9926 33.4282C35.9985 33.3532 36.0095 33.2787 36.0256 33.2052C36.0392 33.1454 36.0541 33.0904 36.0701 33.0403C36.1504 32.7743 36.3179 32.5411 36.5472 32.3763C36.786 32.2247 37.0673 32.1488 37.3523 32.1591C37.6095 32.1539 37.8634 32.217 38.0865 32.3416C38.3033 32.4708 38.4736 32.6621 38.5739 32.8892C38.5903 32.9244 38.5843 32.9494 38.5564 32.9645L38.3594 33.0574C38.3272 33.0766 38.3023 33.0687 38.2819 33.0349C38.1972 32.8725 38.0735 32.7323 37.9213 32.6262C37.7525 32.5183 37.5532 32.4645 37.3513 32.4726C37.1365 32.4626 36.9241 32.5206 36.7461 32.6379C36.5821 32.7636 36.4608 32.9343 36.398 33.1278C36.3864 33.1664 36.3748 33.2126 36.3623 33.267C36.3485 33.334 36.3385 33.4018 36.3326 33.4699C36.3245 33.5511 36.3185 33.6497 36.3145 33.7656C36.3104 33.8815 36.3086 34.0221 36.3089 34.1874C36.3089 34.3538 36.3108 34.4949 36.3145 34.6107C36.3182 34.7265 36.3242 34.8249 36.3326 34.9059C36.3385 34.9741 36.3484 35.0418 36.3623 35.1089C36.3743 35.1632 36.3855 35.2097 36.398 35.248C36.4606 35.4417 36.5819 35.6124 36.7461 35.7379C36.9241 35.8553 37.1365 35.9133 37.3513 35.9032C37.5532 35.9113 37.7525 35.8576 37.9213 35.7496C38.0736 35.6437 38.1974 35.5034 38.2819 35.341C38.3023 35.3062 38.3283 35.2983 38.3594 35.3184L38.5564 35.4109C38.5843 35.4262 38.5901 35.4515 38.5739 35.4862C38.4737 35.7134 38.3034 35.9048 38.0865 36.0338C37.8635 36.1586 37.6096 36.2217 37.3523 36.2163C37.0673 36.2266 36.786 36.1507 36.5472 35.9991C36.3179 35.8344 36.1503 35.6013 36.0701 35.3353" fill="#4C3D8F"/>
<path d="M41.1947 36.2156C41.0622 36.2156 40.9301 36.2029 40.8002 36.1777C40.6733 36.154 40.5486 36.1201 40.4275 36.0764C40.3158 36.0365 40.2079 35.9871 40.1052 35.9287C40.0163 35.8781 39.9317 35.8209 39.852 35.7575C39.8197 35.7307 39.8179 35.7032 39.8455 35.6763L39.9889 35.5024C39.993 35.4955 39.9988 35.4896 40.0058 35.4854C40.0129 35.4811 40.0208 35.4786 40.0291 35.478C40.0373 35.4774 40.0456 35.4788 40.0531 35.482C40.0607 35.4853 40.0673 35.4903 40.0724 35.4966C40.2283 35.6087 40.3976 35.7021 40.5765 35.7747C40.7846 35.8613 41.009 35.9047 41.2353 35.9023C41.5104 35.9175 41.7824 35.8397 42.0051 35.682C42.0958 35.6124 42.1684 35.5231 42.2171 35.4212C42.2657 35.3194 42.2891 35.2078 42.2852 35.0956C42.2861 35.0033 42.2699 34.9116 42.2374 34.8249C42.2038 34.7393 42.1495 34.6628 42.0791 34.6019C41.9917 34.528 41.8907 34.471 41.7814 34.4339C41.63 34.3815 41.4728 34.3465 41.313 34.3297L41.1274 34.3071C40.8037 34.2867 40.4949 34.1671 40.2456 33.9654C40.1499 33.8746 40.0751 33.7652 40.0258 33.6444C39.9765 33.5236 39.9539 33.3941 39.9594 33.2642C39.9516 33.1125 39.9785 32.9609 40.0382 32.8205C40.098 32.6801 40.1891 32.5543 40.305 32.4523C40.5667 32.2451 40.8984 32.1399 41.2355 32.1571C41.4536 32.1559 41.6707 32.1863 41.8795 32.2473C42.0634 32.2981 42.2369 32.3793 42.3924 32.4875C42.4281 32.5071 42.4323 32.534 42.4049 32.5687L42.2856 32.7491C42.2811 32.7554 42.2752 32.7607 42.2685 32.7647C42.2618 32.7687 42.2543 32.7713 42.2464 32.7724C42.2386 32.7735 42.2307 32.773 42.223 32.7711C42.2154 32.7691 42.2083 32.7656 42.2021 32.7609C42.0507 32.6696 41.8884 32.5965 41.7189 32.5432C41.5567 32.4947 41.3879 32.4703 41.2181 32.471C40.973 32.4562 40.7312 32.5318 40.541 32.6828C40.4611 32.7532 40.3981 32.8396 40.3564 32.9362C40.3146 33.0328 40.2952 33.137 40.2994 33.2417C40.2964 33.3343 40.3144 33.4264 40.3521 33.5115C40.3897 33.5966 40.4461 33.6726 40.5173 33.7343C40.7317 33.8877 40.9878 33.9764 41.2536 33.9893L41.4393 34.0119C41.7711 34.0325 42.0875 34.1552 42.3427 34.3624C42.4379 34.4553 42.5123 34.5664 42.5612 34.6886C42.61 34.8108 42.6323 34.9416 42.6265 35.0726C42.6282 35.2298 42.5966 35.3856 42.5337 35.5304C42.4724 35.6694 42.3797 35.7932 42.2624 35.8926C42.1319 36.0012 41.9795 36.0822 41.815 36.1306C41.614 36.1896 41.4049 36.2179 41.1949 36.2145" fill="#4C3D8F"/>
<path d="M44.1513 32.2741C44.1502 32.2663 44.151 32.2583 44.1536 32.2508C44.1562 32.2433 44.1605 32.2365 44.1663 32.2309C44.172 32.2253 44.179 32.221 44.1868 32.2185C44.1945 32.216 44.2027 32.2153 44.2108 32.2164H46.5314C46.5395 32.2152 46.5477 32.2159 46.5554 32.2184C46.5632 32.2209 46.5702 32.2251 46.5759 32.2308C46.5817 32.2364 46.586 32.2432 46.5885 32.2507C46.5911 32.2583 46.5918 32.2663 46.5906 32.2741V32.4714C46.5918 32.4793 46.5911 32.4873 46.5885 32.4948C46.586 32.5023 46.5817 32.5092 46.5759 32.5148C46.5702 32.5204 46.5632 32.5246 46.5554 32.5271C46.5477 32.5296 46.5395 32.5303 46.5314 32.5292H44.5271C44.5222 32.5285 44.5173 32.529 44.5127 32.5305C44.508 32.532 44.5038 32.5346 44.5003 32.5379C44.4969 32.5413 44.4943 32.5454 44.4927 32.5499C44.4911 32.5544 44.4907 32.5592 44.4913 32.5639V33.9665C44.4907 33.9712 44.4911 33.976 44.4927 33.9805C44.4943 33.985 44.4969 33.9891 44.5003 33.9925C44.5038 33.9958 44.508 33.9984 44.5127 33.9999C44.5173 34.0014 44.5222 34.0019 44.5271 34.0012H46.2506C46.2587 34.0001 46.2669 34.0008 46.2746 34.0033C46.2824 34.0058 46.2894 34.01 46.2952 34.0156C46.301 34.0212 46.3053 34.0281 46.3079 34.0356C46.3104 34.0431 46.3112 34.0511 46.31 34.059V34.2563C46.3112 34.2642 46.3104 34.2722 46.3079 34.2797C46.3053 34.2872 46.301 34.294 46.2952 34.2996C46.2894 34.3052 46.2824 34.3095 46.2746 34.312C46.2669 34.3145 46.2587 34.3152 46.2506 34.314H44.5271C44.5222 34.3134 44.5173 34.3139 44.5127 34.3154C44.508 34.3169 44.5038 34.3195 44.5003 34.3228C44.4969 34.3262 44.4943 34.3303 44.4927 34.3348C44.4911 34.3393 44.4907 34.3441 44.4913 34.3488V35.8093C44.4907 35.814 44.4911 35.8188 44.4927 35.8233C44.4943 35.8278 44.4969 35.8319 44.5003 35.8353C44.5038 35.8387 44.508 35.8412 44.5127 35.8427C44.5173 35.8442 44.5222 35.8447 44.5271 35.8441H46.5309C46.539 35.843 46.5473 35.8437 46.555 35.8462C46.5628 35.8488 46.5698 35.8531 46.5756 35.8587C46.5813 35.8644 46.5856 35.8712 46.5882 35.8788C46.5907 35.8864 46.5913 35.8944 46.5901 35.9023V36.0991C46.5913 36.107 46.5906 36.115 46.5881 36.1225C46.5855 36.13 46.5812 36.1369 46.5755 36.1425C46.5697 36.1481 46.5627 36.1523 46.555 36.1548C46.5472 36.1573 46.539 36.158 46.5309 36.1569H44.2103C44.2022 36.158 44.194 36.1572 44.1863 36.1547C44.1786 36.1522 44.1716 36.148 44.1658 36.1424C44.1601 36.1368 44.1557 36.13 44.1531 36.1225C44.1505 36.115 44.1498 36.107 44.1509 36.0991L44.1513 32.2741Z" fill="#4C3D8F"/>
<path d="M48.0403 32.2741C48.0391 32.2663 48.0399 32.2583 48.0425 32.2508C48.0451 32.2433 48.0494 32.2365 48.0552 32.2309C48.0609 32.2253 48.068 32.221 48.0757 32.2185C48.0834 32.216 48.0916 32.2153 48.0997 32.2164H50.4203C50.4284 32.2152 50.4366 32.2159 50.4443 32.2184C50.4521 32.2209 50.4591 32.2251 50.4648 32.2308C50.4706 32.2364 50.4749 32.2432 50.4775 32.2507C50.48 32.2583 50.4807 32.2663 50.4795 32.2741V32.4714C50.4807 32.4793 50.48 32.4873 50.4775 32.4948C50.4749 32.5023 50.4706 32.5092 50.4648 32.5148C50.4591 32.5204 50.4521 32.5246 50.4443 32.5271C50.4366 32.5296 50.4284 32.5303 50.4203 32.5292H48.4164C48.4116 32.5285 48.4067 32.529 48.402 32.5305C48.3974 32.532 48.3932 32.5346 48.3897 32.5379C48.3863 32.5413 48.3837 32.5454 48.3821 32.5499C48.3805 32.5544 48.38 32.5592 48.3807 32.5639V33.9665C48.38 33.9712 48.3805 33.976 48.3821 33.9805C48.3837 33.985 48.3863 33.9891 48.3897 33.9925C48.3932 33.9958 48.3974 33.9984 48.402 33.9999C48.4067 34.0014 48.4116 34.0019 48.4164 34.0012H50.1393C50.1473 34.0001 50.1556 34.0008 50.1633 34.0033C50.1711 34.0058 50.1781 34.01 50.1839 34.0156C50.1896 34.0212 50.194 34.0281 50.1965 34.0356C50.1991 34.0431 50.1999 34.0511 50.1987 34.059V34.2563C50.1999 34.2642 50.1991 34.2722 50.1965 34.2797C50.194 34.2872 50.1896 34.294 50.1839 34.2996C50.1781 34.3052 50.1711 34.3095 50.1633 34.312C50.1556 34.3145 50.1473 34.3152 50.1393 34.314H48.4157C48.4109 34.3134 48.406 34.3139 48.4013 34.3154C48.3967 34.3169 48.3925 34.3195 48.389 34.3228C48.3856 34.3262 48.383 34.3303 48.3814 34.3348C48.3798 34.3393 48.3793 34.3441 48.38 34.3488V35.8093C48.3793 35.814 48.3798 35.8188 48.3814 35.8233C48.383 35.8278 48.3856 35.8319 48.389 35.8353C48.3925 35.8387 48.3967 35.8412 48.4013 35.8427C48.406 35.8442 48.4109 35.8447 48.4157 35.8441H50.4196C50.4277 35.843 50.436 35.8437 50.4437 35.8462C50.4515 35.8488 50.4585 35.8531 50.4643 35.8587C50.47 35.8644 50.4743 35.8712 50.4768 35.8788C50.4794 35.8864 50.48 35.8944 50.4788 35.9023V36.0991C50.48 36.107 50.4793 36.115 50.4768 36.1225C50.4742 36.13 50.4699 36.1369 50.4641 36.1425C50.4584 36.1481 50.4514 36.1523 50.4436 36.1548C50.4359 36.1573 50.4277 36.158 50.4196 36.1569H48.099C48.0909 36.158 48.0827 36.1572 48.075 36.1547C48.0673 36.1522 48.0602 36.148 48.0545 36.1424C48.0487 36.1368 48.0444 36.13 48.0418 36.1225C48.0392 36.115 48.0384 36.107 48.0396 36.0991L48.0403 32.2741Z" fill="#4C3D8F"/>
<g opacity="0.8">
<mask id="mask0_496_1833" style="mask-type:luminance" maskUnits="userSpaceOnUse" x="0" y="22" width="16" height="15">
<path d="M15.3053 22.2144H0.732422V37.0001H15.3053V22.2144Z" fill="white"/>
</mask>
<g mask="url(#mask0_496_1833)">
<path d="M0.732422 29.5305L8.41026 22.2144L15.3051 28.9398L8.30211 37.0001L2.19814 30.9718L0.732422 29.5305Z" fill="#4C3D8F"/>
</g>
</g>
<g opacity="0.8">
<mask id="mask1_496_1833" style="mask-type:luminance" maskUnits="userSpaceOnUse" x="16" y="7" width="16" height="15">
<path d="M31.2311 7.38818H16.3242V21.9624H31.2311V7.38818Z" fill="white"/>
</mask>
<g mask="url(#mask1_496_1833)">
<path d="M16.3242 14.6835L23.9909 7.38818L31.2313 14.3468L23.6196 21.9622L16.3242 14.6835Z" fill="#4C3D8F"/>
</g>
</g>
<path d="M16.6973 28.9095L23.6204 21.963L27.4263 18.1515L31.2321 14.3477V29.5311L24.0261 36.9863L16.6973 28.9095Z" fill="#4C3D8F"/>
<path d="M0.732422 29.5303V14.2265L16.3888 0L23.9908 7.38805L8.41026 22.2151L8.39378 22.2392L0.732422 29.5303Z" fill="#4C3D8F"/>
</svg>
