<svg width="139" height="138" viewBox="0 0 139 138" fill="none" xmlns="http://www.w3.org/2000/svg">
<rect width="139" height="138" rx="20" fill="#E3EDFF"/>
<g clip-path="url(#clip0_373_1830)">
<path d="M84.1667 45.1667H53.8333C50.9612 45.1702 48.2077 46.3127 46.1768 48.3436C44.1459 50.3745 43.0034 53.128 43 56.0001V82.0001C43.0034 84.8722 44.1459 87.6257 46.1768 89.6566C48.2077 91.6875 50.9612 92.83 53.8333 92.8334H84.1667C87.0388 92.83 89.7923 91.6875 91.8232 89.6566C93.8541 87.6257 94.9966 84.8722 95 82.0001V56.0001C94.9966 53.128 93.8541 50.3745 91.8232 48.3436C89.7923 46.3127 87.0388 45.1702 84.1667 45.1667V45.1667ZM53.8333 49.5001H84.1667C85.8906 49.5001 87.5439 50.1849 88.7629 51.4039C89.9818 52.6229 90.6667 54.2762 90.6667 56.0001V58.1667H47.3333V56.0001C47.3333 54.2762 48.0182 52.6229 49.2371 51.4039C50.4561 50.1849 52.1094 49.5001 53.8333 49.5001V49.5001ZM84.1667 88.5001H53.8333C52.1094 88.5001 50.4561 87.8153 49.2371 86.5963C48.0182 85.3773 47.3333 83.724 47.3333 82.0001V62.5001H90.6667V82.0001C90.6667 83.724 89.9818 85.3773 88.7629 86.5963C87.5439 87.8153 85.8906 88.5001 84.1667 88.5001ZM84.1667 71.1667C84.1667 71.7414 83.9384 72.2925 83.5321 72.6988C83.1257 73.1051 82.5746 73.3334 82 73.3334H56C55.4254 73.3334 54.8743 73.1051 54.4679 72.6988C54.0616 72.2925 53.8333 71.7414 53.8333 71.1667C53.8333 70.5921 54.0616 70.041 54.4679 69.6347C54.8743 69.2284 55.4254 69.0001 56 69.0001H82C82.5746 69.0001 83.1257 69.2284 83.5321 69.6347C83.9384 70.041 84.1667 70.5921 84.1667 71.1667ZM75.5 79.8334C75.5 80.408 75.2717 80.9591 74.8654 81.3655C74.4591 81.7718 73.908 82.0001 73.3333 82.0001H56C55.4254 82.0001 54.8743 81.7718 54.4679 81.3655C54.0616 80.9591 53.8333 80.408 53.8333 79.8334C53.8333 79.2588 54.0616 78.7077 54.4679 78.3013C54.8743 77.895 55.4254 77.6667 56 77.6667H73.3333C73.908 77.6667 74.4591 77.895 74.8654 78.3013C75.2717 78.7077 75.5 79.2588 75.5 79.8334ZM49.5 53.8334C49.5 53.4049 49.6271 52.986 49.8651 52.6297C50.1032 52.2734 50.4416 51.9957 50.8375 51.8317C51.2334 51.6677 51.6691 51.6248 52.0894 51.7084C52.5097 51.792 52.8957 51.9983 53.1987 52.3013C53.5017 52.6044 53.7081 52.9904 53.7917 53.4107C53.8753 53.831 53.8324 54.2667 53.6684 54.6626C53.5044 55.0585 53.2267 55.3969 52.8704 55.6349C52.5141 55.873 52.0952 56.0001 51.6667 56.0001C51.092 56.0001 50.5409 55.7718 50.1346 55.3655C49.7283 54.9591 49.5 54.408 49.5 53.8334ZM56 53.8334C56 53.4049 56.1271 52.986 56.3651 52.6297C56.6032 52.2734 56.9416 51.9957 57.3375 51.8317C57.7334 51.6677 58.1691 51.6248 58.5894 51.7084C59.0097 51.792 59.3957 51.9983 59.6987 52.3013C60.0017 52.6044 60.2081 52.9904 60.2917 53.4107C60.3753 53.831 60.3324 54.2667 60.1684 54.6626C60.0044 55.0585 59.7267 55.3969 59.3704 55.6349C59.0141 55.873 58.5952 56.0001 58.1667 56.0001C57.592 56.0001 57.0409 55.7718 56.6346 55.3655C56.2283 54.9591 56 54.408 56 53.8334ZM62.5 53.8334C62.5 53.4049 62.6271 52.986 62.8652 52.6297C63.1032 52.2734 63.4416 51.9957 63.8375 51.8317C64.2334 51.6677 64.6691 51.6248 65.0894 51.7084C65.5097 51.792 65.8957 51.9983 66.1987 52.3013C66.5017 52.6044 66.7081 52.9904 66.7917 53.4107C66.8753 53.831 66.8324 54.2667 66.6684 54.6626C66.5044 55.0585 66.2267 55.3969 65.8704 55.6349C65.5141 55.873 65.0952 56.0001 64.6667 56.0001C64.092 56.0001 63.5409 55.7718 63.1346 55.3655C62.7283 54.9591 62.5 54.408 62.5 53.8334Z" fill="#4C3D8F"/>
</g>
<defs>
<clipPath id="clip0_373_1830">
<rect width="52" height="52" fill="white" transform="translate(43 43)"/>
</clipPath>
</defs>
</svg>
